<svg xmlns="http://www.w3.org/2000/svg" width="30.769" height="25" viewBox="0 0 30.769 25">
  <defs>
    <style>
      .cls-1 {
        fill: #1da1f3;
      }
    </style>
  </defs>
  <path id="_x30_4.Twitter" class="cls-1" d="M40.769,20.46a13.152,13.152,0,0,1-3.635,1,6.273,6.273,0,0,0,2.775-3.487,12.606,12.606,0,0,1-4,1.527A6.308,6.308,0,0,0,25,23.81a6.5,6.5,0,0,0,.146,1.438,17.855,17.855,0,0,1-13-6.6,6.317,6.317,0,0,0,1.938,8.431,6.23,6.23,0,0,1-2.85-.777,6.359,6.359,0,0,0,5.054,6.267,6.261,6.261,0,0,1-2.848.1,6.368,6.368,0,0,0,5.894,4.394A12.649,12.649,0,0,1,10,39.669,17.759,17.759,0,0,0,19.677,42.5c11.608,0,17.954-9.615,17.954-17.95,0-.279-.01-.548-.023-.815A12.584,12.584,0,0,0,40.769,20.46Z" transform="translate(-10 -17.5)"/>
</svg>
