<svg xmlns="http://www.w3.org/2000/svg" width="15.138" height="28" viewBox="0 0 15.138 28">
  <defs>
    <style>
      .cls-1 {
        fill: #3d6ad6;
      }
    </style>
  </defs>
  <g id="_x30_1._Facebook" transform="translate(-28.374 -10)">
    <path id="Icon_11_" class="cls-1" d="M32.6,25.808H29.117c-.547,0-.743-.2-.743-.748q0-2.123,0-4.245c0-.544.207-.751.747-.752H32.6c0-.1,0-2.14,0-3.081a7.682,7.682,0,0,1,.955-3.941,5.8,5.8,0,0,1,3.125-2.6A7.726,7.726,0,0,1,39.355,10q1.721,0,3.442,0c.493,0,.712.219.713.715q0,2,0,3.993c0,.5-.21.7-.715.709-.94.01-1.882,0-2.821.042a1.278,1.278,0,0,0-1.448,1.445c-.023,1.039-.009,2.079-.009,3.155h4.051c.573,0,.769.2.769.773q0,2.111,0,4.222c0,.568-.184.749-.761.75H38.506V37.2c0,.607-.191.8-.79.8H33.332c-.53,0-.736-.206-.736-.735,0-3.71,0-11.326,0-11.456Z" transform="translate(0)"/>
  </g>
</svg>
