<svg xmlns="http://www.w3.org/2000/svg" xmlns:xlink="http://www.w3.org/1999/xlink" width="727" height="597" viewBox="0 0 727 597">
  <defs>
    <style>
      .cls-1 {
        fill: #fff;
      }

      .cls-2 {
        fill: #dedede;
      }

      .cls-3 {
        clip-path: url(#clip-path);
      }

      .cls-4 {
        fill: #d5d9f3;
      }

      .cls-5, .cls-6 {
        fill: #f3f4fe;
      }

      .cls-5 {
        opacity: 0.72;
      }

      .cls-7 {
        opacity: 0.14;
      }

      .cls-8 {
        fill: #8996f1;
      }

      .cls-9 {
        fill: #9fbef0;
      }

      .cls-10 {
        fill: #ffc04d;
      }

      .cls-11 {
        fill: #f7c92b;
      }

      .cls-12 {
        fill: #f2b51d;
      }

      .cls-13 {
        fill: #f7e249;
      }

      .cls-14 {
        fill: #fc476e;
      }

      .cls-15 {
        fill: #cc2b5a;
      }

      .cls-16 {
        fill: #e3faff;
      }

      .cls-17 {
        fill: #ebedff;
      }

      .cls-18 {
        fill: #ff3144;
        font-size: 19px;
        font-family: CircularStd-Black, Circular Std Black;
        font-weight: 800;
      }

      .cls-19 {
        fill: #ebe8e8;
      }

      .cls-20 {
        clip-path: url(#clip-path-2);
      }

      .cls-21 {
        fill: #007b4d;
      }

      .cls-22 {
        fill: #e24e30;
      }

      .cls-23 {
        fill: #fcbe8e;
      }

      .cls-24, .cls-37 {
        fill: none;
        stroke-linecap: round;
        stroke-miterlimit: 10;
      }

      .cls-24 {
        stroke: #6c4820;
        stroke-width: 0.598px;
      }

      .cls-25 {
        fill: #b89383;
      }

      .cls-26 {
        fill: #eaa078;
      }

      .cls-27 {
        fill: #f6ba8b;
      }

      .cls-28 {
        fill: #f9f9f9;
      }

      .cls-29 {
        fill: #763633;
      }

      .cls-30 {
        fill: #000100;
      }

      .cls-31 {
        fill: #45324b;
      }

      .cls-32 {
        fill: #b1a6a4;
      }

      .cls-33 {
        fill: #43324a;
      }

      .cls-34 {
        fill: #4557ac;
      }

      .cls-35 {
        fill: #9e908f;
      }

      .cls-36 {
        fill: #00ac7d;
      }

      .cls-37 {
        stroke: #e24e30;
        stroke-width: 0.79px;
      }

      .cls-38, .cls-39, .cls-41 {
        fill: #233862;
      }

      .cls-38 {
        font-size: 13px;
        font-family: Poppins-Light, Poppins;
        font-weight: 300;
        opacity: 0.75;
      }

      .cls-38, .cls-39 {
        letter-spacing: 0.011em;
      }

      .cls-39 {
        font-size: 12px;
        font-family: Poppins-Regular, Poppins;
      }

      .cls-40 {
        font-family: Poppins-Bold, Poppins;
        font-weight: 700;
      }

      .cls-41 {
        font-size: 9px;
        font-family: CircularStd-Book, Circular Std Book;
        opacity: 0.54;
      }

      .cls-42 {
        filter: url(#Rectangle_21);
      }

      .cls-43 {
        filter: url(#Rectangle_130);
      }
    </style>
    <filter id="Rectangle_130" x="0" y="0" width="727" height="597" filterUnits="userSpaceOnUse">
      <feOffset dx="11" dy="6" input="SourceAlpha"/>
      <feGaussianBlur stdDeviation="49.5" result="blur"/>
      <feFlood flood-color="#7b82a7" flood-opacity="0.22"/>
      <feComposite operator="in" in2="blur"/>
      <feComposite in="SourceGraphic"/>
    </filter>
    <clipPath id="clip-path">
      <rect id="Rectangle_81" data-name="Rectangle 81" class="cls-1" width="354.066" height="292.257" transform="translate(896.02 1799)"/>
    </clipPath>
    <filter id="Rectangle_21" x="129.497" y="227.857" width="434.324" height="284.309" filterUnits="userSpaceOnUse">
      <feOffset dx="11" dy="29" input="SourceAlpha"/>
      <feGaussianBlur stdDeviation="27.5" result="blur-2"/>
      <feFlood flood-color="#6676c7" flood-opacity="0.22"/>
      <feComposite operator="in" in2="blur-2"/>
      <feComposite in="SourceGraphic"/>
    </filter>
    <clipPath id="clip-path-2">
      <ellipse id="Ellipse_18" data-name="Ellipse 18" class="cls-2" cx="37.009" cy="37.772" rx="37.009" ry="37.772" transform="translate(0 0)"/>
    </clipPath>
  </defs>
  <g id="Group_490" data-name="Group 490" transform="translate(-1090.5 -1122.5)">
    <g class="cls-43" transform="matrix(1, 0, 0, 1, 1090.5, 1122.5)">
      <rect id="Rectangle_130-2" data-name="Rectangle 130" class="cls-1" width="430" height="300" rx="30" transform="translate(137.5 142.5)"/>
    </g>
    <g id="Mask_Group_3" data-name="Mask Group 3" class="cls-3" transform="translate(381.98 -526.257)">
      <g id="Group_194" data-name="Group 194" transform="translate(909.518 1841.557)">
        <g id="Group_37" data-name="Group 37" transform="translate(78.925 0)">
          <path id="Path_329" data-name="Path 329" class="cls-4" d="M17.551,0H225.638a17.5,17.5,0,0,1,17.551,17.438V437.416a17.5,17.5,0,0,1-17.551,17.438H17.551A17.5,17.5,0,0,1,0,437.416V17.438A17.5,17.5,0,0,1,17.551,0Z" transform="translate(0 0)"/>
          <g id="Group_36" data-name="Group 36" transform="translate(11.318 10.042)">
            <path id="Path_83" data-name="Path 83" class="cls-5" d="M2768.568,195.292V579.72a23.777,23.777,0,0,1-23.7,23.71H2571.714a23.774,23.774,0,0,1-23.7-23.71V195.292a23.774,23.774,0,0,1,23.7-23.71h173.149A23.778,23.778,0,0,1,2768.568,195.292Z" transform="translate(-2548.013 -171.582)"/>
            <path id="Path_84" data-name="Path 84" class="cls-6" d="M2744.863,171.582,2573.857,603.43h-2.142a23.774,23.774,0,0,1-23.7-23.71V195.292a23.774,23.774,0,0,1,23.7-23.71Z" transform="translate(-2548.013 -171.582)"/>
          </g>
          <path id="Rectangle_20" data-name="Rectangle 20" class="cls-4" d="M11.483,0h70.21A11.483,11.483,0,0,1,93.176,11.483v0A11.483,11.483,0,0,1,81.692,22.966H11.483A11.483,11.483,0,0,1,0,11.483v0A11.483,11.483,0,0,1,11.483,0Z" transform="translate(75.008 2.821)"/>
        </g>
        <g id="Group_38" data-name="Group 38" class="cls-7" transform="translate(104.478 38.783)">
          <rect id="Rectangle_22" data-name="Rectangle 22" class="cls-8" width="136.42" height="54.883" rx="6"/>
        </g>
        <g id="Group_39" data-name="Group 39" transform="translate(118.845 321.628)">
          <rect id="Rectangle_23" data-name="Rectangle 23" class="cls-9" width="76.525" height="53.882" rx="15"/>
        </g>
        <g id="Group_40" data-name="Group 40" transform="translate(207.895 229.542)">
          <rect id="Rectangle_24" data-name="Rectangle 24" class="cls-9" width="75.152" height="134.479" rx="15"/>
        </g>
        <g id="Group_41" data-name="Group 41" transform="translate(119.94 229.542)">
          <rect id="Rectangle_25" data-name="Rectangle 25" class="cls-10" width="78.561" height="69.471" rx="15"/>
        </g>
        <path id="Path_85" data-name="Path 85" class="cls-1" d="M2404.853,489.07a35.67,35.67,0,1,1-35.67-35.669A35.492,35.492,0,0,1,2404.853,489.07Z" transform="translate(-2310.242 -331.355)"/>
        <rect id="Rectangle_26" data-name="Rectangle 26" class="cls-1" width="45.627" height="6.327" rx="3.163" transform="translate(104.479 133.419)"/>
        <g id="Group_42" data-name="Group 42" transform="translate(116.917 54.401)">
          <path id="Path_86" data-name="Path 86" class="cls-1" d="M2596.753,555.771h-41.5a2.069,2.069,0,0,1-2.063-2.062h0a2.069,2.069,0,0,1,2.063-2.062h41.5a2.068,2.068,0,0,1,2.062,2.062h0A2.068,2.068,0,0,1,2596.753,555.771Z" transform="translate(-2553.188 -551.646)"/>
          <path id="Rectangle_27" data-name="Rectangle 27" class="cls-1" d="M2.063,0H24.71a2.062,2.062,0,0,1,2.062,2.062v0A2.062,2.062,0,0,1,24.71,4.125H2.062A2.062,2.062,0,0,1,0,2.063v0A2.063,2.063,0,0,1,2.063,0Z" transform="translate(0 9.762)"/>
          <rect id="Rectangle_28" data-name="Rectangle 28" class="cls-1" width="42.118" height="4.125" rx="2.062" transform="translate(33.179 9.762)"/>
          <path id="Path_87" data-name="Path 87" class="cls-1" d="M2751.644,555.771h-54.418a2.069,2.069,0,0,1-2.063-2.062h0a2.069,2.069,0,0,1,2.063-2.062h54.418a2.069,2.069,0,0,1,2.062,2.062h0A2.069,2.069,0,0,1,2751.644,555.771Z" transform="translate(-2642.679 -551.646)"/>
          <path id="Path_88" data-name="Path 88" class="cls-1" d="M2596.753,608.585h-41.5a2.069,2.069,0,0,1-2.063-2.062h0a2.068,2.068,0,0,1,2.063-2.062h41.5a2.068,2.068,0,0,1,2.062,2.062h0A2.068,2.068,0,0,1,2596.753,608.585Z" transform="translate(-2553.188 -584.936)"/>
          <path id="Path_89" data-name="Path 89" class="cls-1" d="M2751.644,608.585h-54.418a2.069,2.069,0,0,1-2.063-2.062h0a2.068,2.068,0,0,1,2.063-2.062h54.418a2.068,2.068,0,0,1,2.062,2.062h0A2.068,2.068,0,0,1,2751.644,608.585Z" transform="translate(-2642.679 -584.936)"/>
        </g>
        <path id="Rectangle_29" data-name="Rectangle 29" class="cls-1" d="M3.163,0h27.15a3.163,3.163,0,0,1,3.163,3.163v0a3.163,3.163,0,0,1-3.163,3.163H3.163A3.163,3.163,0,0,1,0,3.164v0A3.163,3.163,0,0,1,3.163,0Z" transform="translate(155.757 133.419)"/>
        <g id="Group_46" data-name="Group 46" transform="translate(112.47 18.021)">
          <path id="Path_90" data-name="Path 90" class="cls-8" d="M2619.945,227.657l-1.79,1.285-1.8-1.271a2.2,2.2,0,0,1,3.589-.014Z" transform="translate(-2608.939 -217.655)"/>
          <g id="Group_43" data-name="Group 43" transform="translate(4.861 5.952)">
            <path id="Path_91" data-name="Path 91" class="cls-8" d="M2612.247,216.368a5.32,5.32,0,0,0-4.354,2.265l1.136.8a3.937,3.937,0,0,1,6.42-.024l1.132-.812A5.327,5.327,0,0,0,2612.247,216.368Z" transform="translate(-2607.893 -216.368)"/>
          </g>
          <g id="Group_44" data-name="Group 44">
            <path id="Path_92" data-name="Path 92" class="cls-8" d="M2601.009,196.658a11.256,11.256,0,0,0-9.216,4.789l1.138.8a9.878,9.878,0,0,1,16.115-.06l1.127-.812A11.254,11.254,0,0,0,2601.009,196.658Z" transform="translate(-2591.793 -196.658)"/>
          </g>
          <g id="Group_45" data-name="Group 45" transform="translate(2.645 3.258)">
            <path id="Path_93" data-name="Path 93" class="cls-8" d="M2607.123,207.448a8.054,8.054,0,0,0-6.571,3.394l1.135.8a6.68,6.68,0,0,1,10.843-.042l1.127-.806A8.046,8.046,0,0,0,2607.123,207.448Z" transform="translate(-2600.552 -207.448)"/>
          </g>
        </g>
        <g id="Group_55" data-name="Group 55" transform="translate(215.505 126.576)">
          <g id="Group_53" data-name="Group 53" transform="translate(0 12.515)">
            <g id="Group_49" data-name="Group 49" transform="translate(34.068)">
              <g id="Group_47" data-name="Group 47" transform="translate(2.194)">
                <path id="Path_94" data-name="Path 94" class="cls-1" d="M2949.013,472.989a.706.706,0,0,1-.672-.426.7.7,0,0,1,.161-.761c.219-.211.447-.415.648-.641a5.495,5.495,0,0,0,1.353-3.968,5.477,5.477,0,0,0-1.806-3.747,2.671,2.671,0,0,1-.255-.245.685.685,0,0,1,.982-.947,6.865,6.865,0,0,1,2.163,3.28,6.751,6.751,0,0,1,.288,2.354,6.891,6.891,0,0,1-2.469,4.949A.655.655,0,0,1,2949.013,472.989Z" transform="translate(-2948.17 -461.967)"/>
                <path id="Path_95" data-name="Path 95" class="cls-1" d="M2948.906,473h0a.829.829,0,0,1-.784-.5.819.819,0,0,1,.19-.891l.171-.163c.159-.152.325-.308.472-.472a5.379,5.379,0,0,0,1.32-3.878,5.382,5.382,0,0,0-1.767-3.667l-.072-.065a1.578,1.578,0,0,1-.195-.192.806.806,0,0,1,1.155-1.116,7.015,7.015,0,0,1,2.2,3.336,7.017,7.017,0,0,1-2.22,7.431.771.771,0,0,1-.466.181Zm-.038-10.9a.564.564,0,0,0-.441.915,1.432,1.432,0,0,0,.168.165c.026.023.052.045.077.068a5.626,5.626,0,0,1,1.844,3.827,5.621,5.621,0,0,1-1.382,4.057c-.154.172-.322.332-.484.486l-.17.162a.571.571,0,0,0-.133.629.581.581,0,0,0,.559.35.538.538,0,0,0,.314-.125,6.792,6.792,0,0,0,2.145-7.174,6.786,6.786,0,0,0-2.127-3.223A.565.565,0,0,0,2948.868,462.1Z" transform="translate(-2948.062 -461.857)"/>
              </g>
              <g id="Group_48" data-name="Group 48" transform="translate(0 1.255)">
                <path id="Path_96" data-name="Path 96" class="cls-1" d="M2944.675,472.865a.541.541,0,0,1-.516-.328.534.534,0,0,1,.124-.585c.167-.162.344-.319.5-.493a4.231,4.231,0,0,0,1.041-3.054,4.223,4.223,0,0,0-1.39-2.884,2.12,2.12,0,0,1-.2-.189.528.528,0,0,1,.758-.729,5.3,5.3,0,0,1,1.664,2.525,5.17,5.17,0,0,1,.221,1.811,5.27,5.27,0,0,1-.814,2.57,5.213,5.213,0,0,1-1.087,1.24A.5.5,0,0,1,2944.675,472.865Z" transform="translate(-2943.998 -464.353)"/>
                <path id="Path_97" data-name="Path 97" class="cls-1" d="M2944.569,472.877h0a.666.666,0,0,1-.63-.4.656.656,0,0,1,.153-.716l.13-.125c.123-.116.251-.237.364-.362a4.1,4.1,0,0,0,1.009-2.965,4.12,4.12,0,0,0-1.351-2.805l-.055-.049a1.526,1.526,0,0,1-.153-.151.649.649,0,0,1,.93-.9,5.433,5.433,0,0,1,1.7,2.581,5.43,5.43,0,0,1-1.718,5.75.617.617,0,0,1-.376.145Zm-.031-8.391a.406.406,0,0,0-.317.659,1.086,1.086,0,0,0,.126.124l.059.053a4.343,4.343,0,0,1,1.428,2.964,4.331,4.331,0,0,1-1.07,3.143c-.118.134-.248.257-.375.377l-.129.123a.409.409,0,0,0-.1.453.421.421,0,0,0,.4.252.385.385,0,0,0,.224-.089,5.128,5.128,0,0,0,1.062-1.211,5.19,5.19,0,0,0,.8-2.511,5.115,5.115,0,0,0-.217-1.77,5.19,5.19,0,0,0-1.626-2.467A.412.412,0,0,0,2944.538,464.486Z" transform="translate(-2943.89 -464.243)"/>
              </g>
            </g>
            <g id="Group_52" data-name="Group 52" transform="translate(0 0)">
              <g id="Group_50" data-name="Group 50">
                <path id="Path_98" data-name="Path 98" class="cls-1" d="M2882.217,472.989a.707.707,0,0,0,.673-.426.7.7,0,0,0-.161-.761c-.22-.211-.447-.415-.648-.641a5.489,5.489,0,0,1-1.351-3.968,5.479,5.479,0,0,1,1.805-3.747,2.6,2.6,0,0,0,.256-.245.686.686,0,0,0-.983-.947,6.911,6.911,0,0,0-1.393,8.972,6.783,6.783,0,0,0,1.412,1.611A.656.656,0,0,0,2882.217,472.989Z" transform="translate(-2879.225 -461.967)"/>
                <path id="Path_99" data-name="Path 99" class="cls-1" d="M2882.107,473h0a.772.772,0,0,1-.467-.181,6.931,6.931,0,0,1-1.437-1.639,7,7,0,0,1-1.076-3.4,6.922,6.922,0,0,1,.292-2.4,7.028,7.028,0,0,1,2.2-3.336.806.806,0,0,1,1.155,1.116,1.6,1.6,0,0,1-.195.193l-.071.065a5.381,5.381,0,0,0-1.769,3.667,5.369,5.369,0,0,0,1.321,3.878c.147.165.313.321.471.472l.172.163a.819.819,0,0,1,.189.892.828.828,0,0,1-.783.5Zm.04-10.9a.571.571,0,0,0-.371.137,6.788,6.788,0,0,0-2.124,3.223,6.662,6.662,0,0,0-.282,2.312,6.768,6.768,0,0,0,1.038,3.281,6.685,6.685,0,0,0,1.388,1.582.533.533,0,0,0,.314.124.582.582,0,0,0,.558-.35.567.567,0,0,0-.134-.628l-.168-.162c-.164-.154-.332-.314-.485-.486a5.618,5.618,0,0,1-1.382-4.057,5.627,5.627,0,0,1,1.843-3.827l.078-.068a1.577,1.577,0,0,0,.167-.165.564.564,0,0,0-.44-.915Z" transform="translate(-2879.117 -461.858)"/>
              </g>
              <g id="Group_51" data-name="Group 51" transform="translate(3.021 1.255)">
                <path id="Path_100" data-name="Path 100" class="cls-1" d="M2887.3,472.865a.542.542,0,0,0,.516-.328.535.535,0,0,0-.124-.585c-.169-.162-.344-.319-.5-.493a4.229,4.229,0,0,1-1.04-3.054,4.214,4.214,0,0,1,1.39-2.884,2.188,2.188,0,0,0,.2-.189.528.528,0,0,0-.757-.729,5.3,5.3,0,0,0-1.665,2.525,5.2,5.2,0,0,0-.221,1.811,5.272,5.272,0,0,0,.814,2.57,5.2,5.2,0,0,0,1.088,1.24A.492.492,0,0,0,2887.3,472.865Z" transform="translate(-2884.969 -464.353)"/>
                <path id="Path_101" data-name="Path 101" class="cls-1" d="M2887.191,472.877h0a.616.616,0,0,1-.375-.145,5.441,5.441,0,0,1-1.719-5.75,5.434,5.434,0,0,1,1.7-2.581.648.648,0,0,1,.928.9,1.242,1.242,0,0,1-.153.151l-.055.049a4.116,4.116,0,0,0-1.351,2.8,4.1,4.1,0,0,0,1.01,2.964c.111.126.238.246.359.362l.133.126a.659.659,0,0,1,.153.717.666.666,0,0,1-.628.4Zm.03-8.391a.409.409,0,0,0-.267.1,5.193,5.193,0,0,0-1.627,2.467,5.085,5.085,0,0,0-.216,1.77,5.173,5.173,0,0,0,.8,2.512,5.118,5.118,0,0,0,1.062,1.211.385.385,0,0,0,.225.089.42.42,0,0,0,.4-.252.413.413,0,0,0-.1-.454l-.13-.124c-.125-.119-.256-.243-.375-.376a4.245,4.245,0,0,1-.891-1.6,4.2,4.2,0,0,1-.178-1.542,4.352,4.352,0,0,1,1.428-2.964l.059-.053a.949.949,0,0,0,.125-.124.4.4,0,0,0-.034-.545A.409.409,0,0,0,2887.221,464.486Z" transform="translate(-2884.861 -464.244)"/>
              </g>
            </g>
          </g>
          <path id="Path_102" data-name="Path 102" class="cls-1" d="M2913.409,442.075s-.35-3.856,1.578-4a2.6,2.6,0,0,1,2.36.739l.729,1.265,1.76,3.371Z" transform="translate(-2895.361 -438.063)"/>
          <g id="Group_54" data-name="Group 54" transform="translate(2.91 1.097)">
            <path id="Path_103" data-name="Path 103" class="cls-1" d="M2913.837,513.959a6.018,6.018,0,0,0,5.954-6.081l-11.994.084A6.019,6.019,0,0,0,2913.837,513.959Z" transform="translate(-2895.623 -472.255)"/>
            <path id="Path_104" data-name="Path 104" class="cls-1" d="M2919.633,470.915c-1.47-.572-4.984-2.941-5.163-4.362-.279-2.209-.366-4.464-.548-6.684q-.2-2.47-.431-4.938a27.29,27.29,0,0,0-.678-5.121c-.714-2.37-3.756-4.313-5.717-5.068a12.726,12.726,0,0,0-1.76-.533l-.009-1.291a2.788,2.788,0,0,0-2.79-2.77h0a2.788,2.788,0,0,0-2.751,2.809l.009,1.291a12.826,12.826,0,0,0-1.753.557c-1.949.783-4.964,2.769-5.644,5.149a27.371,27.371,0,0,0-.606,5.13c-.134,1.647-.25,3.3-.362,4.943-.151,2.223-.206,4.479-.453,6.691-.16,1.424-3.764,4.349-5.226,4.942a1.6,1.6,0,0,0-.226,2.949c1.077.707,8.394,1.208,17.26,1.146s16.176-.666,17.244-1.388C2921.3,473.7,2920.994,471.444,2919.633,470.915Z" transform="translate(-2884.649 -440.148)"/>
          </g>
        </g>
        <g id="notification_1_" data-name="notification (1)" transform="translate(266.589 35.11)">
          <path id="Path_320" data-name="Path 320" class="cls-11" d="M142.841,395.078a2.825,2.825,0,1,0-2.825,2.82A2.822,2.822,0,0,0,142.841,395.078Zm0,0" transform="translate(-130.753 -373.782)"/>
          <path id="Path_321" data-name="Path 321" class="cls-12" d="M180.551,392.258a2.827,2.827,0,0,0-.821.121,2.819,2.819,0,0,1,0,5.4,2.821,2.821,0,1,0,.821-5.519Zm0,0" transform="translate(-171.288 -373.782)"/>
          <path id="Path_322" data-name="Path 322" class="cls-11" d="M163.591,35.68a1.673,1.673,0,1,1,1.312-1.969A1.675,1.675,0,0,1,163.591,35.68Zm0,0" transform="translate(-153.997 -30.843)"/>
          <path id="Path_323" data-name="Path 323" class="cls-12" d="M187.178,33.711a1.675,1.675,0,0,0-1.973-1.31,1.712,1.712,0,0,0-.245.068,1.672,1.672,0,0,1,0,3.143,1.675,1.675,0,0,0,2.217-1.9Zm0,0" transform="translate(-176.272 -30.843)"/>
          <path id="Path_324" data-name="Path 324" class="cls-13" d="M16.759,106.857H2.766a2.271,2.271,0,0,1-1.414-4.044l.449-.362a4.407,4.407,0,0,0,1.644-3.433V96.639a6.364,6.364,0,0,1,12.729,0v2.422a4.407,4.407,0,0,0,1.589,3.387l.438.364a2.287,2.287,0,0,1,.824,1.758v.023a2.265,2.265,0,0,1-2.267,2.263Zm0,0" transform="translate(-0.499 -86.033)"/>
          <path id="Path_325" data-name="Path 325" class="cls-11" d="M170.3,102.81l-.438-.364a4.408,4.408,0,0,1-1.589-3.388V96.636a6.369,6.369,0,0,0-8.158-6.1,6.358,6.358,0,0,1,4.571,6.1v2.422a4.408,4.408,0,0,0,1.589,3.388l.438.364a2.288,2.288,0,0,1,.824,1.758v.023a2.265,2.265,0,0,1-2.267,2.263h3.586a2.265,2.265,0,0,0,2.267-2.263v-.023a2.287,2.287,0,0,0-.824-1.758Zm0,0" transform="translate(-152.595 -86.029)"/>
          <path id="Path_326" data-name="Path 326" class="cls-14" d="M219.069,5.453a5.462,5.462,0,1,0-5.462,5.453A5.458,5.458,0,0,0,219.069,5.453Zm0,0" transform="translate(-198.363)"/>
          <path id="Path_327" data-name="Path 327" class="cls-15" d="M261.641,4.222a5.457,5.457,0,0,1-4.626,9.7,5.457,5.457,0,1,0,4.626-9.7Zm0,0" transform="translate(-244.932 -4.023)"/>
          <path id="Path_328" data-name="Path 328" class="cls-16" d="M300.607,62.717a.381.381,0,0,1-.381-.381V58.664l-.142.13a.381.381,0,1,1-.514-.563l.78-.711a.381.381,0,0,1,.638.281v4.534A.381.381,0,0,1,300.607,62.717Zm0,0" transform="translate(-285.364 -54.717)"/>
        </g>
        <g id="Group_196" data-name="Group 196" transform="translate(0 88.557)">
          <g class="cls-42" transform="matrix(1, 0, 0, 1, -201, -281.36)">
            <rect id="Rectangle_21-2" data-name="Rectangle 21" class="cls-1" width="269.324" height="119.309" rx="12" transform="translate(201 281.36)"/>
          </g>
          <rect id="Rectangle_191" data-name="Rectangle 191" class="cls-17" width="136" height="31" rx="7" transform="translate(115.503 47.143)"/>
          <text id="Fall_Detected" data-name="Fall Detected" class="cls-18" transform="translate(122.145 68.63)"><tspan x="0" y="0">Fall Detected</tspan></text>
          <g id="Group_193" data-name="Group 193" transform="translate(15.503 10.633)">
            <ellipse id="Ellipse_19" data-name="Ellipse 19" class="cls-19" cx="35.483" cy="35.864" rx="35.483" ry="35.864" transform="translate(1.526 3.815)"/>
            <g id="Mask_Group_2" data-name="Mask Group 2" class="cls-20" transform="translate(0 0)">
              <g id="Group_192" data-name="Group 192" transform="translate(-18.595 9.111)">
                <path id="Path_267" data-name="Path 267" class="cls-21" d="M900.258,246.741q.733.631,1.482,1.376a46.8,46.8,0,0,1,8.773,13.133s2.145-6.883,6.143-11.562c2.92.847,6.435,1.675,9.168,3.209.189,4.237-2.688,18.661-7.591,24.888-6.659,8.455-16.6,5.48-20.433,1.311" transform="translate(-831.444 -194.143)"/>
                <path id="Path_268" data-name="Path 268" class="cls-22" d="M945.454,252.359l-.458,4.89-11.307-3.209s1.528-4.126,2.6-5.042Z" transform="translate(-850.845 -195.363)"/>
                <path id="Path_269" data-name="Path 269" class="cls-23" d="M885.456,312.665l-2.017-8.539C883.79,305.969,884.289,308.511,885.456,312.665Z" transform="translate(-823.681 -225.164)"/>
                <path id="Path_270" data-name="Path 270" class="cls-23" d="M753.6,221.49c1.022-.556,3.175,3.969,3.175,3.969s-2.192-5.653-1.167-6.122,3.055,5.507,3.055,5.507-1.6-6.078-.662-6.577c1.622-.783,2.742,6.5,2.742,6.5s-.206-5.953,1.088-6.171,1.4,7.5,1.4,7.5,1.006-3.332,2.088-2.155-1.928,8.722-1.928,8.722l7.7,12.386a146.486,146.486,0,0,0,8.513-11.969c7.678-9.692,16.035-6.477,16.035-6.477a26.524,26.524,0,0,0,2.685,2.406c-3.282,5.844-6.745,10.285-9.425,16.53l-2.46-1.879c-2.154,4.589-10.8,21.542-19.222,17.395-9.713-4.784-10.733-28.91-10.733-28.91C755.179,229.858,752.576,222.046,753.6,221.49Z" transform="translate(-753.366 -178.719)"/>
                <path id="Path_271" data-name="Path 271" class="cls-24" d="M766.229,234.244s-4.452-.95-5.99,2.053" transform="translate(-757.081 -187.31)"/>
                <path id="Path_273" data-name="Path 273" class="cls-25" d="M852.8,236.757s-4.652-.638-9.825-.9a88.672,88.672,0,0,0-11.966.61s4.958,10.8,12.853,8.479S852.8,236.757,852.8,236.757Z" transform="translate(-795.339 -188.236)"/>
                <g id="Group_176" data-name="Group 176" transform="translate(24.145 0)">
                  <path id="Path_274" data-name="Path 274" class="cls-26" d="M844.043,218.806l.3,3.527a24.259,24.259,0,0,0,11.161.306l.066-5.046Z" transform="translate(-826.53 -178.387)"/>
                  <path id="Path_275" data-name="Path 275" class="cls-26" d="M854.77,232.13l.04-2.34a41.789,41.789,0,0,1-14.694-.306l.263,2.387A35.2,35.2,0,0,0,854.77,232.13Z" transform="translate(-824.407 -184.814)"/>
                  <path id="Path_276" data-name="Path 276" class="cls-27" d="M840.689,234.679l.328,2.972s.94,10.307,6.707,10.307c6.464,0,7.309-10.307,7.309-10.307l.046-2.712A35.2,35.2,0,0,1,840.689,234.679Z" transform="translate(-824.716 -187.623)"/>
                  <path id="Path_277" data-name="Path 277" class="cls-27" d="M849.088,142.847c1.344,3.823,1.927,6.076,1.287,14.852-.592,8.12-6.5,16.111-16.44,16.756-9.343.606-19.7-3.027-21.961-16.259-1.9-11.151,1.213-22.231,13.1-25.143S846.536,135.59,849.088,142.847Z" transform="translate(-808.913 -132.253)"/>
                  <path id="Path_278" data-name="Path 278" class="cls-28" d="M811.291,174.562a5.349,5.349,0,0,0,2.063-6.13,1.713,1.713,0,0,0,2.131.8,2.8,2.8,0,0,0,1.59-1.833,8.288,8.288,0,0,0,.265-2.489,7.5,7.5,0,0,0-.235-2.333,2.538,2.538,0,0,0-1.511-1.692c-1.315-.43-4.1-.677-4.985.384-1.675,2-1.6,5.693-1.791,8.294s1.121,5.436,3.549,6.388" transform="translate(-807.478 -147.534)"/>
                  <path id="Path_279" data-name="Path 279" class="cls-28" d="M889.3,174.882a5.349,5.349,0,0,1-2.063-6.13,1.713,1.713,0,0,1-2.131.8,2.8,2.8,0,0,1-1.59-1.833,8.285,8.285,0,0,1-.265-2.489,7.51,7.51,0,0,1,.234-2.333A2.539,2.539,0,0,1,885,161.208c1.315-.43,2.616.651,3.5,1.712,1.675,2,2.136,4.79,2.325,7.391s-.175,5.011-2.6,5.963" transform="translate(-847.725 -147.853)"/>
                  <g id="Group_163" data-name="Group 163" transform="translate(34.412 23.169)">
                    <path id="Path_280" data-name="Path 280" class="cls-27" d="M880.838,190.766c-.2-1.978,2.184-7.644,2.184-7.644s7.007-2.548,7.371,4.641S881.353,195.869,880.838,190.766Z" transform="translate(-880.826 -182.684)"/>
                    <g id="Group_161" data-name="Group 161" transform="translate(1.816 2.259)">
                      <path id="Path_281" data-name="Path 281" class="cls-29" d="M885.432,193.841a.147.147,0,0,0,.06-.013.144.144,0,0,0,.071-.191c-.016-.035-1.552-3.491.859-5.1a3.192,3.192,0,0,1,2.485-.589,3.977,3.977,0,0,1,2.227,1.636.144.144,0,1,0,.245-.152,4.2,4.2,0,0,0-2.408-1.766,3.467,3.467,0,0,0-2.709.63c-2.616,1.743-.978,5.42-.961,5.457A.145.145,0,0,0,885.432,193.841Z" transform="translate(-884.779 -187.601)"/>
                    </g>
                    <g id="Group_162" data-name="Group 162" transform="translate(1.826 4.63)">
                      <path id="Path_282" data-name="Path 282" class="cls-29" d="M888.993,193.812a.144.144,0,0,0,.086-.26c-.024-.018-2.441-1.783-4.235.014a.144.144,0,0,0,.2.2c1.619-1.621,3.837,0,3.859.014A.143.143,0,0,0,888.993,193.812Z" transform="translate(-884.802 -192.761)"/>
                    </g>
                  </g>
                  <path id="Path_283" data-name="Path 283" class="cls-28" d="M816.063,182.391s-2.028,23.616,18.838,23.616c21.7,0,15.548-24.87,15.548-24.87s-.379,1.419-5.443,7.031c-2.724,3.02-5.85,0-9.386.195s-5.082.877-9,.974S821.63,182.293,816.063,182.391Z" transform="translate(-811.375 -158.678)"/>
                  <g id="Group_164" data-name="Group 164" transform="translate(23.297 32.522)">
                    <path id="Path_284" data-name="Path 284" class="cls-29" d="M859.092,205.053a2.279,2.279,0,0,1-2.459-1.85.143.143,0,0,1,.124-.16.145.145,0,0,1,.161.124c.01.074.264,1.8,2.573,1.577a.149.149,0,0,1,.158.13.145.145,0,0,1-.13.158C859.369,205.046,859.227,205.053,859.092,205.053Z" transform="translate(-856.632 -203.042)"/>
                  </g>
                  <path id="Path_285" data-name="Path 285" class="cls-28" d="M832.886,173.99s-1.433-1.274,1.6-2.867,4.095-1.242,4.586-.446c.448.726-.246,1.816-1.965,2.675C835.04,174.385,833.664,174.722,832.886,173.99Z" transform="translate(-820.315 -152.661)"/>
                  <path id="Path_286" data-name="Path 286" class="cls-30" d="M844.7,186.592a1.485,1.485,0,1,1-1.456-1.775A1.639,1.639,0,0,1,844.7,186.592Z" transform="translate(-825.31 -160.668)"/>
                  <path id="Path_287" data-name="Path 287" class="cls-28" d="M879.728,173.99s1.434-1.274-1.6-2.867-4.1-1.242-4.586-.446c-.448.726.245,1.816,1.966,2.675C877.575,174.385,878.95,174.722,879.728,173.99Z" transform="translate(-842.406 -152.661)"/>
                  <path id="Path_288" data-name="Path 288" class="cls-30" d="M873.013,187.7a1.485,1.485,0,1,0,1.456-1.775A1.639,1.639,0,0,0,873.013,187.7Z" transform="translate(-842.19 -161.268)"/>
                  <g id="Group_167" data-name="Group 167" transform="translate(0.367 24.704)">
                    <path id="Path_289" data-name="Path 289" class="cls-27" d="M816.287,194.107c.2-1.978-2.184-7.644-2.184-7.644s-7.007-2.548-7.371,4.641S815.772,199.21,816.287,194.107Z" transform="translate(-806.721 -186.025)"/>
                    <g id="Group_165" data-name="Group 165" transform="translate(1.14 2.259)">
                      <path id="Path_290" data-name="Path 290" class="cls-29" d="M815.172,197.182a.144.144,0,0,1-.131-.2c.016-.035,1.553-3.491-.859-5.1a3.191,3.191,0,0,0-2.485-.589,3.974,3.974,0,0,0-2.226,1.636.144.144,0,0,1-.245-.152,4.2,4.2,0,0,1,2.408-1.766,3.466,3.466,0,0,1,2.708.63c2.616,1.744.978,5.42.961,5.457A.145.145,0,0,1,815.172,197.182Z" transform="translate(-809.203 -190.942)"/>
                    </g>
                    <g id="Group_166" data-name="Group 166" transform="translate(3.415 4.63)">
                      <path id="Path_291" data-name="Path 291" class="cls-29" d="M814.3,197.153a.144.144,0,0,1-.086-.26c.024-.018,2.441-1.783,4.235.014a.144.144,0,0,1-.2.2c-1.619-1.621-3.837,0-3.859.014A.143.143,0,0,1,814.3,197.153Z" transform="translate(-814.155 -196.102)"/>
                    </g>
                  </g>
                  <g id="Group_168" data-name="Group 168" transform="translate(23.01 14.938)">
                    <path id="Path_292" data-name="Path 292" class="cls-29" d="M859.243,179.576a.144.144,0,0,1-.06-.275,3.891,3.891,0,0,0,1.675-1.571,2.454,2.454,0,0,0-.261-2.553,1.015,1.015,0,0,0-1.269-.077l-.075.043c-1.773,1.03-2.573.567-2.932,0-.659-1.046-.089-9.3-.022-10.24a.146.146,0,0,1,.154-.133.144.144,0,0,1,.133.154c-.181,2.523-.536,9.249-.022,10.066.424.673,1.279.642,2.544-.093.039-.022.068-.04.087-.049a1.3,1.3,0,0,1,1.6.126,2.731,2.731,0,0,1,.318,2.887,4.118,4.118,0,0,1-1.815,1.705A.142.142,0,0,1,859.243,179.576Z" transform="translate(-856.006 -164.767)"/>
                  </g>
                  <g id="Group_173" data-name="Group 173" transform="translate(0 18.785)">
                    <g id="Group_169" data-name="Group 169" transform="translate(9.992)">
                      <path id="Path_293" data-name="Path 293" class="cls-31" d="M834.225,186.594a6.728,6.728,0,1,1,6.9-6.55A6.735,6.735,0,0,1,834.225,186.594Zm.34-13.093a6.37,6.37,0,1,0,6.2,6.533A6.378,6.378,0,0,0,834.565,173.5Z" transform="translate(-827.672 -173.141)"/>
                    </g>
                    <g id="Group_170" data-name="Group 170" transform="translate(28.379 0.478)">
                      <path id="Path_294" data-name="Path 294" class="cls-31" d="M874.246,187.634a6.728,6.728,0,1,1,6.9-6.55A6.735,6.735,0,0,1,874.246,187.634Zm.34-13.093a6.37,6.37,0,1,0,6.2,6.533A6.378,6.378,0,0,0,874.586,174.541Z" transform="translate(-867.693 -174.181)"/>
                    </g>
                    <g id="Group_171" data-name="Group 171" transform="translate(23.045 5.16)">
                      <path id="Path_295" data-name="Path 295" class="cls-31" d="M861.617,185.49a.184.184,0,0,1-.09-.027,5.479,5.479,0,0,0-5.179-.135.179.179,0,1,1-.172-.313,5.866,5.866,0,0,1,5.541.144.179.179,0,0,1-.1.331Z" transform="translate(-856.083 -184.373)"/>
                    </g>
                    <g id="Group_172" data-name="Group 172" transform="translate(0 6.194)">
                      <path id="Path_296" data-name="Path 296" class="cls-31" d="M806.1,189.068h-.006a.179.179,0,0,1-.168-.19,2.835,2.835,0,0,1,1.878-2.245.181.181,0,0,1,.064-.01l8.236.185a.179.179,0,0,1-.01.357l-8.2-.184a2.484,2.484,0,0,0-1.612,1.919A.179.179,0,0,1,806.1,189.068Z" transform="translate(-805.922 -186.623)"/>
                    </g>
                  </g>
                  <g id="Group_174" data-name="Group 174" transform="translate(15.354 10.236)">
                    <path id="Path_297" data-name="Path 297" class="cls-26" d="M858.426,155.925l-.022,0a41.127,41.127,0,0,0-18.95-.2.091.091,0,1,1-.04-.177,41.3,41.3,0,0,1,19.034.2.091.091,0,0,1-.022.179Z" transform="translate(-839.343 -154.534)"/>
                  </g>
                  <g id="Group_175" data-name="Group 175" transform="translate(17.063 5.554)">
                    <path id="Path_298" data-name="Path 298" class="cls-26" d="M858.726,146.39a.085.085,0,0,1-.035-.007,24.642,24.642,0,0,0-15.516-1.087.091.091,0,1,1-.046-.175,24.825,24.825,0,0,1,15.631,1.1.09.09,0,0,1-.034.174Z" transform="translate(-843.062 -144.342)"/>
                  </g>
                </g>
                <g id="Group_191" data-name="Group 191" transform="translate(16.102 88.879)">
                  <g id="Group_184" data-name="Group 184" transform="translate(0.163)">
                    <path id="Path_299" data-name="Path 299" class="cls-32" d="M868.662,459.433h0c-.933-2.208-1.829-18.186-1.829-18.186,7.708,2.288,15.344-.342,15.344-.342l.171,13a58.25,58.25,0,0,1,6.883,2.445c4.257,2.4,4.339,4.755,4.339,4.755s-2.246,1.341-8.468,1.034c-11.812-.582-16.44-2.71-16.44-2.71Z" transform="translate(-830.969 -387.983)"/>
                    <path id="Path_300" data-name="Path 300" class="cls-32" d="M813.677,459.165h0c.932-2.208,2.006-18.216,2.006-18.216-7.708,2.288-16.451-.541-16.451-.541l-.074,13.13s-4.54,1.7-6.05,2.548c-4.257,2.4-4.338,4.755-4.338,4.755s2.246,1.341,8.468,1.034c11.812-.582,16.44-2.71,16.44-2.71Z" transform="translate(-788.769 -387.715)"/>
                    <path id="Path_301" data-name="Path 301" class="cls-33" d="M826.407,391.982l6.333-47.658,4.9,47.829,14.545-.4.416-65.67-41.273-.371c-.491,19.711-.453,50.55-.269,65.812Z" transform="translate(-800.752 -325.713)"/>
                    <g id="Group_177" data-name="Group 177" transform="translate(11.787 6.017)">
                      <path id="Path_302" data-name="Path 302" class="cls-34" d="M814.7,398.111l.8-59.156a.143.143,0,0,0-.136-.146h0a.145.145,0,0,0-.132.155l-.8,59.146Z" transform="translate(-814.426 -338.809)"/>
                    </g>
                    <g id="Group_178" data-name="Group 178" transform="translate(34.805 18.667)">
                      <path id="Path_303" data-name="Path 303" class="cls-34" d="M868.78,413.452,864.8,366.489a.143.143,0,0,0-.141-.145.145.145,0,0,0-.131.156l3.981,46.951Z" transform="translate(-864.527 -366.344)"/>
                    </g>
                    <g id="Group_179" data-name="Group 179" transform="translate(24.004 17.334)">
                      <path id="Path_304" data-name="Path 304" class="cls-34" d="M841.154,366.41a.144.144,0,0,1-.136-.142.147.147,0,0,1,.129-.159,103.489,103.489,0,0,0,15.388-2.663.139.139,0,0,1,.163.113.153.153,0,0,1-.1.181,103.933,103.933,0,0,1-15.434,2.67Z" transform="translate(-841.018 -363.443)"/>
                    </g>
                    <g id="Group_180" data-name="Group 180" transform="translate(33.077 4.449)">
                      <path id="Path_305" data-name="Path 305" class="cls-34" d="M860.9,346.868a.144.144,0,0,1-.137-.151V335.548a.137.137,0,1,1,.273,0v11.169A.144.144,0,0,1,860.9,346.868Z" transform="translate(-860.766 -335.397)"/>
                    </g>
                    <g id="Group_181" data-name="Group 181" transform="translate(13.159 4.625)">
                      <path id="Path_306" data-name="Path 306" class="cls-34" d="M822.589,335.876c-.02-.029-.054-.064-.079-.1a22.025,22.025,0,0,1-5.059,11.364.162.162,0,0,0,0,.213.127.127,0,0,0,.193,0,22.314,22.314,0,0,0,5.1-11.3A1.232,1.232,0,0,1,822.589,335.876Z" transform="translate(-817.412 -335.78)"/>
                    </g>
                    <g id="Group_182" data-name="Group 182" transform="translate(46.88 0.946)">
                      <path id="Path_307" data-name="Path 307" class="cls-34" d="M895.022,340.641a8.757,8.757,0,0,1-3.378-4.88,19.883,19.883,0,0,1-.325-7.818.149.149,0,0,0-.117-.17.14.14,0,0,0-.153.129,20.23,20.23,0,0,0,.336,7.952,9.047,9.047,0,0,0,3.531,5.067A1.284,1.284,0,0,1,895.022,340.641Z" transform="translate(-890.81 -327.771)"/>
                    </g>
                    <g id="Group_183" data-name="Group 183" transform="translate(30.392 1.998)">
                      <path id="Path_308" data-name="Path 308" class="cls-34" d="M857.744,343.413c-.076,0-1.865-.046-2.3-4.037-.426-3.868-.516-9.107-.517-9.159a.145.145,0,0,1,.134-.154h0a.144.144,0,0,1,.136.147c0,.053.091,5.276.515,9.129.408,3.7,2.018,3.773,2.035,3.773a.152.152,0,0,1,0,.3Z" transform="translate(-854.923 -330.063)"/>
                    </g>
                  </g>
                  <g id="Group_187" data-name="Group 187" transform="translate(37.692 70.5)">
                    <g id="Group_186" data-name="Group 186">
                      <g id="Group_185" data-name="Group 185">
                        <path id="Path_309" data-name="Path 309" class="cls-35" d="M870.533,479.167a16.5,16.5,0,0,0-.055,1.9s3.517,1.5,13.01,2.324c10.608.918,12.2-.29,12.2-.29a7.7,7.7,0,0,0-.163-1.3A58.973,58.973,0,0,1,870.533,479.167Z" transform="translate(-870.458 -479.167)"/>
                      </g>
                    </g>
                  </g>
                  <g id="Group_190" data-name="Group 190" transform="translate(0 70.5)">
                    <g id="Group_189" data-name="Group 189">
                      <g id="Group_188" data-name="Group 188">
                        <path id="Path_310" data-name="Path 310" class="cls-35" d="M813.574,479.167a16.5,16.5,0,0,1,.056,1.9s-3.517,1.5-13.011,2.324c-10.608.918-12.2-.29-12.2-.29a7.638,7.638,0,0,1,.163-1.3A58.973,58.973,0,0,0,813.574,479.167Z" transform="translate(-788.415 -479.167)"/>
                      </g>
                    </g>
                  </g>
                </g>
                <path id="Path_311" data-name="Path 311" class="cls-36" d="M825.912,241.711c-2.535-3.186-5.824-4.36-12.256-5.476,0,0-6.439,1.46-8.02,1.551H801.06a7.319,7.319,0,0,1-3.227-.474c.405-.947.635-1.491.635-1.491s-7.292-3.155-15.776,5.313a46.791,46.791,0,0,0-8.773,13.133s-2.145-6.883-6.144-11.562c-2.921.847-6.435,1.675-9.167,3.209-.189,4.237,2.688,18.661,7.591,24.888,6.659,8.455,10.925,5.111,14.757.943-.18,2.1-.372,4.331-.576,6.714-.344,4.011.573,6.991,2.979,7.793,1.344.448,19.868,1.4,19.988,1.277.171-.17,19.291.815,20.692-2.767.018-.045,2.407-3.209.781-9.946a15.824,15.824,0,0,1-.221-2.113" transform="translate(-756.195 -187.928)"/>
                <path id="Path_313" data-name="Path 313" class="cls-21" d="M843.463,236.269s-5.316-1.384-8.655-3.883a28.35,28.35,0,0,0-2.119,3.73c-.806,1.806,5.111,5.072,7.832,6.035C841.934,242.513,843.463,236.269,843.463,236.269Z" transform="translate(-796.206 -186.383)"/>
                <path id="Path_314" data-name="Path 314" class="cls-21" d="M855.563,236.346s5.672-1.31,8.72-3.96a42.934,42.934,0,0,1,2.044,3.845c.813,1.806-4.41,4.8-7.154,5.768C857.75,242.36,855.563,236.346,855.563,236.346Z" transform="translate(-808.612 -186.383)"/>
                <path id="Path_315" data-name="Path 315" class="cls-22" d="M758.119,250.685l.458,4.89,11.306-3.209s-1.528-4.126-2.6-5.042Z" transform="translate(-755.935 -194.458)"/>
                <path id="Path_316" data-name="Path 316" class="cls-37" d="M896.253,293.973s-4.494-13.419-5.105-19.378" transform="translate(-827.848 -209.2)"/>
                <path id="Path_317" data-name="Path 317" class="cls-37" d="M811.735,257.634a47.049,47.049,0,0,0-2.9,9.473c-1.528,6.723-.837,16.279-.837,16.279" transform="translate(-782.813 -200.032)"/>
                <path id="Path_318" data-name="Path 318" class="cls-37" d="M838.877,311.047c3.476-3.609,8.215-5.652,12.728-7.829s9.11-4.744,11.827-8.954" transform="translate(-799.591 -219.833)"/>
                <path id="Path_319" data-name="Path 319" class="cls-37" d="M840.586,324.737a96.674,96.674,0,0,0,20.907-10.661,2.637,2.637,0,0,0,1.313-1.534" transform="translate(-800.515 -229.714)"/>
              </g>
            </g>
          </g>
          <text id="Room_3_2.30AM" data-name="Room 3, 2.30AM" class="cls-38" transform="translate(122.145 34.686)"><tspan x="0" y="0">Room 3, 2.30AM</tspan></text>
          <text id="Alert_no._01" data-name="Alert no. 01" class="cls-39" transform="translate(122.145 99.045)"><tspan x="0" y="0">Alert no. </tspan><tspan class="cls-40" y="0">01</tspan></text>
          <text id="Michael_C._Smith" data-name="Michael C. Smith" class="cls-41" transform="translate(18.503 100.045)"><tspan x="0" y="0">Michael C. Smith</tspan></text>
        </g>
      </g>
    </g>
  </g>
</svg>
