<svg xmlns="http://www.w3.org/2000/svg" xmlns:xlink="http://www.w3.org/1999/xlink" width="70" height="70" viewBox="0 0 70 70">
  <defs>
    <style>
      .cls-1 {
        fill: url(#linear-gradient);
      }

      .cls-2 {
        fill: url(#linear-gradient-2);
      }
    </style>
    <linearGradient id="linear-gradient" x1="0.5" y1="1" x2="0.5" gradientUnits="objectBoundingBox">
      <stop offset="0" stop-color="#c3ffe8"/>
      <stop offset="0.997" stop-color="#f0fff4"/>
    </linearGradient>
    <linearGradient id="linear-gradient-2" x1="0.5" x2="0.5" y2="1" gradientUnits="objectBoundingBox">
      <stop offset="0" stop-color="#00b59c"/>
      <stop offset="1" stop-color="#9cffac"/>
    </linearGradient>
  </defs>
  <g id="insurance_1_" data-name="insurance (1)" transform="translate(0.408 0.408)">
    <g id="Group_385" data-name="Group 385" transform="translate(-0.408 -0.408)">
      <circle id="Ellipse_53" data-name="Ellipse 53" class="cls-1" cx="35" cy="35" r="35"/>
    </g>
    <g id="Group_387" data-name="Group 387" transform="translate(18.895 14.14)">
      <g id="Group_386" data-name="Group 386">
        <path id="Path_531" data-name="Path 531" class="cls-2" d="M155.8,119.489a6.037,6.037,0,1,0,6.037,6.037A6.044,6.044,0,0,0,155.8,119.489Zm3.269,5.683-3.622,3.622a1.207,1.207,0,0,1-1.707,0l-1.208-1.207a1.207,1.207,0,1,1,1.707-1.707l.354.354,2.769-2.769a1.207,1.207,0,0,1,1.708,1.707Zm11.221-13.6c-6.683,0-13.61-6.2-13.68-6.258a1.21,1.21,0,0,0-1.62,0c-.07.062-7,6.258-13.68,6.258a1.207,1.207,0,0,0-1.207,1.207v14.38c0,11.38,8.159,15.954,15.267,18.668a1.212,1.212,0,0,0,.861,0c7.108-2.714,15.267-7.288,15.267-18.668v-14.38A1.207,1.207,0,0,0,170.293,111.57ZM155.8,133.979a8.452,8.452,0,1,1,8.452-8.452A8.462,8.462,0,0,1,155.8,133.979Z" transform="translate(-140.106 -105.001)"/>
      </g>
    </g>
  </g>
</svg>
