<svg xmlns="http://www.w3.org/2000/svg" xmlns:xlink="http://www.w3.org/1999/xlink" width="70.046" height="70" viewBox="0 0 70.046 70">
  <defs>
    <style>
      .cls-1 {
        fill: url(#linear-gradient);
      }

      .cls-2 {
        fill: url(#linear-gradient-2);
      }
    </style>
    <linearGradient id="linear-gradient" x1="0.5" y1="1" x2="0.5" gradientUnits="objectBoundingBox">
      <stop offset="0" stop-color="#fd5900"/>
      <stop offset="1" stop-color="#ffde00"/>
    </linearGradient>
    <linearGradient id="linear-gradient-2" x1="0.5" y1="1" x2="0.5" gradientUnits="objectBoundingBox">
      <stop offset="0" stop-color="#ffe59a"/>
      <stop offset="1" stop-color="#ffffd5"/>
    </linearGradient>
  </defs>
  <g id="currency-exchange" transform="translate(0 -0.166)">
    <g id="Group_461" data-name="Group 461" transform="translate(12.45 12.588)">
      <g id="Group_460" data-name="Group 460">
        <circle id="Ellipse_83" data-name="Ellipse 83" class="cls-1" cx="22.573" cy="22.573" r="22.573"/>
      </g>
    </g>
    <g id="Group_463" data-name="Group 463" transform="translate(0 0.166)">
      <g id="Group_462" data-name="Group 462" transform="translate(0 0)">
        <path id="Path_656" data-name="Path 656" class="cls-2" d="M35.023,49.525a2.051,2.051,0,0,0,2.052-2.052v-2.43a6.141,6.141,0,0,0-2.052-11.934,2.052,2.052,0,1,1,1.643-3.28,2.052,2.052,0,0,0,3.278-2.469,6.078,6.078,0,0,0-2.87-2.069V22.848a2.052,2.052,0,1,0-4.1,0v2.43a6.141,6.141,0,0,0,2.052,11.934,2.055,2.055,0,0,1,2.052,2.052,2.125,2.125,0,0,1-3.7,1.228A2.052,2.052,0,1,0,30.1,42.962a6.078,6.078,0,0,0,2.87,2.069v2.442a2.051,2.051,0,0,0,2.052,2.052Zm-21.9-36.266A30.809,30.809,0,0,1,52.491,9.806a2.029,2.029,0,0,0-2.142,1.353,2.056,2.056,0,0,0,1.3,2.6l8.709,2.9a2.053,2.053,0,0,0,2.6-2.6l-2.9-8.707a2.053,2.053,0,0,0-3.9,1.3l.337,1.009A34.869,34.869,0,0,0,1.641,45.579a2.051,2.051,0,1,0,3.912-1.234,30.73,30.73,0,0,1,7.567-31.085ZM68.405,24.743a2.051,2.051,0,1,0-3.912,1.234A30.761,30.761,0,0,1,17.555,60.515,2.024,2.024,0,0,0,19.7,59.162a2.056,2.056,0,0,0-1.3-2.6l-8.709-2.9a2.053,2.053,0,0,0-2.6,2.6l2.9,8.707a2.053,2.053,0,0,0,3.9-1.3l-.337-1.009A34.869,34.869,0,0,0,68.405,24.743Z" transform="translate(0 -0.166)"/>
      </g>
    </g>
  </g>
</svg>
