<svg xmlns="http://www.w3.org/2000/svg" xmlns:xlink="http://www.w3.org/1999/xlink" width="1920" height="1021.25" viewBox="0 0 1920 1021.25">
  <defs>
    <clipPath id="clip-path">
      <path id="Rectangle_153" data-name="Rectangle 153" d="M0,0H1341a0,0,0,0,1,0,0V636.815a0,0,0,0,1,0,0H258a258,258,0,0,1-258-258V0A0,0,0,0,1,0,0Z" transform="translate(0)" fill="#eceefb"/>
    </clipPath>
    <clipPath id="clip-path-2">
      <rect id="Rectangle_146" data-name="Rectangle 146" width="380.219" height="373.247" fill="#fff" stroke="#707070" stroke-width="1"/>
    </clipPath>
    <clipPath id="clip-path-3">
      <rect id="Rectangle_147" data-name="Rectangle 147" width="771.21" height="361.344" fill="#fff" stroke="#707070" stroke-width="1"/>
    </clipPath>
    <clipPath id="clip-path-4">
      <rect id="Rectangle_148" data-name="Rectangle 148" width="493.316" height="266.119" fill="#fff"/>
    </clipPath>
    <clipPath id="clip-path-5">
      <rect id="Rectangle_149" data-name="Rectangle 149" width="519.166" height="221.908" fill="#fff"/>
    </clipPath>
    <clipPath id="clip-path-6">
      <rect id="Rectangle_150" data-name="Rectangle 150" width="487.93" height="216.806" fill="#fff" stroke="#707070" stroke-width="1"/>
    </clipPath>
    <clipPath id="clip-path-7">
      <rect id="Rectangle_151" data-name="Rectangle 151" width="260.66" height="241.463" fill="#fff"/>
    </clipPath>
    <clipPath id="clip-path-8">
      <path id="Rectangle_175" data-name="Rectangle 175" d="M0,0H1083a258,258,0,0,1,258,258V641.628a0,0,0,0,1,0,0H0a0,0,0,0,1,0,0V0A0,0,0,0,1,0,0Z" fill="#eceefb"/>
    </clipPath>
    <clipPath id="clip-path-9">
      <rect id="Rectangle_167" data-name="Rectangle 167" width="380.219" height="376.068" fill="#fff" stroke="#707070" stroke-width="1"/>
    </clipPath>
    <clipPath id="clip-path-10">
      <rect id="Rectangle_168" data-name="Rectangle 168" width="771.21" height="364.074" fill="#fff" stroke="#707070" stroke-width="1"/>
    </clipPath>
    <clipPath id="clip-path-11">
      <rect id="Rectangle_169" data-name="Rectangle 169" width="493.316" height="268.13" fill="#fff"/>
    </clipPath>
    <clipPath id="clip-path-12">
      <rect id="Rectangle_170" data-name="Rectangle 170" width="519.166" height="223.585" fill="#fff"/>
    </clipPath>
    <clipPath id="clip-path-13">
      <rect id="Rectangle_171" data-name="Rectangle 171" width="487.93" height="218.445" fill="#fff" stroke="#707070" stroke-width="1"/>
    </clipPath>
    <clipPath id="clip-path-14">
      <rect id="Rectangle_172" data-name="Rectangle 172" width="260.66" height="243.287" fill="#fff"/>
    </clipPath>
    <clipPath id="clip-path-15">
      <rect width="405" height="278" fill="none"/>
    </clipPath>
  </defs>
  <g id="Group_515" data-name="Group 515" transform="translate(0 -3223)">
    <g id="Mask_Group_28" data-name="Mask Group 28" transform="translate(317 3607.435)" clip-path="url(#clip-path)">
      <ellipse id="Ellipse_60" data-name="Ellipse 60" cx="155.642" cy="85.022" rx="155.642" ry="85.022" transform="translate(702.275 100.326)" fill="#ff3144" opacity="0.14"/>
      <g id="Mask_Group_22" data-name="Mask Group 22" transform="translate(960.781 255.066)" clip-path="url(#clip-path-2)">
        <ellipse id="Ellipse_61" data-name="Ellipse 61" cx="179.877" cy="122.857" rx="179.877" ry="122.857" transform="translate(151.872 65.467)" fill="#4de1b8" opacity="0.61"/>
      </g>
      <g id="Mask_Group_23" data-name="Mask Group 23" transform="translate(208.959 255.066)" clip-path="url(#clip-path-3)">
        <ellipse id="Ellipse_62" data-name="Ellipse 62" cx="314.516" cy="171.745" rx="314.516" ry="171.745" transform="translate(80.783 116.48)" fill="#ff3144" opacity="0.14"/>
      </g>
      <path id="Path_534" data-name="Path 534" d="M209.443,1.143C302.628-14.159,361.38,62.11,340.669,171.5S227.626,381.962,134.44,397.265-17.5,336.3,3.214,226.912,116.257,16.446,209.443,1.143Z" transform="translate(266.068 175.598) rotate(34)" fill="#4de1b8" opacity="0.45"/>
      <g id="Mask_Group_24" data-name="Mask Group 24" transform="translate(231.578)" clip-path="url(#clip-path-4)">
        <path id="Path_535" data-name="Path 535" d="M119.762,2.83C199.8,18.291,277.356,101.815,292.988,189.386S256.411,335.415,176.374,319.954,18.78,220.968,3.147,133.4,39.725-12.632,119.762,2.83Z" transform="translate(35.763 38.782) rotate(-51)" fill="#3a4ae9" opacity="0.12"/>
      </g>
      <g id="Mask_Group_25" data-name="Mask Group 25" transform="translate(887.537 0)" clip-path="url(#clip-path-5)">
        <ellipse id="Ellipse_63" data-name="Ellipse 63" cx="179.877" cy="87.148" rx="179.877" ry="87.148" transform="translate(53.855 -28.908)" fill="#3a4ae9" opacity="0.14"/>
      </g>
      <g id="Mask_Group_26" data-name="Mask Group 26" transform="translate(439.46)" clip-path="url(#clip-path-6)">
        <ellipse id="Ellipse_64" data-name="Ellipse 64" cx="179.877" cy="122.432" rx="179.877" ry="122.432" transform="translate(45.239 -65.467)" fill="#4de1b8" opacity="0.14"/>
      </g>
      <g id="Mask_Group_27" data-name="Mask Group 27" transform="translate(0 82.471)" clip-path="url(#clip-path-7)">
        <path id="Path_536" data-name="Path 536" d="M129.253,0c71.384,0,129.253,38.1,129.253,85.1s-57.869,85.1-129.253,85.1S0,132.1,0,85.1,57.869,0,129.253,0Z" transform="translate(-129.253 26.103)" fill="#ffc04d" opacity="0.2"/>
      </g>
      <path id="Rectangle_152" data-name="Rectangle 152" d="M0,0H1341a0,0,0,0,1,0,0V636.815a0,0,0,0,1,0,0H258a258,258,0,0,1-258-258V0A0,0,0,0,1,0,0Z" transform="translate(0)" fill="#eceefb"/>
      <path id="Rectangle_166" data-name="Rectangle 166" d="M0,0H1341a0,0,0,0,1,0,0V636.815a0,0,0,0,1,0,0H258a258,258,0,0,1-258-258V0A0,0,0,0,1,0,0Z" transform="translate(0 -397)" fill="#eceefb"/>
    </g>
    <g id="Mask_Group_35" data-name="Mask Group 35" transform="translate(311.627 3223)" clip-path="url(#clip-path-8)">
      <ellipse id="Ellipse_72" data-name="Ellipse 72" cx="155.642" cy="85.665" rx="155.642" ry="85.665" transform="translate(327.441 369.214)" fill="#ff3144" opacity="0.14"/>
      <g id="Mask_Group_29" data-name="Mask Group 29" transform="translate(0 8.567)" clip-path="url(#clip-path-9)">
        <ellipse id="Ellipse_73" data-name="Ellipse 73" cx="179.877" cy="123.785" rx="179.877" ry="123.785" transform="translate(-131.407 62.535)" fill="#4de1b8" opacity="0.61"/>
      </g>
      <g id="Mask_Group_30" data-name="Mask Group 30" transform="translate(360.831 20.56)" clip-path="url(#clip-path-10)">
        <ellipse id="Ellipse_74" data-name="Ellipse 74" cx="314.516" cy="173.042" rx="314.516" ry="173.042" transform="translate(61.395 -99.371)" fill="#ff3144" opacity="0.14"/>
      </g>
      <path id="Path_543" data-name="Path 543" d="M209.942,1.883c93.352-15.056,152.51,61.816,132.133,171.7S229.5,384.744,136.15,399.8-16.361,337.984,4.016,228.1,116.59,16.939,209.942,1.883Z" transform="translate(1074.932 464.702) rotate(-146)" fill="#4de1b8" opacity="0.45"/>
      <g id="Mask_Group_31" data-name="Mask Group 31" transform="translate(616.106 373.498)" clip-path="url(#clip-path-11)">
        <path id="Path_544" data-name="Path 544" d="M120.3,2.4c80.346,15.212,157.947,98.7,173.327,186.475S256.342,335.471,176,320.259,18.049,221.56,2.669,133.784,39.953-12.816,120.3,2.4Z" transform="translate(457.553 229.055) rotate(129)" fill="#3a4ae9" opacity="0.12"/>
      </g>
      <g id="Mask_Group_32" data-name="Mask Group 32" transform="translate(-65.704 418.043)" clip-path="url(#clip-path-12)">
        <ellipse id="Ellipse_75" data-name="Ellipse 75" cx="179.877" cy="87.806" rx="179.877" ry="87.806" transform="translate(105.557 77.098)" fill="#3a4ae9" opacity="0.14"/>
      </g>
      <g id="Mask_Group_33" data-name="Mask Group 33" transform="translate(413.61 423.183)" clip-path="url(#clip-path-13)">
        <ellipse id="Ellipse_76" data-name="Ellipse 76" cx="179.877" cy="123.357" rx="179.877" ry="123.357" transform="translate(82.937 37.692)" fill="#4de1b8" opacity="0.14"/>
      </g>
      <g id="Mask_Group_34" data-name="Mask Group 34" transform="translate(1080.34 315.246)" clip-path="url(#clip-path-14)">
        <path id="Path_545" data-name="Path 545" d="M129.253,171.484C57.869,171.484,0,133.1,0,85.742S57.869,0,129.253,0,258.506,38.388,258.506,85.742,200.637,171.484,129.253,171.484Z" transform="translate(131.407 45.503)" fill="#ffc04d" opacity="0.2"/>
      </g>
      <path id="Rectangle_173" data-name="Rectangle 173" d="M0,0H1083a258,258,0,0,1,258,258V641.628a0,0,0,0,1,0,0H0a0,0,0,0,1,0,0V0A0,0,0,0,1,0,0Z" fill="#eceefb"/>
      <path id="Rectangle_174" data-name="Rectangle 174" d="M0,0H1083a258,258,0,0,1,258,258V641.628a0,0,0,0,1,0,0H0a0,0,0,0,1,0,0V0A0,0,0,0,1,0,0Z" transform="translate(0 400)" fill="#eceefb"/>
    </g>
    <path id="Rectangle_144" data-name="Rectangle 144" d="M188,0H1920a0,0,0,0,1,0,0V621a144,144,0,0,1-144,144H0a0,0,0,0,1,0,0V188A188,188,0,0,1,188,0Z" transform="translate(0 3303.814)" fill="#3a4ae9"/>
    <g id="Repeat_Grid_3" data-name="Repeat Grid 3" transform="translate(42.078 3601.158) scale(0.719 1)" opacity="0.12" clip-path="url(#clip-path-15)">
      <g transform="translate(-954 -2242)">
        <circle id="Ellipse_37" data-name="Ellipse 37" cx="6" cy="6" r="6" transform="translate(954 2242)" fill="#fff"/>
      </g>
      <g transform="translate(-922 -2242)">
        <circle id="Ellipse_37-2" data-name="Ellipse 37" cx="6" cy="6" r="6" transform="translate(954 2242)" fill="#fff"/>
      </g>
      <g transform="translate(-890 -2242)">
        <circle id="Ellipse_37-3" data-name="Ellipse 37" cx="6" cy="6" r="6" transform="translate(954 2242)" fill="#fff"/>
      </g>
      <g transform="translate(-858 -2242)">
        <circle id="Ellipse_37-4" data-name="Ellipse 37" cx="6" cy="6" r="6" transform="translate(954 2242)" fill="#fff"/>
      </g>
      <g transform="translate(-826 -2242)">
        <circle id="Ellipse_37-5" data-name="Ellipse 37" cx="6" cy="6" r="6" transform="translate(954 2242)" fill="#fff"/>
      </g>
      <g transform="translate(-794 -2242)">
        <circle id="Ellipse_37-6" data-name="Ellipse 37" cx="6" cy="6" r="6" transform="translate(954 2242)" fill="#fff"/>
      </g>
      <g transform="translate(-762 -2242)">
        <circle id="Ellipse_37-7" data-name="Ellipse 37" cx="6" cy="6" r="6" transform="translate(954 2242)" fill="#fff"/>
      </g>
      <g transform="translate(-730 -2242)">
        <circle id="Ellipse_37-8" data-name="Ellipse 37" cx="6" cy="6" r="6" transform="translate(954 2242)" fill="#fff"/>
      </g>
      <g transform="translate(-698 -2242)">
        <circle id="Ellipse_37-9" data-name="Ellipse 37" cx="6" cy="6" r="6" transform="translate(954 2242)" fill="#fff"/>
      </g>
      <g transform="translate(-666 -2242)">
        <circle id="Ellipse_37-10" data-name="Ellipse 37" cx="6" cy="6" r="6" transform="translate(954 2242)" fill="#fff"/>
      </g>
      <g transform="translate(-634 -2242)">
        <circle id="Ellipse_37-11" data-name="Ellipse 37" cx="6" cy="6" r="6" transform="translate(954 2242)" fill="#fff"/>
      </g>
      <g transform="translate(-602 -2242)">
        <circle id="Ellipse_37-12" data-name="Ellipse 37" cx="6" cy="6" r="6" transform="translate(954 2242)" fill="#fff"/>
      </g>
      <g transform="translate(-570 -2242)">
        <circle id="Ellipse_37-13" data-name="Ellipse 37" cx="6" cy="6" r="6" transform="translate(954 2242)" fill="#fff"/>
      </g>
      <g transform="translate(-954 -2210)">
        <circle id="Ellipse_37-14" data-name="Ellipse 37" cx="6" cy="6" r="6" transform="translate(954 2242)" fill="#fff"/>
      </g>
      <g transform="translate(-922 -2210)">
        <circle id="Ellipse_37-15" data-name="Ellipse 37" cx="6" cy="6" r="6" transform="translate(954 2242)" fill="#fff"/>
      </g>
      <g transform="translate(-890 -2210)">
        <circle id="Ellipse_37-16" data-name="Ellipse 37" cx="6" cy="6" r="6" transform="translate(954 2242)" fill="#fff"/>
      </g>
      <g transform="translate(-858 -2210)">
        <circle id="Ellipse_37-17" data-name="Ellipse 37" cx="6" cy="6" r="6" transform="translate(954 2242)" fill="#fff"/>
      </g>
      <g transform="translate(-826 -2210)">
        <circle id="Ellipse_37-18" data-name="Ellipse 37" cx="6" cy="6" r="6" transform="translate(954 2242)" fill="#fff"/>
      </g>
      <g transform="translate(-794 -2210)">
        <circle id="Ellipse_37-19" data-name="Ellipse 37" cx="6" cy="6" r="6" transform="translate(954 2242)" fill="#fff"/>
      </g>
      <g transform="translate(-762 -2210)">
        <circle id="Ellipse_37-20" data-name="Ellipse 37" cx="6" cy="6" r="6" transform="translate(954 2242)" fill="#fff"/>
      </g>
      <g transform="translate(-730 -2210)">
        <circle id="Ellipse_37-21" data-name="Ellipse 37" cx="6" cy="6" r="6" transform="translate(954 2242)" fill="#fff"/>
      </g>
      <g transform="translate(-698 -2210)">
        <circle id="Ellipse_37-22" data-name="Ellipse 37" cx="6" cy="6" r="6" transform="translate(954 2242)" fill="#fff"/>
      </g>
      <g transform="translate(-666 -2210)">
        <circle id="Ellipse_37-23" data-name="Ellipse 37" cx="6" cy="6" r="6" transform="translate(954 2242)" fill="#fff"/>
      </g>
      <g transform="translate(-634 -2210)">
        <circle id="Ellipse_37-24" data-name="Ellipse 37" cx="6" cy="6" r="6" transform="translate(954 2242)" fill="#fff"/>
      </g>
      <g transform="translate(-602 -2210)">
        <circle id="Ellipse_37-25" data-name="Ellipse 37" cx="6" cy="6" r="6" transform="translate(954 2242)" fill="#fff"/>
      </g>
      <g transform="translate(-570 -2210)">
        <circle id="Ellipse_37-26" data-name="Ellipse 37" cx="6" cy="6" r="6" transform="translate(954 2242)" fill="#fff"/>
      </g>
      <g transform="translate(-954 -2178)">
        <circle id="Ellipse_37-27" data-name="Ellipse 37" cx="6" cy="6" r="6" transform="translate(954 2242)" fill="#fff"/>
      </g>
      <g transform="translate(-922 -2178)">
        <circle id="Ellipse_37-28" data-name="Ellipse 37" cx="6" cy="6" r="6" transform="translate(954 2242)" fill="#fff"/>
      </g>
      <g transform="translate(-890 -2178)">
        <circle id="Ellipse_37-29" data-name="Ellipse 37" cx="6" cy="6" r="6" transform="translate(954 2242)" fill="#fff"/>
      </g>
      <g transform="translate(-858 -2178)">
        <circle id="Ellipse_37-30" data-name="Ellipse 37" cx="6" cy="6" r="6" transform="translate(954 2242)" fill="#fff"/>
      </g>
      <g transform="translate(-826 -2178)">
        <circle id="Ellipse_37-31" data-name="Ellipse 37" cx="6" cy="6" r="6" transform="translate(954 2242)" fill="#fff"/>
      </g>
      <g transform="translate(-794 -2178)">
        <circle id="Ellipse_37-32" data-name="Ellipse 37" cx="6" cy="6" r="6" transform="translate(954 2242)" fill="#fff"/>
      </g>
      <g transform="translate(-762 -2178)">
        <circle id="Ellipse_37-33" data-name="Ellipse 37" cx="6" cy="6" r="6" transform="translate(954 2242)" fill="#fff"/>
      </g>
      <g transform="translate(-730 -2178)">
        <circle id="Ellipse_37-34" data-name="Ellipse 37" cx="6" cy="6" r="6" transform="translate(954 2242)" fill="#fff"/>
      </g>
      <g transform="translate(-698 -2178)">
        <circle id="Ellipse_37-35" data-name="Ellipse 37" cx="6" cy="6" r="6" transform="translate(954 2242)" fill="#fff"/>
      </g>
      <g transform="translate(-666 -2178)">
        <circle id="Ellipse_37-36" data-name="Ellipse 37" cx="6" cy="6" r="6" transform="translate(954 2242)" fill="#fff"/>
      </g>
      <g transform="translate(-634 -2178)">
        <circle id="Ellipse_37-37" data-name="Ellipse 37" cx="6" cy="6" r="6" transform="translate(954 2242)" fill="#fff"/>
      </g>
      <g transform="translate(-602 -2178)">
        <circle id="Ellipse_37-38" data-name="Ellipse 37" cx="6" cy="6" r="6" transform="translate(954 2242)" fill="#fff"/>
      </g>
      <g transform="translate(-570 -2178)">
        <circle id="Ellipse_37-39" data-name="Ellipse 37" cx="6" cy="6" r="6" transform="translate(954 2242)" fill="#fff"/>
      </g>
      <g transform="translate(-954 -2146)">
        <circle id="Ellipse_37-40" data-name="Ellipse 37" cx="6" cy="6" r="6" transform="translate(954 2242)" fill="#fff"/>
      </g>
      <g transform="translate(-922 -2146)">
        <circle id="Ellipse_37-41" data-name="Ellipse 37" cx="6" cy="6" r="6" transform="translate(954 2242)" fill="#fff"/>
      </g>
      <g transform="translate(-890 -2146)">
        <circle id="Ellipse_37-42" data-name="Ellipse 37" cx="6" cy="6" r="6" transform="translate(954 2242)" fill="#fff"/>
      </g>
      <g transform="translate(-858 -2146)">
        <circle id="Ellipse_37-43" data-name="Ellipse 37" cx="6" cy="6" r="6" transform="translate(954 2242)" fill="#fff"/>
      </g>
      <g transform="translate(-826 -2146)">
        <circle id="Ellipse_37-44" data-name="Ellipse 37" cx="6" cy="6" r="6" transform="translate(954 2242)" fill="#fff"/>
      </g>
      <g transform="translate(-794 -2146)">
        <circle id="Ellipse_37-45" data-name="Ellipse 37" cx="6" cy="6" r="6" transform="translate(954 2242)" fill="#fff"/>
      </g>
      <g transform="translate(-762 -2146)">
        <circle id="Ellipse_37-46" data-name="Ellipse 37" cx="6" cy="6" r="6" transform="translate(954 2242)" fill="#fff"/>
      </g>
      <g transform="translate(-730 -2146)">
        <circle id="Ellipse_37-47" data-name="Ellipse 37" cx="6" cy="6" r="6" transform="translate(954 2242)" fill="#fff"/>
      </g>
      <g transform="translate(-698 -2146)">
        <circle id="Ellipse_37-48" data-name="Ellipse 37" cx="6" cy="6" r="6" transform="translate(954 2242)" fill="#fff"/>
      </g>
      <g transform="translate(-666 -2146)">
        <circle id="Ellipse_37-49" data-name="Ellipse 37" cx="6" cy="6" r="6" transform="translate(954 2242)" fill="#fff"/>
      </g>
      <g transform="translate(-634 -2146)">
        <circle id="Ellipse_37-50" data-name="Ellipse 37" cx="6" cy="6" r="6" transform="translate(954 2242)" fill="#fff"/>
      </g>
      <g transform="translate(-602 -2146)">
        <circle id="Ellipse_37-51" data-name="Ellipse 37" cx="6" cy="6" r="6" transform="translate(954 2242)" fill="#fff"/>
      </g>
      <g transform="translate(-570 -2146)">
        <circle id="Ellipse_37-52" data-name="Ellipse 37" cx="6" cy="6" r="6" transform="translate(954 2242)" fill="#fff"/>
      </g>
      <g transform="translate(-954 -2114)">
        <circle id="Ellipse_37-53" data-name="Ellipse 37" cx="6" cy="6" r="6" transform="translate(954 2242)" fill="#fff"/>
      </g>
      <g transform="translate(-922 -2114)">
        <circle id="Ellipse_37-54" data-name="Ellipse 37" cx="6" cy="6" r="6" transform="translate(954 2242)" fill="#fff"/>
      </g>
      <g transform="translate(-890 -2114)">
        <circle id="Ellipse_37-55" data-name="Ellipse 37" cx="6" cy="6" r="6" transform="translate(954 2242)" fill="#fff"/>
      </g>
      <g transform="translate(-858 -2114)">
        <circle id="Ellipse_37-56" data-name="Ellipse 37" cx="6" cy="6" r="6" transform="translate(954 2242)" fill="#fff"/>
      </g>
      <g transform="translate(-826 -2114)">
        <circle id="Ellipse_37-57" data-name="Ellipse 37" cx="6" cy="6" r="6" transform="translate(954 2242)" fill="#fff"/>
      </g>
      <g transform="translate(-794 -2114)">
        <circle id="Ellipse_37-58" data-name="Ellipse 37" cx="6" cy="6" r="6" transform="translate(954 2242)" fill="#fff"/>
      </g>
      <g transform="translate(-762 -2114)">
        <circle id="Ellipse_37-59" data-name="Ellipse 37" cx="6" cy="6" r="6" transform="translate(954 2242)" fill="#fff"/>
      </g>
      <g transform="translate(-730 -2114)">
        <circle id="Ellipse_37-60" data-name="Ellipse 37" cx="6" cy="6" r="6" transform="translate(954 2242)" fill="#fff"/>
      </g>
      <g transform="translate(-698 -2114)">
        <circle id="Ellipse_37-61" data-name="Ellipse 37" cx="6" cy="6" r="6" transform="translate(954 2242)" fill="#fff"/>
      </g>
      <g transform="translate(-666 -2114)">
        <circle id="Ellipse_37-62" data-name="Ellipse 37" cx="6" cy="6" r="6" transform="translate(954 2242)" fill="#fff"/>
      </g>
      <g transform="translate(-634 -2114)">
        <circle id="Ellipse_37-63" data-name="Ellipse 37" cx="6" cy="6" r="6" transform="translate(954 2242)" fill="#fff"/>
      </g>
      <g transform="translate(-602 -2114)">
        <circle id="Ellipse_37-64" data-name="Ellipse 37" cx="6" cy="6" r="6" transform="translate(954 2242)" fill="#fff"/>
      </g>
      <g transform="translate(-570 -2114)">
        <circle id="Ellipse_37-65" data-name="Ellipse 37" cx="6" cy="6" r="6" transform="translate(954 2242)" fill="#fff"/>
      </g>
      <g transform="translate(-954 -2082)">
        <circle id="Ellipse_37-66" data-name="Ellipse 37" cx="6" cy="6" r="6" transform="translate(954 2242)" fill="#fff"/>
      </g>
      <g transform="translate(-922 -2082)">
        <circle id="Ellipse_37-67" data-name="Ellipse 37" cx="6" cy="6" r="6" transform="translate(954 2242)" fill="#fff"/>
      </g>
      <g transform="translate(-890 -2082)">
        <circle id="Ellipse_37-68" data-name="Ellipse 37" cx="6" cy="6" r="6" transform="translate(954 2242)" fill="#fff"/>
      </g>
      <g transform="translate(-858 -2082)">
        <circle id="Ellipse_37-69" data-name="Ellipse 37" cx="6" cy="6" r="6" transform="translate(954 2242)" fill="#fff"/>
      </g>
      <g transform="translate(-826 -2082)">
        <circle id="Ellipse_37-70" data-name="Ellipse 37" cx="6" cy="6" r="6" transform="translate(954 2242)" fill="#fff"/>
      </g>
      <g transform="translate(-794 -2082)">
        <circle id="Ellipse_37-71" data-name="Ellipse 37" cx="6" cy="6" r="6" transform="translate(954 2242)" fill="#fff"/>
      </g>
      <g transform="translate(-762 -2082)">
        <circle id="Ellipse_37-72" data-name="Ellipse 37" cx="6" cy="6" r="6" transform="translate(954 2242)" fill="#fff"/>
      </g>
      <g transform="translate(-730 -2082)">
        <circle id="Ellipse_37-73" data-name="Ellipse 37" cx="6" cy="6" r="6" transform="translate(954 2242)" fill="#fff"/>
      </g>
      <g transform="translate(-698 -2082)">
        <circle id="Ellipse_37-74" data-name="Ellipse 37" cx="6" cy="6" r="6" transform="translate(954 2242)" fill="#fff"/>
      </g>
      <g transform="translate(-666 -2082)">
        <circle id="Ellipse_37-75" data-name="Ellipse 37" cx="6" cy="6" r="6" transform="translate(954 2242)" fill="#fff"/>
      </g>
      <g transform="translate(-634 -2082)">
        <circle id="Ellipse_37-76" data-name="Ellipse 37" cx="6" cy="6" r="6" transform="translate(954 2242)" fill="#fff"/>
      </g>
      <g transform="translate(-602 -2082)">
        <circle id="Ellipse_37-77" data-name="Ellipse 37" cx="6" cy="6" r="6" transform="translate(954 2242)" fill="#fff"/>
      </g>
      <g transform="translate(-570 -2082)">
        <circle id="Ellipse_37-78" data-name="Ellipse 37" cx="6" cy="6" r="6" transform="translate(954 2242)" fill="#fff"/>
      </g>
      <g transform="translate(-954 -2050)">
        <circle id="Ellipse_37-79" data-name="Ellipse 37" cx="6" cy="6" r="6" transform="translate(954 2242)" fill="#fff"/>
      </g>
      <g transform="translate(-922 -2050)">
        <circle id="Ellipse_37-80" data-name="Ellipse 37" cx="6" cy="6" r="6" transform="translate(954 2242)" fill="#fff"/>
      </g>
      <g transform="translate(-890 -2050)">
        <circle id="Ellipse_37-81" data-name="Ellipse 37" cx="6" cy="6" r="6" transform="translate(954 2242)" fill="#fff"/>
      </g>
      <g transform="translate(-858 -2050)">
        <circle id="Ellipse_37-82" data-name="Ellipse 37" cx="6" cy="6" r="6" transform="translate(954 2242)" fill="#fff"/>
      </g>
      <g transform="translate(-826 -2050)">
        <circle id="Ellipse_37-83" data-name="Ellipse 37" cx="6" cy="6" r="6" transform="translate(954 2242)" fill="#fff"/>
      </g>
      <g transform="translate(-794 -2050)">
        <circle id="Ellipse_37-84" data-name="Ellipse 37" cx="6" cy="6" r="6" transform="translate(954 2242)" fill="#fff"/>
      </g>
      <g transform="translate(-762 -2050)">
        <circle id="Ellipse_37-85" data-name="Ellipse 37" cx="6" cy="6" r="6" transform="translate(954 2242)" fill="#fff"/>
      </g>
      <g transform="translate(-730 -2050)">
        <circle id="Ellipse_37-86" data-name="Ellipse 37" cx="6" cy="6" r="6" transform="translate(954 2242)" fill="#fff"/>
      </g>
      <g transform="translate(-698 -2050)">
        <circle id="Ellipse_37-87" data-name="Ellipse 37" cx="6" cy="6" r="6" transform="translate(954 2242)" fill="#fff"/>
      </g>
      <g transform="translate(-666 -2050)">
        <circle id="Ellipse_37-88" data-name="Ellipse 37" cx="6" cy="6" r="6" transform="translate(954 2242)" fill="#fff"/>
      </g>
      <g transform="translate(-634 -2050)">
        <circle id="Ellipse_37-89" data-name="Ellipse 37" cx="6" cy="6" r="6" transform="translate(954 2242)" fill="#fff"/>
      </g>
      <g transform="translate(-602 -2050)">
        <circle id="Ellipse_37-90" data-name="Ellipse 37" cx="6" cy="6" r="6" transform="translate(954 2242)" fill="#fff"/>
      </g>
      <g transform="translate(-570 -2050)">
        <circle id="Ellipse_37-91" data-name="Ellipse 37" cx="6" cy="6" r="6" transform="translate(954 2242)" fill="#fff"/>
      </g>
      <g transform="translate(-954 -2018)">
        <circle id="Ellipse_37-92" data-name="Ellipse 37" cx="6" cy="6" r="6" transform="translate(954 2242)" fill="#fff"/>
      </g>
      <g transform="translate(-922 -2018)">
        <circle id="Ellipse_37-93" data-name="Ellipse 37" cx="6" cy="6" r="6" transform="translate(954 2242)" fill="#fff"/>
      </g>
      <g transform="translate(-890 -2018)">
        <circle id="Ellipse_37-94" data-name="Ellipse 37" cx="6" cy="6" r="6" transform="translate(954 2242)" fill="#fff"/>
      </g>
      <g transform="translate(-858 -2018)">
        <circle id="Ellipse_37-95" data-name="Ellipse 37" cx="6" cy="6" r="6" transform="translate(954 2242)" fill="#fff"/>
      </g>
      <g transform="translate(-826 -2018)">
        <circle id="Ellipse_37-96" data-name="Ellipse 37" cx="6" cy="6" r="6" transform="translate(954 2242)" fill="#fff"/>
      </g>
      <g transform="translate(-794 -2018)">
        <circle id="Ellipse_37-97" data-name="Ellipse 37" cx="6" cy="6" r="6" transform="translate(954 2242)" fill="#fff"/>
      </g>
      <g transform="translate(-762 -2018)">
        <circle id="Ellipse_37-98" data-name="Ellipse 37" cx="6" cy="6" r="6" transform="translate(954 2242)" fill="#fff"/>
      </g>
      <g transform="translate(-730 -2018)">
        <circle id="Ellipse_37-99" data-name="Ellipse 37" cx="6" cy="6" r="6" transform="translate(954 2242)" fill="#fff"/>
      </g>
      <g transform="translate(-698 -2018)">
        <circle id="Ellipse_37-100" data-name="Ellipse 37" cx="6" cy="6" r="6" transform="translate(954 2242)" fill="#fff"/>
      </g>
      <g transform="translate(-666 -2018)">
        <circle id="Ellipse_37-101" data-name="Ellipse 37" cx="6" cy="6" r="6" transform="translate(954 2242)" fill="#fff"/>
      </g>
      <g transform="translate(-634 -2018)">
        <circle id="Ellipse_37-102" data-name="Ellipse 37" cx="6" cy="6" r="6" transform="translate(954 2242)" fill="#fff"/>
      </g>
      <g transform="translate(-602 -2018)">
        <circle id="Ellipse_37-103" data-name="Ellipse 37" cx="6" cy="6" r="6" transform="translate(954 2242)" fill="#fff"/>
      </g>
      <g transform="translate(-570 -2018)">
        <circle id="Ellipse_37-104" data-name="Ellipse 37" cx="6" cy="6" r="6" transform="translate(954 2242)" fill="#fff"/>
      </g>
      <g transform="translate(-954 -1986)">
        <circle id="Ellipse_37-105" data-name="Ellipse 37" cx="6" cy="6" r="6" transform="translate(954 2242)" fill="#fff"/>
      </g>
      <g transform="translate(-922 -1986)">
        <circle id="Ellipse_37-106" data-name="Ellipse 37" cx="6" cy="6" r="6" transform="translate(954 2242)" fill="#fff"/>
      </g>
      <g transform="translate(-890 -1986)">
        <circle id="Ellipse_37-107" data-name="Ellipse 37" cx="6" cy="6" r="6" transform="translate(954 2242)" fill="#fff"/>
      </g>
      <g transform="translate(-858 -1986)">
        <circle id="Ellipse_37-108" data-name="Ellipse 37" cx="6" cy="6" r="6" transform="translate(954 2242)" fill="#fff"/>
      </g>
      <g transform="translate(-826 -1986)">
        <circle id="Ellipse_37-109" data-name="Ellipse 37" cx="6" cy="6" r="6" transform="translate(954 2242)" fill="#fff"/>
      </g>
      <g transform="translate(-794 -1986)">
        <circle id="Ellipse_37-110" data-name="Ellipse 37" cx="6" cy="6" r="6" transform="translate(954 2242)" fill="#fff"/>
      </g>
      <g transform="translate(-762 -1986)">
        <circle id="Ellipse_37-111" data-name="Ellipse 37" cx="6" cy="6" r="6" transform="translate(954 2242)" fill="#fff"/>
      </g>
      <g transform="translate(-730 -1986)">
        <circle id="Ellipse_37-112" data-name="Ellipse 37" cx="6" cy="6" r="6" transform="translate(954 2242)" fill="#fff"/>
      </g>
      <g transform="translate(-698 -1986)">
        <circle id="Ellipse_37-113" data-name="Ellipse 37" cx="6" cy="6" r="6" transform="translate(954 2242)" fill="#fff"/>
      </g>
      <g transform="translate(-666 -1986)">
        <circle id="Ellipse_37-114" data-name="Ellipse 37" cx="6" cy="6" r="6" transform="translate(954 2242)" fill="#fff"/>
      </g>
      <g transform="translate(-634 -1986)">
        <circle id="Ellipse_37-115" data-name="Ellipse 37" cx="6" cy="6" r="6" transform="translate(954 2242)" fill="#fff"/>
      </g>
      <g transform="translate(-602 -1986)">
        <circle id="Ellipse_37-116" data-name="Ellipse 37" cx="6" cy="6" r="6" transform="translate(954 2242)" fill="#fff"/>
      </g>
      <g transform="translate(-570 -1986)">
        <circle id="Ellipse_37-117" data-name="Ellipse 37" cx="6" cy="6" r="6" transform="translate(954 2242)" fill="#fff"/>
      </g>
    </g>
    <g id="Ellipse_71" data-name="Ellipse 71" transform="translate(1510 3702.814)" fill="none" stroke="#fff" stroke-width="14" stroke-dasharray="8" opacity="0.14">
      <circle cx="36" cy="36" r="36" stroke="none"/>
      <circle cx="36" cy="36" r="29" fill="none"/>
    </g>
  </g>
</svg>
