<svg xmlns="http://www.w3.org/2000/svg" width="858.178" height="563.436" viewBox="0 0 858.178 563.436">
  <g id="Group_516" data-name="Group 516" transform="translate(-6244.013 -3689.314)">
    <circle id="Ellipse_70" data-name="Ellipse 70" cx="41" cy="41" r="41" transform="translate(6625.522 4130.058)" fill="#3a4ae9" opacity="0.08"/>
    <g id="Group_395" data-name="Group 395" transform="translate(5189.235 4984.872) rotate(-58)">
      <path id="Path_537" data-name="Path 537" d="M1753.9,623.589l-20.606,33.747,177.379,121.018Z" transform="translate(-12.19 -2.748)" fill="#bdcdff"/>
      <path id="Path_538" data-name="Path 538" d="M1713.175,705.274l10.737,38.7,177.041,36.234Z" transform="translate(-10.359 -10.183)" fill="#bdcdff"/>
      <path id="Path_539" data-name="Path 539" d="M1898.484,780,1599.354,678.04l103.458-36.384Z" transform="translate(0 -4.393)" fill="#fff"/>
      <path id="Path_540" data-name="Path 540" d="M1755.964,620.841l156.773,154.765L1820.98,593.39Z" transform="translate(-14.253)" fill="#fff"/>
    </g>
    <path id="Path_542" data-name="Path 542" d="M2801.881,3966.907s-72.8,17.983-139.853,0c-79.179-21.236-154.69-100.88-187.677,0-8.257,71.663,147.149,16.19,164.234,65.4,0,0,13.151,14.149-8.284,50.312-70.977,119.778-195.9-55-31.767,0,114.3,38.3,25.049,164.182,135.95,151.96,171.527-8.556,161.176,105.114,316.552,0,122.844-94.02,102.425,9.971,225.6-3.075" transform="matrix(0.985, 0.174, -0.174, 0.985, 4552.993, -533.015)" fill="none" stroke="#fff" stroke-linecap="round" stroke-width="4" stroke-dasharray="12"/>
  </g>
</svg>
