<svg xmlns="http://www.w3.org/2000/svg" width="873.855" height="863.52" viewBox="0 0 873.855 863.52">
  <g id="Group_466" data-name="Group 466" transform="translate(-974.761 -137.48)">
    <g id="Group_459" data-name="Group 459" transform="translate(-3402.384 -66)">
      <g id="Group_122" data-name="Group 122" transform="translate(4412.5 355.206)" opacity="0.18">
        <path id="Path_195" data-name="Path 195" d="M905.8,226.684H409.509c-1.278,0-2.314-1.415-2.314-3.162h0c0-1.747,1.036-3.163,2.314-3.163H905.8c1.277,0,2.313,1.416,2.313,3.163h0C908.109,225.269,907.073,226.684,905.8,226.684Z" transform="translate(-407.195 -201.571)" fill="#2b3e51"/>
        <g id="Group_105" data-name="Group 105" transform="translate(19.724 16.019)">
          <path id="Path_196" data-name="Path 196" d="M444.384,239.934V671.627l21.548,14.3V219.87c0-1.442-.613-2.524-1.432-2.524s-1.5,1.082-1.5,2.524v10.693a1.817,1.817,0,0,0,.137.841Z" transform="translate(-422.835 -217.346)" fill="#dddcf5"/>
          <path id="Path_197" data-name="Path 197" d="M442.482,239.934V671.627l-21.549,14.3V219.87c0-1.442.614-2.524,1.432-2.524s1.5,1.082,1.5,2.524v10.693a1.816,1.816,0,0,1-.137.841Z" transform="translate(-420.933 -217.346)" fill="#bcc2de"/>
        </g>
        <g id="Group_110" data-name="Group 110" transform="translate(188.512 16.019)">
          <path id="Path_196-2" data-name="Path 196" d="M444.384,239.934V671.627l21.548,14.3V219.87c0-1.442-.613-2.524-1.432-2.524s-1.5,1.082-1.5,2.524v10.693a1.817,1.817,0,0,0,.137.841Z" transform="translate(-422.835 -217.346)" fill="#dddcf5"/>
          <path id="Path_197-2" data-name="Path 197" d="M442.482,239.934V671.627l-21.549,14.3V219.87c0-1.442.614-2.524,1.432-2.524s1.5,1.082,1.5,2.524v10.693a1.816,1.816,0,0,1-.137.841Z" transform="translate(-420.933 -217.346)" fill="#bcc2de"/>
        </g>
        <g id="Group_114" data-name="Group 114" transform="translate(354.576 16.019)">
          <path id="Path_196-3" data-name="Path 196" d="M444.384,239.934V671.627l21.548,14.3V219.87c0-1.442-.613-2.524-1.432-2.524s-1.5,1.082-1.5,2.524v10.693a1.817,1.817,0,0,0,.137.841Z" transform="translate(-422.835 -217.346)" fill="#dddcf5"/>
          <path id="Path_197-3" data-name="Path 197" d="M442.482,239.934V671.627l-21.549,14.3V219.87c0-1.442.614-2.524,1.432-2.524s1.5,1.082,1.5,2.524v10.693a1.816,1.816,0,0,1-.137.841Z" transform="translate(-420.933 -217.346)" fill="#bcc2de"/>
        </g>
        <g id="Group_106" data-name="Group 106" transform="translate(62.821 16.019)">
          <path id="Path_198" data-name="Path 198" d="M491.285,239.934V671.627l21.549,14.3V219.87c0-1.442-.614-2.524-1.433-2.524s-1.5,1.082-1.5,2.524v10.693a1.827,1.827,0,0,0,.136.841Z" transform="translate(-469.736 -217.346)" fill="#dddcf5"/>
          <path id="Path_199" data-name="Path 199" d="M489.383,239.934V671.627l-21.549,14.3V219.87c0-1.442.614-2.524,1.432-2.524s1.5,1.082,1.5,2.524v10.693a1.826,1.826,0,0,1-.136.841Z" transform="translate(-467.834 -217.346)" fill="#bcc2de"/>
        </g>
        <g id="Group_111" data-name="Group 111" transform="translate(230.08 16.019)">
          <path id="Path_198-2" data-name="Path 198" d="M491.285,239.934V671.627l21.549,14.3V219.87c0-1.442-.614-2.524-1.433-2.524s-1.5,1.082-1.5,2.524v10.693a1.827,1.827,0,0,0,.136.841Z" transform="translate(-469.736 -217.346)" fill="#dddcf5"/>
          <path id="Path_199-2" data-name="Path 199" d="M489.383,239.934V671.627l-21.549,14.3V219.87c0-1.442.614-2.524,1.432-2.524s1.5,1.082,1.5,2.524v10.693a1.826,1.826,0,0,1-.136.841Z" transform="translate(-467.834 -217.346)" fill="#bcc2de"/>
        </g>
        <g id="Group_115" data-name="Group 115" transform="translate(396.144 16.019)">
          <path id="Path_198-3" data-name="Path 198" d="M491.285,239.934V671.627l21.549,14.3V219.87c0-1.442-.614-2.524-1.433-2.524s-1.5,1.082-1.5,2.524v10.693a1.827,1.827,0,0,0,.136.841Z" transform="translate(-469.736 -217.346)" fill="#dddcf5"/>
          <path id="Path_199-3" data-name="Path 199" d="M489.383,239.934V671.627l-21.549,14.3V219.87c0-1.442.614-2.524,1.432-2.524s1.5,1.082,1.5,2.524v10.693a1.826,1.826,0,0,1-.136.841Z" transform="translate(-467.834 -217.346)" fill="#bcc2de"/>
        </g>
        <g id="Group_107" data-name="Group 107" transform="translate(102.16 16.019)">
          <path id="Path_200" data-name="Path 200" d="M538.186,239.934V671.627l21.549,14.3V219.87c0-1.442-.614-2.524-1.432-2.524s-1.5,1.082-1.5,2.524v10.693a1.834,1.834,0,0,0,.136.841Z" transform="translate(-516.638 -217.346)" fill="#dddcf5"/>
          <path id="Path_201" data-name="Path 201" d="M536.284,239.934V671.627l-21.548,14.3V219.87c0-1.442.613-2.524,1.431-2.524s1.5,1.082,1.5,2.524v10.693a1.817,1.817,0,0,1-.137.841Z" transform="translate(-514.736 -217.346)" fill="#bcc2de"/>
        </g>
        <g id="Group_112" data-name="Group 112" transform="translate(271.648 16.019)">
          <path id="Path_200-2" data-name="Path 200" d="M538.186,239.934V671.627l21.549,14.3V219.87c0-1.442-.614-2.524-1.432-2.524s-1.5,1.082-1.5,2.524v10.693a1.834,1.834,0,0,0,.136.841Z" transform="translate(-516.638 -217.346)" fill="#dddcf5"/>
          <path id="Path_201-2" data-name="Path 201" d="M536.284,239.934V671.627l-21.548,14.3V219.87c0-1.442.613-2.524,1.431-2.524s1.5,1.082,1.5,2.524v10.693a1.817,1.817,0,0,1-.137.841Z" transform="translate(-514.736 -217.346)" fill="#bcc2de"/>
        </g>
        <g id="Group_116" data-name="Group 116" transform="translate(437.713 16.019)">
          <path id="Path_200-3" data-name="Path 200" d="M538.186,239.934V671.627l21.549,14.3V219.87c0-1.442-.614-2.524-1.432-2.524s-1.5,1.082-1.5,2.524v10.693a1.834,1.834,0,0,0,.136.841Z" transform="translate(-516.638 -217.346)" fill="#dddcf5"/>
          <path id="Path_201-3" data-name="Path 201" d="M536.284,239.934V671.627l-21.548,14.3V219.87c0-1.442.613-2.524,1.431-2.524s1.5,1.082,1.5,2.524v10.693a1.817,1.817,0,0,1-.137.841Z" transform="translate(-514.736 -217.346)" fill="#bcc2de"/>
        </g>
        <g id="Group_108" data-name="Group 108" transform="translate(143.728 16.019)">
          <path id="Path_202" data-name="Path 202" d="M585.088,239.934V671.627l21.549,14.3V219.87c0-1.442-.613-2.524-1.432-2.524s-1.5,1.082-1.5,2.524v10.693a1.816,1.816,0,0,0,.137.841Z" transform="translate(-563.539 -217.346)" fill="#dddcf5"/>
          <path id="Path_203" data-name="Path 203" d="M583.186,239.934V671.627l-21.549,14.3V219.87c0-1.442.614-2.524,1.432-2.524s1.5,1.082,1.5,2.524v10.693a1.816,1.816,0,0,1-.137.841Z" transform="translate(-561.637 -217.346)" fill="#bcc2de"/>
        </g>
        <g id="Group_113" data-name="Group 113" transform="translate(313.216 16.019)">
          <path id="Path_202-2" data-name="Path 202" d="M585.088,239.934V671.627l21.549,14.3V219.87c0-1.442-.613-2.524-1.432-2.524s-1.5,1.082-1.5,2.524v10.693a1.816,1.816,0,0,0,.137.841Z" transform="translate(-563.539 -217.346)" fill="#dddcf5"/>
          <path id="Path_203-2" data-name="Path 203" d="M583.186,239.934V671.627l-21.549,14.3V219.87c0-1.442.614-2.524,1.432-2.524s1.5,1.082,1.5,2.524v10.693a1.816,1.816,0,0,1-.137.841Z" transform="translate(-561.637 -217.346)" fill="#bcc2de"/>
        </g>
        <path id="Rectangle_66" data-name="Rectangle 66" d="M4.464,0h0A4.464,4.464,0,0,1,8.929,4.464V17.486a4.464,4.464,0,0,1-4.464,4.464h0A4.465,4.465,0,0,1,0,17.486V4.464A4.464,4.464,0,0,1,4.464,0Z" transform="translate(28.622)" fill="#2b3e51"/>
        <path id="Path_204" data-name="Path 204" d="M1116.005,221.864h0a4.464,4.464,0,0,0,4.465-4.465V204.377a4.464,4.464,0,0,0-4.465-4.464h0a4.464,4.464,0,0,0-4.464,4.464V217.4A4.464,4.464,0,0,0,1116.005,221.864Z" transform="translate(-648.177 -199.913)" fill="#2b3e51"/>
      </g>
      <g id="Group_451" data-name="Group 451" transform="translate(3267.215 150)">
        <path id="Path_642" data-name="Path 642" d="M3715.442,643.386l-27.14,20.953-89.514,1.353V643.386Z" transform="translate(-1972.399 -112.484)" fill="#d1d4e5"/>
        <g id="Group_425" data-name="Group 425" transform="translate(1660.864 454.443)">
          <ellipse id="Ellipse_8" data-name="Ellipse 8" cx="23.852" cy="5.136" rx="23.852" ry="5.136" transform="translate(0 84.521)" fill="#23272f"/>
          <g id="Group_127" data-name="Group 127" transform="translate(4.794 0)">
            <path id="Path_205" data-name="Path 205" d="M199.019,203.3s.115-30.258,0-40.745c-.133-12.091-11.318-19.806-11.318-19.806H174.112s-11.186,7.715-11.318,19.806c-.115,10.487,0,40.745,0,40.745s-1.249,2.13-.23,3.781c1.3,2.108,6.758,4.283,18.343,4.107,11.584.176,17.042-2,18.342-4.107C200.268,205.427,199.019,203.3,199.019,203.3Z" transform="translate(-162.164 -118.621)" fill="#d3e4dc"/>
            <path id="Path_206" data-name="Path 206" d="M249.885,211.188c11.383.135,16.762-2.02,18.052-4.11,1.019-1.651-.23-3.781-.23-3.781s.115-30.258,0-40.745c-.133-12.091-11.318-19.806-11.318-19.806H249.91v2.122Z" transform="translate(-230.852 -118.621)" fill="#c8d6ce"/>
            <path id="Path_207" data-name="Path 207" d="M205.1,213.622c.233-.377-.063-1.249-.265-1.611a2.048,2.048,0,0,1-.281-1.064c0-.3.114-30.362,0-40.714-.1-9.461-7.834-16.1-9.9-17.707H182.472c-2.06,1.612-9.8,8.289-9.9,17.707-.113,10.352,0,40.411,0,40.714a2.123,2.123,0,0,1-.292,1.082c-.192.344-.487,1.216-.254,1.593.534.865,4.312,3.11,15.238,3.11q.621,0,1.267-.01h.064c.43.007.854.01,1.266.01C200.784,216.732,204.562,214.487,205.1,213.622Z" transform="translate(-169.817 -126.279)" fill="#8996f1"/>
            <path id="Path_208" data-name="Path 208" d="M271.909,175.251c-.008-1.939-.019-3.651-.034-5.018-.1-9.461-7.834-16.1-9.9-17.707h-4.058s5.621,7.927,5.591,22.725Z" transform="translate(-237.143 -126.279)" fill="#3a4ae9"/>
            <path id="Path_209" data-name="Path 209" d="M188.836,377.912h.064c.43.007.853.01,1.266.01,10.926,0,14.7-2.245,15.238-3.11.233-.377-.063-1.249-.265-1.611a2.048,2.048,0,0,1-.281-1.064c0-.135.023-6.179.038-13.755l0,0h-8.4a14.871,14.871,0,0,1-6.637,13.61c-6.193,4-17.523,2.822-17.523,2.822.534.865,4.312,3.11,15.238,3.11Q188.19,377.922,188.836,377.912Z" transform="translate(-170.126 -287.469)" fill="#3a4ae9"/>
            <path id="Path_210" data-name="Path 210" d="M224.035,118.183h-5.982a.82.82,0,0,0-.82.82v4.509h13.589V119a.82.82,0,0,0-.82-.82Z" transform="translate(-205.285 -99.387)" fill="#5582f2"/>
            <path id="Path_211" data-name="Path 211" d="M241.6,45.241H239.67V53.73h3.853V45.241Z" transform="translate(-222.853 -42.271)" fill="#4168b7"/>
            <path id="Path_212" data-name="Path 212" d="M247.5,45.241h-.291V53.73h.58V45.241Z" transform="translate(-228.759 -42.271)" fill="#3a61a0"/>
            <path id="Path_213" data-name="Path 213" d="M234.546,31.561h-9.79a2.022,2.022,0,0,0-2.022,2.022v.94h0a1.371,1.371,0,0,0,1.371,1.371h1.282V34.523h4.874v1.149h1.524a4.619,4.619,0,0,0,3.449-1.547h0c4.013-.4,5.538,1.768,5.538,1.768l1.415-1.371C240.375,31.251,234.546,31.561,234.546,31.561Z" transform="translate(-209.593 -31.553)" fill="#bfc9cb"/>
            <path id="Path_214" data-name="Path 214" d="M174.653,257.264H206.7v1.066h-32.06Z" transform="translate(-171.936 -208.292)" fill="#e1eceb"/>
            <path id="Path_215" data-name="Path 215" d="M174.653,262.177H206.7v19.807h-32.06Z" transform="translate(-171.936 -212.139)" fill="#5582f2"/>
            <circle id="Ellipse_9" data-name="Ellipse 9" cx="8.509" cy="8.509" r="8.509" transform="translate(8.99 66.997) rotate(-80.895)" fill="#e1eceb"/>
            <path id="Path_216" data-name="Path 216" d="M206.745,205.125a18.509,18.509,0,0,0-1.371-6.706c-2.327,1.87-8.549,1.841-15.843-.479a19.4,19.4,0,0,0-13.521.822,18.322,18.322,0,0,0-1.246,6.363c-.009.844-.017,1.821-.023,2.9h32.028C206.762,206.946,206.754,205.969,206.745,205.125Z" transform="translate(-172.011 -161.17)" fill="#d3e4dc"/>
            <ellipse id="Ellipse_10" data-name="Ellipse 10" cx="1.724" cy="1.724" rx="1.724" ry="1.724" transform="translate(5.365 76.65) rotate(-76.763)" fill="#d3e4dc"/>
            <ellipse id="Ellipse_11" data-name="Ellipse 11" cx="2.871" cy="2.871" rx="2.871" ry="2.871" transform="translate(25.804 79.258) rotate(-77.25)" fill="#d3e4dc"/>
            <ellipse id="Ellipse_12" data-name="Ellipse 12" cx="2.871" cy="2.871" rx="2.871" ry="2.871" transform="translate(16.157 35.707) rotate(-22.693)" fill="#d3e4dc"/>
            <ellipse id="Ellipse_13" data-name="Ellipse 13" cx="1.435" cy="1.435" rx="1.435" ry="1.435" transform="translate(24.932 83.086)" fill="#d3e4dc"/>
            <ellipse id="Ellipse_14" data-name="Ellipse 14" cx="1.435" cy="1.435" rx="1.435" ry="1.435" transform="translate(24.102 37.248)" fill="#d3e4dc"/>
            <ellipse id="Ellipse_15" data-name="Ellipse 15" cx="0.882" cy="0.882" rx="0.882" ry="0.882" transform="translate(18.15 70.03)" fill="#d3e4dc"/>
            <path id="Path_217" data-name="Path 217" d="M216.511,395.671a.862.862,0,1,1-.862-.862A.862.862,0,0,1,216.511,395.671Z" transform="translate(-203.369 -315.994)" fill="#d3e4dc"/>
            <ellipse id="Ellipse_16" data-name="Ellipse 16" cx="0.862" cy="0.862" rx="0.862" ry="0.862" transform="translate(15.954 30.182)" fill="#d3e4dc"/>
            <circle id="Ellipse_17" data-name="Ellipse 17" cx="0.511" cy="0.511" r="0.511" transform="translate(16.816 86.906)" fill="#d3e4dc"/>
            <path id="Path_218" data-name="Path 218" d="M275.067,168.073a.511.511,0,1,1-.511-.511A.511.511,0,0,1,275.067,168.073Z" transform="translate(-249.771 -138.052)" fill="#d3e4dc"/>
            <path id="Path_219" data-name="Path 219" d="M174.653,353.467H206.7v1.066h-32.06Z" transform="translate(-171.936 -283.622)" fill="#e1eceb"/>
            <path id="Path_220" data-name="Path 220" d="M226.748,81h-.016a6.035,6.035,0,0,0-6.035,6.035V89.07h12.085V87.038A6.035,6.035,0,0,0,226.748,81Z" transform="translate(-207.997 -70.274)" fill="#bfc9cb"/>
            <g id="Group_125" data-name="Group 125" transform="translate(13.731 18.796)">
              <rect id="Rectangle_68" data-name="Rectangle 68" width="0.63" height="5.329" transform="translate(0)" fill="#e1eceb"/>
              <rect id="Rectangle_69" data-name="Rectangle 69" width="0.63" height="5.329" transform="translate(2.348)" fill="#e1eceb"/>
              <rect id="Rectangle_70" data-name="Rectangle 70" width="0.63" height="5.329" transform="translate(4.696)" fill="#e1eceb"/>
              <rect id="Rectangle_71" data-name="Rectangle 71" width="0.63" height="5.329" transform="translate(7.044)" fill="#e1eceb"/>
              <rect id="Rectangle_72" data-name="Rectangle 72" width="0.63" height="5.329" transform="translate(9.392)" fill="#e1eceb"/>
            </g>
            <path id="Path_221" data-name="Path 221" d="M248.527,81h-.015s2.041,2.738,2.041,8.067h4.01V87.038A6.035,6.035,0,0,0,248.527,81Z" transform="translate(-229.777 -70.274)" fill="#b3b9ba"/>
            <path id="Path_222" data-name="Path 222" d="M257.036,277.115a8.509,8.509,0,0,0-8.509-8.509v17.018A8.509,8.509,0,0,0,257.036,277.115Z" transform="translate(-229.789 -217.173)" fill="#d3e4dc"/>
            <g id="Group_126" data-name="Group 126" transform="translate(13.609 54.808)">
              <rect id="Rectangle_73" data-name="Rectangle 73" width="3.316" height="10.268" transform="translate(10.268 3.476) rotate(90)" fill="#62ccaa"/>
              <rect id="Rectangle_74" data-name="Rectangle 74" width="3.316" height="10.268" transform="translate(3.476)" fill="#62ccaa"/>
            </g>
            <path id="Path_223" data-name="Path 223" d="M239.67,46.17s3.245.133,3.853,1.967v-2.9H239.67Z" transform="translate(-222.854 -42.271)" fill="#3a61a0"/>
            <path id="Path_224" data-name="Path 224" d="M178.262,157.621s-6.168,6.234-7.56,13.529C170.7,171.15,171.346,163.988,178.262,157.621Z" transform="translate(-168.85 -130.268)" fill="#e1eceb"/>
            <path id="Path_225" data-name="Path 225" d="M225.39,93.495s-.435-4.454,3.085-5.869a6.63,6.63,0,0,0-2.455,5.869Z" transform="translate(-211.659 -75.46)" fill="#e1eceb"/>
            <path id="Path_226" data-name="Path 226" d="M225.373,35.826a1.716,1.716,0,0,1,1.395-1.588,1.987,1.987,0,0,0-.951,1.588Z" transform="translate(-211.659 -33.655)" fill="#e1eceb"/>
            <path id="Path_228" data-name="Path 228" d="M303.224,89s-.108,1.633.851,2.1c.872.425,1.16-.571.348-.786A1.864,1.864,0,0,1,303.224,89Z" transform="translate(-272.615 -76.537)" fill="#e1eceb"/>
          </g>
        </g>
      </g>
      <g id="Group_450" data-name="Group 450" transform="translate(4310.523 -530.205)">
        <g id="Group_447" data-name="Group 447" transform="translate(347.363 1222.364)">
          <rect id="Rectangle_181" data-name="Rectangle 181" width="7.845" height="126.159" transform="translate(9.56 67.138)" fill="#aec3ff"/>
          <rect id="Rectangle_182" data-name="Rectangle 182" width="7.845" height="173.994" transform="translate(183.554 156.89) rotate(90)" fill="#aec3ff"/>
          <rect id="Rectangle_183" data-name="Rectangle 183" width="7.845" height="126.159" transform="translate(175.709 67.138)" fill="#aec3ff"/>
          <rect id="Rectangle_184" data-name="Rectangle 184" width="7.845" height="126.159" transform="translate(117.655 67.138)" fill="#aec3ff"/>
          <g id="Group_444" data-name="Group 444" transform="translate(0 187.483)">
            <path id="Path_629" data-name="Path 629" d="M347.363,1556.555a13.482,13.482,0,1,1,13.483,13.482A13.482,13.482,0,0,1,347.363,1556.555Z" transform="translate(-347.363 -1543.072)" fill="#2b478b"/>
            <path id="Path_630" data-name="Path 630" d="M356.622,1559.848a7.517,7.517,0,1,1,7.517,7.517A7.517,7.517,0,0,1,356.622,1559.848Z" transform="translate(-350.657 -1546.366)" fill="#aec3ff"/>
          </g>
          <g id="Group_445" data-name="Group 445" transform="translate(108.096 187.483)">
            <path id="Path_631" data-name="Path 631" d="M515.143,1556.555a13.482,13.482,0,1,1,13.482,13.482A13.482,13.482,0,0,1,515.143,1556.555Z" transform="translate(-515.143 -1543.072)" fill="#2b478b"/>
            <path id="Path_632" data-name="Path 632" d="M524.4,1559.848a7.517,7.517,0,1,1,7.517,7.517A7.517,7.517,0,0,1,524.4,1559.848Z" transform="translate(-518.436 -1546.366)" fill="#aec3ff"/>
          </g>
          <g id="Group_446" data-name="Group 446" transform="translate(166.15 187.483)">
            <path id="Path_633" data-name="Path 633" d="M605.25,1556.555a13.482,13.482,0,1,1,13.482,13.482A13.482,13.482,0,0,1,605.25,1556.555Z" transform="translate(-605.25 -1543.072)" fill="#2b478b"/>
            <path id="Path_634" data-name="Path 634" d="M614.509,1559.848a7.517,7.517,0,1,1,7.517,7.517A7.517,7.517,0,0,1,614.509,1559.848Z" transform="translate(-608.544 -1546.366)" fill="#aec3ff"/>
          </g>
          <rect id="Rectangle_185" data-name="Rectangle 185" width="115.941" height="85.496" transform="translate(67.53)" fill="#94b0ed"/>
          <rect id="Rectangle_186" data-name="Rectangle 186" width="115.941" height="85.496" transform="translate(9.56)" fill="#aec3ff"/>
        </g>
        <g id="Group_448" data-name="Group 448" transform="translate(376.572 1168.557)">
          <path id="Path_635" data-name="Path 635" d="M425.461,1190.756v32.493H392.7v-32.6a8.482,8.482,0,0,1,.048-.935,9.992,9.992,0,0,1,6.048-8.267,6.614,6.614,0,0,0,4.144-5.711l.24-4.693h12.027l.075,4.681a6.389,6.389,0,0,0,4.013,5.731,10.1,10.1,0,0,1,6.11,8.261C425.441,1190.061,425.461,1190.4,425.461,1190.756Z" transform="translate(-392.7 -1169.442)" fill="#c8dbf4"/>
          <path id="Path_636" data-name="Path 636" d="M421.221,1172.222H407.189l.372-3.665h13.287Z" transform="translate(-397.854 -1168.557)" fill="#b7d3f3"/>
          <path id="Path_637" data-name="Path 637" d="M425.461,1201.066v20.954H392.7v-21.057a8.482,8.482,0,0,1,.048-.935h32.658C425.441,1200.37,425.461,1200.714,425.461,1201.066Z" transform="translate(-392.7 -1179.751)" fill="#fff"/>
        </g>
        <g id="Group_449" data-name="Group 449" transform="translate(417.922 1192.266)">
          <path id="Path_638" data-name="Path 638" d="M475.206,1217.773v18.176H456.88v-18.233a4.7,4.7,0,0,1,.027-.523,5.591,5.591,0,0,1,3.383-4.625,3.7,3.7,0,0,0,2.318-3.194l.134-2.626h6.727l.043,2.618a3.575,3.575,0,0,0,2.245,3.207,5.647,5.647,0,0,1,3.417,4.621A5.8,5.8,0,0,1,475.206,1217.773Z" transform="translate(-456.88 -1205.851)" fill="#c8dbf4"/>
          <path id="Path_639" data-name="Path 639" d="M472.834,1207.406h-7.849l.208-2.05h7.432Z" transform="translate(-459.763 -1205.356)" fill="#b7d3f3"/>
          <path id="Path_640" data-name="Path 640" d="M475.206,1223.541v11.721H456.88v-11.779a4.7,4.7,0,0,1,.027-.523h18.268A5.8,5.8,0,0,1,475.206,1223.541Z" transform="translate(-456.88 -1211.619)" fill="#fff"/>
        </g>
      </g>
      <g id="Group_441" data-name="Group 441" transform="translate(307.451 122.366)">
        <g id="Group_72" data-name="Group 72" transform="translate(4086.175 648.523)">
          <path id="Path_125" data-name="Path 125" d="M-96.378,3159.382a14.834,14.834,0,0,1,9.058-10.9c15.541-6.543,32.837.817,48.2,7.893,47.373,21.811,17.1,46.555,6.484,44.281-11.877-3.359-30.611-6.845-42.09-11.106-7.1-3.655-9.029-9.964-12.333-16.343C-94.965,3170.368-97.356,3164.966-96.378,3159.382Z" transform="translate(96.585 -3145.941)" fill="#bac4ea"/>
          <path id="Path_126" data-name="Path 126" d="M-96.378,3159.382a14.834,14.834,0,0,1,9.058-10.9c15.541-6.543,32.837.817,48.2,7.893,47.373,21.811,17.1,46.555,6.484,44.281-11.877-3.359-30.611-6.845-42.09-11.106-7.1-3.655-9.029-9.964-12.333-16.343C-94.965,3170.368-97.356,3164.966-96.378,3159.382Z" transform="translate(96.585 -3145.941)" fill="#a6cde2"/>
          <path id="Path_127" data-name="Path 127" d="M-49,3181.46c-14.979-6.9-31.79-14.057-47.023-8.355a13.311,13.311,0,0,0-.355,1.48c-.978,5.583,1.413,10.986,9.324,13.822,3.3,6.378,5.233,12.688,12.333,16.343,11.479,4.261,30.213,7.747,42.09,11.106,2.132.457,5.056-.178,7.985-1.658C-20.586,3205.447-23.849,3193.04-49,3181.46Z" transform="translate(96.585 -3161.144)" fill="#bac4ea" opacity="0.5" style="mix-blend-mode: multiply;isolation: isolate"/>
        </g>
        <path id="Path_128" data-name="Path 128" d="M94.829,3340.638l-3.609,13.677a2.513,2.513,0,0,1-3.072,1.788l-221.7-58.507a2.514,2.514,0,0,1-1.789-3.072l3.61-13.677a2.513,2.513,0,0,1,3.071-1.789l221.7,58.508A2.512,2.512,0,0,1,94.829,3340.638Z" transform="translate(4205.114 -2572.483)" fill="#1c3758"/>
        <path id="Path_129" data-name="Path 129" d="M495.144,3290.88h.363c24.262-.234,26.048-27.4,1.91-29.252q-1.408-.108-2.855-.108H91.66l-181.319-58.7a28.135,28.135,0,0,0-15.594-.427c-10.841,2.83-11.569,14.327-1.069,17.806l.169.055,187.5,60.7a27.775,27.775,0,0,0,9.238,1.3v8.625Z" transform="translate(4192.018 -2525.538)" fill="#d5e6f1" style="mix-blend-mode: multiply;isolation: isolate"/>
        <rect id="Rectangle_41" data-name="Rectangle 41" width="634.833" height="23.365" transform="translate(4086.175 775.078)" fill="#948bb7"/>
        <rect id="Rectangle_42" data-name="Rectangle 42" width="524.785" height="14.884" transform="translate(4153.266 857.223)" fill="#1c3758"/>
        <rect id="Rectangle_43" data-name="Rectangle 43" width="10.784" height="60.51" transform="translate(4228.913 798.443)" fill="#1c3758"/>
        <rect id="Rectangle_44" data-name="Rectangle 44" width="10.784" height="60.51" transform="translate(4621.778 798.443)" fill="#1c3758"/>
        <g id="Group_73" data-name="Group 73" transform="translate(4153.266 888.307)">
          <circle id="Ellipse_4" data-name="Ellipse 4" cx="20.285" cy="20.285" r="20.285" transform="translate(9.315 15.758)" fill="#8ab2d5"/>
          <path id="Path_130" data-name="Path 130" d="M145.892,3815.048a10.839,10.839,0,1,1-10.839-10.839A10.839,10.839,0,0,1,145.892,3815.048Z" transform="translate(-105.453 -3779.005)"/>
          <path id="Path_131" data-name="Path 131" d="M86.756,3752.412s-.784,10.1,10.012,15.584,10.8,10.8,10.8,10.8-1.045,8.183,4.875,8.358,6.268-7.488,5.746-13.756-5.223-12.711-6.181-14.278-.348-6.7-.348-6.7Z" transform="translate(-82.751 -3747.623)" fill="#f6e0b7"/>
          <rect id="Rectangle_45" data-name="Rectangle 45" width="30.993" height="7.139" transform="translate(0)" fill="#8ab2d5"/>
        </g>
        <rect id="Rectangle_46" data-name="Rectangle 46" width="4.805" height="16.2" transform="translate(4165.894 872.107)" fill="#1c3758"/>
        <g id="Group_74" data-name="Group 74" transform="translate(4633.353 888.307)">
          <path id="Path_132" data-name="Path 132" d="M1358.868,3800.528a20.285,20.285,0,1,1-20.286-20.285A20.285,20.285,0,0,1,1358.868,3800.528Z" transform="translate(-1308.983 -3764.485)" fill="#8ab2d5"/>
          <path id="Path_133" data-name="Path 133" d="M1364.907,3815.048a10.839,10.839,0,1,1-10.839-10.839A10.839,10.839,0,0,1,1364.907,3815.048Z" transform="translate(-1324.087 -3779.005)"/>
          <path id="Path_134" data-name="Path 134" d="M1304.8,3752.412s-.784,10.1,10.012,15.584,10.8,10.8,10.8,10.8-1.045,8.183,4.876,8.358,5.471-8.072,4.949-14.341-4.427-12.126-5.384-13.693-.349-6.7-.349-6.7Z" transform="translate(-1300.8 -3747.623)" fill="#f6e0b7"/>
          <rect id="Rectangle_47" data-name="Rectangle 47" width="30.993" height="7.139" fill="#8ab2d5"/>
        </g>
        <rect id="Rectangle_48" data-name="Rectangle 48" width="4.806" height="16.2" transform="translate(4645.982 872.107)" fill="#1c3758"/>
        <rect id="Rectangle_49" data-name="Rectangle 49" width="19.172" height="126.113" rx="6.074" transform="translate(4714.233 677.423)" fill="#1c3758"/>
        <rect id="Rectangle_50" data-name="Rectangle 50" width="19.172" height="73.69" rx="6.074" transform="translate(4078.718 724.753)" fill="#1c3758"/>
        <path id="Rectangle_51" data-name="Rectangle 51" d="M15.864,0h0A15.864,15.864,0,0,1,31.728,15.864V68.6a0,0,0,0,1,0,0H0a0,0,0,0,1,0,0V15.864A15.864,15.864,0,0,1,15.864,0Z" transform="translate(4287.185 729.845)" fill="#5b80ae"/>
        <circle id="Ellipse_5" data-name="Ellipse 5" cx="11.497" cy="11.497" r="11.497" transform="translate(4291.551 736.321)" fill="#1c3758"/>
        <rect id="Rectangle_52" data-name="Rectangle 52" width="31.728" height="10.934" transform="translate(4287.185 764.144)" fill="#8ab2d5" opacity="0.5" style="mix-blend-mode: multiply;isolation: isolate"/>
        <g id="Group_136" data-name="Group 136" transform="matrix(0.996, -0.087, 0.087, 0.996, 4194.846, 633.542)">
          <path id="Path_229" data-name="Path 229" d="M6.252,0C2.7,8.841-1.264,17.98.385,26.856c13.079,3.568,55.062,12.887,55.062,12.887s7.109-18.262,6.443-21.765C51.78,16.211,19.617,5.01,6.252,0Z" transform="translate(38.593 3.867)" fill="#ef8d6c"/>
          <path id="Path_230" data-name="Path 230" d="M51.276,5.994C33.841.234,16.952-2.27,9.935,2.545,3.9,6.687.773,14.138.008,22.84c-.712,8.1,44.867,27.472,46.762,8.984S51.276,5.994,51.276,5.994Z" transform="translate(0 0)" fill="#ffc04d"/>
          <g id="Group_134" data-name="Group 134" transform="translate(75.641 3.371)">
            <path id="Path_256" data-name="Path 256" d="M0,7.522C.031,7.1.42,6.714,1,6.37,1.576,6,2.347,5.66,3.183,5.234S4.924,4.363,5.8,3.866,7.52,2.835,8.275,2.343s1.368-.873,1.892-1.149A16.206,16.206,0,0,1,12.639.008c.788-.113.342.96.885,1.545A2.383,2.383,0,0,1,14.172,3.9a4.924,4.924,0,0,1-.933,1.775,9.228,9.228,0,0,1-2.3,2.041A11.832,11.832,0,0,1,7.384,9.256a11.1,11.1,0,0,1-3.688.3A6.871,6.871,0,0,1,.965,8.771C.316,8.375-.027,7.945,0,7.522Z" transform="matrix(0.998, 0.07, -0.07, 0.998, 0.67, 0.321)" fill="#ef9354"/>
            <path id="Path_257" data-name="Path 257" d="M.147,19.977c.146.951.386,1.558.734,1.654s.77-.326,1.225-1.1a26.931,26.931,0,0,0,1.458-3.12c.514-1.235,1.056-2.586,1.629-3.845.149-.309.291-.622.432-.929l.218-.441.222-.43c.3-.565.6-1.1.885-1.585.159-.271.311-.518.456-.752-.026.131-.052.263-.077.4-.031.17-.062.341-.093.514s-.058.351-.1.525c-.076.35-.15.708-.22,1.072s-.138.735-.2,1.108-.157.74-.236,1.11-.148.746-.217,1.121c-.033.187-.067.374-.112.554l-.121.544q-.118.544-.22,1.078c-.068.355-.129.707-.21,1.037-.148.667-.272,1.309-.366,1.905-.04.3-.1.573-.141.839s-.076.516-.1.75c-.094.938-.028,1.621.269,1.866s.8.018,1.448-.566c.162-.146.331-.315.507-.5a6.376,6.376,0,0,0,.538-.634c.354-.473.727-1.023,1.111-1.628a10.694,10.694,0,0,0,.552-.968c.179-.339.358-.69.537-1.051l.268-.548c.092-.183.174-.372.25-.566q.237-.58.467-1.176c.152-.4.305-.8.445-1.2s.248-.819.365-1.226.229-.813.333-1.214c.055-.191.094-.386.134-.579,0,.612-.019,1.245-.075,1.885a28.233,28.233,0,0,1-.478,3.265c-.2,1.048-.465,1.967-.593,2.752a2.369,2.369,0,0,0,.063,1.7c.239.327.733.32,1.421-.011a7.04,7.04,0,0,0,2.262-2.152,13.639,13.639,0,0,0,1.933-4.1l.012-.052h0c.033.256.07.507.09.75.051.487.117.955.2,1.388s.139.819.238,1.16c.186.681.443,1.16.786,1.28s.742-.139,1.166-.7a6.132,6.132,0,0,0,.639-1.044c.2-.417.393-.895.582-1.419a8.34,8.34,0,0,0,.254-.822c.077-.284.152-.579.223-.879a16,16,0,0,0,.331-1.876c.042-.32.083-.642.113-.965s.034-.643.044-.964.017-.635.018-.945-.025-.614-.043-.909a15.605,15.605,0,0,0-.181-1.595c-.033-.166-.067-.323-.1-.475C20.41,3.6,17.963.774,14.874.222,11.033-.465,6.03.149,2.809,6.333,2.425,7.071,2,7.822,1.668,8.65l-.243.629L1.2,9.923c-.135.43-.256.863-.376,1.3A26.393,26.393,0,0,0,.047,16.2,19.059,19.059,0,0,0,.147,19.977Z" transform="translate(4.868 0)" fill="#ef8d6c"/>
          </g>
        </g>
        <path id="Path_231" data-name="Path 231" d="M18.339,68.036c5.624-1.689,11.327-3.415,16.695-6.973a33.448,33.448,0,0,0,13-16.481c-7.2-3.894-11.756-13.837-11.444-24.966C26.276,22.625,10.317-2.761,0,.248,9.81,43.261,18.279,51.584,18.339,68.036Z" transform="translate(4146.209 664.608) rotate(-48)" fill="#ef8d6c"/>
        <path id="Path_233" data-name="Path 233" d="M174.573,15.115C105.013,32.381,60.425-3.008,37.41.208,48.135,13.641,18.031,46.934,3.787,42.632-4.61,60.668-.6,75.281,31.745,86.77s44.9,10.14,71.167,10.3c29.048.172,63.993,7.567,71.661,7.534C177.218,79.056,191.21,34.628,174.573,15.115Z" transform="matrix(0.996, -0.087, 0.087, 0.996, 4169.606, 637.675)" fill="#ffc04d"/>
        <g id="Group_133" data-name="Group 133" transform="translate(4092.161 647.871) rotate(-48)">
          <path id="Path_236" data-name="Path 236" d="M5.357,19.454C20.6,1.276,43.618-3.584,49.859,2.469A47.511,47.511,0,0,1,57.913,13.2c.243.426-.1,1.248.263,1.931.262.494.849.3,1.209,1.058.134.278-.077.886.172,1.442.109.241.911.466,1.127.985a19.3,19.3,0,0,1,1.66,6.59c-.059,2.346,5.391,29.5,5.566,31.7.092,1.133.34,4.245.265,5.288-.336,4.826-2.794,9.767-8.722,10.567C47.809,72.1,45.845,70.787,31.775,69c-5.186-.66-4.557.6-5.2-5.788C16.02,53.373-11.549,39.62,5.357,19.454Z" transform="translate(13.557 3.187)" fill="#ef8d6c"/>
          <path id="Path_244" data-name="Path 244" d="M2.62,1.7C-.725,4.914-.889,11.59,2.254,16.612S10.658,23.1,14,19.889,17.512,10,14.369,4.98,5.965-1.51,2.62,1.7Z" transform="translate(29.119 44.979)" fill="#ef8d6c"/>
          <path id="Path_245" data-name="Path 245" d="M1.769.256C-.489,2.426-.6,6.934,1.522,10.325S7.2,14.708,9.457,12.538,4.028-1.913,1.769.256Z" transform="translate(32.499 47.866)" fill="#ef9354"/>
          <g id="Group_135" data-name="Group 135" transform="translate(0 0)">
            <path id="Path_243" data-name="Path 243" d="M37.743,40.78c-.867-3.882-2.827-8.546-3.133-11.324-.393-2.82.03-4.046-.156-5.021-.009-.094-.058-.163-.073-.252a14.976,14.976,0,0,0,.591-1.425,20.2,20.2,0,0,0,.718-8.114,18.152,18.152,0,0,0-3.813-9.213A15,15,0,0,0,23.848.4c-5.842-1.232-9.4.634-10.936,1.781a3.548,3.548,0,0,0-1.367,1.886,2.43,2.43,0,0,0-.162-.206C10.724,3.257,9.914,3,7.743,5.085c-.542.521-1.17,1.191-1.9,2.04A36.14,36.14,0,0,0,3.7,10.459a25.828,25.828,0,0,0-2.415,4.8C.533,17.156-.613,18.992.4,22.061c1.767,4.454,10.277,24.76,26.666,36.8.826.608,1.212,3.1,2.422,3.865,1.734.622,3-1,4.286-.328.352-1.064.724-2.193,1.107-3.352.438-1.318.922-2.615,1.288-4.031.326-1.465.627-2.942.891-4.378.089-.829.135-1.634.17-2.423.4.237.733.314.977.153C39.063,47.8,38.7,44.651,37.743,40.78Z" transform="translate(11.997 4.312) rotate(11)" fill="#e4e4e4"/>
            <path id="Path_251" data-name="Path 251" d="M53.152.944c-.226.266-6.858-.16-10.558-.58C35.267-.893,24.1,1.115,15.915,6.179a40.077,40.077,0,0,0-5.3,3.677,30.118,30.118,0,0,0-3.775,3.4C5.818,14.335,4.981,15.27,4.3,16.083c-.377.525-.683.992-.958,1.43.117-.365-3.936,6.23-3.265,5.895a3.532,3.532,0,0,0-.031.715c.129,1.56,1.079,3.981,4.24,7.015A26.1,26.1,0,0,0,14.6,37.046c.526,4.164,2.989,8.405,6.03,10.41a8.583,8.583,0,0,0,5.782,1.594,5.308,5.308,0,0,0,1.309,1.414,2.245,2.245,0,0,0,2.183.465,7.506,7.506,0,0,0,1.2,2.917,9.535,9.535,0,0,0,.827.9,4.306,4.306,0,0,0,.842.413c.491.17.831.136,1.025-.087a1.542,1.542,0,0,0,.192-1.123,6.273,6.273,0,0,0-.14-.813c-.011-.342-.035-.707-.077-1.08a12.074,12.074,0,0,1-.007-1.308,9.015,9.015,0,0,0,.151,1.594c.4,2.127,1.335,2.9,1.589,2.689.347-.252.092-1.4.3-3.345A24.356,24.356,0,0,1,38.3,43.757c.769-1.691,1.554-3.246,2.363-5.269a33.262,33.262,0,0,0,2.158-6.1,21.347,21.347,0,0,0-.2-11.556c-.049-.185.889-4.145.832-4.32.758-.021,15.525-6.006,17.087-9C62.049,4.578,57.248,1.125,53.152.944Z" transform="translate(8.497 0)" fill="#e4e4e4"/>
          </g>
        </g>
        <path id="Path_253" data-name="Path 253" d="M6.065,10.3C1.022,17.432-1.362,24.513.8,25.841,4.568,26.139,22.11,7.779,22.577.082,21.744-.615,11.109,3.172,6.065,10.3Z" transform="matrix(0.996, -0.087, 0.087, 0.996, 4212.879, 701.537)" fill="#f1b03b"/>
        <path id="Path_151" data-name="Path 151" d="M876.2,3185.652c0-27-38.956-75.119-70.829-83.466-41.282-10.81-96.361-29.846-128.377-33.386-51.439-5.687-67.35,31.8-205.741,0,0,0-31.645,21.866-40.859,46.3s30.388,80.1,30.388,80.1,51.9.628,104.056,0,221.425,1.9,247.528,0C812.371,3195.2,876.2,3192.33,876.2,3185.652Z" transform="translate(3847.846 -2444.334)" fill="#233862"/>
        <g id="Group_435" data-name="Group 435" transform="translate(4203.303 660.491) rotate(-8)">
          <path id="Path_254" data-name="Path 254" d="M111.217.024c-2.138-.306-8.975,2.342-12.149,4.931-2.724,2.224-3.217,8.883-7.88,13.439-15.7,15.334-40.506,36.669-40.506,36.669h0c-11.348-7.32-31.306-20.54-39.592-27.942C6.08,33.279.649,39.536,0,47.589,10.176,55.283,44.925,85.769,53.989,82.8,63.4,82.407,99.18,26.081,99.18,26.081a14.222,14.222,0,0,0,7.155-2.794c2.841-2.444,6.511-9.483,7.156-10.314.777-1,9.234-.222,4.8-6.335C121.62,6.537,116.77.818,111.217.024Z" transform="matrix(0.996, -0.087, 0.087, 0.996, 0, 13.024)" fill="#ef8d6c"/>
          <path id="Path_256-2" data-name="Path 256" d="M0,2.279A1.841,1.841,0,0,0,.994,3.542c.579.411,1.349.779,2.183,1.245.836.45,1.739.955,2.613,1.5s1.717,1.13,2.471,1.669,1.366.957,1.889,1.26a15.591,15.591,0,0,0,2.468,1.3c.787.124.341-1.052.883-1.694a2.782,2.782,0,0,0,.647-2.57,5.6,5.6,0,0,0-.932-1.946,9.571,9.571,0,0,0-2.3-2.237A11.3,11.3,0,0,0,7.372.379,10.123,10.123,0,0,0,3.69.047,6.415,6.415,0,0,0,.964.91C.316,1.344-.027,1.815,0,2.279Z" transform="matrix(0.485, 0.875, -0.875, 0.485, 99.506, 0)" fill="#ef8d6c"/>
        </g>
        <path id="Path_255" data-name="Path 255" d="M52.765,24.453C39.54,11.709,25.752,1.15,18.166.159A15.337,15.337,0,0,0,3.157,6.583C-.029,10.9-.5,16.21.409,22.328c1.622,10.97,18.1,22.447,30.575,31.643,0,0,2.193-7.254,9.694-16.959S52.765,24.453,52.765,24.453Z" transform="matrix(0.996, -0.087, 0.087, 0.996, 4180.339, 675.966)" fill="#ffc04d"/>
        <path id="Path_135" data-name="Path 135" d="M104.532,3299.489l-214.161-62.43-3.49,6.25c-4.61,8.257,1.5,17.49,13.658,20.623l203.993,58.233h386.4c13,0,23.536-7.16,23.536-15.991v-6.686Z" transform="translate(4192.533 -2547.087)" fill="#ada9bb"/>
        <g id="Group_78" data-name="Group 78" transform="translate(4287.185 718.037)">
          <path id="Rectangle_53" data-name="Rectangle 53" d="M15.864,0h0A15.864,15.864,0,0,1,31.728,15.864v59.8a0,0,0,0,1,0,0H0a0,0,0,0,1,0,0v-59.8A15.864,15.864,0,0,1,15.864,0Z" transform="translate(0 0)" fill="#5b80ae"/>
          <circle id="Ellipse_6" data-name="Ellipse 6" cx="11.497" cy="11.497" r="11.497" transform="translate(4.761 5.662)" fill="#1c3758"/>
          <rect id="Rectangle_54" data-name="Rectangle 54" width="31.728" height="10.934" transform="translate(0 41.368)" fill="#8ab2d5" opacity="0.5" style="mix-blend-mode: multiply;isolation: isolate"/>
        </g>
      </g>
      <g id="Group_442" data-name="Group 442" transform="translate(882.131 554.468)">
        <path id="Path_603" data-name="Path 603" d="M3893.35,530.709c.053-1.44,1.167-16.96,24.807-17.771,0,0-11.624,1.386-13.633,6.5,0,0,7.915-6.315,14.362-4.284s10.232,13.324,10.27,17.039-3.543,15.689-7.634,16.707a12.489,12.489,0,0,1-4.955.007,55.89,55.89,0,0,1,3.176,5.668c9.433,19.364-.3,38.288-8.282,36.2-5.121-1.341-6.571,7.4-6.571,7.4l-49.758-40.283S3873.407,520.066,3893.35,530.709Z" transform="translate(463.668 -1071.446) rotate(7)" fill="#2c3a64"/>
        <path id="Path_605" data-name="Path 605" d="M45.208,88.018c9.079-5.546,15.272-16.026,24.976-33.012a10.592,10.592,0,0,0,.7-1.247A82.535,82.535,0,0,0,78.31,36.852a34.48,34.48,0,0,0,1.443-8.187,35.785,35.785,0,0,0-1.18-11.373,28.912,28.912,0,0,0-5.13-10.26,4.98,4.98,0,0,0-.966-1.174A23.952,23.952,0,0,0,65.885.239c-1.327-.55-2.739-.135-4.2,1.076-.165.129-.324.275-.489.422-.006.006-.012.019-.024.025-.208.2-.416.4-.624.63v.067A20.83,20.83,0,0,0,58.9,4.446c-.006.006-.012.012-.012.018a38.418,38.418,0,0,0-3.119,5.069c-.067.067-.141.135-.141.208-.342.624-.691,1.315-1.106,2.079a1.546,1.546,0,0,0-.275.483Q53.1,14.7,51.951,17.292c-8.523,18.582-6.1,43.47-15.919,50.765C27.692,73.382,18.243,79.921,2.785,87.525c-2.329,3.585-7.917,12.3,8.911,10.1C18.194,96.78,30.186,93.023,45.208,88.018Z" transform="translate(4163.782 41.274) rotate(23)" fill="#ffb27d"/>
        <path id="Path_606" data-name="Path 606" d="M.99,65.663C-.257,67.6-.868,69.147,2.526,73.369c2.751,3.428,8.718,10.012,13,11.8,3.287-1.313,9.213-3.247,11.725-4.525,9.086-4.6,11.531-8.886,22.114-22.855,1.615-2.131,3.175-4.28,4.656-6.429a9.842,9.842,0,0,0,.8-1.191A72.646,72.646,0,0,0,63.4,34.021L44.214.082,44.165,0c-.071.058-.247.228-.515.485a.093.093,0,0,1-.028.024c-.537.519-1.447,1.407-2.624,2.563-.007.005-.014.012-.014.017a36.354,36.354,0,0,0-3.6,4.841c-.078.064-.163.129-.163.2-.395.6-.8,1.255-1.277,1.985a1.442,1.442,0,0,0-.317.461q-1.322,2.286-2.645,4.765C23.15,33.087,20.839,48.113,12.12,56.125,10.089,57.988,1.067,65.663.99,65.663Z" transform="translate(4176.882 38.887) rotate(-1)" fill="#3a4ae9"/>
        <path id="Path_607" data-name="Path 607" d="M0,26.068c2.13,3.191,4.932,6.421,8.248,8.084,2.545-1.223,7.133-3.023,9.078-4.213,3.51-2.135,8.462-4.375,13.046-9.767C34.611,15.187,38.483,7.041,42.588.525,42.282-3.563,20.783,17.434,18.052,21.24,15.993,24.111,5.352,25.535,0,26.068Z" transform="translate(4185.009 93.685) rotate(-7)" fill="#1d2fd8"/>
        <path id="Path_608" data-name="Path 608" d="M3887.148,1239.468l10.569,3.935s45.907-63.67,51.559-119.689a85.085,85.085,0,0,0-1.51-28.64s.449-2.563,1.234-7.093c.362-2.115.811-4.66,1.32-7.577,1.494-8.551,3.547-20.252,5.894-33.575,5.4-30.658,12.4-69.851,17.836-98.663l-2.848-.914-30.814-9.94-6.368-20.227-22.944-6.039s-5.125,10.026-9.708,57.39c-.846,6.214-1.614,13.065-2.192,20.493a405.58,405.58,0,0,0,2.183,82.967q1.579,12.349,4.03,25.464c1.208,6.4,1.389,15.127.88,25.145C3903.957,1168.3,3887.148,1239.468,3887.148,1239.468Z" transform="translate(323.563 -744.68)" fill="#233862"/>
        <path id="Path_609" data-name="Path 609" d="M3905.579,988.929l49.824,99.052c.362-2.115.811-4.66,1.319-7.577,1.494-8.551,3.547-20.252,5.895-33.575,5.4-30.658,12.4-69.851,17.836-98.663l-2.848-.914-30.814-9.94-6.368-20.227-22.944-6.039s-5.125,10.026-9.708,57.39C3906.925,974.65,3906.157,981.5,3905.579,988.929Z" transform="translate(317.161 -744.68)" fill="#0e2551"/>
        <path id="Path_610" data-name="Path 610" d="M3939.165,917.623l1.153-9.891c19.323,5.133,70.953-14.341,70.953-14.341s18.72,16.455,16.262,55.9c-1.2,19.253-3.391,101.061-5.679,125.27-.827,8.774-1.552,15.018-1.848,17.512a.044.044,0,0,0-.006.024,3.465,3.465,0,0,0,.562,2.144,113.757,113.757,0,0,1,8.448,17.765c22.463,59.86-3.461,133.579-3.461,133.579l-6.726-2.712s-14.753-82.039-26.739-118.283c-2.035-6.147-3.985-10.978-5.773-13.865-5.211-8.411-10.048-22.155-14.438-38.5-8.3-30.905-14.976-71.109-19.42-102.141C3951.839,970.11,3939.165,917.623,3939.165,917.623Z" transform="translate(305.493 -738.546)" fill="#233862"/>
        <path id="Path_611" data-name="Path 611" d="M3907.6,713.621c33.221,1.821,25.921-47.7,23.893-47.45-4.064-2.123-11.364-12.434-15.584-29.684l-1.433.665-23.97,11.269s2.545,7.8,4.427,15.265c1.466,5.842,2.52,11.485,1.639,13.064-1.89.768-3.02,1.251-3.02,1.251a.065.065,0,0,1-.009.026C3893.3,678.64,3898.737,713.138,3907.6,713.621Z" transform="translate(456.701 -1115.543) rotate(7)" fill="#ffb27d"/>
        <path id="Path_612" data-name="Path 612" d="M3890.5,648.783s2.549,7.793,4.426,15.265c14.012-3.91,18.267-18.638,19.547-26.533Z" transform="translate(456.745 -1115.897) rotate(7)" fill="#ed985f"/>
        <path id="Path_613" data-name="Path 613" d="M3874.638,634.972s33.522-7.758,28.369-28.56-4.3-35.813-25.918-31.739-23.8,13.039-23.766,20.4S3865.785,636.454,3874.638,634.972Z" transform="translate(466.876 -1092.425) rotate(7)" fill="#ffb27d"/>
        <path id="Path_614" data-name="Path 614" d="M3849.641,581.244c3.6-7.54,7.845-7.137,10.5-5.8,15.751-14.573,31.2-2.667,31.2-2.667a40.936,40.936,0,0,0,18.834,20.236s-5.15,5.273-20.076,5.157c-4.559-.035-9.143-2.129-13.314-5.013a80.287,80.287,0,0,0,17.479,13.036c-18.684-3.576-31.214-25.207-32.5-27.5-1.582,2.338-4.61,7.313-4.865,11.515-.347,5.71,1.618,16.8-1.652,17.217C3855.25,607.42,3844.237,592.552,3849.641,581.244Z" transform="translate(468.415 -1090.203) rotate(7)" fill="#2c3a64"/>
        <path id="Path_615" data-name="Path 615" d="M4011.6,1425.506h53.232s1.276-8.113-1.505-14.268c-2.664-5.907-6.837-8.591-5.838-15.736-3.383,3.482-8.9,7.382-16.591,6.347-.943,1.528-6.087,9.71-9.237,11.973C4028.187,1416.321,4012.674,1415.43,4011.6,1425.506Z" transform="translate(280.329 -912.973)" fill="#233862"/>
        <path id="Path_616" data-name="Path 616" d="M3836.464,1426.776H3889.7s1.99-8.49-1.5-14.268c-3.094-5.112-1.908-8.024.383-12.253a20.7,20.7,0,0,1-8.966,1.688,18.756,18.756,0,0,1-7.917-2.784c-2.291,2.612-12.1,13.73-15.167,15.933C3853.048,1417.592,3837.536,1416.7,3836.464,1426.776Z" transform="translate(341.17 -914.244)" fill="#233862"/>
        <path id="Path_617" data-name="Path 617" d="M3868.627,702.836l8.726,117.224,5.341,71.779c8.211,2.554,16.027,4.551,23.442,6.082a87.485,87.485,0,0,1,2.433-13.213c-.084,3.774,4.332,11,6.949,14.927,68.167,10.92,100.124-18.814,100.124-18.814-2.653-26.32-14.137-79.56-27.887-124.193-2.864-9.284-5.82-18.194-8.818-26.412-6.814-18.687-11.146-28.443-14.821-36.006-6.991-14.377-38.242-13.474-38.242-13.474-6.018,21.692-22.561,35.216-22.561,35.216-8.818-5.178-15.386-23.386-15.386-23.386Z" transform="translate(466.118 -1129.87) rotate(7)" fill="#3a4ae9"/>
        <path id="Path_618" data-name="Path 618" d="M3937.448,674.6s5.672.381,6.888,4.008c0,0-7.4,29.789-22.555,35.213Z" transform="translate(447.531 -1130.008) rotate(7)" fill="#1d2fd8"/>
        <path id="Path_619" data-name="Path 619" d="M3911.358,720.295s-14.142-23.524-14.085-27.056c0,0-5.842,2.272-5.479,5.9C3891.793,699.135,3903.989,718.667,3911.358,720.295Z" transform="translate(458.665 -1135.165) rotate(7)" fill="#1d2fd8"/>
        <path id="Path_620" data-name="Path 620" d="M3953.265,718.455c-.409,1.411-51.444,82.89-52.557,99.116s21.461,7.054,21.813,4.938S3953.265,718.455,3953.265,718.455Z" transform="translate(456.668 -1144.236) rotate(7)" fill="#3a4ae9"/>
        <path id="Path_621" data-name="Path 621" d="M3882,821.883l3.443,57.788c73.006-17.5,78.918-143.737,78.918-143.737l-45.119,67.773-36.846,17.719S3882.252,821.584,3882,821.883Z" transform="translate(463.845 -1149.472) rotate(7)" fill="#1d2fd8"/>
        <path id="Path_622" data-name="Path 622" d="M0,141.708l2.8,10.237s3.52-.642,9.122-1.679c1.679-.324,2.638-.565,2.638-.565,4.479-.875,9.834-2.074,15.675-3.358h.085c10-2.4,21.191-5.277,30.631-8.479.846-.3,1.678-.593,2.49-.889a76.718,76.718,0,0,0,13.827-6.39,10.125,10.125,0,0,0,1.121-.8c9.354-6.8,20.472-26.793,29.115-48.231,1.2-2.956,2.32-5.919,3.435-8.8a218.483,218.483,0,0,0,9.122-30.4,86.162,86.162,0,0,0,2.158-14.476,34.766,34.766,0,0,0,.078-4.077C122.14.613,105.739-1.786,103.58.853c-2.716,3.281-5.594,8.635-8.557,15.118-4.557,10.314-9.355,23.675-13.834,36.952-2.483,7.28-4.881,14.56-7.28,21.276-1.361,4.077-2.723,7.915-4,11.435a110.685,110.685,0,0,1-6.715,15.6c-1.285,2.243-4.959,5.361-9.842,8.881-1.291.938-2.68,1.9-4.134,2.9-8.091,5.5-18.391,11.618-27.54,16.775-4.48,2.561-8.72,4.882-12.24,6.8C3.76,139.706,0,141.708,0,141.708Z" transform="translate(4203.169 13.541) rotate(21)" fill="#ffb27d"/>
        <path id="Path_623" data-name="Path 623" d="M0,113.012s-.588,19.34,17.519,28.747c20.928-7.554,32.123-38.765,40.766-60.2,1.2-2.956,2.32-5.919,3.435-8.8a218.55,218.55,0,0,0,9.122-30.4A86.216,86.216,0,0,0,73,27.886a34.766,34.766,0,0,0,.078-4.077C72.924.613,56.523-1.786,54.364.853,51.648,4.133,48.77,9.487,45.807,15.97,41.25,26.284,36.452,39.645,31.973,52.922,29.49,60.2,27.091,67.482,24.692,74.2c-1.361,4.077-2.722,7.915-4,11.435a110.685,110.685,0,0,1-6.715,15.6c-1.284,2.243-4.959,5.361-9.842,8.881C2.845,111.051,1.456,112.017,0,113.012Z" transform="translate(4249.117 31.179) rotate(21)" fill="#3a4ae9"/>
        <path id="Path_624" data-name="Path 624" d="M.023.138c.026.1.069.154.129.154C.117.216.092.155.075.113,0-.042-.02-.042.023.138Z" transform="translate(4147.627 117.318) rotate(11)" fill="#abddda"/>
        <path id="Path_625" data-name="Path 625" d="M5.29,5.229c3.656-.017,9.424-.26,12.76-1.5,0,0-10.654-.147-8.389-3.418.412-.6,5.708-.145,11.621-.145,2.424,0,8.417,3.228,8.108,3.377,4.284-.55,8.179-1.356,9.439-1.62a2.135,2.135,0,0,0,.464-.129L43.076,12.5s-.8.194-2.19.451a151.539,151.539,0,0,0-17.592,5.225A17.943,17.943,0,0,1,3.511,14.045C1.489,12-.105,9.275.005,7.3.126,5.14,3.061,5.239,5.29,5.229Z" transform="translate(4118.75 129.033) rotate(22)" fill="#ffb27d"/>
        <path id="Path_627" data-name="Path 627" d="M5.106,5.8c3.533-.019,9.1-.288,12.327-1.668,0,0-10.292-.164-8.1-3.793.4-.661,5.514-.161,11.226-.161,2.342,0,8.132,3.582,7.833,3.748,4.139-.61,7.9-1.5,9.118-1.8a1.871,1.871,0,0,0,.448-.143L41.61,13.868s-.769.215-2.116.5A99.917,99.917,0,0,0,26.1,19.485c-9.234,4.079-14.729,1.787-17.811-1.8C6.338,15.41-.106,10.292,0,8.1.118,5.7,2.953,5.813,5.106,5.8Z" transform="translate(4100.685 109.3) rotate(18)" fill="#ffb27d"/>
        <g id="Group_436" data-name="Group 436" transform="translate(4221.753 -27.759) rotate(7)">
          <path id="Path_46" data-name="Path 46" d="M0,13.136A51.256,51.256,0,0,0,14.749,0s5.857,5.321,10.444,4.9c0,0,1.817,11.462-9.119,17.055C8.686,25.734,0,13.136,0,13.136Z" transform="translate(10.987 10.016) rotate(29)" fill="#fff"/>
          <path id="Path_626" data-name="Path 626" d="M3681.469,469.79a42.12,42.12,0,0,0,21.047-23.727" transform="translate(-3657.01 -446.063)" fill="none" stroke="#fff" stroke-width="1"/>
        </g>
      </g>
      <g id="Group_458" data-name="Group 458" transform="translate(2527.473 -243.359)">
        <path id="Rectangle_187" data-name="Rectangle 187" d="M8.7,0H112.953a8.7,8.7,0,0,1,8.7,8.7V109.322a8.7,8.7,0,0,1-8.7,8.7H8.7a8.7,8.7,0,0,1-8.7-8.7V8.7A8.7,8.7,0,0,1,8.7,0Z" transform="translate(2433.527 616.074)" fill="#8996f1"/>
        <path id="Rectangle_188" data-name="Rectangle 188" d="M7.948,0h95.218a7.948,7.948,0,0,1,7.948,7.948v91.9a7.947,7.947,0,0,1-7.947,7.947H7.947A7.947,7.947,0,0,1,0,99.85V7.948A7.948,7.948,0,0,1,7.948,0Z" transform="translate(2438.798 621.188)" fill="#fff"/>
        <g id="Group_454" data-name="Group 454">
          <g id="Group_452" data-name="Group 452">
            <path id="Path_643" data-name="Path 643" d="M2491.834,631.959a2.52,2.52,0,1,1,2.52,2.52A2.52,2.52,0,0,1,2491.834,631.959Z" fill="#b7d3f3"/>
            <path id="Path_644" data-name="Path 644" d="M2512.168,635.521a2.52,2.52,0,1,1,.979,3.427A2.521,2.521,0,0,1,2512.168,635.521Z" fill="#b7d3f3"/>
            <path id="Path_645" data-name="Path 645" d="M2529.59,649.361a2.52,2.52,0,1,1-.752,3.484A2.519,2.519,0,0,1,2529.59,649.361Z" fill="#b7d3f3"/>
            <path id="Path_646" data-name="Path 646" d="M2538.219,670.783a2.52,2.52,0,1,1-2.521,2.52A2.519,2.519,0,0,1,2538.219,670.783Z" fill="#b7d3f3"/>
            <path id="Path_647" data-name="Path 647" d="M2533.813,695.644a2.52,2.52,0,1,1-3.564,0A2.519,2.519,0,0,1,2533.813,695.644Z" fill="#b7d3f3"/>
            <path id="Path_648" data-name="Path 648" d="M2517.988,711.509a2.52,2.52,0,1,1-3.564,0A2.519,2.519,0,0,1,2517.988,711.509Z" fill="#b7d3f3"/>
            <path id="Path_649" data-name="Path 649" d="M2491.834,719.687a2.52,2.52,0,1,1,2.52,2.52A2.52,2.52,0,0,1,2491.834,719.687Z" fill="#b7d3f3"/>
          </g>
          <g id="Group_453" data-name="Group 453">
            <path id="Path_650" data-name="Path 650" d="M2476.46,635.521a2.52,2.52,0,1,0-.979,3.427A2.52,2.52,0,0,0,2476.46,635.521Z" fill="#b7d3f3"/>
            <path id="Path_651" data-name="Path 651" d="M2459.039,649.361a2.52,2.52,0,1,0,.752,3.484A2.518,2.518,0,0,0,2459.039,649.361Z" fill="#b7d3f3"/>
            <path id="Path_652" data-name="Path 652" d="M2450.41,670.783a2.52,2.52,0,1,0,2.52,2.52A2.52,2.52,0,0,0,2450.41,670.783Z" fill="#b7d3f3"/>
            <path id="Path_653" data-name="Path 653" d="M2454.816,695.644a2.52,2.52,0,1,0,3.564,0A2.519,2.519,0,0,0,2454.816,695.644Z" fill="#b7d3f3"/>
            <path id="Path_654" data-name="Path 654" d="M2470.641,711.509a2.52,2.52,0,1,0,3.563,0A2.518,2.518,0,0,0,2470.641,711.509Z" fill="#b7d3f3"/>
          </g>
        </g>
        <g id="Group_457" data-name="Group 457">
          <path id="Path_655" data-name="Path 655" d="M2493.675,673.3a2.52,2.52,0,1,1,2.52,2.52A2.52,2.52,0,0,1,2493.675,673.3Z" fill="#3a4ae9"/>
          <g id="Group_455" data-name="Group 455">
            <rect id="Rectangle_189" data-name="Rectangle 189" width="0.688" height="31.481" transform="translate(2495.852 641.821)" fill="#3a4ae9"/>
          </g>
          <g id="Group_456" data-name="Group 456">
            <rect id="Rectangle_190" data-name="Rectangle 190" width="21.218" height="2.064" transform="matrix(0.787, -0.617, 0.617, 0.787, 2495.239, 672.445)" fill="#3a4ae9"/>
          </g>
        </g>
      </g>
    </g>
    <g id="Group_63" data-name="Group 63" transform="translate(1297.197 137.48)">
      <g id="Group_26" data-name="Group 26" transform="translate(0 0)">
        <rect id="Rectangle_18" data-name="Rectangle 18" width="105.415" height="15.745" rx="7.872" transform="translate(0 3.086)" fill="#b3bdce"/>
        <path id="Path_70" data-name="Path 70" d="M1577.3,23.13V14.594h-.925V23.13h-67.757V14.594h-.925V23.13h-8.5c-5.291,0-9.579,7.261-9.579,16.216h104.355c0-8.956-4.289-16.216-9.579-16.216Z" transform="translate(-1488.554 -14.594)" fill="#8996f1"/>
        <path id="Path_71" data-name="Path 71" d="M1614.246,60.138c0,3.462-4.609,6.269-10.295,6.269s-10.294-2.807-10.294-6.269" transform="translate(-1549.82 -35.385)" fill="#8996f1"/>
      </g>
      <g id="Group_27" data-name="Group 27" transform="translate(15.858 48.979)" opacity="0.7">
        <path id="Path_72" data-name="Path 72" d="M1602.261,144.3a13.441,13.441,0,0,1-1.055,1.209.5.5,0,0,1-.734.071.582.582,0,0,1,.1-.784,11.705,11.705,0,0,0,1.416-1.75.587.587,0,0,1,.739-.261.52.52,0,0,1,.079.744C1602.64,143.783,1602.456,144.04,1602.261,144.3Zm1.561-2.843a.622.622,0,0,1-.562.262.441.441,0,0,1-.3-.627,7.007,7.007,0,0,0,.376-2.028.719.719,0,0,1,.542-.657.4.4,0,0,1,.506.436,8.287,8.287,0,0,1-.444,2.4A.768.768,0,0,1,1603.822,141.452ZM1599.473,147a.751.751,0,0,1-.144.142,20.328,20.328,0,0,1-2.015,1.322.429.429,0,0,1-.661-.189.7.7,0,0,1,.338-.765,19.361,19.361,0,0,0,1.88-1.231.454.454,0,0,1,.7.077A.614.614,0,0,1,1599.473,147Zm-3.979,2.312a.715.715,0,0,1-.271.218c-.671.3-1.386.584-2.125.841a.406.406,0,0,1-.574-.344.716.716,0,0,1,.468-.709c.706-.246,1.387-.516,2.025-.8a.415.415,0,0,1,.618.276A.659.659,0,0,1,1595.494,149.308Zm8.488-12.156a.706.706,0,0,1-.24.2.421.421,0,0,1-.641-.228,7.1,7.1,0,0,0-.731-1.715.653.653,0,0,1,.217-.786.462.462,0,0,1,.709.052,7.93,7.93,0,0,1,.819,1.922A.647.647,0,0,1,1603.982,137.152Zm-12.659,13.608a.7.7,0,0,1-.367.252q-1.059.27-2.136.465a.406.406,0,0,1-.492-.454.721.721,0,0,1,.555-.644c.692-.125,1.38-.273,2.06-.449a.406.406,0,0,1,.531.406A.687.687,0,0,1,1591.324,150.759Zm10.738-16.961c-.281.3-.611.338-.789.145a10.915,10.915,0,0,0-1.353-1.231,12.858,12.858,0,0,0-1.06-.737.523.523,0,0,1-.064-.748.561.561,0,0,1,.738-.246,13.611,13.611,0,0,1,1.121.778,11.562,11.562,0,0,1,1.446,1.317A.571.571,0,0,1,1602.061,133.8Zm-14.923,17.716a.664.664,0,0,1-.443.265q-1.056.112-2.1.15a.415.415,0,0,1-.412-.536.71.71,0,0,1,.617-.576c.676-.026,1.356-.073,2.036-.146a.411.411,0,0,1,.453.5A.733.733,0,0,1,1587.139,151.513Zm-4.115.148a.647.647,0,0,1-.511.268c-.688-.025-1.369-.073-2.04-.147a.434.434,0,0,1-.328-.609.691.691,0,0,1,.667-.5c.649.071,1.309.118,1.974.142a.424.424,0,0,1,.37.575A.733.733,0,0,1,1583.024,151.662Zm14.876-20.8a.578.578,0,0,1-.671.228,18.149,18.149,0,0,0-1.741-.7.474.474,0,0,1-.2-.692.633.633,0,0,1,.714-.378,18.8,18.8,0,0,1,1.818.735.5.5,0,0,1,.135.72A.636.636,0,0,1,1597.9,130.864Zm-18.848,20.363a.618.618,0,0,1-.576.26q-.994-.186-1.94-.449a.462.462,0,0,1-.232-.673.647.647,0,0,1,.7-.411c.607.17,1.234.315,1.872.436a.447.447,0,0,1,.282.64A.774.774,0,0,1,1579.052,151.227Zm15.206-21.63a.611.611,0,0,1-.6.256c-.615-.152-1.249-.28-1.894-.382a.442.442,0,0,1-.3-.63.672.672,0,0,1,.68-.474c.668.108,1.324.238,1.962.4a.457.457,0,0,1,.25.662A.8.8,0,0,1,1594.258,129.6Zm-18.948,20.58a.591.591,0,0,1-.647.239,17.893,17.893,0,0,1-1.783-.8.505.505,0,0,1-.11-.731.593.593,0,0,1,.733-.294,17.238,17.238,0,0,0,1.706.765.48.48,0,0,1,.175.7A.686.686,0,0,1,1575.31,150.177Zm15.039-21.208a.64.64,0,0,1-.531.267c-.654-.054-1.319-.084-1.988-.092a.421.421,0,0,1-.385-.563.7.7,0,0,1,.633-.551c.692.007,1.379.04,2.052.094a.43.43,0,0,1,.344.6A.733.733,0,0,1,1590.349,128.969Zm-18.407,19.454a.558.558,0,0,1-.726.2q-.283-.2-.554-.407a12.251,12.251,0,0,1-.961-.823.573.573,0,0,1,.055-.777.522.522,0,0,1,.74-.124,11.474,11.474,0,0,0,.9.773c.17.133.344.259.52.381a.537.537,0,0,1,.038.758Zm14.333-19.494a.66.66,0,0,1-.465.267c-.681.041-1.363.106-2.041.195a.409.409,0,0,1-.467-.483.72.72,0,0,1,.578-.622q1.056-.139,2.112-.2a.413.413,0,0,1,.425.525A.717.717,0,0,1,1586.275,128.929Zm-4.169.549a.688.688,0,0,1-.393.258q-1.041.214-2.057.506a.406.406,0,0,1-.547-.385.723.723,0,0,1,.5-.686q1.055-.305,2.14-.529a.407.407,0,0,1,.506.438A.7.7,0,0,1,1582.105,129.478Zm-12.88,16.312a.747.747,0,0,1-.1.1.479.479,0,0,1-.723,0,8.336,8.336,0,0,1-.97-1.808.679.679,0,0,1,.314-.772.433.433,0,0,1,.671.161,7.643,7.643,0,0,0,.878,1.632A.591.591,0,0,1,1569.225,145.79Zm8.693-15.1a.728.728,0,0,1-.306.233c-.692.261-1.368.553-2.01.869a.419.419,0,0,1-.632-.248.713.713,0,0,1,.389-.748c.677-.333,1.39-.64,2.117-.917a.411.411,0,0,1,.589.325A.675.675,0,0,1,1577.918,130.692Zm-10.066,11.383a.7.7,0,0,1-.333.241.405.405,0,0,1-.564-.361,7.8,7.8,0,0,1,.188-2.371.7.7,0,0,1,.637-.547.422.422,0,0,1,.378.568,6.643,6.643,0,0,0-.157,2.012A.681.681,0,0,1,1567.852,142.074Zm6-9.375a.752.752,0,0,1-.191.175,17.1,17.1,0,0,0-1.828,1.317.469.469,0,0,1-.716-.032.625.625,0,0,1,.2-.786,18.738,18.738,0,0,1,1.978-1.426.436.436,0,0,1,.675.154A.632.632,0,0,1,1573.847,132.7Zm-4.988,5a.584.584,0,0,1-.659.235.49.49,0,0,1-.155-.712,8.447,8.447,0,0,1,1.017-1.55c.141-.183.292-.369.45-.55a.528.528,0,0,1,.741-.132.565.565,0,0,1-.049.776c-.145.17-.28.333-.415.511a9.785,9.785,0,0,0-.863,1.32A.883.883,0,0,1,1568.859,137.7Z" transform="translate(-1549.854 -117.772)" fill="#3a4ae9"/>
        <path id="Path_73" data-name="Path 73" d="M1609.251,114.913c-.192.248-.4.491-.628.733a.51.51,0,0,1-.736.092.578.578,0,0,1,.084-.783,7.349,7.349,0,0,0,1.256-1.768.61.61,0,0,1,.717-.37.477.477,0,0,1,.189.7A8.575,8.575,0,0,1,1609.251,114.913Zm-2.38,2.217a.756.756,0,0,1-.162.155,15.606,15.606,0,0,1-1.613.983c-.151.08-.307.159-.465.237a.419.419,0,0,1-.633-.247.712.712,0,0,1,.388-.747q.214-.106.428-.218a14,14,0,0,0,1.471-.9.448.448,0,0,1,.693.109A.623.623,0,0,1,1606.872,117.13Zm3.8-5.692a.678.678,0,0,1-.414.261.407.407,0,0,1-.484-.465,4.6,4.6,0,0,0-.252-1.859.691.691,0,0,1,.33-.766.429.429,0,0,1,.663.18,5.587,5.587,0,0,1,.3,2.274A.712.712,0,0,1,1610.674,111.438Zm-7.859,7.718a.72.72,0,0,1-.322.238,20,20,0,0,1-2.16.612.405.405,0,0,1-.515-.426.718.718,0,0,1,.534-.662,19.073,19.073,0,0,0,2.036-.579.408.408,0,0,1,.574.347A.674.674,0,0,1,1602.816,119.155Zm6.63-11.479c-.318.314-.645.33-.808.124a7.4,7.4,0,0,0-1.288-1.256,8.759,8.759,0,0,0-.722-.5.525.525,0,0,1-.06-.749.56.56,0,0,1,.739-.244,9.507,9.507,0,0,1,.78.546,8.062,8.062,0,0,1,1.416,1.384A.583.583,0,0,1,1609.446,107.676Zm-10.823,12.439a.667.667,0,0,1-.434.264c-.7.087-1.412.139-2.118.158a.415.415,0,0,1-.406-.542.7.7,0,0,1,.621-.571c.674-.018,1.355-.069,2.023-.151a.409.409,0,0,1,.46.489A.718.718,0,0,1,1598.623,120.115Zm-4.1.108a.638.638,0,0,1-.528.266,19.952,19.952,0,0,1-2.024-.252.445.445,0,0,1-.287-.637.669.669,0,0,1,.684-.463,19.088,19.088,0,0,0,1.934.242.429.429,0,0,1,.348.592A.723.723,0,0,1,1594.522,120.223Zm11.132-15.264a.585.585,0,0,1-.657.235,13.975,13.975,0,0,0-1.776-.61.462.462,0,0,1-.236-.671.647.647,0,0,1,.7-.414,14.913,14.913,0,0,1,1.875.645.487.487,0,0,1,.158.711A.884.884,0,0,1,1605.654,104.959Zm-15.013,14.56a.6.6,0,0,1-.62.25,14.147,14.147,0,0,1-1.847-.705.5.5,0,0,1-.135-.72.6.6,0,0,1,.73-.317,13.214,13.214,0,0,0,1.744.664.467.467,0,0,1,.218.68A.7.7,0,0,1,1590.641,119.519Zm11.269-15.594a.625.625,0,0,1-.56.263,19.245,19.245,0,0,0-1.951-.194.425.425,0,0,1-.361-.58.69.69,0,0,1,.647-.533,20.444,20.444,0,0,1,2.038.2.442.442,0,0,1,.3.627A.787.787,0,0,1,1601.909,103.925ZM1587.2,117.893a.556.556,0,0,1-.729.2c-.128-.09-.255-.184-.378-.277a8.5,8.5,0,0,1-1.109-1.018.584.584,0,0,1,.1-.784.5.5,0,0,1,.735-.078,7.641,7.641,0,0,0,1.008.925c.115.087.233.174.355.259a.539.539,0,0,1,.033.759Zm10.673-14.163a.655.655,0,0,1-.472.267c-.674.033-1.356.1-2.029.2a.408.408,0,0,1-.474-.474.717.717,0,0,1,.57-.63c.7-.1,1.42-.174,2.128-.207a.414.414,0,0,1,.418.531A.734.734,0,0,1,1597.871,103.729Zm-4.174.622a.69.69,0,0,1-.369.251,19.432,19.432,0,0,0-2.031.636.408.408,0,0,1-.588-.324.723.723,0,0,1,.454-.717,20.019,20.019,0,0,1,2.154-.674.4.4,0,0,1,.531.407A.7.7,0,0,1,1593.7,104.351Zm-8.993,10.7a.7.7,0,0,1-.171.161.443.443,0,0,1-.686-.12,5.587,5.587,0,0,1-.508-2.171.719.719,0,0,1,.508-.682.406.406,0,0,1,.54.394,4.684,4.684,0,0,0,.425,1.8A.621.621,0,0,1,1584.7,115.053Zm4.846-9.117a.73.73,0,0,1-.232.2,13.889,13.889,0,0,0-1.864,1.19.457.457,0,0,1-.7-.068.641.641,0,0,1,.233-.786,15.092,15.092,0,0,1,2.05-1.31.423.423,0,0,1,.647.217A.647.647,0,0,1,1589.55,105.936Zm-4.915,4.926a.614.614,0,0,1-.589.258.451.451,0,0,1-.263-.653,8.537,8.537,0,0,1,1.349-2.24.536.536,0,0,1,.741-.153.565.565,0,0,1-.025.773l-.177.221a6.647,6.647,0,0,0-.932,1.611A.7.7,0,0,1,1584.635,110.861Z" transform="translate(-1559.568 -102.881)" fill="#3a4ae9"/>
        <path id="Path_74" data-name="Path 74" d="M1584.1,181.556c-.121.157-.245.314-.373.471a.538.538,0,0,1-.742.16.593.593,0,0,1,.019-.772,18.193,18.193,0,0,0,1.349-1.871.591.591,0,0,1,.736-.279.511.511,0,0,1,.1.736C1584.852,180.529,1584.486,181.052,1584.1,181.556Zm-1.98,2.222c-.637.634-1.248,1.184-1.89,1.711a.468.468,0,0,1-.715-.036.636.636,0,0,1,.2-.787c.609-.5,1.188-1.018,1.723-1.542a.5.5,0,0,1,.732-.053A.577.577,0,0,1,1582.117,183.779Zm4.147-5.817a.605.605,0,0,1-.612.252.462.462,0,0,1-.229-.673,13.87,13.87,0,0,0,.73-2.094.692.692,0,0,1,.65-.53.426.426,0,0,1,.36.582,15.215,15.215,0,0,1-.805,2.306A.769.769,0,0,1,1586.263,177.962Zm-7.8,8.821a.721.721,0,0,1-.166.157c-.638.443-1.311.873-2,1.28a.43.43,0,0,1-.665-.178.681.681,0,0,1,.33-.766c.66-.392,1.3-.8,1.917-1.228a.445.445,0,0,1,.69.113A.621.621,0,0,1,1578.46,186.782Zm8.94-13.241a.674.674,0,0,1-.417.261.407.407,0,0,1-.48-.466,11.284,11.284,0,0,0-.031-2.056.724.724,0,0,1,.467-.71.409.409,0,0,1,.579.341,12.592,12.592,0,0,1,.031,2.255A.709.709,0,0,1,1587.4,173.542Zm-12.908,15.6a.727.727,0,0,1-.244.2q-1.02.522-2.078.989a.415.415,0,0,1-.615-.282.715.715,0,0,1,.416-.736q1.025-.451,2.016-.957a.42.42,0,0,1,.639.233A.652.652,0,0,1,1574.492,189.144Zm-4.12,1.822a.726.726,0,0,1-.305.232q-1.045.4-2.115.742a.406.406,0,0,1-.564-.361.724.724,0,0,1,.482-.7q1.042-.338,2.059-.724a.41.41,0,0,1,.59.324A.678.678,0,0,1,1570.372,190.965Zm16.6-21.609a.737.737,0,0,1-.233.2.423.423,0,0,1-.646-.221,11.985,11.985,0,0,0-.681-1.8.671.671,0,0,1,.271-.78.447.447,0,0,1,.692.113,12.854,12.854,0,0,1,.729,1.934A.648.648,0,0,1,1586.973,169.356Zm-20.787,22.961a.687.687,0,0,1-.36.249c-.7.192-1.409.365-2.123.525a.406.406,0,0,1-.515-.427.723.723,0,0,1,.534-.662q1.045-.233,2.075-.511a.406.406,0,0,1,.54.4A.694.694,0,0,1,1566.187,192.317Zm19.13-26.524a.769.769,0,0,1-.108.113.472.472,0,0,1-.718-.016,15.213,15.213,0,0,0-1.129-1.491.6.6,0,0,1,.112-.785.5.5,0,0,1,.733-.062,15.928,15.928,0,0,1,1.188,1.566A.6.6,0,0,1,1585.316,165.793Zm-23.325,27.463a.683.683,0,0,1-.407.26q-1.054.188-2.114.329a.408.408,0,0,1-.466-.482.715.715,0,0,1,.577-.623q1.035-.138,2.068-.323a.408.408,0,0,1,.491.457A.716.716,0,0,1,1561.992,193.257Zm20.851-30.362c-.246.286-.578.345-.77.166q-.659-.615-1.415-1.2a.516.516,0,0,1-.074-.663.529.529,0,0,1-.66.12c-.5-.356-1.026-.693-1.565-1.013a.521.521,0,0,1-.079-.745.578.578,0,0,1,.738-.26q.838.5,1.615,1.045a.513.513,0,0,1,.087.673.523.523,0,0,1,.673-.11c.525.405,1.013.821,1.469,1.246A.563.563,0,0,1,1582.843,162.895Zm-25.021,30.921a.665.665,0,0,1-.451.267q-1.044.093-2.088.147a.414.414,0,0,1-.419-.53.7.7,0,0,1,.611-.583c.68-.035,1.365-.082,2.049-.145a.412.412,0,0,1,.443.508A.717.717,0,0,1,1557.821,193.815Zm-4.125.206a.653.653,0,0,1-.492.268c-.689,0-1.374,0-2.056-.027a.425.425,0,0,1-.371-.575.7.7,0,0,1,.643-.54c.669.022,1.342.033,2.018.028a.419.419,0,0,1,.395.553A.72.72,0,0,1,1553.7,194.021Zm23.7-34.838a.575.575,0,0,1-.68.225q-.833-.417-1.713-.785a.488.488,0,0,1-.159-.71.627.627,0,0,1,.727-.339c.6.252,1.189.52,1.758.806a.5.5,0,0,1,.119.727A.76.76,0,0,1,1577.392,159.183Zm-27.749,34.7a.635.635,0,0,1-.53.266q-1.014-.078-2.013-.2a.435.435,0,0,1-.319-.615.686.686,0,0,1,.67-.493q.978.121,1.974.2a.428.428,0,0,1,.345.593A.7.7,0,0,1,1549.643,193.881ZM1573.86,157.7a.594.594,0,0,1-.635.245q-.895-.314-1.823-.58a.463.463,0,0,1-.225-.675.639.639,0,0,1,.706-.407q.95.275,1.863.594a.475.475,0,0,1,.194.694A.8.8,0,0,1,1573.86,157.7Zm-28.18,35.7a.622.622,0,0,1-.569.262q-.988-.166-1.953-.378a.451.451,0,0,1-.265-.651.66.66,0,0,1,.694-.443c.628.137,1.267.261,1.913.37a.443.443,0,0,1,.293.633A.729.729,0,0,1,1545.68,193.4Zm24.448-36.777a.614.614,0,0,1-.593.257q-.937-.218-1.9-.4a.443.443,0,0,1-.284-.638.66.66,0,0,1,.684-.46c.657.12,1.3.255,1.943.4a.455.455,0,0,1,.258.657A.773.773,0,0,1,1570.129,156.618Zm-28.28,35.934a.609.609,0,0,1-.609.253q-.956-.262-1.876-.569a.473.473,0,0,1-.2-.69.634.634,0,0,1,.713-.383c.6.2,1.213.385,1.834.556a.462.462,0,0,1,.235.671A.8.8,0,0,1,1541.849,192.552Zm24.4-36.641a.628.628,0,0,1-.554.264q-.976-.132-1.968-.219a.431.431,0,0,1-.34-.6.689.689,0,0,1,.66-.51q1.012.089,2.007.223a.437.437,0,0,1,.312.62A.713.713,0,0,1,1566.244,155.911Zm-28.058,35.416a.591.591,0,0,1-.651.239q-.912-.365-1.777-.779a.5.5,0,0,1-.128-.723.594.594,0,0,1,.731-.312c.56.269,1.138.521,1.728.757a.485.485,0,0,1,.169.706A.842.842,0,0,1,1538.186,191.327Zm24.059-35.771a.644.644,0,0,1-.517.268c-.666-.032-1.338-.047-2.011-.049a.419.419,0,0,1-.388-.557.7.7,0,0,1,.631-.556q1.032,0,2.053.049a.425.425,0,0,1,.363.58A.726.726,0,0,1,1562.245,155.556Zm-27.5,34.124a.571.571,0,0,1-.7.216q-.849-.482-1.635-1.013a.533.533,0,0,1-.044-.756.578.578,0,0,1,.74-.224q.764.516,1.585.98a.514.514,0,0,1,.089.74C1534.772,189.643,1534.76,189.663,1534.746,189.68Zm23.416-34.136a.664.664,0,0,1-.476.268q-1.02.039-2.046.122a.412.412,0,0,1-.436-.514.707.707,0,0,1,.6-.6c.7-.055,1.392-.1,2.084-.125a.417.417,0,0,1,.414.538A.738.738,0,0,1,1558.161,155.544Zm-26.547,32.014a.548.548,0,0,1-.749.181q-.774-.626-1.439-1.283a.589.589,0,0,1,.064-.781.521.521,0,0,1,.739-.114q.641.633,1.386,1.237A.553.553,0,0,1,1531.615,187.558Zm22.405-31.679a.673.673,0,0,1-.436.265q-1.035.125-2.068.3a.407.407,0,0,1-.484-.464.725.725,0,0,1,.563-.636c.7-.116,1.405-.218,2.111-.3a.409.409,0,0,1,.46.49A.7.7,0,0,1,1554.02,155.879Zm-25.094,29.012c-.311.313-.639.332-.8.127a15.305,15.305,0,0,1-1.14-1.609.633.633,0,0,1,.207-.788.466.466,0,0,1,.712.039,14.459,14.459,0,0,0,1.081,1.528A.581.581,0,0,1,1528.925,184.891Zm20.907-28.315a.69.69,0,0,1-.39.257q-1.041.22-2.074.486a.405.405,0,0,1-.533-.4.722.722,0,0,1,.517-.675c.7-.184,1.411-.35,2.122-.5a.406.406,0,0,1,.508.436A.689.689,0,0,1,1549.832,156.576Zm-4.194,1.089a.7.7,0,0,1-.342.243q-1.039.322-2.061.693a.407.407,0,0,1-.581-.333.715.715,0,0,1,.46-.713q1.044-.383,2.118-.712a.4.4,0,0,1,.556.371A.687.687,0,0,1,1545.638,157.665Zm-18.72,23.918a.741.741,0,0,1-.181.168.439.439,0,0,1-.681-.139,12.683,12.683,0,0,1-.655-1.981.71.71,0,0,1,.392-.747.417.417,0,0,1,.63.251,11.831,11.831,0,0,0,.608,1.841A.627.627,0,0,1,1526.918,181.583Zm14.552-22.4a.7.7,0,0,1-.283.222c-.684.293-1.36.6-2.023.927a.417.417,0,0,1-.632-.246.7.7,0,0,1,.386-.748q1.027-.505,2.087-.956a.412.412,0,0,1,.608.291A.665.665,0,0,1,1541.47,159.184Zm-15.493,18.422a.706.706,0,0,1-.343.244.4.4,0,0,1-.554-.373,12.456,12.456,0,0,1,.072-2.284.718.718,0,0,1,.589-.609.412.412,0,0,1,.453.5,11.275,11.275,0,0,0-.068,2.074A.686.686,0,0,1,1525.977,177.605Zm11.416-16.408a.7.7,0,0,1-.215.188q-1.008.58-1.934,1.193a.441.441,0,0,1-.683-.131.671.671,0,0,1,.288-.777q.959-.641,2.011-1.239a.426.426,0,0,1,.658.19A.64.64,0,0,1,1537.393,161.2ZM1526.519,173.2a.631.631,0,0,1-.543.265.432.432,0,0,1-.328-.606,15.267,15.267,0,0,1,.9-2.289.637.637,0,0,1,.718-.374.477.477,0,0,1,.192.694,13.98,13.98,0,0,0-.822,2.074A.72.72,0,0,1,1526.519,173.2Zm7-9.419a.787.787,0,0,1-.131.133c-.625.489-1.216.995-1.757,1.5a.488.488,0,0,1-.728.027.629.629,0,0,1,.144-.788c.572-.535,1.2-1.068,1.853-1.584a.461.461,0,0,1,.708.057A.6.6,0,0,1,1533.516,163.786Zm-4.936,5.172a.563.563,0,0,1-.709.208.522.522,0,0,1-.067-.747c.231-.345.479-.683.744-1.027.245-.318.505-.637.781-.952a.525.525,0,0,1,.74-.13.559.559,0,0,1-.05.778c-.272.312-.529.631-.771.944-.226.293-.438.589-.639.885A.381.381,0,0,1,1528.58,168.958Z" transform="translate(-1525.057 -133.542)" fill="#3a4ae9"/>
      </g>
    </g>
  </g>
</svg>
