<svg xmlns="http://www.w3.org/2000/svg" xmlns:xlink="http://www.w3.org/1999/xlink" width="897.841" height="865.544" viewBox="0 0 897.841 865.544">
  <defs>
    <linearGradient id="linear-gradient" x1="0.492" y1="7.579" x2="0.505" y2="-4.289" gradientUnits="objectBoundingBox">
      <stop offset="0" stop-color="#8996f1"/>
      <stop offset="0.001" stop-color="#8996f1"/>
      <stop offset="1" stop-color="#3a4ae9"/>
    </linearGradient>
    <linearGradient id="linear-gradient-2" x1="0.583" y1="-1.34" x2="0.316" y2="4.586" xlink:href="#linear-gradient"/>
    <linearGradient id="linear-gradient-3" x1="0.694" y1="-0.601" x2="-0.217" y2="4.566" gradientUnits="objectBoundingBox">
      <stop offset="0" stop-color="#ffc444"/>
      <stop offset="0.996" stop-color="#f36f56"/>
    </linearGradient>
    <linearGradient id="linear-gradient-4" x1="0.504" y1="-0.621" x2="0.474" y2="4.609" xlink:href="#linear-gradient-3"/>
    <linearGradient id="linear-gradient-5" x1="0.655" y1="-18.135" x2="0.404" y2="12.015" xlink:href="#linear-gradient-3"/>
    <linearGradient id="linear-gradient-6" x1="0.51" y1="-0.591" x2="0.463" y2="4.545" xlink:href="#linear-gradient-3"/>
    <linearGradient id="linear-gradient-7" x1="0.512" y1="-0.601" x2="0.471" y2="4.573" xlink:href="#linear-gradient-3"/>
    <linearGradient id="linear-gradient-8" x1="0.552" y1="6.503" x2="0.489" y2="-0.962" xlink:href="#linear-gradient"/>
    <linearGradient id="linear-gradient-9" x1="0.578" y1="-1.32" x2="0.327" y2="4.542" xlink:href="#linear-gradient"/>
    <linearGradient id="linear-gradient-10" x1="0.505" y1="-0.635" x2="0.486" y2="4.655" xlink:href="#linear-gradient-3"/>
    <linearGradient id="linear-gradient-11" x1="0.274" y1="0.363" x2="0.895" y2="0.706" gradientUnits="objectBoundingBox">
      <stop offset="0" stop-color="#444b8c"/>
      <stop offset="0.996" stop-color="#26264f"/>
    </linearGradient>
    <linearGradient id="linear-gradient-12" x1="0.707" y1="0.204" x2="-0.293" y2="1.635" xlink:href="#linear-gradient-3"/>
    <linearGradient id="linear-gradient-13" x1="0.761" y1="0.152" x2="0.453" y2="0.563" xlink:href="#linear-gradient-3"/>
    <linearGradient id="linear-gradient-14" x1="0.169" y1="-0.343" x2="0.648" y2="0.878" xlink:href="#linear-gradient-3"/>
    <linearGradient id="linear-gradient-15" x1="-0.122" y1="2.096" x2="0.853" y2="-0.405" gradientUnits="objectBoundingBox">
      <stop offset="0.004" stop-color="#ebeff2"/>
      <stop offset="1" stop-color="#fff"/>
    </linearGradient>
    <linearGradient id="linear-gradient-16" x1="0.77" y1="0.088" x2="-0.679" y2="2.118" xlink:href="#linear-gradient-3"/>
    <linearGradient id="linear-gradient-17" x1="-3.822" y1="-7.172" x2="5.971" y2="10.213" gradientUnits="objectBoundingBox">
      <stop offset="0" stop-color="#ff9085"/>
      <stop offset="1" stop-color="#fb6fbb"/>
    </linearGradient>
    <linearGradient id="linear-gradient-18" x1="-4.966" y1="-1.032" x2="10.53" y2="3.312" xlink:href="#linear-gradient-17"/>
    <linearGradient id="linear-gradient-19" x1="-1.293" y1="-9.414" x2="2.407" y2="11.042" xlink:href="#linear-gradient-17"/>
    <filter id="Path_578" x="159.219" y="41.341" width="552.594" height="406.407" filterUnits="userSpaceOnUse">
      <feOffset dy="8" input="SourceAlpha"/>
      <feGaussianBlur stdDeviation="49.5" result="blur"/>
      <feFlood flood-color="#b8bce1" flood-opacity="0.631"/>
      <feComposite operator="in" in2="blur"/>
      <feComposite in="SourceGraphic"/>
    </filter>
  </defs>
  <g id="Group_465" data-name="Group 465" transform="translate(-1022.159 -99)">
    <g id="Group_431" data-name="Group 431" transform="translate(72.477 -34.456)">
      <g id="Group_314" data-name="Group 314" transform="translate(608.879 -1737.115)">
        <g id="Group_312" data-name="Group 312" transform="translate(722.136 2226.627)">
          <g id="Group_307" data-name="Group 307" transform="translate(78.343 148.693)">
            <path id="Path_22" data-name="Path 22" d="M0,5.415A26.882,26.882,0,0,1,3.959,16.8a9.46,9.46,0,0,0,5.972,9c.439.2,10.188-1.427,10.171-2.04-.013-3.583-.207-4.3-1.349-7.96S15.189,0,15.189,0Z" transform="matrix(0.996, 0.087, -0.087, 0.996, 204.202, 286.467)" fill="#ffb27d"/>
            <path id="Path_152" data-name="Path 152" d="M0,6.933A42.5,42.5,0,0,1,3.827,21.517C3.669,29.912,9.176,32.785,9.6,33.036s9.848-1.827,9.831-2.613a33.087,33.087,0,0,0-1.3-10.192C17.022,15.54,14.683,0,14.683,0Z" transform="matrix(0.809, 0.588, -0.588, 0.809, 38.186, 281.154)" fill="#ffb27d"/>
            <path id="Path_36" data-name="Path 36" d="M2032.228,1164.838c4.032-7.026,10.931-20.312,18.523-35.222,13.674-26.849,29.6-58.958,35.057-69.186,17.4-32.6,9.014-54.513,9.014-54.513s-48.543-5.163-61.845-17.682l-4.791,7.944s-10.517,50.095-10.02,50.327q-.777,2.555-1.579,5.2c-8.3,27.563-17.847,62.013-23.052,90.07-2.926,15.788-4.476,29.542-3.642,38.914a73.425,73.425,0,0,1-.858,14.254c-4.7,35.953-10.077,72.815-10.077,72.815l15.934,3.1s13.712-19.682,28.334-71.086" transform="translate(-1945.982 -977.668)" fill="#233862"/>
            <path id="Path_37" data-name="Path 37" d="M1915.769,1696.582h47.059s1.128-7.716-1.331-13.57c-2.355-5.618-5.712-5.8-.428-14.6-2.99,3.313-9.865.984-16.669,0-.833,1.454-8.111,14.907-10.9,17.059C1930.429,1687.847,1916.716,1687,1915.769,1696.582Z" transform="translate(-1915.769 -1368.173)" fill="#233862"/>
            <path id="Path_38" data-name="Path 38" d="M2260.356,1167.543c26.758,53.564,15.531,90.174,15.531,90.174l-15.531,3.637s-16.074-44.615-30.861-77.251c-2.51-5.535-4.79-9.84-6.7-12.334-5.561-7.265-11.423-19.6-17.2-34.453-10.923-28.074-21.528-65.119-29.091-93.8-.533.1-17.844-47.755-17.844-47.755l-.16-9.47c17.536,2.379,60.464-22.545,60.464-22.545s18.345,13.128,20.857,50.62c1.225,18.3,8.98,95.688,9.839,118.8" transform="translate(-2055.048 -963.742)" fill="#233862"/>
            <path id="Path_39" data-name="Path 39" d="M2337.441,1696.1h49.044s1.175-7.717-1.386-13.571c-2.456-5.618-6.3-8.17-5.379-14.967-3.117,3.313-8.2,7.022-15.286,6.037-.869,1.455-5.609,9.236-8.51,11.388C2352.72,1687.365,2338.427,1686.517,2337.441,1696.1Z" transform="translate(-2156.79 -1363.918)" fill="#233862"/>
          </g>
          <path id="Path_40" data-name="Path 40" d="M73.714,206.681,188.6,168.558s8.187-37.183-12.256-81.653c-17.5-38.075-49.978-67.15-89.416-81.319C79.007,2.739,71.569.466,67.055.04,50.1-1.56-10.369,45.426,1.542,53.191,50.3,84.974,88.945,174.923,73.714,206.681Z" transform="translate(37.625 45.841) rotate(-10)" fill="#00ac7d"/>
          <g id="Group_7" data-name="Group 7" transform="translate(0 12.124) rotate(-10)">
            <path id="Path_41" data-name="Path 41" d="M21.955,35.719c6.175-4.313,12.6-13.2,14.349-22.562A75.392,75.392,0,0,1,18.232,3.485c-.189-.14-.367-.28-.54-.414A20.138,20.138,0,0,1,14.376,0L1.109,13.755S-.8,19.174.39,20.32q.953.919,1.808,1.776c1.555,1.553,2.875,2.948,3.981,4.175a52.306,52.306,0,0,1,5,6.181S15.719,40.076,21.955,35.719Z" transform="translate(33.514 39.291)" fill="#ffb27d"/>
            <path id="Path_42" data-name="Path 42" d="M3.981,23.4C16.046,14.92,16.187,3.378,16.034.613,16.011.218,15.982,0,15.982,0c-.161.057-.322.125-.488.2C10.182,2.562,2.94,12.57,0,19.224,1.555,20.777,2.875,22.172,3.981,23.4Z" transform="translate(35.712 42.163)" fill="#e2915a"/>
            <path id="Path_43" data-name="Path 43" d="M43.986,20.55c8.226,11.529-4.576,24.143-10.6,29.124-1.692,1.4-2.847,2.2-2.847,2.2-2.184,1.316-5.932-.388-10.033-3.458C12.388,42.345,2.872,30.94,1.332,27.1-.982,21.309-2.062,13.574,13.691,3.63S33.45,5.775,43.986,20.55Z" transform="translate(5.042 13.036)" fill="#ffb27d"/>
            <path id="Path_44" data-name="Path 44" d="M.317,35.224C-.431,31.067.2,24.389,1.65,19.172,4.769,7.966,17.969,2.5,18.024,2.482,32.96-3.644,43.777,1.428,51.016,19.295c7.653,18.894.668,23.117.668,23.117s.412-1.928-3.871-5.849c-.243-.223-.451-.405-.633-.558a3.907,3.907,0,0,1-1.43-3.092c.1-2.459-2.85-6.543-4.91-6.394-2.485.179-2.839,3.458-2.3,5.137a2.27,2.27,0,0,1-1.737,2.831c-5.286,1.292-7.4-4.9-13.01-4.2S14.142,39.47,7.524,42.247C-.783,46.227.88,38.356.317,35.224Z" fill="#233862"/>
          </g>
          <g id="Group_309" data-name="Group 309" transform="translate(27.732 83.49)">
            <g id="Group_308" data-name="Group 308" transform="translate(3.913 65.031)">
              <path id="Path_51" data-name="Path 51" d="M1.493,25.669C6.317,19.176,23.02,7.7,30.729,2.585,33.147.976,34.683,0,34.683,0L41,4.893s-1.267,1.438-3.291,3.837A286.4,286.4,0,0,0,19.541,32.546C10.49,46.133-4.846,34.2,1.493,25.669Z" transform="matrix(-0.914, 0.407, -0.407, -0.914, 56.843, 35.354)" fill="#ffb27d"/>
              <path id="Path_35" data-name="Path 35" d="M9.318.286s4.548,3.864,8.007,4.679,7.39,10.287,8.019,11.641-3.3-.6-4.874-2.906-2.646-3.208-3.1-2.706.274,6.815,2.9,10.323,4.193,6.615,2.306,6.414S9.463,24.925,7.158,18.41,6.543,11.667,1.243,4.966,9.318.286,9.318.286Z" transform="translate(24.262 31.138) rotate(61)" fill="#ffb27d"/>
            </g>
            <path id="Path_45" data-name="Path 45" d="M45.956,78.5C56.8,64.813,35.624,30.55,30.764,15.139c-4-12.7-20.69-20.821-28.873-10.314L.231,8.382a11.9,11.9,0,0,0,.553,6.562L18,44.044c4.631,6.56,10.731,17.205,11.369,26.323a78.694,78.694,0,0,0,9.258-.238C43.067,69.7,45.956,78.5,45.956,78.5Z" transform="matrix(0.961, 0.276, -0.276, 0.961, 21.639, 0)" fill="#00ac7d"/>
          </g>
          <path id="Path_46" data-name="Path 46" d="M0,14.285A53.471,53.471,0,0,0,15.118,0s6,5.787,10.705,5.328c0,0,1.863,12.464-9.347,18.547C8.9,27.984,0,14.285,0,14.285Z" transform="translate(26.551 50.103) rotate(-10)" fill="#fff"/>
          <g id="Group_8" data-name="Group 8" transform="translate(39.828 38.343) rotate(-10)">
            <path id="Path_47" data-name="Path 47" d="M.346,9.824,0,9.276,3.292.908,3.893,0Z" fill="#fff"/>
          </g>
          <g id="Group_9" data-name="Group 9" transform="translate(49.866 37.195) rotate(-10)">
            <path id="Path_48" data-name="Path 48" d="M.621,13.991,0,14.151,1.006,0l.532,1.612Z" fill="#fff"/>
          </g>
        </g>
        <g id="Group_305" data-name="Group 305" transform="translate(552.8 2383.692)">
          <g id="Group_75" data-name="Group 75" transform="translate(0 65.817)">
            <g id="Group_72" data-name="Group 72" transform="translate(15.098 0)">
              <path id="Path_125" data-name="Path 125" d="M-96.381,3159.2a14.631,14.631,0,0,1,8.934-10.754c15.329-6.453,32.389.806,47.546,7.785,46.726,21.513,16.864,45.919,6.4,43.676-11.715-3.313-30.193-6.751-41.515-10.955-7-3.6-8.906-9.828-12.164-16.119C-94.987,3170.035-97.346,3164.706-96.381,3159.2Z" transform="translate(96.585 -3145.941)" fill="#bac4ea"/>
              <path id="Path_126" data-name="Path 126" d="M-96.381,3159.2a14.631,14.631,0,0,1,8.934-10.754c15.329-6.453,32.389.806,47.546,7.785,46.726,21.513,16.864,45.919,6.4,43.676-11.715-3.313-30.193-6.751-41.515-10.955-7-3.6-8.906-9.828-12.164-16.119C-94.987,3170.035-97.346,3164.706-96.381,3159.2Z" transform="translate(96.585 -3145.941)" fill="#a6cde2"/>
              <path id="Path_127" data-name="Path 127" d="M-49.651,3181.318c-14.775-6.8-31.356-13.865-46.38-8.241a13.125,13.125,0,0,0-.35,1.46c-.965,5.507,1.394,10.836,9.2,13.633,3.259,6.291,5.162,12.515,12.165,16.119,11.322,4.2,29.8,7.641,41.515,10.955,2.1.45,4.987-.176,7.876-1.636C-21.624,3204.977-24.843,3192.74-49.651,3181.318Z" transform="translate(96.585 -3161.279)" fill="#bac4ea" opacity="0.5" style="mix-blend-mode: multiply;isolation: isolate"/>
            </g>
            <path id="Path_128" data-name="Path 128" d="M91.684,3339.8l-3.56,13.49a2.479,2.479,0,0,1-3.03,1.764l-218.667-57.708a2.479,2.479,0,0,1-1.765-3.03l3.56-13.49a2.479,2.479,0,0,1,3.029-1.764l218.668,57.708A2.478,2.478,0,0,1,91.684,3339.8Z" transform="translate(135.42 -3227.257)" fill="#1c3758"/>
            <path id="Path_129" data-name="Path 129" d="M486.824,3289.659h.358c23.93-.23,25.692-27.024,1.884-28.852q-1.389-.106-2.816-.107H88.853l-178.841-57.9a27.75,27.75,0,0,0-15.381-.421c-10.693,2.792-11.411,14.131-1.054,17.562l.166.054,184.942,59.875a27.4,27.4,0,0,0,9.112,1.282v8.508Z" transform="translate(122.208 -3179.895)" fill="#d5e6f1" style="mix-blend-mode: multiply;isolation: isolate"/>
            <rect id="Rectangle_41" data-name="Rectangle 41" width="626.159" height="23.046" transform="translate(16.256 119.366)" fill="#948bb7"/>
            <rect id="Rectangle_42" data-name="Rectangle 42" width="517.615" height="14.681" transform="translate(82.43 200.389)" fill="#1c3758"/>
            <rect id="Rectangle_43" data-name="Rectangle 43" width="10.637" height="59.683" transform="translate(157.044 142.413)" fill="#1c3758"/>
            <rect id="Rectangle_44" data-name="Rectangle 44" width="10.637" height="59.683" transform="translate(544.541 142.413)" fill="#1c3758"/>
            <g id="Group_73" data-name="Group 73" transform="translate(82.43 231.048)">
              <circle id="Ellipse_4" data-name="Ellipse 4" cx="20.008" cy="20.008" r="20.008" transform="translate(9.188 15.543)" fill="#8ab2d5"/>
              <path id="Path_130" data-name="Path 130" d="M145.6,3814.9a10.691,10.691,0,1,1-10.691-10.691A10.691,10.691,0,0,1,145.6,3814.9Z" transform="translate(-105.709 -3779.349)"/>
              <path id="Path_131" data-name="Path 131" d="M86.755,3752.412s-.773,9.961,9.875,15.371,10.648,10.648,10.648,10.648-1.031,8.071,4.809,8.244,6.183-7.385,5.667-13.568-5.152-12.537-6.1-14.083-.344-6.612-.344-6.612Z" transform="translate(-82.805 -3747.689)" fill="#f6e0b7"/>
              <rect id="Rectangle_45" data-name="Rectangle 45" width="30.57" height="7.041" transform="translate(0)" fill="#8ab2d5"/>
            </g>
            <rect id="Rectangle_46" data-name="Rectangle 46" width="4.74" height="15.979" transform="translate(94.886 215.07)" fill="#1c3758"/>
            <g id="Group_74" data-name="Group 74" transform="translate(555.958 231.048)">
              <path id="Path_132" data-name="Path 132" d="M1358.314,3800.25a20.008,20.008,0,1,1-20.008-20.008A20.008,20.008,0,0,1,1358.314,3800.25Z" transform="translate(-1309.11 -3764.7)" fill="#8ab2d5"/>
              <path id="Path_133" data-name="Path 133" d="M1364.611,3814.9a10.691,10.691,0,1,1-10.691-10.691A10.691,10.691,0,0,1,1364.611,3814.9Z" transform="translate(-1324.349 -3779.349)"/>
              <path id="Path_134" data-name="Path 134" d="M1304.8,3752.412s-.773,9.961,9.875,15.371,10.648,10.648,10.648,10.648-1.031,8.071,4.809,8.244,5.4-7.962,4.881-14.145-4.367-11.96-5.311-13.506-.344-6.612-.344-6.612Z" transform="translate(-1300.854 -3747.689)" fill="#f6e0b7"/>
              <rect id="Rectangle_47" data-name="Rectangle 47" width="30.57" height="7.041" fill="#8ab2d5"/>
            </g>
            <rect id="Rectangle_48" data-name="Rectangle 48" width="4.74" height="15.979" transform="translate(568.414 215.07)" fill="#1c3758"/>
            <path id="Path_135" data-name="Path 135" d="M101.537,3298.636-109.7,3237.059l-3.442,6.165c-4.547,8.144,1.484,17.251,13.471,20.341L101.537,3321H482.659c12.821,0,23.214-7.062,23.214-15.772v-6.594Z" transform="translate(122.728 -3201.636)" fill="#ada9bb"/>
            <rect id="Rectangle_49" data-name="Rectangle 49" width="18.91" height="124.39" rx="6.074" transform="translate(635.733 23.046)" fill="#1c3758"/>
            <rect id="Rectangle_50" data-name="Rectangle 50" width="18.91" height="72.684" rx="6.074" transform="translate(8.9 69.729)" fill="#1c3758"/>
            <path id="Rectangle_51" data-name="Rectangle 51" d="M15.647,0h0A15.647,15.647,0,0,1,31.294,15.647V67.661a0,0,0,0,1,0,0H0a0,0,0,0,1,0,0V15.647A15.647,15.647,0,0,1,15.647,0Z" transform="translate(214.519 74.752)" fill="#5b80ae"/>
            <circle id="Ellipse_5" data-name="Ellipse 5" cx="11.34" cy="11.34" r="11.34" transform="translate(218.826 81.139)" fill="#1c3758"/>
            <rect id="Rectangle_52" data-name="Rectangle 52" width="31.294" height="10.784" transform="translate(214.519 108.582)" fill="#8ab2d5" opacity="0.5" style="mix-blend-mode: multiply;isolation: isolate"/>
          </g>
          <g id="Group_77" data-name="Group 77" transform="translate(53.151)">
            <path id="Path_136" data-name="Path 136" d="M3.812,3092.919c-.708,2.135.332,2.693.332,2.693-1.406,8.647,5.558,5.72,5.558,5.72,1.452,9.539,6.6,8.767,7.871,7.052,1.884-2.536,9.991.279,9.991.279s1.473-9.85,1.472-10.187-1.211-16.948-1.211-16.948-9.581-15.692-8.882-21.868-6.635-5.708-7.469-1.889c.051-5.5-5.209.093-5.4,3.349s-.93.793-2.337,9.1S1,3086.078,1.983,3088.208C-.283,3090.571,3.812,3092.919,3.812,3092.919Z" transform="translate(-1.299 -3024.505)" fill="#e8e5e3"/>
            <path id="Path_137" data-name="Path 137" d="M823.045,3148.224c-69.977-34.166-200.9-33.6-200.9-33.6s60.413,20.875,93.465,24.181c5.489.548,16.655.391,17.014.366,5.946-.411,20.776-2.211,47.474,1.1,26.111,3.237,58.423,7.758,65.756,9.663a1.846,1.846,0,0,1,1.379,1.889l-.306,5.474a1.842,1.842,0,0,1-1.6,1.727c-9.443,1.235-60.774,7.93-89.9,11.341a173.872,173.872,0,0,1-36.275.439l-69.962-6.487-1.458-.137-44.237-4.1h0a1.845,1.845,0,0,1-1.646-1.556c-.2-1.322-.353-2.675-.425-4.02-.017-.145-.022-.29-.026-.428,0,0-2.6.257-6.563.572-.536.041-1.12.088-1.711.135-.306.021-.616.044-.944.072-6.633.5-15.627,1.04-22.865.985-1.456-.008-2.839-.043-4.118-.108a1.845,1.845,0,0,1-1.107-3.252,70.837,70.837,0,0,0,6.678-6.449c.532-.6,1.08-1.231,1.651-1.887.194-.236.4-.481.6-.72a65.623,65.623,0,0,0,14.384-30.878,40.873,40.873,0,0,0-9.593-34.256c-.193-.231-.391-.448-.579-.662-.415-.475-.825-.924-1.24-1.35a47.1,47.1,0,0,0-4.284-3.961,1.842,1.842,0,0,1,.683-3.206l.488-.132c4.753-1.269,13.457-3.381,25.284-5.385.481-.083.974-.159,1.483-.25C604.858,3062.492,618.516,3060.758,823.045,3148.224Z" transform="translate(-344.896 -3027.774)" fill="#987730"/>
            <path id="Path_138" data-name="Path 138" d="M294.952,3135.956c.324-.019.648-.067.966-.085h.011a316.787,316.787,0,0,0,49.533-9.132c.771-.208,1.534-.426,2.3-.629.011-.007.011-.007.022,0s.011-.007.027,0,.014-.006.022,0,.012-.007.025,0c1.188-.327,2.336-.671,3.467-1.005.315-.1.6-.186.9-.272,3.055-.932,5.944-1.889,8.7-2.871a62.552,62.552,0,0,1-2.431-7.032c-.089-.271-.172-.543-.243-.839-.446-1.625-.877-3.423-1.225-5.292-.047-.284-.1-.577-.148-.882a42.726,42.726,0,0,1-.538-4.983s-5.14.5-11.936.984c-.313.015-.641.036-.962.059-8.167.541-18.374,1.011-24.929.515h-.005c-1.151-.091-2.186-.2-3.086-.367a.081.081,0,0,0,.028-.018,51.162,51.162,0,0,0,5.7-4.644c1.409-1.292,2.986-2.846,4.639-4.667a70.517,70.517,0,0,0,7.855-10.434c.155-.273.318-.54.487-.816a65.023,65.023,0,0,0,6.416-14.444c.08-.264.156-.53.24-.8a60.543,60.543,0,0,0,1.564-6.895,43,43,0,0,0,.618-7.475c.007-.272,0-.549-.016-.827a39.764,39.764,0,0,0-4.718-17.967c-.156-.288-.321-.58-.48-.863a46.839,46.839,0,0,0-10.4-12.505,34.961,34.961,0,0,0-3.657-2.761s-8.083-1.1-18.169-2.355c-.3-.05-.617-.086-.936-.122-4.233-.532-8.767-1.073-13.2-1.566-7.3-.823-14.264-1.531-18.932-1.782h-.028l-.514-.025s1.6-.409,4.15-1.014c.091-.021.181-.051.269-.069.848-.211,1.809-.453,2.836-.691,7.585-1.844,19.177-4.592,24.985-5.622.324-.066.639-.113.935-.168s.583-.086.837-.123c0,0,4.367.5,18.762,1.208a171.659,171.659,0,0,0,18.664-.212c.382-.02.748-.044,1.1-.073,3.4-.231,6.1-.5,7.667-.664.231-.015.435-.04.606-.052.009-.012.009-.012.019,0,.5-.066.772-.1.836-.1l.031-.01a5,5,0,0,1-.026-.664,21.344,21.344,0,0,1,.547-4.881,25.977,25.977,0,0,1,1.056-3.533c.1-.271.2-.542.319-.811a29.088,29.088,0,0,1,6.746-9.811s-4.775-1.177-12.288-2.676c-.3-.057-.6-.127-.921-.189-11.44-2.271-28.73-5.2-45.2-6.084-.316-.029-.631-.044-.942-.059-3.9-.193-7.761-.259-11.477-.184a179.54,179.54,0,0,0-23.083,2.182c-.314.038-.633.094-.951.152-3.419.534-6.813,1.173-10.183,1.856-.318.061-.634.127-.942.187-4.369.914-8.66,1.915-12.834,2.974-.711.18-1.423.365-2.121.544-7.465,1.952-14.524,4.04-20.878,6.056h-.016c-.547.172-1.089.359-1.621.525-1.132.361-2.244.731-3.337,1.082-.3.094-.612.2-.917.292-2.549.845-4.949,1.642-7.184,2.407a73.551,73.551,0,0,0-15.959,7.511c-.21.133-.437.272-.659.42-.091.053-.171.115-.262.172-.236.153-.463.306-.706.474a49.157,49.157,0,0,0-13.386,13.319,40.7,40.7,0,0,0-2.682,4.61c.656.606,1.3,1.223,1.919,1.843a17.843,17.843,0,0,1,1.645,1.887c.22.284.428.577.615.854a16.564,16.564,0,0,1,2.82,9.324,21.862,21.862,0,0,1-1.422,7.607c-.1.289-.221.573-.327.846a18.972,18.972,0,0,1-1.851,3.507c-1.09,1.572-6.667,4.188-12.413,6.561l-.234.8s-.142.28-.362.843l-1.565,10-.023.166c0,.2,0,.423.016.645.008.738.037,1.5.1,2.3a54.688,54.688,0,0,0,1.85,10.653c.075.273.151.54.236.817.247.88.52,1.775.821,2.707,3.871,11.654,10.338,18.478,18.583,23.5.3.187.6.381.906.548a96.089,96.089,0,0,0,12.174,5.845c.556.242,1.111.468,1.684.71h.033c.314.118.638.258.968.383,1.281.512,2.62,1.053,3.994,1.617.29.116.581.241.881.366,4.519,1.841,9.457,3.915,14.728,6.029l.033,0c.646.251,1.281.5,1.927.769,7.989,3.168,16.582,6.392,25.308,9.067h.011c.307.1.617.2.937.288,3.256,1,6.545,1.906,9.8,2.708.322.076.633.155.944.232.751.18,1.5.349,2.245.517C269.03,3137.266,281.329,3137.248,294.952,3135.956Z" transform="translate(-99.839 -2976.64)" fill="#ff3144"/>
            <path id="Path_139" data-name="Path 139" d="M407.052,3289.4s14.369,1.454,21.431,1.613c.278.005.561.012.832.023,5.88.1,10.343.04,10.343.04a49.1,49.1,0,0,0-.11,4.994c-10.357,1.856-26.5,3.9-43.769-.893-18.292-5.081-62.581-20.85-81.142-22.528,0,0,4.809-5.155,35.383-.394q.766.119,1.553.247Z" transform="translate(-192.824 -3156.099)" fill="#d50018"/>
            <path id="Path_140" data-name="Path 140" d="M67.518,3102.565a28.608,28.608,0,0,0,6.976-2.227c1.637-.752,3.5-1.579,5.274-2.463a35.778,35.778,0,0,0,9.4-6.6,5.328,5.328,0,0,0,.645-.839,22.1,22.1,0,0,0,1.868-4.369c1.661-5.174,2.513-13.125-2.913-19.634-.514-.615-1.051-1.227-1.6-1.826-1.914-2.1-5.327-1.386-7.8-3.257-1.8-1.36-4.4-4.027-6.586-5.214-1.343-.728-7.178-3.558-8.69-4.208-5.719-2.456-6.414-3.517-15.156-4.5-21.491-2.425-27.065,13.173-29.085,20.333-1.709,6.077-1.417,14.946,3.826,23.723.191.332.394.661.613,1,.173.256.358.519.563.77.525.544,3.865,2.591,8.952,2.046h.009a15.55,15.55,0,0,0,1.672-.262c6.052-1.255,7.906-1.72,14.231,1.711.789.423,1.535.84,2.227,1.24a69.864,69.864,0,0,1,7.388,4.729s-4.042,2.263-5.658,2.422" transform="translate(-12.068 -3019.756)" fill="#ef8d6c"/>
            <path id="Path_141" data-name="Path 141" d="M654.04,3051.056h0Z" transform="translate(-400.266 -3022.125)" fill="#1f61e0"/>
            <path id="Path_142" data-name="Path 142" d="M650.238,3051.258l0-.036c.868-.086,1.376-.157,1.466-.167Z" transform="translate(-397.957 -3022.125)" fill="#e9b7ac"/>
            <path id="Path_143" data-name="Path 143" d="M63.005,3177.563a10.108,10.108,0,0,0,2.642-.7,14.347,14.347,0,0,0,3.016-1.725,75.665,75.665,0,0,0-8.087-5.122c-.489-.277-1-.557-1.528-.844-6.324-3.426-8.178-2.966-14.231-1.7-6.025,1.263-10.062-1.186-10.633-1.8a23.409,23.409,0,0,0,10.806,9.7c.034.007.052.023.086.033C52.874,3178.959,63.005,3177.563,63.005,3177.563Z" transform="translate(-21.4 -3092.186)" fill="#e8e5e3"/>
            <g id="Group_76" data-name="Group 76" transform="translate(58.688 66.301)">
              <path id="Path_144" data-name="Path 144" d="M163.725,3161.011a61.585,61.585,0,0,0,10.481-3.124c4.656-1.734,9.114-3.819,9.859-5.229.888-1.712-3.76-3.5-7.3-4.558a25.561,25.561,0,0,0-3.744-.907,20.021,20.021,0,0,1-2.178,4.353c-1.487,2.15-11.343,6.237-18.58,9.02C155.095,3160.875,160.791,3161.412,163.725,3161.011Z" transform="translate(-152.263 -3147.187)" fill="#e9b7ac"/>
              <path id="Path_145" data-name="Path 145" d="M163.725,3161.011a61.585,61.585,0,0,0,10.481-3.124,26.78,26.78,0,0,0,2.558-9.787,25.561,25.561,0,0,0-3.744-.907,20.021,20.021,0,0,1-2.178,4.353c-1.487,2.15-11.343,6.237-18.58,9.02C155.095,3160.875,160.791,3161.412,163.725,3161.011Z" transform="translate(-152.263 -3147.187)" fill="#e69790"/>
            </g>
            <path id="Path_146" data-name="Path 146" d="M733.972,3055.325a17.7,17.7,0,0,1-2.151-.348A8.087,8.087,0,0,0,733.972,3055.325Z" transform="translate(-447.824 -3024.523)" fill="#e69790"/>
            <path id="Path_147" data-name="Path 147" d="M686.411,3012.68a.054.054,0,0,0,.047,0,2.606,2.606,0,0,0,.341-.027c4.147-.331,11.571-4.281,11.038-6.181a.365.365,0,0,1-.015-.071c-.742-1.867-8.36-.217-10.445-.514-2.063-.287-2.339-3.054-.065-6.24s4.94-6,9.561-2.642c2.53,1.826,3.9,2,4.622,1.8a1.333,1.333,0,0,0,.584-.36,1.055,1.055,0,0,0,.163-.267,6.074,6.074,0,0,0,.8.679c.847.628,2.279,1.331,3.536.458,1.959-1.375-5.106-13.288-8.023-13.694-2.9-.423-2.437,2.535-2.437,2.535s-3.933-4.415-8.652-2.443-7.654,9.53-7.654,9.53c-3.466-1.46-17.132-4.145-17.132-4.145a28.288,28.288,0,0,0-8.05,13.827,20.422,20.422,0,0,0-.592,5.873l22.365-3.055a30.9,30.9,0,0,0,3.125,2.267.234.234,0,0,0,.04.029,19.212,19.212,0,0,0,4.693,2.291A8.116,8.116,0,0,0,686.411,3012.68Z" transform="translate(-400.263 -2981.878)" fill="#ef8d6c"/>
            <path id="Path_148" data-name="Path 148" d="M706.3,3310.513c.375-1.518.218-2.1-.075-2.291-.264-.165-.65.024-.8.106.32-.235,2.809-2.175,3.125-3.708a1.55,1.55,0,0,0,.019-.53c-.128-.688-.376-1.01-.646-1.134a.922.922,0,0,0-.774-.016,9.018,9.018,0,0,0,1.193-1.242,3.206,3.206,0,0,0,.355-.616c.2-.54-.05-.965-1.394-.888-3.362.2-12.4,4.531-15.022,2.752-2.61-1.784-3.61-6.24-3.272-8.8a.973.973,0,0,1,.47-.708c1.885-1.182,8.8.944,10.9-.557,1.244-.888.34-2.261-1.689-3.555a23.929,23.929,0,0,0-7.981-2.98c-6.409-1.248-15.121,4.575-15.121,4.575s-13.869,1.245-14.495,1.214c.067,1.462.222,2.937.432,4.379.087.5.169.993.254,1.486a68.559,68.559,0,0,0,3.9,13.163l13-4.128s12.062,5.006,16.955,7.257S705.483,3313.866,706.3,3310.513Z" transform="translate(-404.591 -3165.841)" fill="#e9b7ac"/>
            <path id="Path_149" data-name="Path 149" d="M661.523,3296.519c5.427-1.419,15.01-3.714,15.01-3.714s3.577-3.611,11.6-4.207a44.445,44.445,0,0,1,10.559.733,23.929,23.929,0,0,0-7.981-2.98c-6.409-1.248-15.121,4.575-15.121,4.575s-13.869,1.245-14.495,1.214C661.158,3293.6,661.313,3295.077,661.523,3296.519Z" transform="translate(-404.591 -3165.841)" fill="#e69790"/>
            <path id="Path_150" data-name="Path 150" d="M738.005,3316.225c3.606-.455,8.6-2.524,11.769-3.717.2-.54-.05-.965-1.395-.888-3.362.2-12.4,4.531-15.022,2.752-2.61-1.784-3.61-6.24-3.272-8.8a.973.973,0,0,1,.47-.707c-2.491.552-2.483,3.307-2.023,7.225C729.132,3317.247,732.593,3316.9,738.005,3316.225Z" transform="translate(-445.669 -3177.267)" fill="#e69790"/>
            <path id="Path_151" data-name="Path 151" d="M846.43,3184.047c0-26.633-36.223-74.093-65.86-82.325-38.386-10.663-89.6-29.439-119.372-32.93-47.831-5.609-124.238-8.232-159.254.823,0,0-29.985,19.53-38.552,43.629s-6.187,75.209-6.187,75.209,51.205,5.634,99.706,5.015,205.892,1.87,230.165,0C787.074,3193.469,846.43,3190.634,846.43,3184.047Z" transform="translate(-279.781 -3029.845)" fill="#233862"/>
          </g>
          <g id="Group_78" data-name="Group 78" transform="translate(215.576 133.324)">
            <path id="Rectangle_53" data-name="Rectangle 53" d="M15.647,0h0A15.647,15.647,0,0,1,31.294,15.647V74.633a0,0,0,0,1,0,0H0a0,0,0,0,1,0,0V15.647A15.647,15.647,0,0,1,15.647,0Z" transform="translate(0 0)" fill="#5b80ae"/>
            <circle id="Ellipse_6" data-name="Ellipse 6" cx="11.34" cy="11.34" r="11.34" transform="translate(4.695 5.584)" fill="#1c3758"/>
            <rect id="Rectangle_54" data-name="Rectangle 54" width="31.294" height="10.784" transform="translate(0 40.803)" fill="#8ab2d5" opacity="0.5" style="mix-blend-mode: multiply;isolation: isolate"/>
          </g>
        </g>
        <g id="Group_311" data-name="Group 311" transform="translate(804.849 2262.586)">
          <path id="Path_49" data-name="Path 49" d="M64.648,0S70.171,72.832,0,87.732l30.714-49.56Z" transform="translate(24.134 50.581) rotate(-10)" fill="#233862"/>
          <g id="Group_310" data-name="Group 310" transform="translate(0)">
            <path id="Path_35-2" data-name="Path 35" d="M16.322.29S11.709,4.208,8.2,5.036.706,15.469.069,16.841s3.349-.609,4.943-2.948S7.7,10.641,8.161,11.149s-.278,6.911-2.936,10.47-4.253,6.708-2.339,6.5,13.289-2.846,15.627-9.453.623-6.839,6-13.635S16.322.29,16.322.29Z" transform="translate(11.069 152.555) rotate(-10)" fill="#ffb27d"/>
            <g id="Group_10" data-name="Group 10" transform="translate(0 13.646) rotate(-10)">
              <path id="Path_51-2" data-name="Path 51" d="M54.477,84.64c-7.15,9.536-30.521,27.385-41.282,35.367-3.377,2.511-5.516,4.043-5.516,4.043L0,118.067s1.844-2.136,4.8-5.689c6.289-7.562,17.605-21.549,26.854-35.04C45.25,57.508,43.231,3.106,43.231,3.106,52.946-6,71.228,6.78,75.86,17.545S63.873,72.111,54.477,84.64Z" transform="translate(0 24.76)" fill="#ffb27d"/>
              <path id="Path_52" data-name="Path 52" d="M30.413,0S44.14,8.4,49.5,37.2s-15.658,67.17-21.743,74.957-9.02,9.972-9.02,9.972S6.255,116.635,0,106.994c0,0,11.085-21.728,10.41-35.716C9.819,59.016,6.83,24,13.761,16.9S30.413,0,30.413,0Z" transform="translate(28.227)" fill="#00ac7d"/>
            </g>
          </g>
        </g>
      </g>
      <g id="Group_398" data-name="Group 398" transform="translate(-7990.318 -660.435)">
        <ellipse id="Ellipse_27" data-name="Ellipse 27" cx="9.161" cy="10.667" rx="9.161" ry="10.667" transform="translate(9087.385 1638.1)" fill="#161b43"/>
        <ellipse id="Ellipse_28" data-name="Ellipse 28" cx="9.161" cy="10.667" rx="9.161" ry="10.667" transform="translate(8946.125 1638.1)" fill="#161b43"/>
        <g id="Group_202" data-name="Group 202" transform="translate(8940 1441.197)">
          <rect id="Rectangle_88" data-name="Rectangle 88" width="171.868" height="205.892" fill="#fff"/>
          <rect id="Rectangle_89" data-name="Rectangle 89" width="44.429" height="4.981" transform="translate(63.72 33.895)" fill="#58afdc"/>
          <rect id="Rectangle_90" data-name="Rectangle 90" width="44.429" height="4.981" transform="translate(63.72 97.761)" fill="#58afdc"/>
          <rect id="Rectangle_91" data-name="Rectangle 91" width="44.429" height="4.981" transform="translate(63.72 166.586)" fill="#58afdc"/>
          <rect id="Rectangle_92" data-name="Rectangle 92" width="171.868" height="1.245" transform="translate(0 67.066)" fill="#58afdc"/>
          <rect id="Rectangle_93" data-name="Rectangle 93" width="171.868" height="1.245" transform="translate(0 137.875)" fill="#58afdc"/>
        </g>
        <g id="Group_215" data-name="Group 215" transform="translate(8952.577 1366.871)">
          <path id="Path_345" data-name="Path 345" d="M1987.566,735.382h0v-5.126h-32.037v5.126h0a3.845,3.845,0,0,0-3.844,3.845v53.821a1.281,1.281,0,0,0,1.282,1.282h37.163a1.281,1.281,0,0,0,1.282-1.282V739.227A3.845,3.845,0,0,0,1987.566,735.382Z" transform="translate(-1940.793 -720.004)" fill="#58afdc"/>
          <path id="Path_346" data-name="Path 346" d="M1967.914,757.738h-27.656a1.549,1.549,0,0,0-1.549,1.549v4.539a1.6,1.6,0,0,0,1.6,1.6h27.555a1.6,1.6,0,0,0,1.6-1.6v-4.539A1.549,1.549,0,0,0,1967.914,757.738Z" transform="translate(-1938.708 -724.42)" fill="#42498d"/>
          <g id="Group_203" data-name="Group 203" transform="translate(2.563 41.007)">
            <rect id="Rectangle_94" data-name="Rectangle 94" width="25.629" height="5.126" transform="translate(0 28.192)" fill="#ff8766"/>
            <path id="Path_347" data-name="Path 347" d="M1967.391,766.9h-25.629v5.126h25.629Z" transform="translate(-1941.761 -766.899)" fill="#ff8766"/>
          </g>
          <path id="Path_348" data-name="Path 348" d="M1967.39,773.005h-25.629v23.067h25.629Zm-6.407,14.1h-3.845v3.844h-5.126V787.1h-3.844v-5.126h3.844v-3.844h5.126v3.844h3.845Z" transform="translate(-1939.199 -726.872)" fill="#ffe4d0"/>
          <path id="Path_349" data-name="Path 349" d="M1987.555,718.042h-31.277a2.3,2.3,0,0,0-2.3,2.3V726.6a1.692,1.692,0,0,0,1.692,1.691h32.5a1.691,1.691,0,0,0,1.691-1.691v-6.258A2.3,2.3,0,0,0,1987.555,718.042Z" transform="translate(-1941.161 -718.042)" fill="#42498d"/>
          <path id="Path_350" data-name="Path 350" d="M1967.281,755.776h3.645a1.58,1.58,0,0,1,1.48,1.466v1.1h15.378V745.524h-30.755v10.252Z" transform="translate(-1941.651 -722.457)" fill="#ffe4d0"/>
          <path id="Path_351" data-name="Path 351" d="M1958.365,779.112h-5.126v3.844H1949.4v5.126h3.844v3.844h5.126v-3.844h3.844v-5.126h-3.844Z" transform="translate(-1940.425 -727.854)" fill="#58afdc"/>
          <g id="Group_204" data-name="Group 204" transform="translate(3.844 33.318)" opacity="0.14">
            <rect id="Rectangle_95" data-name="Rectangle 95" width="1.282" height="7.689"/>
          </g>
          <g id="Group_205" data-name="Group 205" transform="translate(8.97 33.318)" opacity="0.14">
            <rect id="Rectangle_96" data-name="Rectangle 96" width="1.282" height="7.689"/>
          </g>
          <g id="Group_206" data-name="Group 206" transform="translate(14.096 33.318)" opacity="0.14">
            <rect id="Rectangle_97" data-name="Rectangle 97" width="1.282" height="7.689"/>
          </g>
          <g id="Group_207" data-name="Group 207" transform="translate(19.222 33.318)" opacity="0.14">
            <rect id="Rectangle_98" data-name="Rectangle 98" width="1.282" height="7.689"/>
          </g>
          <g id="Group_208" data-name="Group 208" transform="translate(24.348 33.318)" opacity="0.14">
            <rect id="Rectangle_99" data-name="Rectangle 99" width="1.282" height="7.689"/>
          </g>
          <g id="Group_209" data-name="Group 209" transform="translate(16.659 0)" opacity="0.14">
            <rect id="Rectangle_100" data-name="Rectangle 100" width="1.282" height="10.252"/>
          </g>
          <g id="Group_210" data-name="Group 210" transform="translate(21.785 0)" opacity="0.14">
            <rect id="Rectangle_101" data-name="Rectangle 101" width="1.282" height="10.252"/>
          </g>
          <g id="Group_211" data-name="Group 211" transform="translate(26.911 0)" opacity="0.14">
            <rect id="Rectangle_102" data-name="Rectangle 102" width="1.282" height="10.252"/>
          </g>
          <g id="Group_212" data-name="Group 212" transform="translate(32.037 0)" opacity="0.14">
            <rect id="Rectangle_103" data-name="Rectangle 103" width="1.282" height="10.252"/>
          </g>
          <g id="Group_213" data-name="Group 213" transform="translate(37.162 0)" opacity="0.14">
            <rect id="Rectangle_104" data-name="Rectangle 104" width="1.282" height="10.252"/>
          </g>
          <g id="Group_214" data-name="Group 214" transform="translate(42.288 0)" opacity="0.14">
            <rect id="Rectangle_105" data-name="Rectangle 105" width="1.282" height="10.252"/>
          </g>
        </g>
        <g id="Group_219" data-name="Group 219" transform="translate(9019.577 1407.489)">
          <path id="Path_361" data-name="Path 361" d="M2046.943,771.181h-2a1.029,1.029,0,0,0-.979,1.058l-.056,3.9a1.136,1.136,0,0,0,.281.772.941.941,0,0,0,.7.321h2.466a3.208,3.208,0,0,1,0,6.388h-3a1.017,1.017,0,0,0-.973.944l-.436,3.9a1.148,1.148,0,0,0,.238.844.945.945,0,0,0,.734.363h3.032c4.645,0,8.424-4.149,8.424-9.25S2051.588,771.181,2046.943,771.181Z" transform="translate(-2022.452 -767.197)" fill="#ff8766"/>
          <path id="Path_362" data-name="Path 362" d="M2039.9,794.52q-.2,1.076-.426,2.151-.227,1.091-.474,2.178l-.108.478a1,1,0,0,1-.95.815h-15.885a1,1,0,0,1-.951-.815l-.108-.478q-.246-1.08-.467-2.178-.214-1.068-.405-2.151a120.509,120.509,0,0,1-1.392-27.07,1.026,1.026,0,0,1,.979-1.016h21.227a1.026,1.026,0,0,1,.979,1.031A121.326,121.326,0,0,1,2039.9,794.52Z" transform="translate(-2018.532 -766.434)" fill="#ff8766"/>
          <path id="Path_363" data-name="Path 363" d="M2040.2,799.9q-.2,1.076-.426,2.151H2020.83q-.214-1.068-.405-2.151Z" transform="translate(-2018.836 -771.81)" fill="#fff"/>
        </g>
      </g>
      <g id="Group_410" data-name="Group 410" transform="matrix(0.848, -0.53, 0.53, 0.848, 2344.652, -1265.616)">
        <g id="Group_406" data-name="Group 406" transform="translate(-1955.334 977.12)">
          <path id="Path_562" data-name="Path 562" d="M-1858.386,2972.045l-24.869.772c-6.868-.4-14.768-.273-23.193-.029-8.45.244-16.417.617-23.373,1.419l-25.513.754v5.18h0a.024.024,0,0,0,0,.015c0,3.309,22.033,5.3,48.979,4.468,26.691-.828,48.1-4.3,48.05-7.551,0-.01,0-.2,0-.2Z" transform="translate(1955.334 -2967.427)" fill="url(#linear-gradient)"/>
          <path id="Path_563" data-name="Path 563" d="M-1858.384,2905.906c.051,3.246-21.343,6.525-48.011,7.328-26.923.81-48.938-1.208-48.938-4.511s21.973-6.588,48.845-7.34C-1879.871,2900.637-1858.435,2902.664-1858.384,2905.906Z" transform="translate(1955.334 -2901.228)" fill="url(#linear-gradient-2)"/>
        </g>
        <path id="Path_564" data-name="Path 564" d="M-1769.827,983.329l-12.327,9.7,12.58,9.361a56.586,56.586,0,0,1,22.649,44.759l.174,12.2c0,.228-.2.423-.545.652l-37.991-.894-2.559.073-38.572,3.119c-.359-.212-.474-.4-.474-.632l-.017-12.379a58.733,58.733,0,0,1,22.381-46.245l12.453-9.793-12.573-9.384a55.494,55.494,0,0,1-22.412-44.53l-.017-12.574,38.292,1.624,2.525-.014,37.612-2.016.177,12.4A55.761,55.761,0,0,1-1769.827,983.329Z" transform="translate(-119.894 -77.998)" fill="#d8dee8" opacity="0.5"/>
        <path id="Path_565" data-name="Path 565" d="M-1746.483,2921.441c0,.228-.175.456-.52.686-3.073,2.026-19.428,3.989-39.29,4.578-20,.593-36.711-.409-39.9-2.278-.358-.212-.546-.433-.546-.664,0-2.286,18.147-4.648,40.381-5.275C-1764.3,2917.865-1746.515,2919.188-1746.483,2921.441Z" transform="translate(-120.21 -1940.098)" fill="#bfc8d6"/>
        <path id="Path_566" data-name="Path 566" d="M-1229.179,1926.429l-2.05.046-.255-33.2,2.039-.033Z" transform="translate(-676.653 -981.844)" fill="url(#linear-gradient-3)"/>
        <path id="Path_567" data-name="Path 567" d="M-1555.357,1589.851l-23.635.3,1.23,2.046s8.783,12.57,22.576,19.32c13.616-7.174,22.09-19.9,22.09-19.9l1.178-2.066Z" transform="translate(-351.804 -697.954)" fill="url(#linear-gradient-4)"/>
        <path id="Path_568" data-name="Path 568" d="M-1531.945,1555.328c.015,1.237-10.447,2.378-23.42,2.549-13.033.172-23.646-.7-23.651-1.948s10.593-2.389,23.616-2.551C-1542.437,1553.218-1531.959,1554.091-1531.945,1555.328Z" transform="translate(-351.781 -664.123)" fill="url(#linear-gradient-5)"/>
        <path id="Path_569" data-name="Path 569" d="M-1212.786,2361.344c-.009,0,0-.006,0-.006S-1212.777,2361.341-1212.786,2361.344Z" transform="translate(-694.129 -1419.42)" fill="url(#linear-gradient-6)"/>
        <path id="Path_570" data-name="Path 570" d="M-1650.84,2401.16c-11.685,2.612-29.9,3.415-32.553,3.493l-.295.009-.295.009c-1.41.042-7.241.138-14.194-.072a154.37,154.37,0,0,1-18.72-1.521c-.012,0,.028-.042.028-.045v-1.468c.251-4.322.889-16.813,3.067-19.51,2.594-3.21,28.918-19.905,29.792-20.491.883.547,27.2,15.939,29.79,18.988a12.53,12.53,0,0,1,1.709,4.879,83.541,83.541,0,0,1,1.146,8.349C-1650.982,2397.807-1650.84,2401.16-1650.84,2401.16Z" transform="translate(-222.889 -1419.63)" fill="url(#linear-gradient-7)"/>
        <g id="Group_407" data-name="Group 407" transform="translate(-1941.391 850.52)">
          <path id="Path_571" data-name="Path 571" d="M-1729.692,976.266a96.641,96.641,0,0,1,.4-13.452s-2.119-4.92-9.575-2.65a47.608,47.608,0,0,0-2.609,16.2Z" transform="translate(1741.489 -959.565)" fill="#fff" style="mix-blend-mode: soft-light;isolation: isolate"/>
          <path id="Path_572" data-name="Path 572" d="M-1726.384,1268.918l-11.76.107c2.632,25.886,27.909,40.715,27.909,40.715l6-.1C-1720.8,1303.179-1725.374,1283.412-1726.384,1268.918Z" transform="translate(1738.362 -1248.748)" fill="#fff" style="mix-blend-mode: soft-light;isolation: isolate"/>
        </g>
        <g id="Group_408" data-name="Group 408" transform="translate(-1941.161 919.898)">
          <path id="Path_573" data-name="Path 573" d="M-1725.467,2743.321l-10.633.3a47.4,47.4,0,0,1-1.864-13.741l11.98-.31A100.29,100.29,0,0,0-1725.467,2743.321Z" transform="translate(1737.971 -2683.542)" fill="#fff" style="mix-blend-mode: soft-light;isolation: isolate"/>
          <path id="Path_574" data-name="Path 574" d="M-1722.939,2066.065l-11.937.3c2.526-26.83,27.754-42.639,27.754-42.639l6-.107C-1717.628,2030.975-1722.045,2051.17-1722.939,2066.065Z" transform="translate(1735.078 -2023.62)" fill="#fff" style="mix-blend-mode: soft-light;isolation: isolate"/>
        </g>
        <g id="Group_409" data-name="Group 409" transform="translate(-1955.334 842.914)">
          <path id="Path_575" data-name="Path 575" d="M-1860.468,920.484l-24.342.147c-6.722-.536-14.452-.61-22.7-.568-8.269.042-16.064.211-22.87.82l-24.958.135v4.754h0s0,.086,0,.1c0,3.166,21.553,5.617,47.917,5.43,26.119-.184,47.076-2.873,47.028-5.986,0-.009,0-.043,0-.043Z" transform="translate(1955.334 -915.023)" fill="url(#linear-gradient-8)"/>
          <path id="Path_576" data-name="Path 576" d="M-1860.466,848.341c.048,3.108-20.892,5.759-46.99,5.921-26.342.163-47.877-2.269-47.877-5.43s21.5-5.8,47.788-5.914C-1881.5,842.809-1860.515,845.236-1860.466,848.341Z" transform="translate(1955.334 -842.914)" fill="url(#linear-gradient-9)"/>
        </g>
        <path id="Path_577" data-name="Path 577" d="M-1650.84,2743.329c-11.685,2.612-29.9,3.415-32.553,3.493l-.295.008-.295.009c-1.41.042-7.241.138-14.194-.072a154.371,154.371,0,0,1-18.72-1.521c-.012,0,.028-.042.028-.046v-.009c0-.075-.042-.6-.005-1.453,6.58.006,20.27-.476,26.207-4.332,7.917-5.143,14.521-5.474,23.178-4.074,7.107,1.151,12.244-2.824,14.975-7.736.515,2.529.886,5.6,1.149,8.349C-1650.982,2739.976-1650.84,2743.329-1650.84,2743.329Z" transform="translate(-222.889 -1761.799)" opacity="0.3" fill="url(#linear-gradient-10)" style="mix-blend-mode: multiply;isolation: isolate"/>
      </g>
      <g id="Group_419" data-name="Group 419" transform="translate(3663.531 -41.044)">
        <path id="Path_587" data-name="Path 587" d="M-1842.71,482.778c.18,81.568-43.177,148.134-120.391,150.324-1.194.034-20.9,0-22.1,0-78.879.192-142.97-66.8-143.153-149.628s63.612-150.132,142.491-150.324c1.845,0,19.159.167,20.987.235C-1888.544,336.238-1842.889,401.885-1842.71,482.778Z" fill="url(#linear-gradient-11)"/>
        <ellipse id="Ellipse_78" data-name="Ellipse 78" cx="142.823" cy="149.976" rx="142.823" ry="149.976" transform="translate(-2101.654 334.49)" fill="url(#linear-gradient-12)"/>
        <ellipse id="Ellipse_79" data-name="Ellipse 79" cx="139.224" cy="146.198" rx="139.224" ry="146.198" transform="translate(-2098.055 338.268)" opacity="0.3" fill="url(#linear-gradient-13)" style="mix-blend-mode: multiply;isolation: isolate"/>
        <ellipse id="Ellipse_80" data-name="Ellipse 80" cx="135.021" cy="141.784" rx="135.021" ry="141.784" transform="translate(-2093.853 342.682)" fill="url(#linear-gradient-14)"/>
        <ellipse id="Ellipse_81" data-name="Ellipse 81" cx="132.135" cy="138.753" rx="132.135" ry="138.753" transform="translate(-2093.853 345.713)" fill="url(#linear-gradient-15)"/>
        <g id="Group_417" data-name="Group 417" transform="translate(-1947.766 367.706)">
          <path id="Path_588" data-name="Path 588" d="M-802.241,699.7l100.653,39.031a122.427,122.427,0,0,0,5.044-34.914c0-62.614-46.816-113.746-105.7-116.9Z" transform="translate(802.241 -586.911)" fill="url(#linear-gradient-16)"/>
        </g>
        <g id="Group_418" data-name="Group 418" transform="translate(-2101.654 340.498)" opacity="0.54" style="mix-blend-mode: multiply;isolation: isolate">
          <path id="Path_589" data-name="Path 589" d="M-1825.52,527.931c-10.45-33.843,27.33-58.265,21.374-97.711-2.629-17.406-12.857-31.668-25.435-43.109-59.467,18.245-102.848,75.995-102.7,144.316.183,82.829,64.275,149.82,143.154,149.628a136.53,136.53,0,0,0,54.576-11.493c-2.435-47.869-17.119-74.908-32.734-91.2C-1791.349,553.255-1817.552,553.737-1825.52,527.931Z" transform="translate(1932.28 -387.111)" fill="#d8dee8"/>
        </g>
        <ellipse id="Ellipse_82" data-name="Ellipse 82" cx="8.401" cy="8.822" rx="8.401" ry="8.822" transform="translate(-1970.49 477.816)" fill="url(#linear-gradient-17)"/>
        <path id="Path_590" data-name="Path 590" d="M-941.092,944a5.447,5.447,0,0,0-5.309,5.575v59.469a5.447,5.447,0,0,0,5.309,5.575,5.447,5.447,0,0,0,5.309-5.575V949.575A5.447,5.447,0,0,0-941.092,944Z" transform="translate(-1020.997 -527.666)" fill="url(#linear-gradient-18)"/>
        <path id="Path_591" data-name="Path 591" d="M-1528.019,1275.863l-95.123-27.966a3.375,3.375,0,0,0-4.115,2.076,3,3,0,0,0,1.957,3.93l95.123,27.966a3.375,3.375,0,0,0,4.115-2.076A3,3,0,0,0-1528.019,1275.863Z" transform="translate(-432.698 -790.057)" fill="url(#linear-gradient-19)"/>
      </g>
      <g id="Group_429" data-name="Group 429">
        <g id="Group_416" data-name="Group 416" transform="translate(-2744.491 -13.845)">
          <g id="Group_413" data-name="Group 413" transform="translate(4001.893 329.141)">
            <g transform="matrix(1, 0, 0, 1, -307.72, -181.84)" filter="url(#Path_578)">
              <path id="Path_578-2" data-name="Path 578" d="M593.978,82l-202.616.416c-14.567.03-26.345,9.307-26.306,20.72l.226,67.659c.038,11.413,11.878,20.642,26.445,20.612l202.617-.416c14.567-.03,26.344-9.306,26.306-20.72l-.226-67.659C620.385,91.2,608.546,81.97,593.978,82Z" transform="translate(-57.34 99.84)" fill="#fff"/>
            </g>
          </g>
          <text id="_02:00" data-name="02:00" transform="translate(4159.925 401.834)" fill="#ff3144" font-size="55" font-family="Poppins-Bold, Poppins" font-weight="700"><tspan x="-76.313" y="0">02:00</tspan></text>
        </g>
        <g id="Group_428" data-name="Group 428" transform="translate(-1370.53 389.971)">
          <path id="Path_601" data-name="Path 601" d="M2688.29-25.194A18.036,18.036,0,0,0,2671.03-38,18.03,18.03,0,0,0,2653-19.971a18.03,18.03,0,0,0,18.03,18.029,18,18,0,0,0,14.321-7.077" fill="none" stroke="#3a4ae9" stroke-linecap="round" stroke-linejoin="round" stroke-miterlimit="10" stroke-width="5"/>
          <path id="Path_602" data-name="Path 602" d="M3208.159,174.76l-10.009-9.8,13.491-3.768Z" transform="matrix(0.999, 0.035, -0.035, 0.999, -509.791, -302.262)" fill="#3a4ae9"/>
        </g>
      </g>
    </g>
    <g id="Group_464" data-name="Group 464" transform="translate(1441.293 99)">
      <g id="Group_26" data-name="Group 26" transform="translate(0 0)">
        <rect id="Rectangle_18" data-name="Rectangle 18" width="105.415" height="15.745" rx="7.872" transform="translate(0 3.086)" fill="#b3bdce"/>
        <path id="Path_70" data-name="Path 70" d="M1577.3,23.13V14.594h-.925V23.13h-67.757V14.594h-.925V23.13h-8.5c-5.291,0-9.579,7.261-9.579,16.216h104.355c0-8.956-4.289-16.216-9.579-16.216Z" transform="translate(-1488.554 -14.594)" fill="#8996f1"/>
        <path id="Path_71" data-name="Path 71" d="M1614.246,60.138c0,3.462-4.609,6.269-10.295,6.269s-10.294-2.807-10.294-6.269" transform="translate(-1549.82 -35.385)" fill="#8996f1"/>
      </g>
      <g id="Group_27" data-name="Group 27" transform="translate(15.858 48.979)" opacity="0.7">
        <path id="Path_72" data-name="Path 72" d="M1602.261,144.3a13.441,13.441,0,0,1-1.055,1.209.5.5,0,0,1-.734.071.582.582,0,0,1,.1-.784,11.705,11.705,0,0,0,1.416-1.75.587.587,0,0,1,.739-.261.52.52,0,0,1,.079.744C1602.64,143.783,1602.456,144.04,1602.261,144.3Zm1.561-2.843a.622.622,0,0,1-.562.262.441.441,0,0,1-.3-.627,7.007,7.007,0,0,0,.376-2.028.719.719,0,0,1,.542-.657.4.4,0,0,1,.506.436,8.287,8.287,0,0,1-.444,2.4A.768.768,0,0,1,1603.822,141.452ZM1599.473,147a.751.751,0,0,1-.144.142,20.328,20.328,0,0,1-2.015,1.322.429.429,0,0,1-.661-.189.7.7,0,0,1,.338-.765,19.361,19.361,0,0,0,1.88-1.231.454.454,0,0,1,.7.077A.614.614,0,0,1,1599.473,147Zm-3.979,2.312a.715.715,0,0,1-.271.218c-.671.3-1.386.584-2.125.841a.406.406,0,0,1-.574-.344.716.716,0,0,1,.468-.709c.706-.246,1.387-.516,2.025-.8a.415.415,0,0,1,.618.276A.659.659,0,0,1,1595.494,149.308Zm8.488-12.156a.706.706,0,0,1-.24.2.421.421,0,0,1-.641-.228,7.1,7.1,0,0,0-.731-1.715.653.653,0,0,1,.217-.786.462.462,0,0,1,.709.052,7.93,7.93,0,0,1,.819,1.922A.647.647,0,0,1,1603.982,137.152Zm-12.659,13.608a.7.7,0,0,1-.367.252q-1.059.27-2.136.465a.406.406,0,0,1-.492-.454.721.721,0,0,1,.555-.644c.692-.125,1.38-.273,2.06-.449a.406.406,0,0,1,.531.406A.687.687,0,0,1,1591.324,150.759Zm10.738-16.961c-.281.3-.611.338-.789.145a10.915,10.915,0,0,0-1.353-1.231,12.858,12.858,0,0,0-1.06-.737.523.523,0,0,1-.064-.748.561.561,0,0,1,.738-.246,13.611,13.611,0,0,1,1.121.778,11.562,11.562,0,0,1,1.446,1.317A.571.571,0,0,1,1602.061,133.8Zm-14.923,17.716a.664.664,0,0,1-.443.265q-1.056.112-2.1.15a.415.415,0,0,1-.412-.536.71.71,0,0,1,.617-.576c.676-.026,1.356-.073,2.036-.146a.411.411,0,0,1,.453.5A.733.733,0,0,1,1587.139,151.513Zm-4.115.148a.647.647,0,0,1-.511.268c-.688-.025-1.369-.073-2.04-.147a.434.434,0,0,1-.328-.609.691.691,0,0,1,.667-.5c.649.071,1.309.118,1.974.142a.424.424,0,0,1,.37.575A.733.733,0,0,1,1583.024,151.662Zm14.876-20.8a.578.578,0,0,1-.671.228,18.149,18.149,0,0,0-1.741-.7.474.474,0,0,1-.2-.692.633.633,0,0,1,.714-.378,18.8,18.8,0,0,1,1.818.735.5.5,0,0,1,.135.72A.636.636,0,0,1,1597.9,130.864Zm-18.848,20.363a.618.618,0,0,1-.576.26q-.994-.186-1.94-.449a.462.462,0,0,1-.232-.673.647.647,0,0,1,.7-.411c.607.17,1.234.315,1.872.436a.447.447,0,0,1,.282.64A.774.774,0,0,1,1579.052,151.227Zm15.206-21.63a.611.611,0,0,1-.6.256c-.615-.152-1.249-.28-1.894-.382a.442.442,0,0,1-.3-.63.672.672,0,0,1,.68-.474c.668.108,1.324.238,1.962.4a.457.457,0,0,1,.25.662A.8.8,0,0,1,1594.258,129.6Zm-18.948,20.58a.591.591,0,0,1-.647.239,17.893,17.893,0,0,1-1.783-.8.505.505,0,0,1-.11-.731.593.593,0,0,1,.733-.294,17.238,17.238,0,0,0,1.706.765.48.48,0,0,1,.175.7A.686.686,0,0,1,1575.31,150.177Zm15.039-21.208a.64.64,0,0,1-.531.267c-.654-.054-1.319-.084-1.988-.092a.421.421,0,0,1-.385-.563.7.7,0,0,1,.633-.551c.692.007,1.379.04,2.052.094a.43.43,0,0,1,.344.6A.733.733,0,0,1,1590.349,128.969Zm-18.407,19.454a.558.558,0,0,1-.726.2q-.283-.2-.554-.407a12.251,12.251,0,0,1-.961-.823.573.573,0,0,1,.055-.777.522.522,0,0,1,.74-.124,11.474,11.474,0,0,0,.9.773c.17.133.344.259.52.381a.537.537,0,0,1,.038.758Zm14.333-19.494a.66.66,0,0,1-.465.267c-.681.041-1.363.106-2.041.195a.409.409,0,0,1-.467-.483.72.72,0,0,1,.578-.622q1.056-.139,2.112-.2a.413.413,0,0,1,.425.525A.717.717,0,0,1,1586.275,128.929Zm-4.169.549a.688.688,0,0,1-.393.258q-1.041.214-2.057.506a.406.406,0,0,1-.547-.385.723.723,0,0,1,.5-.686q1.055-.305,2.14-.529a.407.407,0,0,1,.506.438A.7.7,0,0,1,1582.105,129.478Zm-12.88,16.312a.747.747,0,0,1-.1.1.479.479,0,0,1-.723,0,8.336,8.336,0,0,1-.97-1.808.679.679,0,0,1,.314-.772.433.433,0,0,1,.671.161,7.643,7.643,0,0,0,.878,1.632A.591.591,0,0,1,1569.225,145.79Zm8.693-15.1a.728.728,0,0,1-.306.233c-.692.261-1.368.553-2.01.869a.419.419,0,0,1-.632-.248.713.713,0,0,1,.389-.748c.677-.333,1.39-.64,2.117-.917a.411.411,0,0,1,.589.325A.675.675,0,0,1,1577.918,130.692Zm-10.066,11.383a.7.7,0,0,1-.333.241.405.405,0,0,1-.564-.361,7.8,7.8,0,0,1,.188-2.371.7.7,0,0,1,.637-.547.422.422,0,0,1,.378.568,6.643,6.643,0,0,0-.157,2.012A.681.681,0,0,1,1567.852,142.074Zm6-9.375a.752.752,0,0,1-.191.175,17.1,17.1,0,0,0-1.828,1.317.469.469,0,0,1-.716-.032.625.625,0,0,1,.2-.786,18.738,18.738,0,0,1,1.978-1.426.436.436,0,0,1,.675.154A.632.632,0,0,1,1573.847,132.7Zm-4.988,5a.584.584,0,0,1-.659.235.49.49,0,0,1-.155-.712,8.447,8.447,0,0,1,1.017-1.55c.141-.183.292-.369.45-.55a.528.528,0,0,1,.741-.132.565.565,0,0,1-.049.776c-.145.17-.28.333-.415.511a9.785,9.785,0,0,0-.863,1.32A.883.883,0,0,1,1568.859,137.7Z" transform="translate(-1549.854 -117.772)" fill="#3a4ae9"/>
        <path id="Path_73" data-name="Path 73" d="M1609.251,114.913c-.192.248-.4.491-.628.733a.51.51,0,0,1-.736.092.578.578,0,0,1,.084-.783,7.349,7.349,0,0,0,1.256-1.768.61.61,0,0,1,.717-.37.477.477,0,0,1,.189.7A8.575,8.575,0,0,1,1609.251,114.913Zm-2.38,2.217a.756.756,0,0,1-.162.155,15.606,15.606,0,0,1-1.613.983c-.151.08-.307.159-.465.237a.419.419,0,0,1-.633-.247.712.712,0,0,1,.388-.747q.214-.106.428-.218a14,14,0,0,0,1.471-.9.448.448,0,0,1,.693.109A.623.623,0,0,1,1606.872,117.13Zm3.8-5.692a.678.678,0,0,1-.414.261.407.407,0,0,1-.484-.465,4.6,4.6,0,0,0-.252-1.859.691.691,0,0,1,.33-.766.429.429,0,0,1,.663.18,5.587,5.587,0,0,1,.3,2.274A.712.712,0,0,1,1610.674,111.438Zm-7.859,7.718a.72.72,0,0,1-.322.238,20,20,0,0,1-2.16.612.405.405,0,0,1-.515-.426.718.718,0,0,1,.534-.662,19.073,19.073,0,0,0,2.036-.579.408.408,0,0,1,.574.347A.674.674,0,0,1,1602.816,119.155Zm6.63-11.479c-.318.314-.645.33-.808.124a7.4,7.4,0,0,0-1.288-1.256,8.759,8.759,0,0,0-.722-.5.525.525,0,0,1-.06-.749.56.56,0,0,1,.739-.244,9.507,9.507,0,0,1,.78.546,8.062,8.062,0,0,1,1.416,1.384A.583.583,0,0,1,1609.446,107.676Zm-10.823,12.439a.667.667,0,0,1-.434.264c-.7.087-1.412.139-2.118.158a.415.415,0,0,1-.406-.542.7.7,0,0,1,.621-.571c.674-.018,1.355-.069,2.023-.151a.409.409,0,0,1,.46.489A.718.718,0,0,1,1598.623,120.115Zm-4.1.108a.638.638,0,0,1-.528.266,19.952,19.952,0,0,1-2.024-.252.445.445,0,0,1-.287-.637.669.669,0,0,1,.684-.463,19.088,19.088,0,0,0,1.934.242.429.429,0,0,1,.348.592A.723.723,0,0,1,1594.522,120.223Zm11.132-15.264a.585.585,0,0,1-.657.235,13.975,13.975,0,0,0-1.776-.61.462.462,0,0,1-.236-.671.647.647,0,0,1,.7-.414,14.913,14.913,0,0,1,1.875.645.487.487,0,0,1,.158.711A.884.884,0,0,1,1605.654,104.959Zm-15.013,14.56a.6.6,0,0,1-.62.25,14.147,14.147,0,0,1-1.847-.705.5.5,0,0,1-.135-.72.6.6,0,0,1,.73-.317,13.214,13.214,0,0,0,1.744.664.467.467,0,0,1,.218.68A.7.7,0,0,1,1590.641,119.519Zm11.269-15.594a.625.625,0,0,1-.56.263,19.245,19.245,0,0,0-1.951-.194.425.425,0,0,1-.361-.58.69.69,0,0,1,.647-.533,20.444,20.444,0,0,1,2.038.2.442.442,0,0,1,.3.627A.787.787,0,0,1,1601.909,103.925ZM1587.2,117.893a.556.556,0,0,1-.729.2c-.128-.09-.255-.184-.378-.277a8.5,8.5,0,0,1-1.109-1.018.584.584,0,0,1,.1-.784.5.5,0,0,1,.735-.078,7.641,7.641,0,0,0,1.008.925c.115.087.233.174.355.259a.539.539,0,0,1,.033.759Zm10.673-14.163a.655.655,0,0,1-.472.267c-.674.033-1.356.1-2.029.2a.408.408,0,0,1-.474-.474.717.717,0,0,1,.57-.63c.7-.1,1.42-.174,2.128-.207a.414.414,0,0,1,.418.531A.734.734,0,0,1,1597.871,103.729Zm-4.174.622a.69.69,0,0,1-.369.251,19.432,19.432,0,0,0-2.031.636.408.408,0,0,1-.588-.324.723.723,0,0,1,.454-.717,20.019,20.019,0,0,1,2.154-.674.4.4,0,0,1,.531.407A.7.7,0,0,1,1593.7,104.351Zm-8.993,10.7a.7.7,0,0,1-.171.161.443.443,0,0,1-.686-.12,5.587,5.587,0,0,1-.508-2.171.719.719,0,0,1,.508-.682.406.406,0,0,1,.54.394,4.684,4.684,0,0,0,.425,1.8A.621.621,0,0,1,1584.7,115.053Zm4.846-9.117a.73.73,0,0,1-.232.2,13.889,13.889,0,0,0-1.864,1.19.457.457,0,0,1-.7-.068.641.641,0,0,1,.233-.786,15.092,15.092,0,0,1,2.05-1.31.423.423,0,0,1,.647.217A.647.647,0,0,1,1589.55,105.936Zm-4.915,4.926a.614.614,0,0,1-.589.258.451.451,0,0,1-.263-.653,8.537,8.537,0,0,1,1.349-2.24.536.536,0,0,1,.741-.153.565.565,0,0,1-.025.773l-.177.221a6.647,6.647,0,0,0-.932,1.611A.7.7,0,0,1,1584.635,110.861Z" transform="translate(-1559.568 -102.881)" fill="#3a4ae9"/>
        <path id="Path_74" data-name="Path 74" d="M1584.1,181.556c-.121.157-.245.314-.373.471a.538.538,0,0,1-.742.16.593.593,0,0,1,.019-.772,18.193,18.193,0,0,0,1.349-1.871.591.591,0,0,1,.736-.279.511.511,0,0,1,.1.736C1584.852,180.529,1584.486,181.052,1584.1,181.556Zm-1.98,2.222c-.637.634-1.248,1.184-1.89,1.711a.468.468,0,0,1-.715-.036.636.636,0,0,1,.2-.787c.609-.5,1.188-1.018,1.723-1.542a.5.5,0,0,1,.732-.053A.577.577,0,0,1,1582.117,183.779Zm4.147-5.817a.605.605,0,0,1-.612.252.462.462,0,0,1-.229-.673,13.87,13.87,0,0,0,.73-2.094.692.692,0,0,1,.65-.53.426.426,0,0,1,.36.582,15.215,15.215,0,0,1-.805,2.306A.769.769,0,0,1,1586.263,177.962Zm-7.8,8.821a.721.721,0,0,1-.166.157c-.638.443-1.311.873-2,1.28a.43.43,0,0,1-.665-.178.681.681,0,0,1,.33-.766c.66-.392,1.3-.8,1.917-1.228a.445.445,0,0,1,.69.113A.621.621,0,0,1,1578.46,186.782Zm8.94-13.241a.674.674,0,0,1-.417.261.407.407,0,0,1-.48-.466,11.284,11.284,0,0,0-.031-2.056.724.724,0,0,1,.467-.71.409.409,0,0,1,.579.341,12.592,12.592,0,0,1,.031,2.255A.709.709,0,0,1,1587.4,173.542Zm-12.908,15.6a.727.727,0,0,1-.244.2q-1.02.522-2.078.989a.415.415,0,0,1-.615-.282.715.715,0,0,1,.416-.736q1.025-.451,2.016-.957a.42.42,0,0,1,.639.233A.652.652,0,0,1,1574.492,189.144Zm-4.12,1.822a.726.726,0,0,1-.305.232q-1.045.4-2.115.742a.406.406,0,0,1-.564-.361.724.724,0,0,1,.482-.7q1.042-.338,2.059-.724a.41.41,0,0,1,.59.324A.678.678,0,0,1,1570.372,190.965Zm16.6-21.609a.737.737,0,0,1-.233.2.423.423,0,0,1-.646-.221,11.985,11.985,0,0,0-.681-1.8.671.671,0,0,1,.271-.78.447.447,0,0,1,.692.113,12.854,12.854,0,0,1,.729,1.934A.648.648,0,0,1,1586.973,169.356Zm-20.787,22.961a.687.687,0,0,1-.36.249c-.7.192-1.409.365-2.123.525a.406.406,0,0,1-.515-.427.723.723,0,0,1,.534-.662q1.045-.233,2.075-.511a.406.406,0,0,1,.54.4A.694.694,0,0,1,1566.187,192.317Zm19.13-26.524a.769.769,0,0,1-.108.113.472.472,0,0,1-.718-.016,15.213,15.213,0,0,0-1.129-1.491.6.6,0,0,1,.112-.785.5.5,0,0,1,.733-.062,15.928,15.928,0,0,1,1.188,1.566A.6.6,0,0,1,1585.316,165.793Zm-23.325,27.463a.683.683,0,0,1-.407.26q-1.054.188-2.114.329a.408.408,0,0,1-.466-.482.715.715,0,0,1,.577-.623q1.035-.138,2.068-.323a.408.408,0,0,1,.491.457A.716.716,0,0,1,1561.992,193.257Zm20.851-30.362c-.246.286-.578.345-.77.166q-.659-.615-1.415-1.2a.516.516,0,0,1-.074-.663.529.529,0,0,1-.66.12c-.5-.356-1.026-.693-1.565-1.013a.521.521,0,0,1-.079-.745.578.578,0,0,1,.738-.26q.838.5,1.615,1.045a.513.513,0,0,1,.087.673.523.523,0,0,1,.673-.11c.525.405,1.013.821,1.469,1.246A.563.563,0,0,1,1582.843,162.895Zm-25.021,30.921a.665.665,0,0,1-.451.267q-1.044.093-2.088.147a.414.414,0,0,1-.419-.53.7.7,0,0,1,.611-.583c.68-.035,1.365-.082,2.049-.145a.412.412,0,0,1,.443.508A.717.717,0,0,1,1557.821,193.815Zm-4.125.206a.653.653,0,0,1-.492.268c-.689,0-1.374,0-2.056-.027a.425.425,0,0,1-.371-.575.7.7,0,0,1,.643-.54c.669.022,1.342.033,2.018.028a.419.419,0,0,1,.395.553A.72.72,0,0,1,1553.7,194.021Zm23.7-34.838a.575.575,0,0,1-.68.225q-.833-.417-1.713-.785a.488.488,0,0,1-.159-.71.627.627,0,0,1,.727-.339c.6.252,1.189.52,1.758.806a.5.5,0,0,1,.119.727A.76.76,0,0,1,1577.392,159.183Zm-27.749,34.7a.635.635,0,0,1-.53.266q-1.014-.078-2.013-.2a.435.435,0,0,1-.319-.615.686.686,0,0,1,.67-.493q.978.121,1.974.2a.428.428,0,0,1,.345.593A.7.7,0,0,1,1549.643,193.881ZM1573.86,157.7a.594.594,0,0,1-.635.245q-.895-.314-1.823-.58a.463.463,0,0,1-.225-.675.639.639,0,0,1,.706-.407q.95.275,1.863.594a.475.475,0,0,1,.194.694A.8.8,0,0,1,1573.86,157.7Zm-28.18,35.7a.622.622,0,0,1-.569.262q-.988-.166-1.953-.378a.451.451,0,0,1-.265-.651.66.66,0,0,1,.694-.443c.628.137,1.267.261,1.913.37a.443.443,0,0,1,.293.633A.729.729,0,0,1,1545.68,193.4Zm24.448-36.777a.614.614,0,0,1-.593.257q-.937-.218-1.9-.4a.443.443,0,0,1-.284-.638.66.66,0,0,1,.684-.46c.657.12,1.3.255,1.943.4a.455.455,0,0,1,.258.657A.773.773,0,0,1,1570.129,156.618Zm-28.28,35.934a.609.609,0,0,1-.609.253q-.956-.262-1.876-.569a.473.473,0,0,1-.2-.69.634.634,0,0,1,.713-.383c.6.2,1.213.385,1.834.556a.462.462,0,0,1,.235.671A.8.8,0,0,1,1541.849,192.552Zm24.4-36.641a.628.628,0,0,1-.554.264q-.976-.132-1.968-.219a.431.431,0,0,1-.34-.6.689.689,0,0,1,.66-.51q1.012.089,2.007.223a.437.437,0,0,1,.312.62A.713.713,0,0,1,1566.244,155.911Zm-28.058,35.416a.591.591,0,0,1-.651.239q-.912-.365-1.777-.779a.5.5,0,0,1-.128-.723.594.594,0,0,1,.731-.312c.56.269,1.138.521,1.728.757a.485.485,0,0,1,.169.706A.842.842,0,0,1,1538.186,191.327Zm24.059-35.771a.644.644,0,0,1-.517.268c-.666-.032-1.338-.047-2.011-.049a.419.419,0,0,1-.388-.557.7.7,0,0,1,.631-.556q1.032,0,2.053.049a.425.425,0,0,1,.363.58A.726.726,0,0,1,1562.245,155.556Zm-27.5,34.124a.571.571,0,0,1-.7.216q-.849-.482-1.635-1.013a.533.533,0,0,1-.044-.756.578.578,0,0,1,.74-.224q.764.516,1.585.98a.514.514,0,0,1,.089.74C1534.772,189.643,1534.76,189.663,1534.746,189.68Zm23.416-34.136a.664.664,0,0,1-.476.268q-1.02.039-2.046.122a.412.412,0,0,1-.436-.514.707.707,0,0,1,.6-.6c.7-.055,1.392-.1,2.084-.125a.417.417,0,0,1,.414.538A.738.738,0,0,1,1558.161,155.544Zm-26.547,32.014a.548.548,0,0,1-.749.181q-.774-.626-1.439-1.283a.589.589,0,0,1,.064-.781.521.521,0,0,1,.739-.114q.641.633,1.386,1.237A.553.553,0,0,1,1531.615,187.558Zm22.405-31.679a.673.673,0,0,1-.436.265q-1.035.125-2.068.3a.407.407,0,0,1-.484-.464.725.725,0,0,1,.563-.636c.7-.116,1.405-.218,2.111-.3a.409.409,0,0,1,.46.49A.7.7,0,0,1,1554.02,155.879Zm-25.094,29.012c-.311.313-.639.332-.8.127a15.305,15.305,0,0,1-1.14-1.609.633.633,0,0,1,.207-.788.466.466,0,0,1,.712.039,14.459,14.459,0,0,0,1.081,1.528A.581.581,0,0,1,1528.925,184.891Zm20.907-28.315a.69.69,0,0,1-.39.257q-1.041.22-2.074.486a.405.405,0,0,1-.533-.4.722.722,0,0,1,.517-.675c.7-.184,1.411-.35,2.122-.5a.406.406,0,0,1,.508.436A.689.689,0,0,1,1549.832,156.576Zm-4.194,1.089a.7.7,0,0,1-.342.243q-1.039.322-2.061.693a.407.407,0,0,1-.581-.333.715.715,0,0,1,.46-.713q1.044-.383,2.118-.712a.4.4,0,0,1,.556.371A.687.687,0,0,1,1545.638,157.665Zm-18.72,23.918a.741.741,0,0,1-.181.168.439.439,0,0,1-.681-.139,12.683,12.683,0,0,1-.655-1.981.71.71,0,0,1,.392-.747.417.417,0,0,1,.63.251,11.831,11.831,0,0,0,.608,1.841A.627.627,0,0,1,1526.918,181.583Zm14.552-22.4a.7.7,0,0,1-.283.222c-.684.293-1.36.6-2.023.927a.417.417,0,0,1-.632-.246.7.7,0,0,1,.386-.748q1.027-.505,2.087-.956a.412.412,0,0,1,.608.291A.665.665,0,0,1,1541.47,159.184Zm-15.493,18.422a.706.706,0,0,1-.343.244.4.4,0,0,1-.554-.373,12.456,12.456,0,0,1,.072-2.284.718.718,0,0,1,.589-.609.412.412,0,0,1,.453.5,11.275,11.275,0,0,0-.068,2.074A.686.686,0,0,1,1525.977,177.605Zm11.416-16.408a.7.7,0,0,1-.215.188q-1.008.58-1.934,1.193a.441.441,0,0,1-.683-.131.671.671,0,0,1,.288-.777q.959-.641,2.011-1.239a.426.426,0,0,1,.658.19A.64.64,0,0,1,1537.393,161.2ZM1526.519,173.2a.631.631,0,0,1-.543.265.432.432,0,0,1-.328-.606,15.267,15.267,0,0,1,.9-2.289.637.637,0,0,1,.718-.374.477.477,0,0,1,.192.694,13.98,13.98,0,0,0-.822,2.074A.72.72,0,0,1,1526.519,173.2Zm7-9.419a.787.787,0,0,1-.131.133c-.625.489-1.216.995-1.757,1.5a.488.488,0,0,1-.728.027.629.629,0,0,1,.144-.788c.572-.535,1.2-1.068,1.853-1.584a.461.461,0,0,1,.708.057A.6.6,0,0,1,1533.516,163.786Zm-4.936,5.172a.563.563,0,0,1-.709.208.522.522,0,0,1-.067-.747c.231-.345.479-.683.744-1.027.245-.318.505-.637.781-.952a.525.525,0,0,1,.74-.13.559.559,0,0,1-.05.778c-.272.312-.529.631-.771.944-.226.293-.438.589-.639.885A.381.381,0,0,1,1528.58,168.958Z" transform="translate(-1525.057 -133.542)" fill="#3a4ae9"/>
      </g>
    </g>
  </g>
</svg>
