<svg xmlns="http://www.w3.org/2000/svg" width="1174.589" height="863.505" viewBox="0 0 1174.589 863.505">
  <g id="Group_397" data-name="Group 397" transform="translate(-807 -84)">
    <g id="Group_63" data-name="Group 63" transform="translate(1455.176 84)">
      <g id="Group_26" data-name="Group 26" transform="translate(0 0)">
        <rect id="Rectangle_18" data-name="Rectangle 18" width="105.415" height="15.745" rx="7.872" transform="translate(0 3.086)" fill="#b3bdce"/>
        <path id="Path_70" data-name="Path 70" d="M1577.3,23.13V14.594h-.925V23.13h-67.757V14.594h-.925V23.13h-8.5c-5.291,0-9.579,7.261-9.579,16.216h104.355c0-8.956-4.289-16.216-9.579-16.216Z" transform="translate(-1488.554 -14.594)" fill="#8996f1"/>
        <path id="Path_71" data-name="Path 71" d="M1614.246,60.138c0,3.462-4.609,6.269-10.295,6.269s-10.294-2.807-10.294-6.269" transform="translate(-1549.82 -35.385)" fill="#8996f1"/>
      </g>
      <g id="Group_27" data-name="Group 27" transform="translate(15.858 48.979)" opacity="0.7">
        <path id="Path_72" data-name="Path 72" d="M1602.261,144.3a13.441,13.441,0,0,1-1.055,1.209.5.5,0,0,1-.734.071.582.582,0,0,1,.1-.784,11.705,11.705,0,0,0,1.416-1.75.587.587,0,0,1,.739-.261.52.52,0,0,1,.079.744C1602.64,143.783,1602.456,144.04,1602.261,144.3Zm1.561-2.843a.622.622,0,0,1-.562.262.441.441,0,0,1-.3-.627,7.007,7.007,0,0,0,.376-2.028.719.719,0,0,1,.542-.657.4.4,0,0,1,.506.436,8.287,8.287,0,0,1-.444,2.4A.768.768,0,0,1,1603.822,141.452ZM1599.473,147a.751.751,0,0,1-.144.142,20.328,20.328,0,0,1-2.015,1.322.429.429,0,0,1-.661-.189.7.7,0,0,1,.338-.765,19.361,19.361,0,0,0,1.88-1.231.454.454,0,0,1,.7.077A.614.614,0,0,1,1599.473,147Zm-3.979,2.312a.715.715,0,0,1-.271.218c-.671.3-1.386.584-2.125.841a.406.406,0,0,1-.574-.344.716.716,0,0,1,.468-.709c.706-.246,1.387-.516,2.025-.8a.415.415,0,0,1,.618.276A.659.659,0,0,1,1595.494,149.308Zm8.488-12.156a.706.706,0,0,1-.24.2.421.421,0,0,1-.641-.228,7.1,7.1,0,0,0-.731-1.715.653.653,0,0,1,.217-.786.462.462,0,0,1,.709.052,7.93,7.93,0,0,1,.819,1.922A.647.647,0,0,1,1603.982,137.152Zm-12.659,13.608a.7.7,0,0,1-.367.252q-1.059.27-2.136.465a.406.406,0,0,1-.492-.454.721.721,0,0,1,.555-.644c.692-.125,1.38-.273,2.06-.449a.406.406,0,0,1,.531.406A.687.687,0,0,1,1591.324,150.759Zm10.738-16.961c-.281.3-.611.338-.789.145a10.915,10.915,0,0,0-1.353-1.231,12.858,12.858,0,0,0-1.06-.737.523.523,0,0,1-.064-.748.561.561,0,0,1,.738-.246,13.611,13.611,0,0,1,1.121.778,11.562,11.562,0,0,1,1.446,1.317A.571.571,0,0,1,1602.061,133.8Zm-14.923,17.716a.664.664,0,0,1-.443.265q-1.056.112-2.1.15a.415.415,0,0,1-.412-.536.71.71,0,0,1,.617-.576c.676-.026,1.356-.073,2.036-.146a.411.411,0,0,1,.453.5A.733.733,0,0,1,1587.139,151.513Zm-4.115.148a.647.647,0,0,1-.511.268c-.688-.025-1.369-.073-2.04-.147a.434.434,0,0,1-.328-.609.691.691,0,0,1,.667-.5c.649.071,1.309.118,1.974.142a.424.424,0,0,1,.37.575A.733.733,0,0,1,1583.024,151.662Zm14.876-20.8a.578.578,0,0,1-.671.228,18.149,18.149,0,0,0-1.741-.7.474.474,0,0,1-.2-.692.633.633,0,0,1,.714-.378,18.8,18.8,0,0,1,1.818.735.5.5,0,0,1,.135.72A.636.636,0,0,1,1597.9,130.864Zm-18.848,20.363a.618.618,0,0,1-.576.26q-.994-.186-1.94-.449a.462.462,0,0,1-.232-.673.647.647,0,0,1,.7-.411c.607.17,1.234.315,1.872.436a.447.447,0,0,1,.282.64A.774.774,0,0,1,1579.052,151.227Zm15.206-21.63a.611.611,0,0,1-.6.256c-.615-.152-1.249-.28-1.894-.382a.442.442,0,0,1-.3-.63.672.672,0,0,1,.68-.474c.668.108,1.324.238,1.962.4a.457.457,0,0,1,.25.662A.8.8,0,0,1,1594.258,129.6Zm-18.948,20.58a.591.591,0,0,1-.647.239,17.893,17.893,0,0,1-1.783-.8.505.505,0,0,1-.11-.731.593.593,0,0,1,.733-.294,17.238,17.238,0,0,0,1.706.765.48.48,0,0,1,.175.7A.686.686,0,0,1,1575.31,150.177Zm15.039-21.208a.64.64,0,0,1-.531.267c-.654-.054-1.319-.084-1.988-.092a.421.421,0,0,1-.385-.563.7.7,0,0,1,.633-.551c.692.007,1.379.04,2.052.094a.43.43,0,0,1,.344.6A.733.733,0,0,1,1590.349,128.969Zm-18.407,19.454a.558.558,0,0,1-.726.2q-.283-.2-.554-.407a12.251,12.251,0,0,1-.961-.823.573.573,0,0,1,.055-.777.522.522,0,0,1,.74-.124,11.474,11.474,0,0,0,.9.773c.17.133.344.259.52.381a.537.537,0,0,1,.038.758Zm14.333-19.494a.66.66,0,0,1-.465.267c-.681.041-1.363.106-2.041.195a.409.409,0,0,1-.467-.483.72.72,0,0,1,.578-.622q1.056-.139,2.112-.2a.413.413,0,0,1,.425.525A.717.717,0,0,1,1586.275,128.929Zm-4.169.549a.688.688,0,0,1-.393.258q-1.041.214-2.057.506a.406.406,0,0,1-.547-.385.723.723,0,0,1,.5-.686q1.055-.305,2.14-.529a.407.407,0,0,1,.506.438A.7.7,0,0,1,1582.105,129.478Zm-12.88,16.312a.747.747,0,0,1-.1.1.479.479,0,0,1-.723,0,8.336,8.336,0,0,1-.97-1.808.679.679,0,0,1,.314-.772.433.433,0,0,1,.671.161,7.643,7.643,0,0,0,.878,1.632A.591.591,0,0,1,1569.225,145.79Zm8.693-15.1a.728.728,0,0,1-.306.233c-.692.261-1.368.553-2.01.869a.419.419,0,0,1-.632-.248.713.713,0,0,1,.389-.748c.677-.333,1.39-.64,2.117-.917a.411.411,0,0,1,.589.325A.675.675,0,0,1,1577.918,130.692Zm-10.066,11.383a.7.7,0,0,1-.333.241.405.405,0,0,1-.564-.361,7.8,7.8,0,0,1,.188-2.371.7.7,0,0,1,.637-.547.422.422,0,0,1,.378.568,6.643,6.643,0,0,0-.157,2.012A.681.681,0,0,1,1567.852,142.074Zm6-9.375a.752.752,0,0,1-.191.175,17.1,17.1,0,0,0-1.828,1.317.469.469,0,0,1-.716-.032.625.625,0,0,1,.2-.786,18.738,18.738,0,0,1,1.978-1.426.436.436,0,0,1,.675.154A.632.632,0,0,1,1573.847,132.7Zm-4.988,5a.584.584,0,0,1-.659.235.49.49,0,0,1-.155-.712,8.447,8.447,0,0,1,1.017-1.55c.141-.183.292-.369.45-.55a.528.528,0,0,1,.741-.132.565.565,0,0,1-.049.776c-.145.17-.28.333-.415.511a9.785,9.785,0,0,0-.863,1.32A.883.883,0,0,1,1568.859,137.7Z" transform="translate(-1549.854 -117.772)" fill="#3a4ae9"/>
        <path id="Path_73" data-name="Path 73" d="M1609.251,114.913c-.192.248-.4.491-.628.733a.51.51,0,0,1-.736.092.578.578,0,0,1,.084-.783,7.349,7.349,0,0,0,1.256-1.768.61.61,0,0,1,.717-.37.477.477,0,0,1,.189.7A8.575,8.575,0,0,1,1609.251,114.913Zm-2.38,2.217a.756.756,0,0,1-.162.155,15.606,15.606,0,0,1-1.613.983c-.151.08-.307.159-.465.237a.419.419,0,0,1-.633-.247.712.712,0,0,1,.388-.747q.214-.106.428-.218a14,14,0,0,0,1.471-.9.448.448,0,0,1,.693.109A.623.623,0,0,1,1606.872,117.13Zm3.8-5.692a.678.678,0,0,1-.414.261.407.407,0,0,1-.484-.465,4.6,4.6,0,0,0-.252-1.859.691.691,0,0,1,.33-.766.429.429,0,0,1,.663.18,5.587,5.587,0,0,1,.3,2.274A.712.712,0,0,1,1610.674,111.438Zm-7.859,7.718a.72.72,0,0,1-.322.238,20,20,0,0,1-2.16.612.405.405,0,0,1-.515-.426.718.718,0,0,1,.534-.662,19.073,19.073,0,0,0,2.036-.579.408.408,0,0,1,.574.347A.674.674,0,0,1,1602.816,119.155Zm6.63-11.479c-.318.314-.645.33-.808.124a7.4,7.4,0,0,0-1.288-1.256,8.759,8.759,0,0,0-.722-.5.525.525,0,0,1-.06-.749.56.56,0,0,1,.739-.244,9.507,9.507,0,0,1,.78.546,8.062,8.062,0,0,1,1.416,1.384A.583.583,0,0,1,1609.446,107.676Zm-10.823,12.439a.667.667,0,0,1-.434.264c-.7.087-1.412.139-2.118.158a.415.415,0,0,1-.406-.542.7.7,0,0,1,.621-.571c.674-.018,1.355-.069,2.023-.151a.409.409,0,0,1,.46.489A.718.718,0,0,1,1598.623,120.115Zm-4.1.108a.638.638,0,0,1-.528.266,19.952,19.952,0,0,1-2.024-.252.445.445,0,0,1-.287-.637.669.669,0,0,1,.684-.463,19.088,19.088,0,0,0,1.934.242.429.429,0,0,1,.348.592A.723.723,0,0,1,1594.522,120.223Zm11.132-15.264a.585.585,0,0,1-.657.235,13.975,13.975,0,0,0-1.776-.61.462.462,0,0,1-.236-.671.647.647,0,0,1,.7-.414,14.913,14.913,0,0,1,1.875.645.487.487,0,0,1,.158.711A.884.884,0,0,1,1605.654,104.959Zm-15.013,14.56a.6.6,0,0,1-.62.25,14.147,14.147,0,0,1-1.847-.705.5.5,0,0,1-.135-.72.6.6,0,0,1,.73-.317,13.214,13.214,0,0,0,1.744.664.467.467,0,0,1,.218.68A.7.7,0,0,1,1590.641,119.519Zm11.269-15.594a.625.625,0,0,1-.56.263,19.245,19.245,0,0,0-1.951-.194.425.425,0,0,1-.361-.58.69.69,0,0,1,.647-.533,20.444,20.444,0,0,1,2.038.2.442.442,0,0,1,.3.627A.787.787,0,0,1,1601.909,103.925ZM1587.2,117.893a.556.556,0,0,1-.729.2c-.128-.09-.255-.184-.378-.277a8.5,8.5,0,0,1-1.109-1.018.584.584,0,0,1,.1-.784.5.5,0,0,1,.735-.078,7.641,7.641,0,0,0,1.008.925c.115.087.233.174.355.259a.539.539,0,0,1,.033.759Zm10.673-14.163a.655.655,0,0,1-.472.267c-.674.033-1.356.1-2.029.2a.408.408,0,0,1-.474-.474.717.717,0,0,1,.57-.63c.7-.1,1.42-.174,2.128-.207a.414.414,0,0,1,.418.531A.734.734,0,0,1,1597.871,103.729Zm-4.174.622a.69.69,0,0,1-.369.251,19.432,19.432,0,0,0-2.031.636.408.408,0,0,1-.588-.324.723.723,0,0,1,.454-.717,20.019,20.019,0,0,1,2.154-.674.4.4,0,0,1,.531.407A.7.7,0,0,1,1593.7,104.351Zm-8.993,10.7a.7.7,0,0,1-.171.161.443.443,0,0,1-.686-.12,5.587,5.587,0,0,1-.508-2.171.719.719,0,0,1,.508-.682.406.406,0,0,1,.54.394,4.684,4.684,0,0,0,.425,1.8A.621.621,0,0,1,1584.7,115.053Zm4.846-9.117a.73.73,0,0,1-.232.2,13.889,13.889,0,0,0-1.864,1.19.457.457,0,0,1-.7-.068.641.641,0,0,1,.233-.786,15.092,15.092,0,0,1,2.05-1.31.423.423,0,0,1,.647.217A.647.647,0,0,1,1589.55,105.936Zm-4.915,4.926a.614.614,0,0,1-.589.258.451.451,0,0,1-.263-.653,8.537,8.537,0,0,1,1.349-2.24.536.536,0,0,1,.741-.153.565.565,0,0,1-.025.773l-.177.221a6.647,6.647,0,0,0-.932,1.611A.7.7,0,0,1,1584.635,110.861Z" transform="translate(-1559.568 -102.881)" fill="#3a4ae9"/>
        <path id="Path_74" data-name="Path 74" d="M1584.1,181.556c-.121.157-.245.314-.373.471a.538.538,0,0,1-.742.16.593.593,0,0,1,.019-.772,18.193,18.193,0,0,0,1.349-1.871.591.591,0,0,1,.736-.279.511.511,0,0,1,.1.736C1584.852,180.529,1584.486,181.052,1584.1,181.556Zm-1.98,2.222c-.637.634-1.248,1.184-1.89,1.711a.468.468,0,0,1-.715-.036.636.636,0,0,1,.2-.787c.609-.5,1.188-1.018,1.723-1.542a.5.5,0,0,1,.732-.053A.577.577,0,0,1,1582.117,183.779Zm4.147-5.817a.605.605,0,0,1-.612.252.462.462,0,0,1-.229-.673,13.87,13.87,0,0,0,.73-2.094.692.692,0,0,1,.65-.53.426.426,0,0,1,.36.582,15.215,15.215,0,0,1-.805,2.306A.769.769,0,0,1,1586.263,177.962Zm-7.8,8.821a.721.721,0,0,1-.166.157c-.638.443-1.311.873-2,1.28a.43.43,0,0,1-.665-.178.681.681,0,0,1,.33-.766c.66-.392,1.3-.8,1.917-1.228a.445.445,0,0,1,.69.113A.621.621,0,0,1,1578.46,186.782Zm8.94-13.241a.674.674,0,0,1-.417.261.407.407,0,0,1-.48-.466,11.284,11.284,0,0,0-.031-2.056.724.724,0,0,1,.467-.71.409.409,0,0,1,.579.341,12.592,12.592,0,0,1,.031,2.255A.709.709,0,0,1,1587.4,173.542Zm-12.908,15.6a.727.727,0,0,1-.244.2q-1.02.522-2.078.989a.415.415,0,0,1-.615-.282.715.715,0,0,1,.416-.736q1.025-.451,2.016-.957a.42.42,0,0,1,.639.233A.652.652,0,0,1,1574.492,189.144Zm-4.12,1.822a.726.726,0,0,1-.305.232q-1.045.4-2.115.742a.406.406,0,0,1-.564-.361.724.724,0,0,1,.482-.7q1.042-.338,2.059-.724a.41.41,0,0,1,.59.324A.678.678,0,0,1,1570.372,190.965Zm16.6-21.609a.737.737,0,0,1-.233.2.423.423,0,0,1-.646-.221,11.985,11.985,0,0,0-.681-1.8.671.671,0,0,1,.271-.78.447.447,0,0,1,.692.113,12.854,12.854,0,0,1,.729,1.934A.648.648,0,0,1,1586.973,169.356Zm-20.787,22.961a.687.687,0,0,1-.36.249c-.7.192-1.409.365-2.123.525a.406.406,0,0,1-.515-.427.723.723,0,0,1,.534-.662q1.045-.233,2.075-.511a.406.406,0,0,1,.54.4A.694.694,0,0,1,1566.187,192.317Zm19.13-26.524a.769.769,0,0,1-.108.113.472.472,0,0,1-.718-.016,15.213,15.213,0,0,0-1.129-1.491.6.6,0,0,1,.112-.785.5.5,0,0,1,.733-.062,15.928,15.928,0,0,1,1.188,1.566A.6.6,0,0,1,1585.316,165.793Zm-23.325,27.463a.683.683,0,0,1-.407.26q-1.054.188-2.114.329a.408.408,0,0,1-.466-.482.715.715,0,0,1,.577-.623q1.035-.138,2.068-.323a.408.408,0,0,1,.491.457A.716.716,0,0,1,1561.992,193.257Zm20.851-30.362c-.246.286-.578.345-.77.166q-.659-.615-1.415-1.2a.516.516,0,0,1-.074-.663.529.529,0,0,1-.66.12c-.5-.356-1.026-.693-1.565-1.013a.521.521,0,0,1-.079-.745.578.578,0,0,1,.738-.26q.838.5,1.615,1.045a.513.513,0,0,1,.087.673.523.523,0,0,1,.673-.11c.525.405,1.013.821,1.469,1.246A.563.563,0,0,1,1582.843,162.895Zm-25.021,30.921a.665.665,0,0,1-.451.267q-1.044.093-2.088.147a.414.414,0,0,1-.419-.53.7.7,0,0,1,.611-.583c.68-.035,1.365-.082,2.049-.145a.412.412,0,0,1,.443.508A.717.717,0,0,1,1557.821,193.815Zm-4.125.206a.653.653,0,0,1-.492.268c-.689,0-1.374,0-2.056-.027a.425.425,0,0,1-.371-.575.7.7,0,0,1,.643-.54c.669.022,1.342.033,2.018.028a.419.419,0,0,1,.395.553A.72.72,0,0,1,1553.7,194.021Zm23.7-34.838a.575.575,0,0,1-.68.225q-.833-.417-1.713-.785a.488.488,0,0,1-.159-.71.627.627,0,0,1,.727-.339c.6.252,1.189.52,1.758.806a.5.5,0,0,1,.119.727A.76.76,0,0,1,1577.392,159.183Zm-27.749,34.7a.635.635,0,0,1-.53.266q-1.014-.078-2.013-.2a.435.435,0,0,1-.319-.615.686.686,0,0,1,.67-.493q.978.121,1.974.2a.428.428,0,0,1,.345.593A.7.7,0,0,1,1549.643,193.881ZM1573.86,157.7a.594.594,0,0,1-.635.245q-.895-.314-1.823-.58a.463.463,0,0,1-.225-.675.639.639,0,0,1,.706-.407q.95.275,1.863.594a.475.475,0,0,1,.194.694A.8.8,0,0,1,1573.86,157.7Zm-28.18,35.7a.622.622,0,0,1-.569.262q-.988-.166-1.953-.378a.451.451,0,0,1-.265-.651.66.66,0,0,1,.694-.443c.628.137,1.267.261,1.913.37a.443.443,0,0,1,.293.633A.729.729,0,0,1,1545.68,193.4Zm24.448-36.777a.614.614,0,0,1-.593.257q-.937-.218-1.9-.4a.443.443,0,0,1-.284-.638.66.66,0,0,1,.684-.46c.657.12,1.3.255,1.943.4a.455.455,0,0,1,.258.657A.773.773,0,0,1,1570.129,156.618Zm-28.28,35.934a.609.609,0,0,1-.609.253q-.956-.262-1.876-.569a.473.473,0,0,1-.2-.69.634.634,0,0,1,.713-.383c.6.2,1.213.385,1.834.556a.462.462,0,0,1,.235.671A.8.8,0,0,1,1541.849,192.552Zm24.4-36.641a.628.628,0,0,1-.554.264q-.976-.132-1.968-.219a.431.431,0,0,1-.34-.6.689.689,0,0,1,.66-.51q1.012.089,2.007.223a.437.437,0,0,1,.312.62A.713.713,0,0,1,1566.244,155.911Zm-28.058,35.416a.591.591,0,0,1-.651.239q-.912-.365-1.777-.779a.5.5,0,0,1-.128-.723.594.594,0,0,1,.731-.312c.56.269,1.138.521,1.728.757a.485.485,0,0,1,.169.706A.842.842,0,0,1,1538.186,191.327Zm24.059-35.771a.644.644,0,0,1-.517.268c-.666-.032-1.338-.047-2.011-.049a.419.419,0,0,1-.388-.557.7.7,0,0,1,.631-.556q1.032,0,2.053.049a.425.425,0,0,1,.363.58A.726.726,0,0,1,1562.245,155.556Zm-27.5,34.124a.571.571,0,0,1-.7.216q-.849-.482-1.635-1.013a.533.533,0,0,1-.044-.756.578.578,0,0,1,.74-.224q.764.516,1.585.98a.514.514,0,0,1,.089.74C1534.772,189.643,1534.76,189.663,1534.746,189.68Zm23.416-34.136a.664.664,0,0,1-.476.268q-1.02.039-2.046.122a.412.412,0,0,1-.436-.514.707.707,0,0,1,.6-.6c.7-.055,1.392-.1,2.084-.125a.417.417,0,0,1,.414.538A.738.738,0,0,1,1558.161,155.544Zm-26.547,32.014a.548.548,0,0,1-.749.181q-.774-.626-1.439-1.283a.589.589,0,0,1,.064-.781.521.521,0,0,1,.739-.114q.641.633,1.386,1.237A.553.553,0,0,1,1531.615,187.558Zm22.405-31.679a.673.673,0,0,1-.436.265q-1.035.125-2.068.3a.407.407,0,0,1-.484-.464.725.725,0,0,1,.563-.636c.7-.116,1.405-.218,2.111-.3a.409.409,0,0,1,.46.49A.7.7,0,0,1,1554.02,155.879Zm-25.094,29.012c-.311.313-.639.332-.8.127a15.305,15.305,0,0,1-1.14-1.609.633.633,0,0,1,.207-.788.466.466,0,0,1,.712.039,14.459,14.459,0,0,0,1.081,1.528A.581.581,0,0,1,1528.925,184.891Zm20.907-28.315a.69.69,0,0,1-.39.257q-1.041.22-2.074.486a.405.405,0,0,1-.533-.4.722.722,0,0,1,.517-.675c.7-.184,1.411-.35,2.122-.5a.406.406,0,0,1,.508.436A.689.689,0,0,1,1549.832,156.576Zm-4.194,1.089a.7.7,0,0,1-.342.243q-1.039.322-2.061.693a.407.407,0,0,1-.581-.333.715.715,0,0,1,.46-.713q1.044-.383,2.118-.712a.4.4,0,0,1,.556.371A.687.687,0,0,1,1545.638,157.665Zm-18.72,23.918a.741.741,0,0,1-.181.168.439.439,0,0,1-.681-.139,12.683,12.683,0,0,1-.655-1.981.71.71,0,0,1,.392-.747.417.417,0,0,1,.63.251,11.831,11.831,0,0,0,.608,1.841A.627.627,0,0,1,1526.918,181.583Zm14.552-22.4a.7.7,0,0,1-.283.222c-.684.293-1.36.6-2.023.927a.417.417,0,0,1-.632-.246.7.7,0,0,1,.386-.748q1.027-.505,2.087-.956a.412.412,0,0,1,.608.291A.665.665,0,0,1,1541.47,159.184Zm-15.493,18.422a.706.706,0,0,1-.343.244.4.4,0,0,1-.554-.373,12.456,12.456,0,0,1,.072-2.284.718.718,0,0,1,.589-.609.412.412,0,0,1,.453.5,11.275,11.275,0,0,0-.068,2.074A.686.686,0,0,1,1525.977,177.605Zm11.416-16.408a.7.7,0,0,1-.215.188q-1.008.58-1.934,1.193a.441.441,0,0,1-.683-.131.671.671,0,0,1,.288-.777q.959-.641,2.011-1.239a.426.426,0,0,1,.658.19A.64.64,0,0,1,1537.393,161.2ZM1526.519,173.2a.631.631,0,0,1-.543.265.432.432,0,0,1-.328-.606,15.267,15.267,0,0,1,.9-2.289.637.637,0,0,1,.718-.374.477.477,0,0,1,.192.694,13.98,13.98,0,0,0-.822,2.074A.72.72,0,0,1,1526.519,173.2Zm7-9.419a.787.787,0,0,1-.131.133c-.625.489-1.216.995-1.757,1.5a.488.488,0,0,1-.728.027.629.629,0,0,1,.144-.788c.572-.535,1.2-1.068,1.853-1.584a.461.461,0,0,1,.708.057A.6.6,0,0,1,1533.516,163.786Zm-4.936,5.172a.563.563,0,0,1-.709.208.522.522,0,0,1-.067-.747c.231-.345.479-.683.744-1.027.245-.318.505-.637.781-.952a.525.525,0,0,1,.74-.13.559.559,0,0,1-.05.778c-.272.312-.529.631-.771.944-.226.293-.438.589-.639.885A.381.381,0,0,1,1528.58,168.958Z" transform="translate(-1525.057 -133.542)" fill="#3a4ae9"/>
      </g>
    </g>
    <g id="Group_159" data-name="Group 159" transform="translate(807 206.73)">
      <g id="Group_1" data-name="Group 1" transform="translate(0)" opacity="0.49">
        <path id="Path_2" data-name="Path 2" d="M1636.588,435.241c-.161,59.477-7.737,119.074-27.191,177.709a403.865,403.865,0,0,1-17.448,43.66,301.563,301.563,0,0,1-24.372,42.724c-9.737,13.949-21.041,27.7-36.365,40.256a125.642,125.642,0,0,1-27.276,17.112,101.393,101.393,0,0,1-17.836,6.183,93.833,93.833,0,0,1-41.829.557,99.239,99.239,0,0,1-18.247-5.843,123.16,123.16,0,0,1-27.866-16.844,168.425,168.425,0,0,1-20.6-19.515,218.863,218.863,0,0,1-16.294-20.6,296.476,296.476,0,0,1-24.634-42.68,398.927,398.927,0,0,1-17.613-43.639,521.908,521.908,0,0,1-21.219-88.516,627.629,627.629,0,0,1-7.03-89.166c-.125-14.876.6-29.751,1.57-44.616q1.531-22.3,4.551-44.556a554.826,554.826,0,0,1,19.208-88.628,406.454,406.454,0,0,1,16.232-43.775,293.688,293.688,0,0,1,23.066-42.9,210.609,210.609,0,0,1,15.5-20.745,158.237,158.237,0,0,1,19.841-19.679A115.422,115.422,0,0,1,1418,114.781a94.389,94.389,0,0,1,18.021-5.81,90.717,90.717,0,0,1,20.713-1.983,95.781,95.781,0,0,1,20.472,2.583,106.3,106.3,0,0,1,17.8,5.976,133.283,133.283,0,0,1,27.86,16.673c15.877,12.3,27.847,25.859,38.212,39.66a303.6,303.6,0,0,1,26.181,42.379,393.581,393.581,0,0,1,19.007,43.457C1627.62,316.151,1636.286,375.756,1636.588,435.241Zm-7.346,0a566.468,566.468,0,0,0-6.616-88.846,489.372,489.372,0,0,0-21.646-88.13,386.445,386.445,0,0,0-18.133-43.363,296.849,296.849,0,0,0-25.265-42.28c-10.042-13.762-21.688-27.282-37.139-39.5A128.612,128.612,0,0,0,1493.4,116.6a101.825,101.825,0,0,0-17.143-5.887,89.337,89.337,0,0,0-19.585-2.561,85.631,85.631,0,0,0-19.762,1.993,89.962,89.962,0,0,0-17.28,5.7,111.15,111.15,0,0,0-26.395,16.762,153.518,153.518,0,0,0-19.259,19.56,205.314,205.314,0,0,0-15,20.667,287.441,287.441,0,0,0-22.159,42.786,400.07,400.07,0,0,0-15.371,43.68,548.77,548.77,0,0,0-17.53,88.423,728.66,728.66,0,0,0-4.707,88.908,623.94,623.94,0,0,0,5.862,88.865,516.993,516.993,0,0,0,20,88.241,393.9,393.9,0,0,0,16.967,43.487A291.327,291.327,0,0,0,1365.95,699.7a213.805,213.805,0,0,0,15.862,20.447,163.7,163.7,0,0,0,20.017,19.279,118.115,118.115,0,0,0,26.784,16.437,93.053,93.053,0,0,0,17.157,5.588,84.353,84.353,0,0,0,19.424,1.982,85.814,85.814,0,0,0,19.229-2.523,95.153,95.153,0,0,0,16.8-5.924,120.476,120.476,0,0,0,26.236-16.719c14.861-12.367,25.886-26.013,35.348-39.875a295.845,295.845,0,0,0,23.635-42.52,398.012,398.012,0,0,0,16.781-43.507,524.562,524.562,0,0,0,19.87-88.251A626.354,626.354,0,0,0,1629.243,435.241Z" transform="translate(-874.952 -105.176)" fill="#fff" style="mix-blend-mode: soft-light;isolation: isolate"/>
        <path id="Path_3" data-name="Path 3" d="M1538.365,433.4a263.137,263.137,0,0,1-26.933,113.512c-18.267,36.839-45.8,72.284-83.208,104.11a422.622,422.622,0,0,1-63.579,44.436,491.187,491.187,0,0,1-78.282,35.964A547.948,547.948,0,0,1,1195,755.246a589.736,589.736,0,0,1-198.661.044A548.435,548.435,0,0,1,904.914,731.5a492.2,492.2,0,0,1-78.376-35.94,423.563,423.563,0,0,1-63.692-44.427c-37.474-31.829-65.059-67.288-83.4-104.143a249.359,249.359,0,0,1-20.132-170.9,265.842,265.842,0,0,1,20.249-56.264c18.385-36.841,46.011-72.28,83.506-104.079a423.775,423.775,0,0,1,63.7-44.383,491.1,491.1,0,0,1,78.357-35.881,550.911,550.911,0,0,1,91.359-23.714,585.915,585.915,0,0,1,198.384.041,550.131,550.131,0,0,1,91.3,23.751,490.194,490.194,0,0,1,78.26,35.906,422.811,422.811,0,0,1,63.586,44.391c37.428,31.8,65,67.22,83.308,104.045A263.249,263.249,0,0,1,1538.365,433.4Zm-7.939,0a259.79,259.79,0,0,0-25.961-112.41c-17.661-36.521-44.253-71.772-80.833-103.47a412.6,412.6,0,0,0-62.288-44.318,474.3,474.3,0,0,0-77.029-35.974A538.54,538.54,0,0,0,1194,113.438a572.66,572.66,0,0,0-196.61.041A537.669,537.669,0,0,0,907.139,137.3a473.247,473.247,0,0,0-76.934,36,411.559,411.559,0,0,0-62.177,44.327c-36.513,31.694-63.054,66.931-80.637,103.436a265.835,265.835,0,0,0-19.4,55.682,248.722,248.722,0,0,0,.055,113.3,265.955,265.955,0,0,0,19.459,55.667c17.625,36.492,44.2,71.707,80.739,103.372a411.721,411.721,0,0,0,62.186,44.282,472.136,472.136,0,0,0,76.911,35.94,540.113,540.113,0,0,0,90.185,23.746,568.952,568.952,0,0,0,196.331.045,540.709,540.709,0,0,0,90.25-23.711,473.332,473.332,0,0,0,77.008-35.917,412.677,412.677,0,0,0,62.3-44.274c36.6-31.669,63.232-66.9,80.933-103.406A259.906,259.906,0,0,0,1530.426,433.4Z" transform="translate(-524.456 -103.332)" fill="#fff" style="mix-blend-mode: soft-light;isolation: isolate"/>
        <path id="Path_4" data-name="Path 4" d="M492.981,506.277l134.446-.548,134.448-.313,268.9-.252,268.894.277,134.448.341,134.448.593c.2,0,.353.091.353.2s-.159.2-.353.2l-134.448.593-134.448.341-268.894.276-268.9-.251-134.448-.313-134.446-.548c-.293,0-.527-.135-.524-.3S492.692,506.278,492.981,506.277Z" transform="translate(-443.391 -306.923)" fill="#fff" style="mix-blend-mode: soft-light;isolation: isolate"/>
        <path id="Path_5" data-name="Path 5" d="M824.994,248.665l93.5-.55,93.5-.312c31.166-.133,62.333-.118,93.5-.159l93.5-.092,187,.277,93.5.34c31.167.2,62.333.32,93.5.593.191,0,.345.093.342.2s-.156.195-.342.2c-31.167.274-62.332.392-93.5.594l-93.5.34-187,.277-93.5-.092c-31.167-.041-62.335-.027-93.5-.16l-93.5-.311-93.5-.55c-.287,0-.515-.136-.511-.3S824.713,248.667,824.994,248.665Z" transform="translate(-611.614 -176.403)" fill="#fff" style="mix-blend-mode: soft-light;isolation: isolate"/>
        <path id="Path_6" data-name="Path 6" d="M393.526,763.888l146.713-.548,146.713-.314,293.428-.251,293.426.277,146.715.34,146.714.593c.2,0,.353.091.353.2s-.159.2-.353.2l-146.714.593-146.715.34L980.38,765.6l-293.428-.252-146.713-.313-146.713-.548c-.294,0-.53-.135-.526-.3S393.236,763.889,393.526,763.888Z" transform="translate(-393 -437.444)" fill="#fff" style="mix-blend-mode: soft-light;isolation: isolate"/>
        <path id="Path_7" data-name="Path 7" d="M492.981,1021.5l134.446-.548,134.448-.313,268.9-.252,268.894.277,134.448.341,134.448.593c.2,0,.353.091.353.2s-.159.2-.353.2l-134.448.593-134.448.341-268.894.277-268.9-.252-134.448-.313-134.446-.548c-.293,0-.527-.135-.524-.3S492.692,1021.5,492.981,1021.5Z" transform="translate(-443.391 -567.965)" fill="#fff" style="mix-blend-mode: soft-light;isolation: isolate"/>
        <path id="Path_8" data-name="Path 8" d="M1666.5,1280.829H864.553c-1.073,0-1.942-.467-1.942-1.043s.869-1.043,1.942-1.043H1666.5c1.073,0,1.941.467,1.941,1.043S1667.568,1280.829,1666.5,1280.829Z" transform="translate(-660.528 -698.863)" fill="#fff" style="mix-blend-mode: soft-light;isolation: isolate"/>
      </g>
      <g id="Group_56" data-name="Group 56" transform="translate(360.588 91.125)">
        <g id="Group_37" data-name="Group 37" transform="translate(74.961)">
          <rect id="Rectangle_19" data-name="Rectangle 19" width="177.609" height="334.337" rx="23" fill="#304885"/>
          <g id="Group_36" data-name="Group 36" transform="translate(8.804 8.287)">
            <path id="Path_83" data-name="Path 83" d="M2708.015,188.905V469.786a17.312,17.312,0,0,1-17.2,17.323H2565.207a17.309,17.309,0,0,1-17.194-17.323V188.905a17.309,17.309,0,0,1,17.194-17.323h125.612A17.312,17.312,0,0,1,2708.015,188.905Z" transform="translate(-2548.013 -171.582)" fill="#c3d7f7"/>
            <path id="Path_84" data-name="Path 84" d="M2690.818,171.582,2566.761,487.109h-1.554a17.309,17.309,0,0,1-17.194-17.323V188.905a17.309,17.309,0,0,1,17.194-17.323Z" transform="translate(-2548.013 -171.582)" fill="#cee0f9"/>
          </g>
          <path id="Rectangle_20" data-name="Rectangle 20" d="M8.386,0H59.663a8.386,8.386,0,0,1,8.386,8.386v0a8.387,8.387,0,0,1-8.387,8.387H8.386A8.386,8.386,0,0,1,0,8.387v0A8.386,8.386,0,0,1,8.386,0Z" transform="translate(54.781 1.959)" fill="#304885"/>
        </g>
        <rect id="Rectangle_21" data-name="Rectangle 21" width="219.957" height="93.981" rx="19" transform="translate(0 79.057)" fill="#ff3144"/>
        <g id="Group_38" data-name="Group 38" transform="translate(97.061 35.115)">
          <rect id="Rectangle_22" data-name="Rectangle 22" width="134.104" height="32.04" rx="16.02" fill="#9fbef0"/>
        </g>
        <g id="Group_39" data-name="Group 39" transform="translate(97.061 247.375)">
          <rect id="Rectangle_23" data-name="Rectangle 23" width="62.498" height="44.006" rx="15" fill="#9fbef0"/>
        </g>
        <g id="Group_40" data-name="Group 40" transform="translate(169.788 181.552)">
          <rect id="Rectangle_24" data-name="Rectangle 24" width="61.376" height="109.829" rx="15" fill="#9fbef0"/>
        </g>
        <g id="Group_41" data-name="Group 41" transform="translate(97.956 180.893)">
          <rect id="Rectangle_25" data-name="Rectangle 25" width="64.161" height="56.737" rx="15" fill="#ffc04d"/>
        </g>
        <path id="Path_85" data-name="Path 85" d="M2391.776,482.532a29.131,29.131,0,1,1-29.131-29.131A28.985,28.985,0,0,1,2391.776,482.532Z" transform="translate(-2314.508 -360.03)" fill="#fff"/>
        <rect id="Rectangle_26" data-name="Rectangle 26" width="37.264" height="5.167" rx="2.584" transform="translate(85.328 102.659)" fill="#fff"/>
        <g id="Group_42" data-name="Group 42" transform="translate(85.327 123.032)">
          <path id="Path_86" data-name="Path 86" d="M2588.768,555.015h-33.895a1.69,1.69,0,0,1-1.685-1.684h0a1.69,1.69,0,0,1,1.685-1.684h33.895a1.689,1.689,0,0,1,1.684,1.684h0A1.689,1.689,0,0,1,2588.768,555.015Z" transform="translate(-2553.188 -551.646)" fill="#fff"/>
          <path id="Rectangle_27" data-name="Rectangle 27" d="M1.684,0h18.5a1.684,1.684,0,0,1,1.684,1.684v0A1.684,1.684,0,0,1,20.18,3.369H1.684A1.684,1.684,0,0,1,0,1.684v0A1.684,1.684,0,0,1,1.684,0Z" transform="translate(0 7.973)" fill="#fff"/>
          <rect id="Rectangle_28" data-name="Rectangle 28" width="34.398" height="3.369" rx="1.684" transform="translate(27.097 7.973)" fill="#fff"/>
          <path id="Path_87" data-name="Path 87" d="M2741.29,555.015h-44.443a1.69,1.69,0,0,1-1.685-1.684h0a1.69,1.69,0,0,1,1.685-1.684h44.443a1.69,1.69,0,0,1,1.685,1.684h0A1.69,1.69,0,0,1,2741.29,555.015Z" transform="translate(-2652.299 -551.646)" fill="#fff"/>
          <path id="Path_88" data-name="Path 88" d="M2588.768,607.829h-33.895a1.689,1.689,0,0,1-1.685-1.684h0a1.689,1.689,0,0,1,1.685-1.684h33.895a1.689,1.689,0,0,1,1.684,1.684h0A1.689,1.689,0,0,1,2588.768,607.829Z" transform="translate(-2553.188 -588.515)" fill="#fff"/>
          <path id="Path_89" data-name="Path 89" d="M2741.29,607.829h-44.443a1.69,1.69,0,0,1-1.685-1.684h0a1.689,1.689,0,0,1,1.685-1.684h44.443a1.689,1.689,0,0,1,1.685,1.684h0A1.69,1.69,0,0,1,2741.29,607.829Z" transform="translate(-2652.299 -588.515)" fill="#fff"/>
        </g>
        <path id="Rectangle_29" data-name="Rectangle 29" d="M2.584,0H24.757a2.584,2.584,0,0,1,2.584,2.584v0a2.584,2.584,0,0,1-2.584,2.584H2.583A2.583,2.583,0,0,1,0,2.584v0A2.584,2.584,0,0,1,2.584,0Z" transform="translate(127.207 102.659)" fill="#fff"/>
        <g id="Group_46" data-name="Group 46" transform="translate(96.982 15.858)">
          <path id="Path_90" data-name="Path 90" d="M2619.944,227.656l-1.79,1.284-1.8-1.271a2.2,2.2,0,0,1,3.589-.014Z" transform="translate(-2608.94 -217.657)" fill="#fff"/>
          <g id="Group_43" data-name="Group 43" transform="translate(4.86 5.951)">
            <path id="Path_91" data-name="Path 91" d="M2612.246,216.368a5.319,5.319,0,0,0-4.353,2.264l1.135.8a3.936,3.936,0,0,1,6.419-.024l1.132-.812A5.324,5.324,0,0,0,2612.246,216.368Z" transform="translate(-2607.892 -216.368)" fill="#fff"/>
          </g>
          <g id="Group_44" data-name="Group 44">
            <path id="Path_92" data-name="Path 92" d="M2601.007,196.658a11.253,11.253,0,0,0-9.214,4.788l1.138.8a9.876,9.876,0,0,1,16.112-.06l1.127-.812A11.252,11.252,0,0,0,2601.007,196.658Z" transform="translate(-2591.793 -196.658)" fill="#fff"/>
          </g>
          <g id="Group_45" data-name="Group 45" transform="translate(2.644 3.258)">
            <path id="Path_93" data-name="Path 93" d="M2607.122,207.448a8.052,8.052,0,0,0-6.569,3.393l1.135.8a6.678,6.678,0,0,1,10.841-.042l1.127-.806A8.046,8.046,0,0,0,2607.122,207.448Z" transform="translate(-2600.552 -207.448)" fill="#fff"/>
          </g>
        </g>
        <g id="Group_55" data-name="Group 55" transform="translate(176.003 88.076)">
          <g id="Group_53" data-name="Group 53" transform="translate(0 10.221)">
            <g id="Group_49" data-name="Group 49" transform="translate(27.823)">
              <g id="Group_47" data-name="Group 47" transform="translate(1.792)">
                <path id="Path_94" data-name="Path 94" d="M2948.88,470.991a.577.577,0,0,1-.549-.348.567.567,0,0,1,.132-.621c.178-.173.365-.339.529-.524a4.491,4.491,0,0,0,1.1-3.241,4.473,4.473,0,0,0-1.475-3.061,2.241,2.241,0,0,1-.209-.2.56.56,0,0,1,.8-.774,5.606,5.606,0,0,1,1.766,2.679,5.5,5.5,0,0,1,.235,1.922,5.627,5.627,0,0,1-2.017,4.042A.534.534,0,0,1,2948.88,470.991Z" transform="translate(-2948.192 -461.989)" fill="#fff"/>
                <path id="Path_95" data-name="Path 95" d="M2948.751,470.958h0a.677.677,0,0,1-.64-.411.67.67,0,0,1,.155-.728l.139-.133c.13-.124.266-.251.386-.386a4.4,4.4,0,0,0,1.079-3.167,4.4,4.4,0,0,0-1.444-3l-.059-.053a1.285,1.285,0,0,1-.159-.157.659.659,0,0,1,.943-.911,5.727,5.727,0,0,1,1.8,2.725,5.732,5.732,0,0,1-1.813,6.069.629.629,0,0,1-.381.148Zm-.031-8.9a.46.46,0,0,0-.36.748,1.2,1.2,0,0,0,.137.134l.063.056a4.6,4.6,0,0,1,1.506,3.126,4.584,4.584,0,0,1-1.129,3.314c-.125.141-.262.271-.4.4l-.139.132a.467.467,0,0,0-.109.513.475.475,0,0,0,.457.286.439.439,0,0,0,.257-.1,5.458,5.458,0,0,0,1.133-1.292,5.54,5.54,0,0,0-1.118-7.2A.462.462,0,0,0,2948.72,462.055Z" transform="translate(-2948.061 -461.857)" fill="#fff"/>
              </g>
              <g id="Group_48" data-name="Group 48" transform="translate(0 1.025)">
                <path id="Path_96" data-name="Path 96" d="M2944.573,471.327a.443.443,0,0,1-.422-.268.437.437,0,0,1,.1-.478c.137-.133.281-.261.408-.4a3.458,3.458,0,0,0,.85-2.494,3.448,3.448,0,0,0-1.135-2.356,1.659,1.659,0,0,1-.162-.154.431.431,0,0,1,.618-.6,4.328,4.328,0,0,1,1.36,2.062,4.226,4.226,0,0,1,.18,1.479,4.3,4.3,0,0,1-.665,2.1,4.248,4.248,0,0,1-.888,1.013A.4.4,0,0,1,2944.573,471.327Z" transform="translate(-2944.021 -464.375)" fill="#fff"/>
                <path id="Path_97" data-name="Path 97" d="M2944.445,471.294h0a.543.543,0,0,1-.514-.331.535.535,0,0,1,.125-.585l.106-.1c.1-.095.2-.193.3-.3a3.352,3.352,0,0,0,.824-2.421,3.366,3.366,0,0,0-1.1-2.291l-.044-.04a1.137,1.137,0,0,1-.125-.124.53.53,0,0,1,.759-.733,4.432,4.432,0,0,1,1.389,2.108,4.432,4.432,0,0,1-1.4,4.7.5.5,0,0,1-.308.119Zm-.025-6.853a.332.332,0,0,0-.259.538.907.907,0,0,0,.1.1l.047.043a3.549,3.549,0,0,1,1.166,2.421,3.435,3.435,0,0,1-.146,1.259,3.473,3.473,0,0,1-.728,1.308c-.1.109-.2.21-.307.308l-.106.1a.335.335,0,0,0-.078.37.344.344,0,0,0,.33.206.316.316,0,0,0,.183-.073,4.19,4.19,0,0,0,.867-.989,4.239,4.239,0,0,0,.65-2.051,4.168,4.168,0,0,0-.177-1.446,4.234,4.234,0,0,0-1.328-2.015A.336.336,0,0,0,2944.419,464.442Z" transform="translate(-2943.891 -464.243)" fill="#fff"/>
              </g>
            </g>
            <g id="Group_52" data-name="Group 52" transform="translate(0 0)">
              <g id="Group_50" data-name="Group 50">
                <path id="Path_98" data-name="Path 98" d="M2881.69,470.991a.577.577,0,0,0,.549-.348.566.566,0,0,0-.132-.621c-.179-.173-.365-.339-.529-.524a4.484,4.484,0,0,1-1.1-3.241,4.475,4.475,0,0,1,1.474-3.061,2.16,2.16,0,0,0,.209-.2.56.56,0,0,0-.8-.774,5.645,5.645,0,0,0-1.138,7.328,5.541,5.541,0,0,0,1.154,1.315A.535.535,0,0,0,2881.69,470.991Z" transform="translate(-2879.248 -461.989)" fill="#fff"/>
                <path id="Path_99" data-name="Path 99" d="M2881.559,470.959h0a.63.63,0,0,1-.382-.148,5.642,5.642,0,0,1-1.174-1.339,5.718,5.718,0,0,1-.878-2.774,5.651,5.651,0,0,1,.239-1.956,5.739,5.739,0,0,1,1.8-2.725.659.659,0,0,1,.943.911,1.3,1.3,0,0,1-.159.157l-.058.053a4.4,4.4,0,0,0-1.445,3,4.387,4.387,0,0,0,1.079,3.167c.12.134.256.262.385.386l.139.133a.669.669,0,0,1,.155.728.676.676,0,0,1-.64.411Zm.032-8.9a.466.466,0,0,0-.3.112,5.543,5.543,0,0,0-1.735,2.632,5.438,5.438,0,0,0-.231,1.888,5.534,5.534,0,0,0,.848,2.68,5.464,5.464,0,0,0,1.133,1.292.438.438,0,0,0,.257.1.475.475,0,0,0,.456-.286.463.463,0,0,0-.109-.513l-.137-.132c-.133-.126-.272-.257-.4-.4a4.584,4.584,0,0,1-1.129-3.314,4.592,4.592,0,0,1,1.506-3.126l.063-.056a1.33,1.33,0,0,0,.137-.135.461.461,0,0,0-.359-.747Z" transform="translate(-2879.117 -461.857)" fill="#fff"/>
              </g>
              <g id="Group_51" data-name="Group 51" transform="translate(2.467 1.025)">
                <path id="Path_100" data-name="Path 100" d="M2886.9,471.327a.442.442,0,0,0,.422-.268.437.437,0,0,0-.1-.478c-.137-.133-.28-.261-.408-.4a3.444,3.444,0,0,1-.849-2.494,3.443,3.443,0,0,1,1.135-2.356,1.67,1.67,0,0,0,.16-.154.428.428,0,0,0-.037-.579.432.432,0,0,0-.581-.017,4.33,4.33,0,0,0-1.36,2.062,4.337,4.337,0,0,0,1.373,4.591A.4.4,0,0,0,2886.9,471.327Z" transform="translate(-2884.991 -464.375)" fill="#fff"/>
                <path id="Path_101" data-name="Path 101" d="M2886.763,471.294h0a.5.5,0,0,1-.306-.119,4.443,4.443,0,0,1-1.4-4.7,4.441,4.441,0,0,1,1.391-2.108.529.529,0,0,1,.758.733,1.01,1.01,0,0,1-.125.124l-.044.04a3.362,3.362,0,0,0-1.1,2.291,3.352,3.352,0,0,0,.825,2.421c.09.1.194.2.293.3l.108.1a.538.538,0,0,1,.125.585.544.544,0,0,1-.513.33Zm.025-6.853a.335.335,0,0,0-.218.081,4.238,4.238,0,0,0-1.329,2.015,4.155,4.155,0,0,0-.177,1.446,4.219,4.219,0,0,0,.65,2.051,4.167,4.167,0,0,0,.867.989.313.313,0,0,0,.184.073.343.343,0,0,0,.329-.205.336.336,0,0,0-.078-.371l-.106-.1c-.1-.1-.209-.2-.307-.307a3.543,3.543,0,0,1-.873-2.567,3.551,3.551,0,0,1,1.166-2.421l.048-.043a.785.785,0,0,0,.1-.1.331.331,0,0,0-.259-.538Z" transform="translate(-2884.861 -464.244)" fill="#fff"/>
              </g>
            </g>
          </g>
          <path id="Path_102" data-name="Path 102" d="M2913.4,441.34s-.286-3.149,1.289-3.266a2.121,2.121,0,0,1,1.928.6l.594,1.034,1.437,2.753Z" transform="translate(-2898.665 -438.063)" fill="#fff"/>
          <g id="Group_54" data-name="Group 54" transform="translate(2.376 0.896)">
            <path id="Path_103" data-name="Path 103" d="M2912.729,512.845a4.915,4.915,0,0,0,4.864-4.966l-9.8.069A4.916,4.916,0,0,0,2912.729,512.845Z" transform="translate(-2897.854 -478.785)" fill="#fff"/>
            <path id="Path_104" data-name="Path 104" d="M2913.22,465.276c-1.2-.467-4.071-2.4-4.217-3.563-.228-1.8-.3-3.646-.447-5.459-.11-1.345-.225-2.69-.353-4.033a22.276,22.276,0,0,0-.553-4.183c-.583-1.936-3.068-3.523-4.669-4.139a10.4,10.4,0,0,0-1.438-.436l-.008-1.054a2.277,2.277,0,0,0-2.278-2.262h0a2.277,2.277,0,0,0-2.247,2.294l.008,1.054a10.464,10.464,0,0,0-1.432.455c-1.593.639-4.055,2.261-4.609,4.2a22.26,22.26,0,0,0-.495,4.189c-.11,1.345-.2,2.691-.3,4.037-.123,1.816-.169,3.658-.37,5.465-.13,1.163-3.074,3.552-4.268,4.036a1.308,1.308,0,0,0-.184,2.408c.88.577,6.855.987,14.1.936s13.21-.544,14.083-1.134C2914.579,467.554,2914.332,465.708,2913.22,465.276Z" transform="translate(-2884.649 -440.148)" fill="#fff"/>
          </g>
        </g>
        <path id="Path_105" data-name="Path 105" d="M2398.481,526.14l-2.245-1.989c-.187.039-.374.071-.56.1a15.281,15.281,0,0,0-1.312-.817c.147-.908.27-1.75.373-2.5a40.251,40.251,0,0,0,.379-4.434c1.191-.058,2-.186,2-.186,2.252-.521,2.362-8.212,1.841-12.222a2.884,2.884,0,0,0,1.255-.238c1.7-.753,1.8-3.334,1.8-3.334a3.01,3.01,0,0,1-1.223,1.216s2.852-3.906-.457-6.577-6.661-.927-8.579-.811c-4.209.258-6.931.508-8.3,3.276-1.357,2.729-.823,10.233,1.777,12.994.044.257.09.508.122.766a5.15,5.15,0,0,0,1.03,2.452,17.2,17.2,0,0,1-3.115,7.247,11.26,11.26,0,0,0-2.24,2.414c-.02.013-.045.032-.045.032a.051.051,0,0,1,.019.006,24.407,24.407,0,0,0-3.147,6.906c-.007.013-.007.026-.013.039a23.116,23.116,0,0,0,4.447,2.446c.1.045.207.084.309.129.026.007.046.019.071.026.167.071.341.135.508.2.412.161.824.309,1.242.444.438.142.882.27,1.326.386.206.052.412.1.618.148.18.045.36.083.547.116l.078.019c.122.026.244.045.367.071.283.052.572.1.862.148.064.006.135.019.2.026.161.026.315.045.476.064l.676.077c.251.026.508.045.766.058.238.019.482.032.727.039s.509.013.766.013c.277,0,.547-.006.824-.013a.247.247,0,0,0,.07-.007c.064,0,.135,0,.2-.006q.2,0,.405-.019a.15.15,0,0,1,.052-.006c.256-.013.508-.032.765-.058a24.225,24.225,0,0,0,9.19-2.78A25.615,25.615,0,0,0,2398.481,526.14Z" transform="translate(-2345.449 -388.152)" fill="#739ce7"/>
      </g>
      <g id="Group_25" data-name="Group 25" transform="translate(63.214 402.421)">
        <g id="Group_17" data-name="Group 17" transform="translate(9.179 157.561)">
          <path id="Path_53" data-name="Path 53" d="M214.839,1277.577v4.516c0,1.582.512,2.872,1.137,2.872h164.8c.625,0,1.137-1.29,1.137-2.872v-4.516c0-1.578-.512-2.873-1.137-2.873h-164.8C215.351,1274.7,214.839,1276,214.839,1277.577Z" transform="translate(-214.839 -1274.704)" fill="#8fadef"/>
          <path id="Path_54" data-name="Path 54" d="M214.839,1277.577v4.516c0,1.582.47,2.872,1.043,2.872H346.716c.574,0,1.043-1.29,1.043-2.872v-4.516c0-1.578-.469-2.873-1.043-2.873H215.882C215.309,1274.7,214.839,1276,214.839,1277.577Z" transform="translate(-214.839 -1274.704)" fill="#bbd0ff"/>
          <rect id="Rectangle_13" data-name="Rectangle 13" width="116.998" height="170.531" transform="translate(158.709 180.792) rotate(180)" fill="#aec3ff"/>
          <rect id="Rectangle_14" data-name="Rectangle 14" width="116.998" height="170.531" transform="translate(125.922 180.792) rotate(180)" fill="#d2e0ff"/>
          <g id="Group_16" data-name="Group 16" transform="translate(15.209 15.079)">
            <g id="Group_13" data-name="Group 13">
              <path id="Path_55" data-name="Path 55" d="M252.263,1311.808H356.687v156.3H252.263Zm103.3,1.128H253.39v154.043H355.559Z" transform="translate(-252.263 -1311.808)" fill="#aec3ff"/>
            </g>
            <g id="Group_14" data-name="Group 14" transform="translate(0.564 51.705)">
              <rect id="Rectangle_15" data-name="Rectangle 15" width="103.297" height="1.128" fill="#aec3ff"/>
            </g>
            <g id="Group_15" data-name="Group 15" transform="translate(0.564 104.417)">
              <rect id="Rectangle_16" data-name="Rectangle 16" width="103.297" height="1.128" fill="#aec3ff"/>
            </g>
            <path id="Path_56" data-name="Path 56" d="M352.221,1331.671h19.168a1.7,1.7,0,0,0,1.691-1.691h0a1.7,1.7,0,0,0-1.691-1.691H352.221a1.7,1.7,0,0,0-1.691,1.691h0A1.7,1.7,0,0,0,352.221,1331.671Z" transform="translate(-310.594 -1321.591)" fill="#aec3ff"/>
            <path id="Path_57" data-name="Path 57" d="M352.221,1458.507h19.168a1.7,1.7,0,0,0,1.691-1.691h0a1.7,1.7,0,0,0-1.691-1.692H352.221a1.7,1.7,0,0,0-1.691,1.692h0A1.7,1.7,0,0,0,352.221,1458.507Z" transform="translate(-310.594 -1396.88)" fill="#aec3ff"/>
            <path id="Path_58" data-name="Path 58" d="M352.221,1590.725h19.168a1.7,1.7,0,0,0,1.691-1.691h0a1.7,1.7,0,0,0-1.691-1.692H352.221a1.7,1.7,0,0,0-1.691,1.692h0A1.7,1.7,0,0,0,352.221,1590.725Z" transform="translate(-310.594 -1475.364)" fill="#aec3ff"/>
          </g>
        </g>
        <g id="Group_24" data-name="Group 24">
          <g id="Group_19" data-name="Group 19" transform="translate(83.744 62.545)">
            <path id="Path_59" data-name="Path 59" d="M436.477,1067.42s-10.96-12.785-.676-20.907c0,0,7.513-4.548,13.638-4.179,0,0-8.679,14.554-5.872,16s8.5-16.915,8.5-16.915,17.1-1.657,22.594.986c0,0-14.613,11.959-11.535,12.671s18.862-11.026,18.862-11.026,15.91,2.707,15.062,12.413-6.33,12.7-8.74,12.445-16.5-5.639-16.811-3.664,8.177,8.426,14.118,8.728c0,0-11.217,12.37-18.672,8.8s-8.091-9.23-12.738-11.352-8.614-2.117-6.7.047,10.329,4.269,12.986,8.97,5.042,7.871-2.671,6.71-20.25-6.8-20.8-13.266Z" transform="translate(-417.953 -1040.908)" fill="#aec3ff"/>
            <g id="Group_18" data-name="Group 18" transform="translate(0 15.744)">
              <path id="Path_60" data-name="Path 60" d="M482.6,1079.723s-43.213-1.665-52.756,10.693a31.252,31.252,0,0,1-8.605,12.077l-1.012,2.759s7.488-7.9,10.167-8.373C430.4,1096.879,426.207,1081.568,482.6,1079.723Z" transform="translate(-411.322 -1079.648)" fill="#aec3ff"/>
              <path id="Path_61" data-name="Path 61" d="M408.232,1134.272s-9.275,6.859-9.92,19.116l1.684.151s2.962-12.673,8.317-17.629S408.232,1134.272,408.232,1134.272Z" transform="translate(-398.312 -1111.427)" fill="#aec3ff"/>
            </g>
          </g>
          <g id="Group_21" data-name="Group 21" transform="translate(0 27.83)">
            <path id="Path_62" data-name="Path 62" d="M256.2,1000.636s17.434-9.763,9.3-23.014c0,0-6.509-8.136-13.483-10.228,0,0,3.719,19.759,0,20.224S249.46,965.3,249.46,965.3s-18.364-8.833-25.57-8.136c0,0,11.39,19.294,7.671,18.829S215.057,956,215.057,956s-18.829-3.487-21.851,7.671,1.86,16.737,4.65,17.434,20.688.465,20.223,2.79-12.553,6.044-19.294,3.952c0,0,7.438,18.363,17.2,17.434s12.785-6.974,18.829-7.438,10.461,1.162,7.438,2.79-13.25.533-18.131,4.682-8.833,6.707.232,8.567,25.338.7,28.592-6.276Z" transform="translate(-192.252 -955.489)" fill="#00ac7d"/>
            <g id="Group_20" data-name="Group 20" transform="translate(9.554 11.674)">
              <path id="Path_63" data-name="Path 63" d="M215.761,984.213s48.817,15.807,54.395,33.474a37.089,37.089,0,0,0,4.649,16.969v3.487s-5.114-11.855-7.9-13.482C266.9,1024.66,277.827,1009.318,215.761,984.213Z" transform="translate(-215.761 -984.213)" fill="#00ac7d"/>
              <path id="Path_64" data-name="Path 64" d="M357.639,1105.163s7.528,11.432,3.236,25.348l-1.937-.52s1.88-15.327-2.058-23.036S357.639,1105.163,357.639,1105.163Z" transform="translate(-298.595 -1054.72)" fill="#00ac7d"/>
            </g>
          </g>
          <g id="Group_23" data-name="Group 23" transform="translate(76.577)">
            <path id="Path_65" data-name="Path 65" d="M395.786,946.522s-22.981-12.87-12.257-30.336c0,0,8.58-10.724,17.772-13.482,0,0-4.9,26.045,0,26.658s3.371-29.416,3.371-29.416,24.208-11.644,33.706-10.725c0,0-15.015,25.433-10.112,24.82s21.756-26.353,21.756-26.353,24.82-4.6,28.8,10.113-2.451,22.062-6.128,22.982-27.271.612-26.659,3.677,16.547,7.967,25.434,5.209c0,0-9.805,24.207-22.675,22.982s-16.854-9.193-24.82-9.805-13.789,1.532-9.806,3.677,17.466.7,23.9,6.174,11.644,8.841-.306,11.292-33.4.92-37.69-8.273Z" transform="translate(-380.678 -887.009)" fill="#8996f1"/>
            <g id="Group_22" data-name="Group 22" transform="translate(2.97 15.389)">
              <path id="Path_66" data-name="Path 66" d="M480.6,924.875S416.257,945.711,408.9,969c0,0,.307,10.418-6.128,22.369v4.6s6.741-15.627,10.419-17.772C413.193,978.192,398.791,957.968,480.6,924.875Z" transform="translate(-396.764 -924.875)" fill="#8996f1"/>
              <path id="Path_67" data-name="Path 67" d="M394,1084.309s-9.924,15.07-4.266,33.413l2.553-.686s-2.478-20.2,2.714-30.366S394,1084.309,394,1084.309Z" transform="translate(-387.987 -1017.816)" fill="#8996f1"/>
            </g>
          </g>
          <path id="Path_68" data-name="Path 68" d="M350.2,1202.832a45.017,45.017,0,0,0,45.017-45.017H305.178A45.017,45.017,0,0,0,350.2,1202.832Z" transform="translate(-259.285 -1047.758)" fill="#aec3ff"/>
          <path id="Path_69" data-name="Path 69" d="M394.926,1266.11H303.648a5.554,5.554,0,0,1,5.555-5.554h80.169a5.554,5.554,0,0,1,5.554,5.554Z" transform="translate(-258.376 -1108.745)" fill="#aec3ff"/>
          <rect id="Rectangle_17" data-name="Rectangle 17" width="92.538" height="1.381" transform="translate(44.414 110.056)" fill="#bbd0ff"/>
        </g>
      </g>
      <g id="Group_82" data-name="Group 82" transform="translate(251.811 237.541)">
        <g id="Group_2" data-name="Group 2" transform="translate(17.385 158.186)">
          <path id="Path_9" data-name="Path 9" d="M701.937,932.453a16.85,16.85,0,0,1,10.288-12.383c17.651-7.431,37.3.928,54.749,8.964,53.8,24.772,19.419,52.875,7.364,50.293-13.49-3.815-34.766-7.775-47.8-12.614-8.064-4.15-10.255-11.317-14.007-18.561C703.542,944.93,700.826,938.795,701.937,932.453Z" transform="translate(-701.702 -917.187)" fill="#bac4ea"/>
          <path id="Path_10" data-name="Path 10" d="M701.937,932.453a16.85,16.85,0,0,1,10.288-12.383c17.651-7.431,37.3.928,54.749,8.964,53.8,24.772,19.419,52.875,7.364,50.293-13.49-3.815-34.766-7.775-47.8-12.614-8.064-4.15-10.255-11.317-14.007-18.561C703.542,944.93,700.826,938.795,701.937,932.453Z" transform="translate(-701.702 -917.187)" fill="#8996f1"/>
          <path id="Path_11" data-name="Path 11" d="M755.746,955.006c-17.013-7.833-36.106-15.965-53.407-9.49a15.325,15.325,0,0,0-.4,1.682c-1.111,6.341,1.606,12.477,10.59,15.7,3.752,7.244,5.943,14.411,14.007,18.561,13.037,4.839,34.314,8.8,47.8,12.614,2.421.518,5.742-.2,9.069-1.883C788.019,982.249,784.312,968.158,755.746,955.006Z" transform="translate(-701.702 -931.932)" fill="#bac4ea" opacity="0.5" style="mix-blend-mode: multiply;isolation: isolate"/>
        </g>
        <path id="Path_12" data-name="Path 12" d="M923.006,1124.943l-4.1,15.533a2.855,2.855,0,0,1-3.488,2.032l-251.793-66.45a2.855,2.855,0,0,1-2.032-3.488l4.1-15.533a2.855,2.855,0,0,1,3.488-2.032l251.793,66.451A2.854,2.854,0,0,1,923.006,1124.943Z" transform="translate(-661.498 -837.169)" fill="#1c3758"/>
        <path id="Path_13" data-name="Path 13" d="M1375.493,1076.219l.413,0c27.556-.266,29.584-31.118,2.17-33.222q-1.6-.123-3.243-.124h-457.6L711.3,976.2a31.951,31.951,0,0,0-17.711-.485c-12.312,3.214-13.14,16.272-1.213,20.223l.191.063,212.959,68.946a31.569,31.569,0,0,0,10.492,1.476v9.8Z" transform="translate(-674.2 -791.641)" fill="#d5e6f1" style="mix-blend-mode: multiply;isolation: isolate"/>
        <rect id="Rectangle_1" data-name="Rectangle 1" width="721.016" height="26.537" transform="translate(18.719 295.636)" fill="#948bb7"/>
        <rect id="Rectangle_2" data-name="Rectangle 2" width="596.029" height="16.905" transform="translate(94.918 388.932)" fill="#1c3758"/>
        <rect id="Rectangle_3" data-name="Rectangle 3" width="12.248" height="68.725" transform="translate(180.834 322.173)" fill="#1c3758"/>
        <rect id="Rectangle_4" data-name="Rectangle 4" width="12.248" height="68.725" transform="translate(627.034 322.173)" fill="#1c3758"/>
        <g id="Group_3" data-name="Group 3" transform="translate(94.918 424.236)">
          <circle id="Ellipse_1" data-name="Ellipse 1" cx="23.039" cy="23.039" r="23.039" transform="translate(10.58 17.897)" fill="#8ab2d5"/>
          <path id="Path_14" data-name="Path 14" d="M954.9,1610.961a12.31,12.31,0,1,1-12.31-12.31A12.31,12.31,0,0,1,954.9,1610.961Z" transform="translate(-908.974 -1570.025)"/>
          <path id="Path_15" data-name="Path 15" d="M891.5,1545.029s-.89,11.47,11.371,17.7,12.261,12.26,12.261,12.26-1.186,9.295,5.537,9.492,7.119-8.5,6.526-15.623-5.933-14.436-7.02-16.216-.4-7.613-.4-7.613Z" transform="translate(-886.956 -1539.59)" fill="#f6e0b7"/>
          <rect id="Rectangle_5" data-name="Rectangle 5" width="35.201" height="8.108" fill="#8ab2d5"/>
        </g>
        <rect id="Rectangle_6" data-name="Rectangle 6" width="5.458" height="18.399" transform="translate(109.261 405.837)" fill="#1c3758"/>
        <g id="Group_4" data-name="Group 4" transform="translate(640.18 424.236)">
          <path id="Path_16" data-name="Path 16" d="M2212.521,1596.879a23.038,23.038,0,1,1-23.038-23.039A23.038,23.038,0,0,1,2212.521,1596.879Z" transform="translate(-2155.863 -1555.943)" fill="#8ab2d5"/>
          <path id="Path_17" data-name="Path 17" d="M2216.874,1610.961a12.311,12.311,0,1,1-12.311-12.31A12.311,12.311,0,0,1,2216.874,1610.961Z" transform="translate(-2170.512 -1570.025)"/>
          <path id="Path_18" data-name="Path 18" d="M2152.476,1545.029s-.89,11.47,11.371,17.7,12.26,12.26,12.26,12.26-1.186,9.295,5.538,9.492,6.213-9.168,5.62-16.287-5.028-13.772-6.115-15.552-.4-7.613-.4-7.613Z" transform="translate(-2147.927 -1539.59)" fill="#f6e0b7"/>
          <rect id="Rectangle_7" data-name="Rectangle 7" width="35.201" height="8.108" fill="#8ab2d5"/>
        </g>
        <rect id="Rectangle_8" data-name="Rectangle 8" width="5.458" height="18.399" transform="translate(654.523 405.837)" fill="#1c3758"/>
        <path id="Path_19" data-name="Path 19" d="M931.939,1082.422,688.7,1011.516l-3.964,7.1c-5.236,9.378,1.709,19.865,15.512,23.423l231.686,66.138H1370.8c14.764,0,26.731-8.131,26.731-18.161v-7.593Z" transform="translate(-673.7 -812.54)" fill="#ada9bb"/>
        <rect id="Rectangle_9" data-name="Rectangle 9" width="21.774" height="143.233" rx="6.074" transform="translate(732.04 184.723)" fill="#1c3758"/>
        <rect id="Rectangle_10" data-name="Rectangle 10" width="21.774" height="83.695" rx="6.074" transform="translate(10.249 238.478)" fill="#1c3758"/>
        <path id="Rectangle_11" data-name="Rectangle 11" d="M18.018,0h0A18.018,18.018,0,0,1,36.035,18.018V77.911a0,0,0,0,1,0,0H0a0,0,0,0,1,0,0V18.018A18.018,18.018,0,0,1,18.018,0Z" transform="translate(247.017 244.262)" fill="#5b80ae"/>
        <circle id="Ellipse_2" data-name="Ellipse 2" cx="13.058" cy="13.058" r="13.058" transform="translate(251.976 251.617)" fill="#1c3758"/>
        <rect id="Rectangle_12" data-name="Rectangle 12" width="36.035" height="12.418" transform="translate(247.017 283.217)" fill="#8ab2d5" opacity="0.5" style="mix-blend-mode: multiply;isolation: isolate"/>
        <g id="Group_81" data-name="Group 81" transform="translate(386.073 0)">
          <path id="Path_22" data-name="Path 22" d="M0,5.427A26.943,26.943,0,0,1,3.968,16.843a9.481,9.481,0,0,0,5.986,9.017c.44.2,10.212-1.43,10.194-2.045-.013-3.591-.207-4.306-1.352-7.978S15.224,0,15.224,0Z" transform="matrix(0.996, 0.087, -0.087, 0.996, 341.918, 457.413)" fill="#ffb27d"/>
          <path id="Path_45" data-name="Path 45" d="M1913.682,857.419c12.74-17.3,7.469-32.973,7.469-32.973-1.308-7.858-9.9-27.077-15-43.254-4.2-13.331-21.717-21.855-30.306-10.826L1874.1,774.1a12.487,12.487,0,0,0,.581,6.888l18.075,30.544a101.5,101.5,0,0,1,11.86,22.22Z" transform="translate(-1756.003 -680.822)" fill="#3a4ae9"/>
          <path id="Path_152" data-name="Path 152" d="M0,6.949A42.591,42.591,0,0,1,3.836,21.567C3.678,29.981,9.2,32.861,9.622,33.112s9.871-1.831,9.854-2.619a33.162,33.162,0,0,0-1.307-10.215C17.061,15.576,14.716,0,14.716,0Z" transform="matrix(0.809, 0.588, -0.588, 0.809, 175.52, 452.088)" fill="#ffb27d"/>
          <g id="Group_5" data-name="Group 5" transform="translate(0 60.484)">
            <path id="Path_20" data-name="Path 20" d="M1718.238,1579.975c3.566,13.734,3.31,18.949-1.506,21.77s-3.9,10.977-2.554,12.692,15.264,4.447,16.185,4.466,17.282-4.417,16.839-5.347c-2.827-4.509-9.408-15.913-12.064-25.207-2.455-8.591-.488-14.831-.488-14.831Z" transform="translate(-1664.762 -1200.038)" fill="#ef8d6c"/>
            <path id="Path_21" data-name="Path 21" d="M1634.482,1662.768c7.786-21.032,37.627-23.972,37.627-23.972,4.691,3.47,1.178,10.309,3.449,11.889s22.185,3.817,25.99-2.248a15.65,15.65,0,0,1,5.064,15.605Z" transform="translate(-1620.139 -1237.089)" fill="#233862"/>
            <path id="Path_22-2" data-name="Path 22" d="M1862.125,1596.206a46.038,46.038,0,0,1,4.948,17.08c-.2,9.831,6.916,13.2,7.464,13.49s12.733-2.139,12.711-3.06c-.017-5.373-.258-6.443-1.687-11.936s-4.452-23.694-4.452-23.694Z" transform="translate(-1749.346 -1208.307)" fill="#ef8d6c"/>
            <path id="Path_23" data-name="Path 23" d="M1852.42,1668.162l-54.325-1.076c5.858-16.771,28.96-35.964,37.055-10.627,11.019,1.754,15.449-4.914,15.449-4.914C1854.739,1659.611,1852.42,1668.162,1852.42,1668.162Z" transform="translate(-1713.003 -1240.16)" fill="#233862"/>
            <path id="Path_24" data-name="Path 24" d="M1683.18,1105.487c-2.01.728-2.694,4.245-2.694,4.245-2.007.574-62.5,31.923-70.323,39.291a28.626,28.626,0,0,0-8.851,20.55c-.082,4.143,52.451,146.379,52.451,146.379,14.952,4.748,19.253-3.1,19.253-3.1-11.138-60.35-21.215-121.607-18.772-120.945s2.32-3.433,2.32-3.433c3.875.691,17.1-5.393,17.1-5.393s-9.548,17.005-6.188,33.447,45.545,106.171,45.545,106.171c13.61-.664,16.229,1.936,22.074-6.473-12.406-35.044-19.117-99.147-16-101.541s.711-4.9,1.164-7.141,28.43-40.171,38.014-59.018a79.04,79.04,0,0,0,8.128-38.322C1766.421,1108.977,1683.18,1105.487,1683.18,1105.487Z" transform="translate(-1601.312 -934.391)" fill="#233862"/>
            <path id="Path_25" data-name="Path 25" d="M1696.8,834.959c-8.354,3.212-16.963,19.315-19.355,31.549s-6.133,56.477-7.458,56.144-1.99,2.315-2.12,3.745c-2.5,2.3-23.086,39.1-23.086,39.1s3.009,3.079,3.623,3.091S1661.331,967,1661.331,967s21.576-14.515,25.2-21.608,11.846-29.651,11.846-29.651c10.67,9.013,12.663,11.714,10.974,14.341s-.667,2.648-.1,4.911-3.01,7.31-2.842,9.155c4.188,5.61,27.813,11.6,27.813,11.6-.146,7.366-11.795,37.43-11.807,38.044,4.184,5.815,18.233,9.572,25.226,7.869,7.711-17.247,18.42-41.188,18.42-41.188,12.911-.768,26.385-9.3,26.823-10.727-3.574-26.272-9.029-71.208-17.659-90.211s-22.376-38.107-58.686-39.338C1702.322,830.053,1696.8,834.959,1696.8,834.959Z" transform="translate(-1625.984 -772.467)" fill="#00ac7d"/>
            <path id="Path_26" data-name="Path 26" d="M1787.585,830.479c-2.521-.05-6.154-1.249-7.718-4.335a.307.307,0,0,1,.548-.278c1.775,3.5,6.629,4.386,8.625,3.858a.307.307,0,0,1,.158.594A6.026,6.026,0,0,1,1787.585,830.479Z" transform="translate(-1702.638 -775.587)" fill="#e3beb1" style="mix-blend-mode: multiply;isolation: isolate"/>
            <path id="Path_27" data-name="Path 27" d="M1786.877,845.4a.307.307,0,0,1-.294-.245,10.622,10.622,0,0,0-2-4.127.307.307,0,1,1,.469-.395,11.055,11.055,0,0,1,2.131,4.4.306.306,0,0,1-.239.362A.275.275,0,0,1,1786.877,845.4Z" transform="translate(-1705.293 -784.003)" fill="#e3beb1" style="mix-blend-mode: multiply;isolation: isolate"/>
            <path id="Path_28" data-name="Path 28" d="M1799.288,1228.462c6.056,4.265,16.952,4.481,16.952,4.481.144.463-.84,3.668,1.1,6.316s5.61,11.318,6.151,15.013-1.174,5.043-1.174,5.043a9.9,9.9,0,0,1-4.777,8.657c-.88,5.663-4.538,4.362-4.538,4.362-.082,4.144-4.849,4.51-5.7.808s-.56-10.451-8.864-17.523-10.5-4.66-13.8-1.041-6.7,4.781-9.738,3.338-1.125-5.241,2.12-6.252,5.011-4.967,6.465-8.623,6.308-8.472,11.557-9.9C1798.436,1232.744,1799.288,1228.462,1799.288,1228.462Z" transform="translate(-1698.976 -1004.19)" fill="#ef8d6c"/>
            <path id="Path_29" data-name="Path 29" d="M1858.107,1302.827a.307.307,0,0,1-.3-.293c-.364-7.895-2.863-16.416-4.769-18.478a.307.307,0,0,1,.451-.417c1.976,2.139,4.561,10.845,4.932,18.867a.307.307,0,0,1-.293.321Z" transform="translate(-1744.142 -1035.452)" fill="#e3beb1" style="mix-blend-mode: multiply;isolation: isolate"/>
            <path id="Path_30" data-name="Path 30" d="M1871.795,1298.344h-.021a.308.308,0,0,1-.28-.331c.591-7-1.918-13.368-2.5-14.2a.307.307,0,0,1,.5-.351c.7,1,3.214,7.443,2.609,14.606A.308.308,0,0,1,1871.795,1298.344Z" transform="translate(-1753.213 -1035.329)" fill="#e3beb1" style="mix-blend-mode: multiply;isolation: isolate"/>
            <path id="Path_31" data-name="Path 31" d="M1882.224,1288.691a.308.308,0,0,1-.295-.246,27.964,27.964,0,0,0-1.916-6.407.307.307,0,1,1,.546-.28,27.91,27.91,0,0,1,1.972,6.565.308.308,0,0,1-.24.362A.355.355,0,0,1,1882.224,1288.691Z" transform="translate(-1759.479 -1034.345)" fill="#e3beb1" style="mix-blend-mode: multiply;isolation: isolate"/>
            <path id="Path_32" data-name="Path 32" d="M1631.726,1156.208c5.488,1.951,10.736.52,15.493.614s8.985,3.709,8.857,10.154,1.69,7.71,3.516,8.514-.564,5.208-5.291,3.58-6.1-9.793-8.225-11.063a9.191,9.191,0,0,0-4.892-1.018,67.436,67.436,0,0,0-19.4,10.822c.555-4.748,1.757-11.172,5.66-14.472A11.8,11.8,0,0,0,1631.726,1156.208Z" transform="translate(-1612.929 -963.179)" fill="#ef8d6c"/>
            <path id="Path_33" data-name="Path 33" d="M1742.992,721.446c1.917-.109,1.676,1.337,1.676,1.337,6.88,1.319,2.523,4.9,2.523,4.9,5.769,5.07,1.72,9.788.146,11.933s-2.295,6.289-2.295,6.289-11.324,4.178-11.558,4.06-11.079-7.361-11.079-7.361-5.133-17-9.862-18.311.041-9.976,3.209-9.65c-3.865-1.855-1.972-5.6.411-4.693s5.4.374,12.042,1.576,11.719,4.156,12.612,6.077C1743.838,715.7,1742.992,721.446,1742.992,721.446Z" transform="translate(-1663.315 -709.811)" fill="#fff"/>
            <path id="Path_34" data-name="Path 34" d="M1729.608,732.814c1.046,2.39.138,4.578-1.635,7.5s.292,5.048,2.247,5.252c-2.876,4.917-2.416,7.11,2.2,7.872,4.362-4.755,7.947-1.376,8.4,1.8s-3.2,7.5-3.2,7.5c.927,2.821,8.672,3.009,8.906,3.127,1.473,3.292-5.979,17.463-10.139,20.653s-5.615-4.6-4.27-8.233c-3.562.651-8.121-3.906-8.121-3.906-1.183,2.343-3.773,4.17-7.837,3.1-5.257,3.617-11.549,1.909-15.132-2.057-5.16-1.039-4.582-8.391-3.3-14.8s-.527-14.477-.518-16.824,1.66-4.062,2.681-5.114,7.257-14.171,11.99-14.034C1711.931,731.333,1729.608,732.814,1729.608,732.814Z" transform="translate(-1655.538 -718.229)" fill="#ef8d6c"/>
          </g>
          <path id="Path_35" data-name="Path 35" d="M1947.4,1028.949s-4.841,4.113-8.524,4.982-7.867,10.951-8.536,12.392,3.515-.64,5.189-3.094,2.817-3.415,3.3-2.881-.292,7.255-3.082,10.989-4.464,7.042-2.455,6.828,13.948-2.987,16.4-9.922.654-7.179,6.3-14.312S1947.4,1028.949,1947.4,1028.949Z" transform="translate(-1788.023 -830.292)" fill="#ffb27d"/>
          <path id="Path_36" data-name="Path 36" d="M2032.351,1165.244c4.042-7.042,10.956-20.359,18.566-35.3,13.706-26.91,29.664-59.094,35.138-69.345,17.44-32.671,9.034-54.639,9.034-54.639s-48.654-5.175-61.986-17.722l-4.8,7.963s-10.541,50.21-10.043,50.443q-.779,2.561-1.582,5.215c-8.32,27.626-17.889,62.156-23.105,90.277-2.933,15.825-4.486,29.611-3.65,39a73.665,73.665,0,0,1-.86,14.287c-4.711,36.035-10.1,72.982-10.1,72.982l15.971,3.111s13.744-19.728,28.4-71.25" transform="translate(-1808.66 -807.356)" fill="#233862"/>
          <path id="Path_37" data-name="Path 37" d="M1915.769,1696.647h47.167s1.131-7.734-1.334-13.6c-2.361-5.631-5.725-5.81-.43-14.635-3,3.32-9.888.987-16.707,0-.835,1.458-8.13,14.941-10.92,17.1C1930.463,1687.892,1916.719,1687.042,1915.769,1696.647Z" transform="translate(-1778.522 -1197.195)" fill="#233862"/>
          <path id="Path_38" data-name="Path 38" d="M2260.591,1168.011c26.82,53.687,15.566,90.381,15.566,90.381l-15.566,3.646s-16.112-44.717-30.932-77.429c-2.516-5.548-4.8-9.863-6.712-12.363-5.573-7.281-11.449-19.649-17.242-34.532-10.948-28.139-21.578-65.269-29.159-94.019-.534.1-17.885-47.864-17.885-47.864l-.161-9.492c17.576,2.385,60.6-22.6,60.6-22.6s18.387,13.158,20.9,50.736c1.228,18.341,9,95.908,9.861,119.07" transform="translate(-1917.564 -793.454)" fill="#233862"/>
          <path id="Path_39" data-name="Path 39" d="M2337.441,1696.166H2386.6s1.178-7.734-1.389-13.6c-2.461-5.631-6.314-8.189-5.391-15-3.124,3.32-8.214,7.038-15.322,6.05-.871,1.458-5.621,9.257-8.53,11.414C2352.755,1687.41,2338.43,1686.561,2337.441,1696.166Z" transform="translate(-2019.128 -1192.932)" fill="#233862"/>
          <path id="Path_40" data-name="Path 40" d="M1951.208,883.342,2071.8,843.326s8.594-39.029-12.865-85.708c-18.374-39.966-52.46-70.484-93.856-85.357-8.316-2.988-16.124-5.374-20.862-5.821-17.8-1.679-81.268,47.64-68.766,55.79C1926.631,755.591,1967.2,850.007,1951.208,883.342Z" transform="translate(-1755.991 -624.686)" fill="#3a4ae9"/>
          <g id="Group_7" data-name="Group 7" transform="translate(85.095 0)">
            <path id="Path_41" data-name="Path 41" d="M1902.5,702.8c6.482-4.528,13.227-13.857,15.061-23.682a79.135,79.135,0,0,1-18.969-10.153c-.2-.146-.385-.294-.567-.435a21.154,21.154,0,0,1-3.48-3.223l-13.926,14.438s-2,5.688-.755,6.891q1,.965,1.9,1.864c1.633,1.631,3.018,3.095,4.179,4.382a54.938,54.938,0,0,1,5.247,6.488S1895.955,707.378,1902.5,702.8Z" transform="translate(-1844.277 -624.07)" fill="#ffb27d"/>
            <path id="Path_42" data-name="Path 42" d="M1888.969,696.844c12.664-8.9,12.811-21.014,12.651-23.917-.025-.414-.055-.643-.055-.643-.169.06-.338.131-.513.208-5.576,2.481-13.178,12.986-16.263,19.97C1886.422,694.093,1887.808,695.557,1888.969,696.844Z" transform="translate(-1847.305 -628.027)" fill="#e2915a"/>
            <path id="Path_43" data-name="Path 43" d="M1856.514,623.149c8.635,12.1-4.8,25.342-11.122,30.57-1.776,1.474-2.989,2.309-2.989,2.309-2.293,1.381-6.226-.408-10.531-3.63-8.524-6.373-18.514-18.344-20.13-22.379-2.43-6.074-3.563-14.193,12.973-24.631S1845.454,607.641,1856.514,623.149Z" transform="translate(-1805.051 -587.896)" fill="#ffb27d"/>
            <path id="Path_44" data-name="Path 44" d="M1798.436,606.908c-.785-4.363-.125-11.373,1.4-16.848,3.274-11.762,17.129-17.5,17.187-17.519,15.679-6.43,27.032-1.106,34.631,17.648,8.033,19.832.7,24.265.7,24.265s.432-2.024-4.063-6.14c-.256-.234-.474-.425-.664-.586a4.1,4.1,0,0,1-1.5-3.246c.1-2.581-2.991-6.868-5.153-6.712-2.609.188-2.98,3.63-2.412,5.392a2.383,2.383,0,0,1-1.823,2.972c-5.548,1.356-7.765-5.139-13.656-4.412s-10.133,9.644-17.08,12.559C1797.281,618.458,1799.027,610.2,1798.436,606.908Z" transform="translate(-1798.104 -569.935)" fill="#233862"/>
          </g>
          <path id="Path_46" data-name="Path 46" d="M1845.565,686.913a56.13,56.13,0,0,0,15.869-14.995s6.3,6.074,11.237,5.592c0,0,1.955,13.083-9.812,19.468C1854.91,701.292,1845.565,686.913,1845.565,686.913Z" transform="translate(-1739.946 -627.819)" fill="#fff"/>
          <g id="Group_8" data-name="Group 8" transform="translate(121.487 34.363)">
            <path id="Path_47" data-name="Path 47" d="M1882.627,659.714l-.364-.575,3.455-8.784.63-.953Z" transform="translate(-1882.263 -649.402)" fill="#fff"/>
          </g>
          <g id="Group_9" data-name="Group 9" transform="translate(132.073 35.005)">
            <path id="Path_48" data-name="Path 48" d="M1907.394,665.574l-.652.168,1.056-14.854.558,1.692Z" transform="translate(-1906.742 -650.888)" fill="#fff"/>
          </g>
          <path id="Path_49" data-name="Path 49" d="M67.858,0S73.655,78.2,0,94.2L32.24,40.985Z" transform="translate(175.6 90.957)" fill="#233862" opacity="0.47"/>
          <path id="Path_50" data-name="Path 50" d="M2045.355,775.071s4.638,55.648-10.712,92.245l28.851-41.385,2.679-27.562Z" transform="translate(-1847.265 -686.367)" fill="#233862"/>
          <g id="Group_10" data-name="Group 10" transform="translate(156.123 52.744)">
            <path id="Path_51" data-name="Path 51" d="M2019.543,840.854c-7.505,10.01-32.036,28.745-43.333,37.123-3.545,2.636-5.789,4.244-5.789,4.244l-8.061-6.28s1.935-2.242,5.042-5.971c6.6-7.938,18.48-22.619,28.187-36.78,14.268-20.816,12.149-77.919,12.149-77.919,10.2-9.561,29.387,3.857,34.25,15.157S2029.405,827.7,2019.543,840.854Z" transform="translate(-1962.361 -726.023)" fill="#ffb27d"/>
            <path id="Path_52" data-name="Path 52" d="M2062.8,691.91s14.409,8.82,20.031,39.045-16.436,70.505-22.822,78.679-9.468,10.468-9.468,10.468-13.1-5.766-19.663-15.885c0,0,11.636-22.807,10.927-37.49-.62-12.872-3.758-49.63,3.517-57.075S2062.8,691.91,2062.8,691.91Z" transform="translate(-2001.25 -691.91)" fill="#3a4ae9"/>
          </g>
        </g>
      </g>
    </g>
  </g>
</svg>
