<svg xmlns="http://www.w3.org/2000/svg" xmlns:xlink="http://www.w3.org/1999/xlink" width="430" height="300" viewBox="0 0 430 300">
  <defs>
    <linearGradient id="linear-gradient" x1="0.5" x2="0.5" y2="1.128" gradientUnits="objectBoundingBox">
      <stop offset="0" stop-color="#fff"/>
      <stop offset="1" stop-color="#fff" stop-opacity="0"/>
    </linearGradient>
    <clipPath id="clip-path">
      <rect id="Rectangle_67" data-name="Rectangle 67" width="63.254" height="87.759" transform="translate(0 0)" fill="#fff"/>
    </clipPath>
  </defs>
  <g id="Group_509" data-name="Group 509" transform="translate(-4528 -1256)">
    <rect id="Rectangle_126" data-name="Rectangle 126" width="430" height="300" rx="30" transform="translate(4528 1256)" fill="none"/>
    <g id="Group_144" data-name="Group 144" transform="translate(4254.915 -365.935)">
      <g id="Group_122" data-name="Group 122" transform="translate(282.335 1641.248)" opacity="0.3">
        <path id="Path_195" data-name="Path 195" d="M799.615,223.958h-390.6a1.81,1.81,0,0,1-1.821-1.8h0a1.81,1.81,0,0,1,1.821-1.8h390.6a1.81,1.81,0,0,1,1.82,1.8h0A1.81,1.81,0,0,1,799.615,223.958Z" transform="translate(-407.195 -209.669)" fill="#2b3e51"/>
        <g id="Group_105" data-name="Group 105" transform="translate(11.222 9.115)">
          <path id="Path_196" data-name="Path 196" d="M444.384,227.626V424.1l12.26,6.507V218.495c0-.656-.349-1.149-.815-1.149s-.854.493-.854,1.149v4.867a.68.68,0,0,0,.078.383Z" transform="translate(-432.123 -217.346)" fill="#dddcf5"/>
          <path id="Path_197" data-name="Path 197" d="M433.194,227.626V424.1L420.933,430.6V218.495c0-.656.349-1.149.815-1.149s.854.493.854,1.149v4.867a.681.681,0,0,1-.078.383Z" transform="translate(-420.933 -217.346)" fill="#bcc2de"/>
        </g>
        <g id="Group_110" data-name="Group 110" transform="translate(112.613 9.115)">
          <path id="Path_196-2" data-name="Path 196" d="M444.384,227.626V424.1l12.26,6.507V218.495c0-.656-.349-1.149-.815-1.149s-.854.493-.854,1.149v4.867a.68.68,0,0,0,.078.383Z" transform="translate(-432.123 -217.346)" fill="#dddcf5"/>
          <path id="Path_197-2" data-name="Path 197" d="M433.194,227.626V424.1L420.933,430.6V218.495c0-.656.349-1.149.815-1.149s.854.493.854,1.149v4.867a.681.681,0,0,1-.078.383Z" transform="translate(-420.933 -217.346)" fill="#bcc2de"/>
        </g>
        <g id="Group_114" data-name="Group 114" transform="translate(211.816 9.115)">
          <path id="Path_196-3" data-name="Path 196" d="M444.384,227.626V424.1l12.26,6.507V218.495c0-.656-.349-1.149-.815-1.149s-.854.493-.854,1.149v4.867a.68.68,0,0,0,.078.383Z" transform="translate(-432.123 -217.346)" fill="#dddcf5"/>
          <path id="Path_197-3" data-name="Path 197" d="M433.194,227.626V424.1L420.933,430.6V218.495c0-.656.349-1.149.815-1.149s.854.493.854,1.149v4.867a.681.681,0,0,1-.078.383Z" transform="translate(-420.933 -217.346)" fill="#bcc2de"/>
        </g>
        <g id="Group_106" data-name="Group 106" transform="translate(35.744 9.115)">
          <path id="Path_198" data-name="Path 198" d="M491.285,227.626V424.1l12.261,6.507V218.495c0-.656-.349-1.149-.815-1.149s-.853.493-.853,1.149v4.867a.684.684,0,0,0,.077.383Z" transform="translate(-479.024 -217.346)" fill="#dddcf5"/>
          <path id="Path_199" data-name="Path 199" d="M480.095,227.626V424.1L467.834,430.6V218.495c0-.656.349-1.149.815-1.149s.854.493.854,1.149v4.867a.684.684,0,0,1-.077.383Z" transform="translate(-467.834 -217.346)" fill="#bcc2de"/>
        </g>
        <g id="Group_111" data-name="Group 111" transform="translate(137.445 9.115)">
          <path id="Path_198-2" data-name="Path 198" d="M491.285,227.626V424.1l12.261,6.507V218.495c0-.656-.349-1.149-.815-1.149s-.853.493-.853,1.149v4.867a.684.684,0,0,0,.077.383Z" transform="translate(-479.024 -217.346)" fill="#dddcf5"/>
          <path id="Path_199-2" data-name="Path 199" d="M480.095,227.626V424.1L467.834,430.6V218.495c0-.656.349-1.149.815-1.149s.854.493.854,1.149v4.867a.684.684,0,0,1-.077.383Z" transform="translate(-467.834 -217.346)" fill="#bcc2de"/>
        </g>
        <g id="Group_115" data-name="Group 115" transform="translate(236.648 9.115)">
          <path id="Path_198-3" data-name="Path 198" d="M491.285,227.626V424.1l12.261,6.507V218.495c0-.656-.349-1.149-.815-1.149s-.853.493-.853,1.149v4.867a.684.684,0,0,0,.077.383Z" transform="translate(-479.024 -217.346)" fill="#dddcf5"/>
          <path id="Path_199-3" data-name="Path 199" d="M480.095,227.626V424.1L467.834,430.6V218.495c0-.656.349-1.149.815-1.149s.854.493.854,1.149v4.867a.684.684,0,0,1-.077.383Z" transform="translate(-467.834 -217.346)" fill="#bcc2de"/>
        </g>
        <g id="Group_119" data-name="Group 119" transform="translate(311.876 9.115)">
          <path id="Path_198-4" data-name="Path 198" d="M491.285,227.626V424.1l12.261,6.507V218.495c0-.656-.349-1.149-.815-1.149s-.853.493-.853,1.149v4.867a.684.684,0,0,0,.077.383Z" transform="translate(-479.024 -217.346)" fill="#dddcf5"/>
          <path id="Path_199-4" data-name="Path 199" d="M480.095,227.626V424.1L467.834,430.6V218.495c0-.656.349-1.149.815-1.149s.854.493.854,1.149v4.867a.684.684,0,0,1-.077.383Z" transform="translate(-467.834 -217.346)" fill="#bcc2de"/>
        </g>
        <g id="Group_107" data-name="Group 107" transform="translate(61.028 9.115)">
          <path id="Path_200" data-name="Path 200" d="M538.186,227.626V424.1l12.261,6.507V218.495c0-.656-.349-1.149-.815-1.149s-.854.493-.854,1.149v4.867a.686.686,0,0,0,.077.383Z" transform="translate(-525.926 -217.346)" fill="#dddcf5"/>
          <path id="Path_201" data-name="Path 201" d="M527,227.626V424.1l-12.26,6.507V218.495c0-.656.349-1.149.814-1.149s.854.493.854,1.149v4.867a.681.681,0,0,1-.078.383Z" transform="translate(-514.736 -217.346)" fill="#bcc2de"/>
        </g>
        <g id="Group_112" data-name="Group 112" transform="translate(162.277 9.115)">
          <path id="Path_200-2" data-name="Path 200" d="M538.186,227.626V424.1l12.261,6.507V218.495c0-.656-.349-1.149-.815-1.149s-.854.493-.854,1.149v4.867a.686.686,0,0,0,.077.383Z" transform="translate(-525.926 -217.346)" fill="#dddcf5"/>
          <path id="Path_201-2" data-name="Path 201" d="M527,227.626V424.1l-12.26,6.507V218.495c0-.656.349-1.149.814-1.149s.854.493.854,1.149v4.867a.681.681,0,0,1-.078.383Z" transform="translate(-514.736 -217.346)" fill="#bcc2de"/>
        </g>
        <g id="Group_116" data-name="Group 116" transform="translate(261.48 9.115)">
          <path id="Path_200-3" data-name="Path 200" d="M538.186,227.626V424.1l12.261,6.507V218.495c0-.656-.349-1.149-.815-1.149s-.854.493-.854,1.149v4.867a.686.686,0,0,0,.077.383Z" transform="translate(-525.926 -217.346)" fill="#dddcf5"/>
          <path id="Path_201-3" data-name="Path 201" d="M527,227.626V424.1l-12.26,6.507V218.495c0-.656.349-1.149.814-1.149s.854.493.854,1.149v4.867a.681.681,0,0,1-.078.383Z" transform="translate(-514.736 -217.346)" fill="#bcc2de"/>
        </g>
        <g id="Group_120" data-name="Group 120" transform="translate(336.397 9.115)">
          <path id="Path_200-4" data-name="Path 200" d="M538.186,227.626V424.1l12.261,6.507V218.495c0-.656-.349-1.149-.815-1.149s-.854.493-.854,1.149v4.867a.686.686,0,0,0,.077.383Z" transform="translate(-525.926 -217.346)" fill="#dddcf5"/>
          <path id="Path_201-4" data-name="Path 201" d="M527,227.626V424.1l-12.26,6.507V218.495c0-.656.349-1.149.814-1.149s.854.493.854,1.149v4.867a.681.681,0,0,1-.078.383Z" transform="translate(-514.736 -217.346)" fill="#bcc2de"/>
        </g>
        <g id="Group_108" data-name="Group 108" transform="translate(85.86 9.115)">
          <path id="Path_202" data-name="Path 202" d="M585.088,227.626V424.1l12.261,6.507V218.495c0-.656-.349-1.149-.815-1.149s-.854.493-.854,1.149v4.867a.68.68,0,0,0,.078.383Z" transform="translate(-572.827 -217.346)" fill="#dddcf5"/>
          <path id="Path_203" data-name="Path 203" d="M573.9,227.626V424.1L561.637,430.6V218.495c0-.656.349-1.149.815-1.149s.854.493.854,1.149v4.867a.68.68,0,0,1-.078.383Z" transform="translate(-561.637 -217.346)" fill="#bcc2de"/>
        </g>
        <g id="Group_113" data-name="Group 113" transform="translate(187.109 9.115)">
          <path id="Path_202-2" data-name="Path 202" d="M585.088,227.626V424.1l12.261,6.507V218.495c0-.656-.349-1.149-.815-1.149s-.854.493-.854,1.149v4.867a.68.68,0,0,0,.078.383Z" transform="translate(-572.827 -217.346)" fill="#dddcf5"/>
          <path id="Path_203-2" data-name="Path 203" d="M573.9,227.626V424.1L561.637,430.6V218.495c0-.656.349-1.149.815-1.149s.854.493.854,1.149v4.867a.68.68,0,0,1-.078.383Z" transform="translate(-561.637 -217.346)" fill="#bcc2de"/>
        </g>
        <g id="Group_117" data-name="Group 117" transform="translate(286.312 9.115)">
          <path id="Path_202-3" data-name="Path 202" d="M585.088,227.626V424.1l12.261,6.507V218.495c0-.656-.349-1.149-.815-1.149s-.854.493-.854,1.149v4.867a.68.68,0,0,0,.078.383Z" transform="translate(-572.827 -217.346)" fill="#dddcf5"/>
          <path id="Path_203-3" data-name="Path 203" d="M573.9,227.626V424.1L561.637,430.6V218.495c0-.656.349-1.149.815-1.149s.854.493.854,1.149v4.867a.68.68,0,0,1-.078.383Z" transform="translate(-561.637 -217.346)" fill="#bcc2de"/>
        </g>
        <g id="Group_121" data-name="Group 121" transform="translate(360.919 9.115)">
          <path id="Path_202-4" data-name="Path 202" d="M585.088,227.626V424.1l12.261,6.507V218.495c0-.656-.349-1.149-.815-1.149s-.854.493-.854,1.149v4.867a.68.68,0,0,0,.078.383Z" transform="translate(-572.827 -217.346)" fill="#dddcf5"/>
          <path id="Path_203-4" data-name="Path 203" d="M573.9,227.626V424.1L561.637,430.6V218.495c0-.656.349-1.149.815-1.149s.854.493.854,1.149v4.867a.68.68,0,0,1-.078.383Z" transform="translate(-561.637 -217.346)" fill="#bcc2de"/>
        </g>
        <path id="Rectangle_66" data-name="Rectangle 66" d="M2.54,0h0A2.54,2.54,0,0,1,5.08,2.54V9.949a2.54,2.54,0,0,1-2.54,2.54h0A2.54,2.54,0,0,1,0,9.949V2.54A2.54,2.54,0,0,1,2.54,0Z" transform="translate(16.285)" fill="#2b3e51"/>
        <path id="Path_204" data-name="Path 204" d="M1114.081,212.4h0a2.54,2.54,0,0,0,2.541-2.54v-7.409a2.54,2.54,0,0,0-2.541-2.54h0a2.54,2.54,0,0,0-2.54,2.54v7.409A2.54,2.54,0,0,0,1114.081,212.4Z" transform="translate(-738.666 -199.913)" fill="#2b3e51"/>
      </g>
      <path id="Path_527" data-name="Path 527" d="M162.368,3.554l137.75,76.713H0Z" transform="translate(326.836 1672.167)" fill="url(#linear-gradient)"/>
      <g id="Group_103" data-name="Group 103" transform="translate(305.173 1678.296)" opacity="0.52">
        <path id="Rectangle_64" data-name="Rectangle 64" d="M3.419,0H31.161A18.44,18.44,0,0,1,49.6,18.44v6.238A3.419,3.419,0,0,1,46.182,28.1H18.44A18.44,18.44,0,0,1,0,9.657V3.419A3.419,3.419,0,0,1,3.419,0Z" transform="translate(0 0)" fill="#6daad2"/>
        <path id="Rectangle_65" data-name="Rectangle 65" d="M11.26,0h8.934a0,0,0,0,1,0,0V30.439A11.26,11.26,0,0,1,8.934,41.7H0a0,0,0,0,1,0,0V11.26A11.26,11.26,0,0,1,11.26,0Z" transform="translate(45.649 3.951) rotate(90)" fill="#598aab"/>
        <g id="Group_102" data-name="Group 102" transform="translate(10.811 7.815)">
          <path id="Path_192" data-name="Path 192" d="M1882.351,277.906h.038a1.177,1.177,0,0,1,1.113.795l2.293,6.681c.007.02.013.041.019.062l.443,1.571h.139l.488-1.6,2.4-6.726a1.176,1.176,0,0,1,1.107-.781h.031a1.176,1.176,0,0,1,1.106,1.579l-3.683,10.114a1.177,1.177,0,0,1-1.105.774h-.816a1.177,1.177,0,0,1-1.11-.785l-3.576-10.114A1.177,1.177,0,0,1,1882.351,277.906Z" transform="translate(-1881.173 -277.906)" fill="#95bad2"/>
          <path id="Path_193" data-name="Path 193" d="M1906.772,277.906h0a1.177,1.177,0,0,1,1.177,1.177V289.2a1.177,1.177,0,0,1-1.177,1.177h0a1.178,1.178,0,0,1-1.177-1.177V279.083A1.177,1.177,0,0,1,1906.772,277.906Z" transform="translate(-1892.155 -277.906)" fill="#95bad2"/>
          <path id="Path_194" data-name="Path 194" d="M1916.324,289.2V279.083a1.177,1.177,0,0,1,1.177-1.177h3.21a4.743,4.743,0,0,1,1.663.289,4.1,4.1,0,0,1,1.35.808,3.862,3.862,0,0,1,0,5.7,4.1,4.1,0,0,1-1.35.807,4.745,4.745,0,0,1-1.663.29h-2.034v3.4a1.177,1.177,0,0,1-1.176,1.177h0A1.177,1.177,0,0,1,1916.324,289.2Zm4.421-5.629a1.784,1.784,0,0,0,1.393-.522,1.747,1.747,0,0,0,.472-1.2,1.857,1.857,0,0,0-.118-.644,1.351,1.351,0,0,0-.348-.55,1.7,1.7,0,0,0-.578-.376,2.286,2.286,0,0,0-.822-.139h-2.068v3.433Z" transform="translate(-1896.979 -277.906)" fill="#95bad2"/>
        </g>
      </g>
      <g id="Mask_Group_1" data-name="Mask Group 1" transform="translate(639.831 1804.496)" clip-path="url(#clip-path)">
        <g id="Group_123" data-name="Group 123" transform="translate(13.321 -0.276)">
          <g id="Group_86" data-name="Group 86" transform="translate(0 0)">
            <path id="Path_153" data-name="Path 153" d="M1516.036,548.759l-47.678-6.63c-2.6,0-4.7-1.71-4.7-3.818l-12.984-67.465c0-2.109,15.088-8.905,17.685-8.905h60.428c2.6,0,4.7,1.709,4.7,3.818v72.552C1533.486,541.736,1518.632,548.759,1516.036,548.759Z" transform="translate(-1450.106 -461.942)" fill="#a0c5e8"/>
            <rect id="Rectangle_55" data-name="Rectangle 55" width="69.83" height="80.187" rx="8.504" transform="translate(0 6.63)" fill="#8996f1"/>
            <path id="Path_154" data-name="Path 154" d="M1511.469,506.248l-50.767-1.166c-2.015,0-3.648-1.326-3.648-2.962l-2.073-10.016c0-1.636,3.7-3.778,5.72-3.778h52.49c2.015,0,3.648,1.326,3.648,2.962v10.832C1516.84,505.437,1513.483,506.248,1511.469,506.248Z" transform="translate(-1452.032 -476.482)" fill="#83909e"/>
            <path id="Path_155" data-name="Path 155" d="M1509.4,587.971l-46.225-1.166c-3.348,0-6.063-2.2-6.063-4.924l-2-36.01c0-2.719,4.719-5.363,8.067-5.363h47.66c3.348,0,6.063,2.2,6.063,4.924v36.449C1516.895,584.6,1512.746,587.971,1509.4,587.971Z" transform="translate(-1452.087 -505.237)" fill="#83909e"/>
            <rect id="Rectangle_56" data-name="Rectangle 56" width="59.786" height="16.756" rx="6.599" transform="translate(2.949 13.01)" fill="#2b3e51"/>
            <rect id="Rectangle_57" data-name="Rectangle 57" width="59.786" height="46.298" rx="10.968" transform="translate(2.949 36.436)" fill="#2b3e51"/>
            <g id="Group_84" data-name="Group 84" transform="translate(25.005 18.549)">
              <path id="Path_156" data-name="Path 156" d="M1510.568,503.26c0,2.175-2.143,3.916-4.82,3.916h-6.122c-2.6,0-4.744-1.741-4.744-3.916Z" transform="translate(-1494.881 -503.26)" fill="#83909e"/>
              <path id="Path_157" data-name="Path 157" d="M1510.539,503.26a4.808,4.808,0,0,1-4.668,2.859h-6.122a4.7,4.7,0,0,1-4.592-2.859Z" transform="translate(-1495.005 -503.26)" opacity="0.1"/>
            </g>
            <g id="Group_85" data-name="Group 85" transform="translate(25.005 42.808)">
              <path id="Path_158" data-name="Path 158" d="M1510.568,557.3c0,2.175-2.143,3.915-4.82,3.915h-6.122c-2.6,0-4.744-1.741-4.744-3.915Z" transform="translate(-1494.881 -557.298)" fill="#83909e"/>
              <path id="Path_159" data-name="Path 159" d="M1510.539,557.3a4.808,4.808,0,0,1-4.668,2.859h-6.122a4.7,4.7,0,0,1-4.592-2.859Z" transform="translate(-1495.005 -557.298)" opacity="0.1"/>
            </g>
          </g>
        </g>
      </g>
      <g id="Group_101" data-name="Group 101" transform="translate(616.701 1678.296)">
        <rect id="Rectangle_62" data-name="Rectangle 62" width="46.259" height="32.839" rx="7.234" transform="translate(0 0)" fill="#2b3e51"/>
        <rect id="Rectangle_63" data-name="Rectangle 63" width="41.041" height="26.845" rx="4.589" transform="translate(2.609 1.762)" fill="#fff"/>
        <path id="Path_191" data-name="Path 191" d="M1551.638,358.043a1.416,1.416,0,1,1-1.416-1.417A1.416,1.416,0,0,1,1551.638,358.043Z" transform="translate(-1527.093 -327.412)" fill="#e6e7e8"/>
      </g>
      <g id="Group_128" data-name="Group 128" transform="translate(671.458 1778.04)">
        <ellipse id="Ellipse_8" data-name="Ellipse 8" cx="8.154" cy="1.756" rx="8.154" ry="1.756" transform="translate(0 28.893)" fill="#23272f"/>
        <g id="Group_127" data-name="Group 127" transform="translate(1.854 0)">
          <path id="Path_205" data-name="Path 205" d="M162.379,163.445s-.039-10.344,0-13.929c.045-4.133,3.869-6.771,3.869-6.771h4.645s3.824,2.637,3.869,6.771c.039,3.585,0,13.929,0,13.929a1.406,1.406,0,0,1,.079,1.293c-.445.721-2.31,1.464-6.27,1.4-3.96.06-5.826-.684-6.27-1.4A1.406,1.406,0,0,1,162.379,163.445Z" transform="translate(-162.164 -134.499)" fill="#d3e4dc"/>
          <path id="Path_206" data-name="Path 206" d="M256.193,166.143c-3.891.046-5.73-.69-6.171-1.4a1.406,1.406,0,0,1,.079-1.293s-.039-10.344,0-13.929c.045-4.133,3.869-6.771,3.869-6.771h2.215v.725Z" transform="translate(-249.885 -134.499)" fill="#c8d6ce"/>
          <path id="Path_207" data-name="Path 207" d="M171.967,173.411c-.08-.129.021-.427.091-.551a.7.7,0,0,0,.1-.364c0-.1-.039-10.379,0-13.918.035-3.234,2.678-5.5,3.384-6.053H179.7c.7.551,3.35,2.834,3.385,6.053.039,3.539,0,13.815,0,13.918a.726.726,0,0,0,.1.37c.066.118.167.416.087.545-.182.3-1.474,1.063-5.209,1.063q-.212,0-.433,0h-.022c-.147,0-.292,0-.433,0C173.441,174.475,172.149,173.707,171.967,173.411Z" transform="translate(-171.213 -143.553)" fill="#62ccaa"/>
          <path id="Path_208" data-name="Path 208" d="M257.918,160.294c0-.663.006-1.248.012-1.715.035-3.234,2.678-5.5,3.384-6.053H262.7s-1.922,2.71-1.911,7.768Z" transform="translate(-256.989 -143.553)" fill="#5fc19d"/>
          <path id="Path_209" data-name="Path 209" d="M178.025,365.057H178c-.147,0-.292,0-.433,0-3.735,0-5.027-.767-5.209-1.063-.08-.129.021-.427.091-.551a.7.7,0,0,0,.1-.364c0-.046-.008-2.112-.013-4.7h2.873a5.083,5.083,0,0,0,2.269,4.653c2.117,1.368,5.99.965,5.99.965-.182.3-1.474,1.063-5.209,1.063Q178.246,365.06,178.025,365.057Z" transform="translate(-171.607 -334.139)" fill="#5fc19d"/>
          <path id="Path_210" data-name="Path 210" d="M219.553,118.183H221.6a.28.28,0,0,1,.28.28V120h-4.645v-1.541a.28.28,0,0,1,.28-.28Z" transform="translate(-213.148 -111.758)" fill="#5582f2"/>
          <path id="Path_211" data-name="Path 211" d="M240.327,45.241h.66v2.9H239.67v-2.9Z" transform="translate(-233.921 -44.226)" fill="#4168b7"/>
          <path id="Path_212" data-name="Path 212" d="M247.31,45.241h.1v2.9h-.2v-2.9Z" transform="translate(-240.903 -44.226)" fill="#3a61a0"/>
          <path id="Path_213" data-name="Path 213" d="M225.347,31.556h3.347a.691.691,0,0,1,.691.691v.321h0a.469.469,0,0,1-.469.469h-.438v-.469h-1.666v.393h-.521a1.579,1.579,0,0,1-1.179-.529h0a2.017,2.017,0,0,0-1.893.6l-.484-.469C223.355,31.45,225.347,31.556,225.347,31.556Z" transform="translate(-221.063 -31.553)" fill="#bfc9cb"/>
          <path id="Path_214" data-name="Path 214" d="M185.6,257.264H174.644v.364H185.6Z" transform="translate(-173.715 -240.523)" fill="#e1eceb"/>
          <path id="Path_215" data-name="Path 215" d="M185.6,262.177H174.644v6.771H185.6Z" transform="translate(-173.715 -245.072)" fill="#5582f2"/>
          <ellipse id="Ellipse_9" data-name="Ellipse 9" cx="2.909" cy="2.909" rx="2.909" ry="2.909" transform="translate(3.997 23.823) rotate(-99.105)" fill="#e1eceb"/>
          <path id="Path_216" data-name="Path 216" d="M174.748,199.834a6.327,6.327,0,0,1,.469-2.292c.8.639,2.923.629,5.416-.164a6.633,6.633,0,0,1,4.622.281,6.263,6.263,0,0,1,.426,2.175c0,.289.006.623.008.992H174.74C174.742,200.456,174.745,200.123,174.748,199.834Z" transform="translate(-173.807 -184.808)" fill="#d3e4dc"/>
          <ellipse id="Ellipse_10" data-name="Ellipse 10" cx="0.589" cy="0.589" rx="0.589" ry="0.589" transform="translate(9.833 26.473) rotate(-103.237)" fill="#d3e4dc"/>
          <ellipse id="Ellipse_11" data-name="Ellipse 11" cx="0.981" cy="0.981" rx="0.981" ry="0.981" transform="translate(2.079 27.527) rotate(-102.75)" fill="#d3e4dc"/>
          <ellipse id="Ellipse_12" data-name="Ellipse 12" cx="0.981" cy="0.981" rx="0.981" ry="0.981" transform="translate(6.534 14.017) rotate(-157.307)" fill="#d3e4dc"/>
          <ellipse id="Ellipse_13" data-name="Ellipse 13" cx="0.491" cy="0.491" rx="0.491" ry="0.491" transform="translate(3.31 28.403)" fill="#d3e4dc"/>
          <ellipse id="Ellipse_14" data-name="Ellipse 14" cx="0.491" cy="0.491" rx="0.491" ry="0.491" transform="translate(3.594 12.733)" fill="#d3e4dc"/>
          <ellipse id="Ellipse_15" data-name="Ellipse 15" cx="0.301" cy="0.301" rx="0.301" ry="0.301" transform="translate(6.007 23.939)" fill="#d3e4dc"/>
          <path id="Path_217" data-name="Path 217" d="M214.787,395.1a.295.295,0,1,0,.295-.295A.295.295,0,0,0,214.787,395.1Z" transform="translate(-206.465 -367.866)" fill="#d3e4dc"/>
          <ellipse id="Ellipse_16" data-name="Ellipse 16" cx="0.295" cy="0.295" rx="0.295" ry="0.295" transform="translate(6.771 10.318)" fill="#d3e4dc"/>
          <ellipse id="Ellipse_17" data-name="Ellipse 17" cx="0.175" cy="0.175" rx="0.175" ry="0.175" transform="translate(6.716 29.709)" fill="#d3e4dc"/>
          <path id="Path_218" data-name="Path 218" d="M274.045,167.737a.175.175,0,1,0,.175-.175A.175.175,0,0,0,274.045,167.737Z" transform="translate(-269.878 -157.474)" fill="#d3e4dc"/>
          <path id="Path_219" data-name="Path 219" d="M185.6,353.467H174.644v.364H185.6Z" transform="translate(-173.715 -329.59)" fill="#e1eceb"/>
          <path id="Path_220" data-name="Path 220" d="M222.76,81h.005a2.063,2.063,0,0,1,2.063,2.063v.695H220.7v-.695A2.063,2.063,0,0,1,222.76,81Z" transform="translate(-216.356 -77.335)" fill="#bfc9cb"/>
          <g id="Group_125" data-name="Group 125" transform="translate(4.694 6.425)">
            <rect id="Rectangle_68" data-name="Rectangle 68" width="0.215" height="1.822" transform="translate(3.211)" fill="#e1eceb"/>
            <rect id="Rectangle_69" data-name="Rectangle 69" width="0.215" height="1.822" transform="translate(2.408)" fill="#e1eceb"/>
            <rect id="Rectangle_70" data-name="Rectangle 70" width="0.215" height="1.822" transform="translate(1.605)" fill="#e1eceb"/>
            <rect id="Rectangle_71" data-name="Rectangle 71" width="0.215" height="1.822" transform="translate(0.803)" fill="#e1eceb"/>
            <rect id="Rectangle_72" data-name="Rectangle 72" width="0.215" height="1.822" transform="translate(0)" fill="#e1eceb"/>
          </g>
          <path id="Path_221" data-name="Path 221" d="M250.575,81h.005a4.857,4.857,0,0,0-.7,2.758h-1.371v-.695A2.063,2.063,0,0,1,250.575,81Z" transform="translate(-244.171 -77.335)" fill="#b3b9ba"/>
          <path id="Path_222" data-name="Path 222" d="M248.527,271.515a2.909,2.909,0,0,1,2.909-2.909v5.817A2.909,2.909,0,0,1,248.527,271.515Z" transform="translate(-245.027 -251.024)" fill="#d3e4dc"/>
          <g id="Group_126" data-name="Group 126" transform="translate(4.652 18.736)">
            <rect id="Rectangle_73" data-name="Rectangle 73" width="1.134" height="3.51" transform="translate(3.51 1.188) rotate(90)" fill="#62ccaa"/>
            <rect id="Rectangle_74" data-name="Rectangle 74" width="1.134" height="3.51" transform="translate(1.188)" fill="#62ccaa"/>
          </g>
          <path id="Path_223" data-name="Path 223" d="M240.987,45.558s-1.109.045-1.317.673v-.99h1.317Z" transform="translate(-233.921 -44.226)" fill="#3a61a0"/>
          <path id="Path_224" data-name="Path 224" d="M170.7,157.621a10.512,10.512,0,0,1,2.584,4.625A7.862,7.862,0,0,0,170.7,157.621Z" transform="translate(-161.105 -148.27)" fill="#e1eceb"/>
          <path id="Path_225" data-name="Path 225" d="M226.428,89.632a2.013,2.013,0,0,0-1.055-2.006,2.266,2.266,0,0,1,.839,2.006Z" transform="translate(-218.308 -83.467)" fill="#e1eceb"/>
          <path id="Path_226" data-name="Path 226" d="M225.85,34.781a.587.587,0,0,0-.477-.543.679.679,0,0,1,.325.543Z" transform="translate(-217.724 -34.039)" fill="#e1eceb"/>
          <path id="Path_228" data-name="Path 228" d="M303.794,89s.037.558-.291.718c-.3.145-.4-.2-.119-.269A.637.637,0,0,0,303.794,89Z" transform="translate(-301.443 -84.74)" fill="#e1eceb"/>
        </g>
      </g>
      <g id="Group_142" data-name="Group 142" transform="translate(318.237 1738.194)">
        <g id="Group_2" data-name="Group 2" transform="translate(26.695 30.514)">
          <path id="Path_9" data-name="Path 9" d="M701.795,923.231a6.671,6.671,0,0,1,4.073-4.9c6.989-2.942,14.767.367,21.677,3.549,21.3,9.808,7.689,20.935,2.916,19.913-5.341-1.51-13.765-3.078-18.927-4.994-3.193-1.643-4.06-4.481-5.546-7.349C702.43,928.172,701.355,925.742,701.795,923.231Z" transform="translate(-701.702 -917.187)" fill="#b5c6de"/>
          <path id="Path_10" data-name="Path 10" d="M701.795,923.231a6.671,6.671,0,0,1,4.073-4.9c6.989-2.942,14.767.367,21.677,3.549,21.3,9.808,7.689,20.935,2.916,19.913-5.341-1.51-13.765-3.078-18.927-4.994-3.193-1.643-4.06-4.481-5.546-7.349C702.43,928.172,701.355,925.742,701.795,923.231Z" transform="translate(-701.702 -917.187)" fill="#b5c6de"/>
          <path id="Path_11" data-name="Path 11" d="M723.1,947.853c-6.736-3.1-14.3-6.321-21.146-3.757a5.98,5.98,0,0,0-.159.666c-.44,2.51.636,4.94,4.193,6.215,1.485,2.868,2.353,5.706,5.546,7.349,5.162,1.916,13.586,3.484,18.927,4.994a5.83,5.83,0,0,0,3.591-.746C735.878,958.639,734.41,953.06,723.1,947.853Z" transform="translate(-701.702 -938.717)" fill="#b5c6de" opacity="0.5" style="mix-blend-mode: multiply;isolation: isolate"/>
        </g>
        <path id="Path_13" data-name="Path 13" d="M957.714,1014.891h.163c10.911-.105,11.714-12.321.859-13.154q-.633-.049-1.284-.049H776.272l-81.537-26.4a12.649,12.649,0,0,0-7.013-.192c-4.875,1.272-5.2,6.443-.481,8.007l.076.025,84.319,27.3a12.5,12.5,0,0,0,4.154.585v3.879Z" transform="translate(-680.045 -941.456)" fill="#d1d4e3" style="mix-blend-mode: multiply;isolation: isolate"/>
        <path id="Path_12" data-name="Path 12" d="M765.039,1082.638l-1.623,6.15a1.13,1.13,0,0,1-1.381.8l-99.695-26.31a1.13,1.13,0,0,1-.8-1.381l1.623-6.15a1.13,1.13,0,0,1,1.381-.8l99.695,26.31A1.13,1.13,0,0,1,765.039,1082.638Z" transform="translate(-661.498 -1007.938)" fill="#1c3758"/>
        <rect id="Rectangle_1" data-name="Rectangle 1" width="285.478" height="10.507" transform="translate(7.412 77.813)" fill="#093424"/>
        <rect id="Rectangle_2" data-name="Rectangle 2" width="235.991" height="6.693" transform="translate(37.582 114.753)" fill="#1c3758"/>
        <rect id="Rectangle_3" data-name="Rectangle 3" width="4.849" height="27.211" transform="translate(71.599 88.321)" fill="#1c3758"/>
        <rect id="Rectangle_4" data-name="Rectangle 4" width="4.849" height="27.211" transform="translate(248.267 88.321)" fill="#1c3758"/>
        <g id="Group_3" data-name="Group 3" transform="translate(37.582 128.731)">
          <ellipse id="Ellipse_1" data-name="Ellipse 1" cx="9.122" cy="9.122" rx="9.122" ry="9.122" transform="translate(4.189 7.086)" fill="#233862"/>
          <path id="Path_14" data-name="Path 14" d="M940.03,1603.525a4.874,4.874,0,1,1-4.874-4.874A4.874,4.874,0,0,1,940.03,1603.525Z" transform="translate(-921.845 -1587.317)"/>
          <path id="Path_15" data-name="Path 15" d="M891.5,1545.029a7.623,7.623,0,0,0,4.5,7.007c4.855,2.466,4.855,4.855,4.855,4.855s-.47,3.68,2.193,3.759,2.819-3.368,2.584-6.186-2.349-5.716-2.78-6.42-.157-3.014-.157-3.014Z" transform="translate(-889.695 -1542.876)" fill="#c6dbd3"/>
          <rect id="Rectangle_5" data-name="Rectangle 5" width="13.937" height="3.21" fill="#8ab2d5"/>
        </g>
        <rect id="Rectangle_6" data-name="Rectangle 6" width="2.161" height="7.285" transform="translate(43.261 121.446)" fill="#1c3758"/>
        <g id="Group_4" data-name="Group 4" transform="translate(253.472 128.731)">
          <path id="Path_16" data-name="Path 16" d="M2184.688,1582.962a9.122,9.122,0,1,1-9.122-9.122A9.122,9.122,0,0,1,2184.688,1582.962Z" transform="translate(-2162.255 -1566.754)" fill="#233862"/>
          <path id="Path_17" data-name="Path 17" d="M2202,1603.525a4.874,4.874,0,1,1-4.875-4.874A4.875,4.875,0,0,1,2202,1603.525Z" transform="translate(-2183.646 -1587.317)"/>
          <path id="Path_18" data-name="Path 18" d="M2152.468,1545.029a7.622,7.622,0,0,0,4.5,7.007c4.854,2.466,4.854,4.855,4.854,4.855s-.469,3.68,2.193,3.759,2.461-3.63,2.225-6.449a14.742,14.742,0,0,0-2.421-6.157c-.43-.7-.156-3.014-.156-3.014Z" transform="translate(-2150.668 -1542.876)" fill="#c6dbd3"/>
          <rect id="Rectangle_7" data-name="Rectangle 7" width="13.937" height="3.21" fill="#8ab2d5"/>
        </g>
        <rect id="Rectangle_8" data-name="Rectangle 8" width="2.161" height="7.285" transform="translate(259.151 121.446)" fill="#1c3758"/>
        <path id="Path_19" data-name="Path 19" d="M781.562,1039.59l-96.306-28.074-1.569,2.811c-2.073,3.713.676,7.865,6.142,9.274l91.733,26.187H955.323c5.845,0,10.584-3.22,10.584-7.191v-3.006Z" transform="translate(-679.315 -971.974)" fill="#ada9bb"/>
        <rect id="Rectangle_9" data-name="Rectangle 9" width="8.621" height="56.712" rx="4.311" transform="translate(289.843 33.899)" fill="#1c3758"/>
        <rect id="Rectangle_10" data-name="Rectangle 10" width="8.621" height="33.138" rx="4.311" transform="translate(4.058 55.183)" fill="#1c3758"/>
        <g id="Group_141" data-name="Group 141" transform="translate(30.507 0)">
          <g id="Group_140" data-name="Group 140" transform="translate(0)">
            <g id="Group_138" data-name="Group 138" transform="translate(0)">
              <g id="Group_136" data-name="Group 136" transform="translate(46.747 27.295)">
                <path id="Path_229" data-name="Path 229" d="M167.573,214.229c-1.457,2.9-3.087,5.9-2.41,8.815,5.372,1.171,22.617,4.23,22.617,4.23s2.92-5.995,2.647-7.144C186.274,219.55,173.063,215.873,167.573,214.229Z" transform="translate(-149.153 -212.96)" fill="#ef8d6c"/>
                <path id="Path_230" data-name="Path 230" d="M151.692,213.025c-7.161-1.488-14.1-2.135-16.981-.891a6.488,6.488,0,0,0-4.078,5.242c-.292,2.093,18.43,7.1,19.208,2.321S151.692,213.025,151.692,213.025Z" transform="translate(-130.63 -211.477)" fill="#1c9b94"/>
                <g id="Group_134" data-name="Group 134" transform="translate(29.87 0.341)">
                  <path id="Path_256" data-name="Path 256" d="M195.4,215.611c.012-.146.164-.278.389-.4s.529-.244.856-.39.682-.3,1.024-.47.673-.354.969-.523.535-.3.741-.395a6.759,6.759,0,0,1,.967-.407c.308-.039.134.33.346.531a.755.755,0,0,1,.254.805,1.627,1.627,0,0,1-.365.61,3.5,3.5,0,0,1-.9.7,4.985,4.985,0,0,1-1.391.529,4.931,4.931,0,0,1-1.443.1,2.974,2.974,0,0,1-1.069-.27C195.525,215.9,195.391,215.757,195.4,215.611Z" transform="translate(-195.402 -212.654)" fill="#ef9354"/>
                  <path id="Path_257" data-name="Path 257" d="M199.382,218.774c.06.312.159.511.3.543s.316-.107.5-.361a8.17,8.17,0,0,0,.6-1.024c.211-.405.434-.849.669-1.262.061-.1.119-.2.178-.3l.089-.145.091-.141c.121-.185.244-.36.363-.52.065-.089.128-.17.187-.247-.011.043-.021.086-.032.131s-.025.112-.038.169-.024.115-.041.172c-.031.115-.062.232-.09.352s-.057.241-.083.364-.065.243-.1.364-.061.245-.089.368c-.013.061-.028.123-.046.182l-.05.178q-.048.178-.09.354c-.028.117-.053.232-.086.34-.061.219-.112.43-.15.625-.017.1-.042.188-.058.275s-.031.169-.041.246c-.039.308-.012.532.111.612s.33.006.595-.186c.066-.048.136-.1.208-.165a2.3,2.3,0,0,0,.221-.208c.145-.155.3-.336.457-.534a3.421,3.421,0,0,0,.227-.318c.073-.111.147-.226.22-.345l.11-.18a2.023,2.023,0,0,0,.1-.186q.1-.19.192-.386c.062-.13.125-.261.183-.393s.1-.269.15-.4.094-.267.137-.4c.023-.063.039-.127.055-.19a5.807,5.807,0,0,1-.031.619,7.545,7.545,0,0,1-.2,1.072c-.08.344-.191.646-.243.9s-.073.451.026.559.3.105.584,0a2.743,2.743,0,0,0,.929-.707,4.158,4.158,0,0,0,.794-1.347l.005-.017h0c.013.084.029.166.037.246.021.16.048.314.081.456a3.432,3.432,0,0,0,.1.381c.077.224.182.381.323.42s.3-.046.479-.228a2,2,0,0,0,.262-.343,4.839,4.839,0,0,0,.239-.466,2.361,2.361,0,0,0,.1-.27c.032-.093.062-.19.092-.289a4.3,4.3,0,0,0,.136-.616c.017-.105.034-.211.047-.317s.014-.211.018-.316.007-.208.007-.31-.01-.2-.018-.3a4.146,4.146,0,0,0-.074-.523c-.013-.054-.028-.106-.042-.156a3.074,3.074,0,0,0-2.564-2.314,4.742,4.742,0,0,0-4.956,2.006,8.213,8.213,0,0,0-.469.76l-.1.207-.091.211c-.055.141-.105.283-.154.425a7.071,7.071,0,0,0-.32,1.636A5.013,5.013,0,0,0,199.382,218.774Z" transform="translate(-197.514 -212.216)" fill="#ef8d6c"/>
                </g>
              </g>
              <path id="Path_231" data-name="Path 231" d="M11.3,25.923a31.273,31.273,0,0,0,8.042-1.783,10.538,10.538,0,0,0,5.9-5.468,11.727,11.727,0,0,1-6.486-9.759C13.749,9.534,5.012-.595,0,.028,6.267,16.372,10.734,19.846,11.3,25.923Z" transform="translate(21.217 32.27) rotate(-41)" fill="#ef8d6c"/>
              <path id="Path_232" data-name="Path 232" d="M11.3,25.923c2.731-.357-1.913-8.836.629-9.895s4.512.493,9.24-.7a11.6,11.6,0,0,1-2.411-6.411C13.749,9.534,5.012-.595,0,.028,6.267,16.372,10.734,19.846,11.3,25.923Z" transform="translate(21.217 32.731) rotate(-41)" fill="#ef9354"/>
              <path id="Path_233" data-name="Path 233" d="M182.385,218.908c-28.572,5.667-46.887-5.949-56.341-4.893,4.405,4.409-4.74,10.363-10.591,8.951-3.449,5.92-5.021,15.691,8.264,19.463s18.444,3.329,29.232,3.38c11.932.056,26.286,2.484,29.435,2.473C183.471,239.9,189.219,225.313,182.385,218.908Z" transform="translate(-74.407 -186.022)" fill="#00ac7d"/>
              <g id="Group_133" data-name="Group 133" transform="translate(0 23.646) rotate(-41)">
                <path id="Path_236" data-name="Path 236" d="M1.952,7.146C8.168-.268,18.5-1.454,21.609,1.49a27.562,27.562,0,0,1,4.133,5.092c.129.2.007.549.2.867.14.23.4.17.6.519.073.129,0,.389.139.646.06.112.436.245.557.484a9.635,9.635,0,0,1,1.034,2.989,10.219,10.219,0,0,0,.4,3.058c1.122,2.888,3.927,5.029,3.6,6.211-.493,1.769-1.882,1.534-1.841,2.118a1.749,1.749,0,0,0,.659,1.208c.17.66-.41,2.188.116,3.074-.284,1.757-.7,5.37-1.522,5.72-3.072,1.312-6.759,3.208-13.272,1.824-2.4-.51-2.361-5.021-2.921-7.877C8.245,22.621-4.944,15.37,1.952,7.146Z" transform="translate(3.749 1.105)" fill="#ef8d6c"/>
                <path id="Path_244" data-name="Path 244" d="M.928.592c-1.4,1.282-1.194,4.233.454,6.59S5.5,10.41,6.895,9.127s1.194-4.233-.454-6.59S2.325-.691.928.592Z" transform="translate(11.643 18.848)" fill="#ef8d6c"/>
                <path id="Path_245" data-name="Path 245" d="M.627.088C-.317.955-.18,2.948.933,4.539s2.78,2.18,3.723,1.314S1.57-.778.627.088Z" transform="translate(13.162 20.096)" fill="#ef9354"/>
                <g id="Group_135" data-name="Group 135" transform="translate(0 0)">
                  <path id="Path_243" data-name="Path 243" d="M17.2,18.11c-.549-1.692-1.643-3.759-1.887-4.959A20.887,20.887,0,0,1,15.062,11c-.008-.041-.033-.072-.044-.111a5.1,5.1,0,0,0,.228-.588A7.605,7.605,0,0,0,15.3,6.852,8.713,8.713,0,0,0,9.186.33C6.379-.408,4.763.261,4.079.7a1.221,1.221,0,0,0-.579.758c-.029-.03-.052-.066-.084-.094-.333-.285-.725-.423-1.676.39a10.3,10.3,0,0,0-.824.8A12.242,12.242,0,0,0,.019,3.9c-.333.539,3.638,18.663,14.343,25.588a.741.741,0,0,0,.193.032,2.823,2.823,0,0,0,.23.339c.513.582.977.719,1.108.572.168-.167.066-.576.009-1.106a6.066,6.066,0,0,1,.2-2.111l.4-1.394c.16-.548.342-1.086.464-1.678.1-.615.191-1.236.264-1.841.012-.351.005-.694-.006-1.031.2.116.358.161.468.1C18.08,21.163,17.793,19.8,17.2,18.11Z" transform="translate(0 6.222)" fill="#e6e6e6"/>
                  <path id="Path_251" data-name="Path 251" d="M25.076,1.129c-.092.108-.207.206-.305.313-.131-.024-.249-.043-.4-.081-1.006-.2-2.437-.591-4.147-.932A18.249,18.249,0,0,0,8.254,1.885,14.179,14.179,0,0,0,5.98,3.292,10.305,10.305,0,0,0,4.394,4.641c-.421.433-.765.813-1.044,1.144C3.2,6,3.079,6.2,2.972,6.378c.038-.157.077-.31.117-.5C3.275,5.37-.4,8.931.036,8.913a3.8,3.8,0,0,0,1.687-.06,1.51,1.51,0,0,0,.016.315,6.561,6.561,0,0,0,2.232,3.286,15.254,15.254,0,0,0,4.968,3.051,8.591,8.591,0,0,0,3.193,4.865,4.624,4.624,0,0,0,2.712.949A3.13,3.13,0,0,0,15.5,22a1.166,1.166,0,0,0,1.018.3,4.025,4.025,0,0,0,.672,1.343,5.634,5.634,0,0,0,.416.434,2.489,2.489,0,0,0,.4.218c.232.1.386.1.465,0a.612.612,0,0,0,.041-.489,3.021,3.021,0,0,0-.1-.366c-.019-.152-.046-.315-.08-.482a5.31,5.31,0,0,1-.058-.58,4.172,4.172,0,0,0,.136.712c.274.959.732,1.341.839,1.258.148-.1-.016-.615,0-1.469a9.124,9.124,0,0,1,.811-3.409c.281-.717.576-1.373.862-2.235a12.2,12.2,0,0,0,.733-2.611A9.482,9.482,0,0,0,21.089,9.5c-.03-.084-.074-.146-.107-.226a4.1,4.1,0,0,0,1.134-.057l.967-.163c.324-.1.653-.231.986-.358A9.121,9.121,0,0,0,25.984,7.64a9.4,9.4,0,0,0,2.751-3.29C29.3,3.113,26.958,1.381,25.076,1.129Z" transform="translate(1.18 0)" fill="#e6e6e6"/>
                </g>
              </g>
              <path id="Path_253" data-name="Path 253" d="M143.844,261.5c-2.072,3.14-3.051,6.259-2.164,6.843,1.549.131,8.755-7.955,8.947-11.345C150.284,256.69,145.916,258.358,143.844,261.5Z" transform="translate(-89.661 -206.846)" fill="#1c918b"/>
              <path id="Path_254" data-name="Path 254" d="M181.715,225.926a13.4,13.4,0,0,0-5.619,1.822c-1.26.822-1.488,3.283-3.645,4.967-7.26,5.667-18.733,13.552-18.733,13.552h0c-5.248-2.705-14.478-7.591-18.31-10.327-2.317,2.276-4.828,4.588-5.128,7.564,4.706,2.843,20.776,14.11,24.968,13.014,4.353-.146,20.9-20.963,20.9-20.963a7.689,7.689,0,0,0,3.309-1.033c1.314-.9,3.011-3.5,3.309-3.812.359-.37,2.45-.42,4.322-.26C188.628,230.414,184.283,226.219,181.715,225.926Z" transform="translate(-83.694 -190.118)" fill="#ef8d6c"/>
              <path id="Path_255" data-name="Path 255" d="M136.138,246.057c-5.432-4.9-11.1-8.956-14.212-9.337a6.488,6.488,0,0,0-6.165,2.469c-1.309,1.66-1.5,3.7-1.129,6.052.666,4.216,7.436,8.628,12.559,12.162a22.314,22.314,0,0,1,3.982-6.518C134.255,247.154,136.138,246.057,136.138,246.057Z" transform="translate(-75.172 -195.906)" fill="#00ac7d"/>
            </g>
            <path id="Path_151" data-name="Path 151" d="M627.285,3103.5c0-8.81-15.844-24.51-28.808-27.233-16.791-3.527-39.193-9.738-52.215-10.894-20.922-1.855-54.343-2.723-69.66.273,0,0-13.116,6.459-16.863,14.432s-2.706,24.88-2.706,24.88,21.86,1.1,43.094,0,90.578,2.277,101.195,1.658C601.322,3106.616,627.285,3105.679,627.285,3103.5Z" transform="translate(-378.943 -3040.217)" fill="#233862"/>
          </g>
          <g id="Group_139" data-name="Group 139" transform="translate(78.222 49.745)">
            <path id="Rectangle_11" data-name="Rectangle 11" d="M6.5,0h0a6.5,6.5,0,0,1,6.5,6.5V28.121a0,0,0,0,1,0,0H0a0,0,0,0,1,0,0V6.5A6.5,6.5,0,0,1,6.5,0Z" fill="#5b80ae"/>
            <ellipse id="Ellipse_2" data-name="Ellipse 2" cx="4.713" cy="4.713" rx="4.713" ry="4.713" transform="translate(1.79 2.655)" fill="#3f5978"/>
            <rect id="Rectangle_12" data-name="Rectangle 12" width="13.007" height="4.482" transform="translate(0 14.061)" fill="#8ab2d5" opacity="0.5" style="mix-blend-mode: multiply;isolation: isolate"/>
          </g>
        </g>
      </g>
      <g id="Group_143" data-name="Group 143" transform="translate(465.321 1621.935)">
        <g id="Group_69" data-name="Group 69" transform="translate(0 0)">
          <g id="Group_26" data-name="Group 26">
            <rect id="Rectangle_18" data-name="Rectangle 18" width="52.996" height="7.915" rx="3.958" transform="translate(0 1.552)" fill="#3a4ae9"/>
            <path id="Path_70" data-name="Path 70" d="M1533.7,18.886V14.594h-.465v4.292h-34.064V14.594h-.465v4.292h-4.273c-2.66,0-4.816,3.65-4.816,8.152h52.463c0-4.5-2.156-8.152-4.816-8.152Z" transform="translate(-1489.08 -14.594)" fill="#3a4ae9"/>
            <path id="Path_71" data-name="Path 71" d="M1604.007,60.138c0,1.741-2.317,3.152-5.175,3.152s-5.175-1.411-5.175-3.152" transform="translate(-1571.618 -47.694)" fill="#8996f1"/>
          </g>
          <g id="Group_27" data-name="Group 27" transform="translate(7.972 16.355)">
            <path id="Path_72" data-name="Path 72" d="M1584.694,136.207a6.759,6.759,0,0,1-.53.608.253.253,0,0,1-.369.036.293.293,0,0,1,.052-.394,5.879,5.879,0,0,0,.712-.88.3.3,0,0,1,.371-.131.262.262,0,0,1,.04.374C1584.884,135.949,1584.792,136.079,1584.694,136.207Zm.784-1.429a.312.312,0,0,1-.282.132.221.221,0,0,1-.151-.315,3.533,3.533,0,0,0,.189-1.02.361.361,0,0,1,.272-.33.2.2,0,0,1,.255.219,4.17,4.17,0,0,1-.223,1.207A.388.388,0,0,1,1585.478,134.778Zm-2.186,2.787a.385.385,0,0,1-.072.072,10.24,10.24,0,0,1-1.013.665.216.216,0,0,1-.333-.095.35.35,0,0,1,.17-.384,9.73,9.73,0,0,0,.945-.619.229.229,0,0,1,.352.039A.308.308,0,0,1,1583.292,137.565Zm-2,1.162a.359.359,0,0,1-.136.11c-.337.151-.7.293-1.068.423a.2.2,0,0,1-.289-.173.36.36,0,0,1,.235-.356c.355-.124.7-.259,1.018-.4a.209.209,0,0,1,.31.139A.33.33,0,0,1,1581.292,138.727Zm4.267-6.111a.355.355,0,0,1-.12.1.212.212,0,0,1-.322-.114,3.577,3.577,0,0,0-.367-.862.328.328,0,0,1,.109-.4.232.232,0,0,1,.356.026,3.985,3.985,0,0,1,.412.966A.325.325,0,0,1,1585.559,132.616Zm-6.364,6.841a.352.352,0,0,1-.184.127q-.533.136-1.074.234a.2.2,0,0,1-.247-.228.363.363,0,0,1,.279-.324c.348-.063.694-.137,1.036-.226a.2.2,0,0,1,.267.2A.344.344,0,0,1,1579.195,139.457Zm5.4-8.527c-.142.151-.307.17-.4.073a5.488,5.488,0,0,0-.68-.619c-.168-.13-.347-.254-.533-.371a.263.263,0,0,1-.033-.376.282.282,0,0,1,.371-.124,6.833,6.833,0,0,1,.564.391,5.78,5.78,0,0,1,.727.662A.287.287,0,0,1,1584.594,130.93Zm-7.5,8.906a.334.334,0,0,1-.223.133q-.53.056-1.057.075a.209.209,0,0,1-.207-.269.357.357,0,0,1,.311-.29c.339-.013.682-.037,1.023-.073a.207.207,0,0,1,.227.251A.369.369,0,0,1,1577.091,139.836Zm-2.069.075a.325.325,0,0,1-.256.135c-.346-.012-.688-.037-1.026-.074a.218.218,0,0,1-.165-.306.348.348,0,0,1,.336-.252q.49.054.992.072a.213.213,0,0,1,.186.289A.365.365,0,0,1,1575.022,139.911Zm7.479-10.456a.291.291,0,0,1-.337.115,9.162,9.162,0,0,0-.876-.352.238.238,0,0,1-.1-.348.318.318,0,0,1,.359-.19,9.422,9.422,0,0,1,.914.369.249.249,0,0,1,.068.362A.335.335,0,0,1,1582.5,129.455Zm-9.475,10.237a.311.311,0,0,1-.29.131q-.5-.094-.975-.226a.233.233,0,0,1-.117-.338.326.326,0,0,1,.354-.206c.305.085.62.158.941.219a.225.225,0,0,1,.142.321A.414.414,0,0,1,1573.026,139.692Zm7.645-10.874a.307.307,0,0,1-.3.129c-.31-.076-.628-.141-.952-.192a.222.222,0,0,1-.15-.317.338.338,0,0,1,.342-.238c.336.054.665.12.986.2a.23.23,0,0,1,.126.333A.427.427,0,0,1,1580.67,128.818Zm-9.526,10.346a.3.3,0,0,1-.326.12,9.048,9.048,0,0,1-.9-.4.254.254,0,0,1-.055-.367.3.3,0,0,1,.368-.148,8.686,8.686,0,0,0,.857.384.241.241,0,0,1,.088.352A.353.353,0,0,1,1571.145,139.164Zm7.56-10.662a.322.322,0,0,1-.267.134c-.329-.027-.663-.042-1-.046a.212.212,0,0,1-.193-.283.354.354,0,0,1,.318-.277c.348,0,.693.02,1.031.047a.216.216,0,0,1,.173.3A.369.369,0,0,1,1578.7,128.5Zm-9.254,9.78a.28.28,0,0,1-.365.1q-.142-.1-.278-.2a6.1,6.1,0,0,1-.483-.414.288.288,0,0,1,.027-.391.263.263,0,0,1,.372-.062,5.828,5.828,0,0,0,.454.389c.086.067.173.13.261.192a.27.27,0,0,1,.019.381Zm7.206-9.8a.332.332,0,0,1-.234.134c-.342.021-.685.053-1.026.1a.206.206,0,0,1-.235-.243.362.362,0,0,1,.291-.312q.531-.07,1.062-.1a.208.208,0,0,1,.214.264A.363.363,0,0,1,1576.657,128.482Zm-2.1.276a.346.346,0,0,1-.2.13q-.524.108-1.034.254a.2.2,0,0,1-.275-.194.363.363,0,0,1,.252-.345q.531-.153,1.076-.266a.2.2,0,0,1,.255.22A.347.347,0,0,1,1574.561,128.758Zm-6.475,8.2a.371.371,0,0,1-.049.053.241.241,0,0,1-.364,0,4.2,4.2,0,0,1-.488-.909.342.342,0,0,1,.158-.388.218.218,0,0,1,.337.081,3.842,3.842,0,0,0,.442.821A.3.3,0,0,1,1568.085,136.959Zm4.37-7.591a.367.367,0,0,1-.154.117c-.348.131-.688.278-1.011.437a.21.21,0,0,1-.318-.124.358.358,0,0,1,.2-.376c.34-.167.7-.322,1.064-.461a.207.207,0,0,1,.3.164A.341.341,0,0,1,1572.456,129.368Zm-5.061,5.722a.356.356,0,0,1-.168.121.2.2,0,0,1-.283-.181,3.928,3.928,0,0,1,.094-1.192.35.35,0,0,1,.321-.275.212.212,0,0,1,.19.286,3.32,3.32,0,0,0-.079,1.011A.344.344,0,0,1,1567.4,135.091Zm3.014-4.713a.378.378,0,0,1-.1.088,8.621,8.621,0,0,0-.919.662.236.236,0,0,1-.36-.016.315.315,0,0,1,.1-.4,9.447,9.447,0,0,1,.995-.717.219.219,0,0,1,.339.077A.318.318,0,0,1,1570.409,130.378Zm-2.508,2.515a.293.293,0,0,1-.331.118.246.246,0,0,1-.078-.358,4.229,4.229,0,0,1,.511-.779c.071-.092.147-.185.226-.277a.265.265,0,0,1,.372-.066.284.284,0,0,1-.024.39c-.073.085-.141.167-.209.257a4.916,4.916,0,0,0-.434.664A.466.466,0,0,1,1567.9,132.893Z" transform="translate(-1558.346 -122.873)" fill="#ff3144"/>
            <path id="Path_73" data-name="Path 73" d="M1596.366,108.93c-.1.124-.2.247-.315.369a.257.257,0,0,1-.37.046.291.291,0,0,1,.042-.394,3.69,3.69,0,0,0,.631-.889.307.307,0,0,1,.361-.186.24.24,0,0,1,.095.35A4.291,4.291,0,0,1,1596.366,108.93Zm-1.2,1.115a.381.381,0,0,1-.082.078,7.83,7.83,0,0,1-.811.494c-.075.04-.154.08-.234.119a.211.211,0,0,1-.318-.124.358.358,0,0,1,.2-.376c.072-.035.144-.072.215-.109a7.055,7.055,0,0,0,.739-.451.225.225,0,0,1,.349.055A.313.313,0,0,1,1595.169,110.044Zm1.911-2.862a.34.34,0,0,1-.208.131.2.2,0,0,1-.243-.234,2.318,2.318,0,0,0-.126-.935.347.347,0,0,1,.166-.385.216.216,0,0,1,.333.091,2.809,2.809,0,0,1,.153,1.143A.358.358,0,0,1,1597.081,107.182Zm-3.95,3.88a.363.363,0,0,1-.162.12,10.038,10.038,0,0,1-1.086.308.2.2,0,0,1-.259-.214.361.361,0,0,1,.268-.333,9.555,9.555,0,0,0,1.024-.291.205.205,0,0,1,.289.175A.34.34,0,0,1,1593.13,111.062Zm3.333-5.771c-.16.158-.324.166-.406.062a3.7,3.7,0,0,0-.648-.632,4.414,4.414,0,0,0-.363-.253.264.264,0,0,1-.03-.377.281.281,0,0,1,.371-.123,4.689,4.689,0,0,1,.392.275,4.053,4.053,0,0,1,.712.7A.293.293,0,0,1,1596.464,105.291Zm-5.441,6.254a.336.336,0,0,1-.219.133c-.352.044-.71.07-1.064.08a.209.209,0,0,1-.2-.272.352.352,0,0,1,.313-.287c.339-.009.681-.035,1.017-.076a.205.205,0,0,1,.231.246A.363.363,0,0,1,1591.023,111.545Zm-2.062.054a.321.321,0,0,1-.266.134,10.025,10.025,0,0,1-1.018-.127.223.223,0,0,1-.144-.32.336.336,0,0,1,.344-.233,9.608,9.608,0,0,0,.972.122.216.216,0,0,1,.175.3A.373.373,0,0,1,1588.961,111.6Zm5.6-7.674a.294.294,0,0,1-.33.118,7,7,0,0,0-.893-.307.232.232,0,0,1-.118-.337.326.326,0,0,1,.354-.208,7.5,7.5,0,0,1,.943.324.245.245,0,0,1,.079.358A.41.41,0,0,1,1594.557,103.925Zm-7.548,7.32a.3.3,0,0,1-.312.126,7.106,7.106,0,0,1-.929-.355.248.248,0,0,1-.067-.362.3.3,0,0,1,.366-.159,6.639,6.639,0,0,0,.877.334.235.235,0,0,1,.11.342A.356.356,0,0,1,1587.009,111.245Zm5.665-7.84a.314.314,0,0,1-.282.132,9.676,9.676,0,0,0-.981-.1.213.213,0,0,1-.182-.292.347.347,0,0,1,.325-.268,10.277,10.277,0,0,1,1.024.1.222.222,0,0,1,.153.315A.386.386,0,0,1,1592.675,103.406Zm-7.4,7.022a.279.279,0,0,1-.366.1c-.064-.045-.128-.092-.19-.139a4.289,4.289,0,0,1-.557-.512.293.293,0,0,1,.049-.394.254.254,0,0,1,.37-.039,3.814,3.814,0,0,0,.507.465q.086.066.178.13a.271.271,0,0,1,.016.381Zm5.366-7.12a.329.329,0,0,1-.237.134c-.339.017-.682.05-1.02.1a.205.205,0,0,1-.238-.238.361.361,0,0,1,.287-.317c.354-.052.714-.088,1.069-.1a.208.208,0,0,1,.21.267A.373.373,0,0,1,1590.645,103.307Zm-2.1.313a.347.347,0,0,1-.186.126,9.791,9.791,0,0,0-1.021.32.205.205,0,0,1-.3-.163.363.363,0,0,1,.228-.361,10.069,10.069,0,0,1,1.083-.339.2.2,0,0,1,.267.2A.349.349,0,0,1,1588.546,103.62Zm-4.521,5.38a.361.361,0,0,1-.086.081.223.223,0,0,1-.345-.06,2.807,2.807,0,0,1-.255-1.091.361.361,0,0,1,.255-.343.2.2,0,0,1,.272.2,2.357,2.357,0,0,0,.214.906A.313.313,0,0,1,1584.025,109Zm2.436-4.583a.37.37,0,0,1-.116.1,6.985,6.985,0,0,0-.937.6.229.229,0,0,1-.353-.034.322.322,0,0,1,.117-.395,7.6,7.6,0,0,1,1.031-.659.212.212,0,0,1,.325.109A.326.326,0,0,1,1586.461,104.416Zm-2.471,2.476a.308.308,0,0,1-.3.13.227.227,0,0,1-.132-.328,4.278,4.278,0,0,1,.678-1.126.269.269,0,0,1,.373-.077.284.284,0,0,1-.013.389l-.089.111a3.337,3.337,0,0,0-.468.81A.35.35,0,0,1,1583.99,106.893Z" transform="translate(-1571.388 -102.881)" fill="#ff3144"/>
            <path id="Path_74" data-name="Path 74" d="M1554.738,168.183c-.061.079-.123.158-.188.237a.27.27,0,0,1-.373.081.3.3,0,0,1,.01-.388,9.178,9.178,0,0,0,.678-.941.3.3,0,0,1,.37-.14.256.256,0,0,1,.049.37C1555.118,167.666,1554.934,167.929,1554.738,168.183Zm-1,1.117c-.32.319-.627.6-.95.86a.235.235,0,0,1-.359-.018.32.32,0,0,1,.1-.4c.306-.251.6-.512.866-.775a.249.249,0,0,1,.368-.027A.29.29,0,0,1,1553.743,169.3Zm2.084-2.924a.3.3,0,0,1-.308.127.232.232,0,0,1-.115-.338,7,7,0,0,0,.367-1.053.348.348,0,0,1,.327-.266.215.215,0,0,1,.181.293,7.652,7.652,0,0,1-.4,1.159A.383.383,0,0,1,1555.828,166.376Zm-3.922,4.435a.359.359,0,0,1-.083.079c-.32.223-.659.439-1,.644a.216.216,0,0,1-.334-.089.342.342,0,0,1,.166-.385c.332-.2.656-.4.964-.617a.224.224,0,0,1,.347.057A.312.312,0,0,1,1551.905,170.81Zm4.495-6.657a.339.339,0,0,1-.21.131.2.2,0,0,1-.241-.234,5.687,5.687,0,0,0-.015-1.033.364.364,0,0,1,.235-.357.206.206,0,0,1,.291.172,6.28,6.28,0,0,1,.015,1.134A.358.358,0,0,1,1556.4,164.153ZM1549.91,172a.365.365,0,0,1-.122.1q-.513.262-1.045.5a.209.209,0,0,1-.309-.142.36.36,0,0,1,.209-.37q.515-.227,1.013-.481a.211.211,0,0,1,.321.117A.328.328,0,0,1,1549.91,172Zm-2.072.916a.362.362,0,0,1-.153.117q-.525.2-1.064.373a.2.2,0,0,1-.283-.181.364.364,0,0,1,.242-.352q.524-.17,1.035-.364a.206.206,0,0,1,.3.163A.339.339,0,0,1,1547.838,172.913Zm8.346-10.864a.367.367,0,0,1-.117.1.213.213,0,0,1-.325-.111,6,6,0,0,0-.342-.906.338.338,0,0,1,.136-.392.225.225,0,0,1,.348.057,6.489,6.489,0,0,1,.366.972A.326.326,0,0,1,1556.184,162.049Zm-10.45,11.543a.346.346,0,0,1-.181.125c-.352.1-.709.184-1.067.264a.2.2,0,0,1-.259-.215.364.364,0,0,1,.269-.333q.525-.117,1.043-.257a.2.2,0,0,1,.271.2A.35.35,0,0,1,1545.735,173.593Zm9.617-13.334a.368.368,0,0,1-.054.057.238.238,0,0,1-.361-.008,7.606,7.606,0,0,0-.568-.749.3.3,0,0,1,.056-.395.251.251,0,0,1,.369-.031,8.034,8.034,0,0,1,.6.787A.3.3,0,0,1,1555.352,160.258Zm-11.726,13.807a.344.344,0,0,1-.2.131q-.53.094-1.063.165a.2.2,0,0,1-.234-.242.359.359,0,0,1,.29-.313q.52-.07,1.039-.162a.205.205,0,0,1,.247.23A.36.36,0,0,1,1543.626,174.065Zm10.483-15.264c-.124.144-.291.173-.387.083q-.331-.309-.711-.6a.26.26,0,0,1-.037-.333.266.266,0,0,1-.332.06c-.253-.179-.516-.348-.787-.509a.261.261,0,0,1-.04-.375.29.29,0,0,1,.371-.131q.421.25.812.526a.258.258,0,0,1,.044.338.263.263,0,0,1,.338-.055c.264.2.509.413.739.626A.283.283,0,0,1,1554.108,158.8Zm-12.579,15.545a.334.334,0,0,1-.227.134q-.525.047-1.05.074a.208.208,0,0,1-.21-.266.354.354,0,0,1,.307-.293c.342-.017.686-.041,1.03-.073a.207.207,0,0,1,.223.255A.359.359,0,0,1,1541.529,174.346Zm-2.074.1a.327.327,0,0,1-.247.135c-.346,0-.691,0-1.034-.014a.214.214,0,0,1-.186-.289.351.351,0,0,1,.323-.271c.337.011.675.016,1.015.014a.211.211,0,0,1,.2.278A.358.358,0,0,1,1539.455,174.449Zm11.913-17.514a.289.289,0,0,1-.342.113q-.419-.209-.861-.395a.245.245,0,0,1-.08-.357.315.315,0,0,1,.365-.17c.3.127.6.262.884.4a.253.253,0,0,1,.06.366A.435.435,0,0,1,1551.368,156.935Zm-13.95,17.444a.319.319,0,0,1-.267.134q-.51-.039-1.012-.1a.219.219,0,0,1-.16-.309.345.345,0,0,1,.337-.248q.492.061.992.1a.215.215,0,0,1,.174.3A.361.361,0,0,1,1537.418,174.379Zm12.175-18.191a.3.3,0,0,1-.319.123q-.45-.158-.916-.292a.233.233,0,0,1-.114-.339.322.322,0,0,1,.355-.2q.478.138.936.3a.239.239,0,0,1,.1.349A.379.379,0,0,1,1549.592,156.188Zm-14.167,17.947a.313.313,0,0,1-.286.132q-.5-.084-.982-.19a.227.227,0,0,1-.133-.327.332.332,0,0,1,.349-.222c.316.069.637.131.962.186a.223.223,0,0,1,.147.318A.358.358,0,0,1,1535.425,174.135Zm12.291-18.489a.309.309,0,0,1-.3.129q-.471-.109-.958-.2a.223.223,0,0,1-.143-.321.332.332,0,0,1,.344-.232c.331.06.656.128.977.2a.229.229,0,0,1,.13.33A.393.393,0,0,1,1547.716,155.646ZM1533.5,173.711a.306.306,0,0,1-.306.127q-.48-.132-.943-.286a.238.238,0,0,1-.1-.347.319.319,0,0,1,.359-.192c.3.1.61.194.922.28a.232.232,0,0,1,.118.337A.386.386,0,0,1,1533.5,173.711Zm12.264-18.421a.315.315,0,0,1-.278.133q-.491-.066-.989-.11a.217.217,0,0,1-.171-.3.346.346,0,0,1,.332-.257q.509.045,1.009.112a.22.22,0,0,1,.157.311A.356.356,0,0,1,1545.763,155.29Zm-14.105,17.8a.3.3,0,0,1-.328.12q-.459-.184-.893-.392a.25.25,0,0,1-.065-.363.3.3,0,0,1,.368-.157c.281.135.572.262.869.381a.244.244,0,0,1,.085.355A.444.444,0,0,1,1531.658,173.095Zm12.1-17.983a.324.324,0,0,1-.26.134q-.5-.024-1.011-.025a.21.21,0,0,1-.2-.28.352.352,0,0,1,.317-.279q.519,0,1.033.025a.213.213,0,0,1,.182.291A.365.365,0,0,1,1543.753,155.111Zm-13.825,17.155a.287.287,0,0,1-.35.109q-.427-.242-.822-.509a.268.268,0,0,1-.022-.38.291.291,0,0,1,.372-.113q.384.259.8.493a.258.258,0,0,1,.045.372C1529.942,172.248,1529.935,172.258,1529.928,172.267Zm11.771-17.161a.333.333,0,0,1-.239.135q-.513.019-1.028.062a.207.207,0,0,1-.219-.258.355.355,0,0,1,.3-.3c.35-.028.7-.048,1.048-.063a.21.21,0,0,1,.208.27A.367.367,0,0,1,1541.7,155.106ZM1528.354,171.2a.275.275,0,0,1-.376.091q-.389-.315-.724-.645a.3.3,0,0,1,.032-.392.262.262,0,0,1,.371-.057q.323.318.7.622A.278.278,0,0,1,1528.354,171.2Zm11.264-15.926a.338.338,0,0,1-.219.133q-.521.063-1.04.149a.2.2,0,0,1-.243-.233.364.364,0,0,1,.283-.32c.354-.058.707-.11,1.061-.153a.206.206,0,0,1,.231.246A.357.357,0,0,1,1539.618,155.274ZM1527,169.859c-.156.157-.321.167-.4.064a7.689,7.689,0,0,1-.574-.809.318.318,0,0,1,.1-.4.234.234,0,0,1,.358.02,7.3,7.3,0,0,0,.543.768A.292.292,0,0,1,1527,169.859Zm10.511-14.235a.348.348,0,0,1-.2.129q-.523.111-1.043.244a.2.2,0,0,1-.268-.2.363.363,0,0,1,.26-.34c.353-.092.709-.176,1.066-.251a.2.2,0,0,1,.256.219A.347.347,0,0,1,1537.513,155.624Zm-2.109.547a.354.354,0,0,1-.172.122q-.522.162-1.036.348a.2.2,0,0,1-.292-.167.36.36,0,0,1,.231-.359q.525-.193,1.065-.358a.2.2,0,0,1,.279.187A.345.345,0,0,1,1535.4,156.172Zm-9.411,12.024a.373.373,0,0,1-.091.084.22.22,0,0,1-.342-.07,6.335,6.335,0,0,1-.329-1,.357.357,0,0,1,.2-.375.21.21,0,0,1,.317.126,5.966,5.966,0,0,0,.306.926A.315.315,0,0,1,1525.993,168.2Zm7.316-11.261a.351.351,0,0,1-.142.112c-.344.147-.684.3-1.017.466a.21.21,0,0,1-.318-.124.354.354,0,0,1,.194-.376q.517-.254,1.049-.48a.207.207,0,0,1,.305.146A.334.334,0,0,1,1533.309,156.935Zm-7.789,9.261a.353.353,0,0,1-.172.123.2.2,0,0,1-.279-.187,6.286,6.286,0,0,1,.036-1.148.361.361,0,0,1,.3-.306.207.207,0,0,1,.227.251,5.689,5.689,0,0,0-.034,1.042A.344.344,0,0,1,1525.52,166.2Zm5.739-8.249a.347.347,0,0,1-.108.095q-.507.292-.972.6a.222.222,0,0,1-.343-.066.338.338,0,0,1,.145-.391q.482-.322,1.012-.623a.214.214,0,0,1,.33.1A.321.321,0,0,1,1531.259,157.948Zm-5.467,6.036a.317.317,0,0,1-.273.133.217.217,0,0,1-.165-.3,7.748,7.748,0,0,1,.454-1.151.321.321,0,0,1,.361-.188.24.24,0,0,1,.1.349,7,7,0,0,0-.413,1.042A.362.362,0,0,1,1525.792,163.984Zm3.518-4.735a.408.408,0,0,1-.066.067c-.314.246-.612.5-.883.755a.245.245,0,0,1-.366.014.316.316,0,0,1,.073-.4c.287-.269.6-.537.932-.8a.232.232,0,0,1,.356.028A.3.3,0,0,1,1529.31,159.249Zm-2.482,2.6a.283.283,0,0,1-.357.1.263.263,0,0,1-.034-.375c.116-.173.241-.343.374-.516s.254-.32.393-.479a.264.264,0,0,1,.372-.065.281.281,0,0,1-.026.391c-.136.157-.266.317-.387.474s-.22.3-.321.445A.171.171,0,0,1,1526.828,161.849Z" transform="translate(-1525.057 -144.044)" fill="#ff3144"/>
          </g>
        </g>
        <line id="Line_1" data-name="Line 1" x2="52.715" transform="translate(0.14 4.458)" fill="none" stroke="#d4d4d4" stroke-width="0.3"/>
        <line id="Line_4" data-name="Line 4" x2="50.833" transform="translate(1.081 3.517)" fill="none" stroke="#d4d4d4" stroke-width="0.3"/>
        <line id="Line_2" data-name="Line 2" x2="52.715" transform="translate(0.14 6.341)" fill="none" stroke="#d4d4d4" stroke-width="0.3"/>
        <line id="Line_3" data-name="Line 3" x2="52.715" transform="translate(0.14 5.399)" fill="none" stroke="#d4d4d4" stroke-width="0.3"/>
      </g>
    </g>
  </g>
</svg>
