<svg xmlns="http://www.w3.org/2000/svg" xmlns:xlink="http://www.w3.org/1999/xlink" width="29.23" height="29.23" viewBox="0 0 29.23 29.23">
  <defs>
    <style>
      .cls-1 {
        fill: url(#linear-gradient);
      }

      .cls-2 {
        fill: url(#linear-gradient-2);
      }

      .cls-3 {
        fill: url(#linear-gradient-3);
      }
    </style>
    <linearGradient id="linear-gradient" x1="-0.344" y1="1.344" x2="1.196" y2="-0.196" gradientUnits="objectBoundingBox">
      <stop offset="0" stop-color="#fee411"/>
      <stop offset="0.052" stop-color="#fedb16"/>
      <stop offset="0.138" stop-color="#fec125"/>
      <stop offset="0.248" stop-color="#fe983d"/>
      <stop offset="0.376" stop-color="#fe5f5e"/>
      <stop offset="0.5" stop-color="#fe2181"/>
      <stop offset="1" stop-color="#9000dc"/>
    </linearGradient>
    <linearGradient id="linear-gradient-2" x1="-5.198" y1="6.198" x2="1.347" y2="-0.347" xlink:href="#linear-gradient"/>
    <linearGradient id="linear-gradient-3" x1="0.069" y1="0.931" x2="0.856" y2="0.144" xlink:href="#linear-gradient"/>
  </defs>
  <g id="instagram_5_" data-name="instagram (5)" transform="translate(-84.12 -84.12)">
    <path id="Path_546" data-name="Path 546" class="cls-1" d="M176.856,184.141a7.466,7.466,0,1,1,7.466-7.466A7.474,7.474,0,0,1,176.856,184.141Zm0-11.828a4.363,4.363,0,1,0,4.363,4.363A4.368,4.368,0,0,0,176.856,172.313Z" transform="translate(-78.02 -77.855)"/>
    <circle id="Ellipse_77" data-name="Ellipse 77" class="cls-2" cx="1.757" cy="1.757" r="1.757" transform="translate(104.453 89.608)"/>
    <path id="Path_547" data-name="Path 547" class="cls-3" d="M104.989,113.35H92.481a8.37,8.37,0,0,1-8.361-8.361V92.481a8.37,8.37,0,0,1,8.361-8.361H104.99a8.37,8.37,0,0,1,8.361,8.361V104.99A8.372,8.372,0,0,1,104.989,113.35ZM92.481,87.222a5.264,5.264,0,0,0-5.258,5.258v12.509a5.264,5.264,0,0,0,5.258,5.258H104.99a5.264,5.264,0,0,0,5.258-5.258V92.481a5.264,5.264,0,0,0-5.258-5.258H92.481Z" transform="translate(0)"/>
  </g>
</svg>
