<svg id="plug" xmlns="http://www.w3.org/2000/svg" xmlns:xlink="http://www.w3.org/1999/xlink" width="70" height="70" viewBox="0 0 70 70">
  <defs>
    <linearGradient id="linear-gradient" x1="0.5" y1="1" x2="0.5" gradientUnits="objectBoundingBox">
      <stop offset="0" stop-color="#addcff"/>
      <stop offset="0.503" stop-color="#eaf6ff"/>
      <stop offset="1" stop-color="#eaf6ff"/>
    </linearGradient>
    <linearGradient id="linear-gradient-2" x1="0.5" y1="1" x2="0.5" gradientUnits="objectBoundingBox">
      <stop offset="0" stop-color="#00a2ff"/>
      <stop offset="1" stop-color="#5558ff"/>
    </linearGradient>
  </defs>
  <g id="Group_388" data-name="Group 388">
    <circle id="Ellipse_55" data-name="Ellipse 55" cx="35" cy="35" r="35" fill="url(#linear-gradient)"/>
  </g>
  <g id="Group_391" data-name="Group 391" transform="translate(17.432 14.355)">
    <g id="Group_390" data-name="Group 390">
      <g id="Group_389" data-name="Group 389">
        <path id="Path_532" data-name="Path 532" d="M155.369,126.859a7.286,7.286,0,0,0-7.27,7.286V139a4.846,4.846,0,1,1-9.693,0v-4.858h2.423a1.212,1.212,0,0,0,1.212-1.214v-4.355l4.492-4.5a1.215,1.215,0,0,0,.355-.859V113.5a1.212,1.212,0,0,0-1.212-1.214h-3.635v-6.072a1.212,1.212,0,1,0-2.423,0v6.072h-4.846v-6.072a1.212,1.212,0,1,0-2.423,0v6.072h-3.635A1.212,1.212,0,0,0,127.5,113.5v9.715a1.215,1.215,0,0,0,.355.859l4.492,4.5v4.355a1.212,1.212,0,0,0,1.212,1.214h2.423V139a7.27,7.27,0,1,0,14.539,0v-4.858a4.846,4.846,0,1,1,9.693,0v10.929a1.212,1.212,0,1,0,2.423,0V134.145A7.286,7.286,0,0,0,155.369,126.859Zm-19.386-7.286a1.214,1.214,0,0,1,0-2.429h2.423a1.214,1.214,0,0,1,0,2.429Z" transform="translate(-127.502 -105)" fill="url(#linear-gradient-2)"/>
      </g>
    </g>
  </g>
</svg>
